G04 #@! TF.GenerationSoftware,KiCad,Pcbnew,(5.99.0-2039-g05a89863c)*
G04 #@! TF.CreationDate,2020-06-29T23:33:07-06:00*
G04 #@! TF.ProjectId,gfx,6766782e-6b69-4636-9164-5f7063625858,rev?*
G04 #@! TF.SameCoordinates,Original*
G04 #@! TF.FileFunction,Legend,Bot*
G04 #@! TF.FilePolarity,Positive*
%FSLAX46Y46*%
G04 Gerber Fmt 4.6, Leading zero omitted, Abs format (unit mm)*
G04 Created by KiCad (PCBNEW (5.99.0-2039-g05a89863c)) date 2020-06-29 23:33:07*
%MOMM*%
%LPD*%
G01*
G04 APERTURE LIST*
%ADD10C,0.200000*%
%ADD11C,0.152400*%
%ADD12C,0.120000*%
%ADD13O,1.600000X1.600000*%
%ADD14C,1.600000*%
%ADD15R,1.600000X1.600000*%
%ADD16C,0.800000*%
%ADD17C,6.400000*%
%ADD18R,1.300000X1.300000*%
%ADD19C,1.300000*%
%ADD20C,2.800000*%
%ADD21C,1.700000*%
%ADD22R,1.700000X1.700000*%
%ADD23O,2.400000X1.600000*%
%ADD24R,2.400000X1.600000*%
%ADD25C,2.000000*%
%ADD26C,1.270000*%
G04 APERTURE END LIST*
D10*
X238476904Y-108757619D02*
X238429285Y-108710000D01*
X238334047Y-108662380D01*
X238095952Y-108662380D01*
X238000714Y-108710000D01*
X237953095Y-108757619D01*
X237905476Y-108852857D01*
X237905476Y-108948095D01*
X237953095Y-109090952D01*
X238524523Y-109662380D01*
X237905476Y-109662380D01*
X237334047Y-109090952D02*
X237429285Y-109043333D01*
X237476904Y-108995714D01*
X237524523Y-108900476D01*
X237524523Y-108852857D01*
X237476904Y-108757619D01*
X237429285Y-108710000D01*
X237334047Y-108662380D01*
X237143571Y-108662380D01*
X237048333Y-108710000D01*
X237000714Y-108757619D01*
X236953095Y-108852857D01*
X236953095Y-108900476D01*
X237000714Y-108995714D01*
X237048333Y-109043333D01*
X237143571Y-109090952D01*
X237334047Y-109090952D01*
X237429285Y-109138571D01*
X237476904Y-109186190D01*
X237524523Y-109281428D01*
X237524523Y-109471904D01*
X237476904Y-109567142D01*
X237429285Y-109614761D01*
X237334047Y-109662380D01*
X237143571Y-109662380D01*
X237048333Y-109614761D01*
X237000714Y-109567142D01*
X236953095Y-109471904D01*
X236953095Y-109281428D01*
X237000714Y-109186190D01*
X237048333Y-109138571D01*
X237143571Y-109090952D01*
X238476904Y-106217619D02*
X238429285Y-106170000D01*
X238334047Y-106122380D01*
X238095952Y-106122380D01*
X238000714Y-106170000D01*
X237953095Y-106217619D01*
X237905476Y-106312857D01*
X237905476Y-106408095D01*
X237953095Y-106550952D01*
X238524523Y-107122380D01*
X237905476Y-107122380D01*
X237572142Y-106122380D02*
X236905476Y-106122380D01*
X237334047Y-107122380D01*
X238476904Y-101137619D02*
X238429285Y-101090000D01*
X238334047Y-101042380D01*
X238095952Y-101042380D01*
X238000714Y-101090000D01*
X237953095Y-101137619D01*
X237905476Y-101232857D01*
X237905476Y-101328095D01*
X237953095Y-101470952D01*
X238524523Y-102042380D01*
X237905476Y-102042380D01*
X237000714Y-101042380D02*
X237476904Y-101042380D01*
X237524523Y-101518571D01*
X237476904Y-101470952D01*
X237381666Y-101423333D01*
X237143571Y-101423333D01*
X237048333Y-101470952D01*
X237000714Y-101518571D01*
X236953095Y-101613809D01*
X236953095Y-101851904D01*
X237000714Y-101947142D01*
X237048333Y-101994761D01*
X237143571Y-102042380D01*
X237381666Y-102042380D01*
X237476904Y-101994761D01*
X237524523Y-101947142D01*
X238476904Y-103677619D02*
X238429285Y-103630000D01*
X238334047Y-103582380D01*
X238095952Y-103582380D01*
X238000714Y-103630000D01*
X237953095Y-103677619D01*
X237905476Y-103772857D01*
X237905476Y-103868095D01*
X237953095Y-104010952D01*
X238524523Y-104582380D01*
X237905476Y-104582380D01*
X237048333Y-103582380D02*
X237238809Y-103582380D01*
X237334047Y-103630000D01*
X237381666Y-103677619D01*
X237476904Y-103820476D01*
X237524523Y-104010952D01*
X237524523Y-104391904D01*
X237476904Y-104487142D01*
X237429285Y-104534761D01*
X237334047Y-104582380D01*
X237143571Y-104582380D01*
X237048333Y-104534761D01*
X237000714Y-104487142D01*
X236953095Y-104391904D01*
X236953095Y-104153809D01*
X237000714Y-104058571D01*
X237048333Y-104010952D01*
X237143571Y-103963333D01*
X237334047Y-103963333D01*
X237429285Y-104010952D01*
X237476904Y-104058571D01*
X237524523Y-104153809D01*
X237429285Y-41082380D02*
X238000714Y-41082380D01*
X237715000Y-41082380D02*
X237715000Y-40082380D01*
X237810238Y-40225238D01*
X237905476Y-40320476D01*
X238000714Y-40368095D01*
X238000714Y-42717619D02*
X237953095Y-42670000D01*
X237857857Y-42622380D01*
X237619761Y-42622380D01*
X237524523Y-42670000D01*
X237476904Y-42717619D01*
X237429285Y-42812857D01*
X237429285Y-42908095D01*
X237476904Y-43050952D01*
X238048333Y-43622380D01*
X237429285Y-43622380D01*
X238048333Y-45162380D02*
X237429285Y-45162380D01*
X237762619Y-45543333D01*
X237619761Y-45543333D01*
X237524523Y-45590952D01*
X237476904Y-45638571D01*
X237429285Y-45733809D01*
X237429285Y-45971904D01*
X237476904Y-46067142D01*
X237524523Y-46114761D01*
X237619761Y-46162380D01*
X237905476Y-46162380D01*
X238000714Y-46114761D01*
X238048333Y-46067142D01*
X244938095Y-122076666D02*
X244461904Y-122076666D01*
X245033333Y-122362380D02*
X244700000Y-121362380D01*
X244366666Y-122362380D01*
X242088571Y-121838571D02*
X241945714Y-121886190D01*
X241898095Y-121933809D01*
X241850476Y-122029047D01*
X241850476Y-122171904D01*
X241898095Y-122267142D01*
X241945714Y-122314761D01*
X242040952Y-122362380D01*
X242421904Y-122362380D01*
X242421904Y-121362380D01*
X242088571Y-121362380D01*
X241993333Y-121410000D01*
X241945714Y-121457619D01*
X241898095Y-121552857D01*
X241898095Y-121648095D01*
X241945714Y-121743333D01*
X241993333Y-121790952D01*
X242088571Y-121838571D01*
X242421904Y-121838571D01*
X239310476Y-122267142D02*
X239358095Y-122314761D01*
X239500952Y-122362380D01*
X239596190Y-122362380D01*
X239739047Y-122314761D01*
X239834285Y-122219523D01*
X239881904Y-122124285D01*
X239929523Y-121933809D01*
X239929523Y-121790952D01*
X239881904Y-121600476D01*
X239834285Y-121505238D01*
X239739047Y-121410000D01*
X239596190Y-121362380D01*
X239500952Y-121362380D01*
X239358095Y-121410000D01*
X239310476Y-121457619D01*
X237905476Y-74102380D02*
X238476904Y-74102380D01*
X238191190Y-74102380D02*
X238191190Y-73102380D01*
X238286428Y-73245238D01*
X238381666Y-73340476D01*
X238476904Y-73388095D01*
X237048333Y-73435714D02*
X237048333Y-74102380D01*
X237286428Y-73054761D02*
X237524523Y-73769047D01*
X236905476Y-73769047D01*
X237905476Y-76642380D02*
X238476904Y-76642380D01*
X238191190Y-76642380D02*
X238191190Y-75642380D01*
X238286428Y-75785238D01*
X238381666Y-75880476D01*
X238476904Y-75928095D01*
X237000714Y-75642380D02*
X237476904Y-75642380D01*
X237524523Y-76118571D01*
X237476904Y-76070952D01*
X237381666Y-76023333D01*
X237143571Y-76023333D01*
X237048333Y-76070952D01*
X237000714Y-76118571D01*
X236953095Y-76213809D01*
X236953095Y-76451904D01*
X237000714Y-76547142D01*
X237048333Y-76594761D01*
X237143571Y-76642380D01*
X237381666Y-76642380D01*
X237476904Y-76594761D01*
X237524523Y-76547142D01*
X238524523Y-113742380D02*
X237905476Y-113742380D01*
X238238809Y-114123333D01*
X238095952Y-114123333D01*
X238000714Y-114170952D01*
X237953095Y-114218571D01*
X237905476Y-114313809D01*
X237905476Y-114551904D01*
X237953095Y-114647142D01*
X238000714Y-114694761D01*
X238095952Y-114742380D01*
X238381666Y-114742380D01*
X238476904Y-114694761D01*
X238524523Y-114647142D01*
X237286428Y-113742380D02*
X237191190Y-113742380D01*
X237095952Y-113790000D01*
X237048333Y-113837619D01*
X237000714Y-113932857D01*
X236953095Y-114123333D01*
X236953095Y-114361428D01*
X237000714Y-114551904D01*
X237048333Y-114647142D01*
X237095952Y-114694761D01*
X237191190Y-114742380D01*
X237286428Y-114742380D01*
X237381666Y-114694761D01*
X237429285Y-114647142D01*
X237476904Y-114551904D01*
X237524523Y-114361428D01*
X237524523Y-114123333D01*
X237476904Y-113932857D01*
X237429285Y-113837619D01*
X237381666Y-113790000D01*
X237286428Y-113742380D01*
X238524523Y-116282380D02*
X237905476Y-116282380D01*
X238238809Y-116663333D01*
X238095952Y-116663333D01*
X238000714Y-116710952D01*
X237953095Y-116758571D01*
X237905476Y-116853809D01*
X237905476Y-117091904D01*
X237953095Y-117187142D01*
X238000714Y-117234761D01*
X238095952Y-117282380D01*
X238381666Y-117282380D01*
X238476904Y-117234761D01*
X238524523Y-117187142D01*
X236953095Y-117282380D02*
X237524523Y-117282380D01*
X237238809Y-117282380D02*
X237238809Y-116282380D01*
X237334047Y-116425238D01*
X237429285Y-116520476D01*
X237524523Y-116568095D01*
X238476904Y-111297619D02*
X238429285Y-111250000D01*
X238334047Y-111202380D01*
X238095952Y-111202380D01*
X238000714Y-111250000D01*
X237953095Y-111297619D01*
X237905476Y-111392857D01*
X237905476Y-111488095D01*
X237953095Y-111630952D01*
X238524523Y-112202380D01*
X237905476Y-112202380D01*
X237429285Y-112202380D02*
X237238809Y-112202380D01*
X237143571Y-112154761D01*
X237095952Y-112107142D01*
X237000714Y-111964285D01*
X236953095Y-111773809D01*
X236953095Y-111392857D01*
X237000714Y-111297619D01*
X237048333Y-111250000D01*
X237143571Y-111202380D01*
X237334047Y-111202380D01*
X237429285Y-111250000D01*
X237476904Y-111297619D01*
X237524523Y-111392857D01*
X237524523Y-111630952D01*
X237476904Y-111726190D01*
X237429285Y-111773809D01*
X237334047Y-111821428D01*
X237143571Y-111821428D01*
X237048333Y-111773809D01*
X237000714Y-111726190D01*
X236953095Y-111630952D01*
X237524523Y-48035714D02*
X237524523Y-48702380D01*
X237762619Y-47654761D02*
X238000714Y-48369047D01*
X237381666Y-48369047D01*
X237476904Y-50242380D02*
X237953095Y-50242380D01*
X238000714Y-50718571D01*
X237953095Y-50670952D01*
X237857857Y-50623333D01*
X237619761Y-50623333D01*
X237524523Y-50670952D01*
X237476904Y-50718571D01*
X237429285Y-50813809D01*
X237429285Y-51051904D01*
X237476904Y-51147142D01*
X237524523Y-51194761D01*
X237619761Y-51242380D01*
X237857857Y-51242380D01*
X237953095Y-51194761D01*
X238000714Y-51147142D01*
X237524523Y-52782380D02*
X237715000Y-52782380D01*
X237810238Y-52830000D01*
X237857857Y-52877619D01*
X237953095Y-53020476D01*
X238000714Y-53210952D01*
X238000714Y-53591904D01*
X237953095Y-53687142D01*
X237905476Y-53734761D01*
X237810238Y-53782380D01*
X237619761Y-53782380D01*
X237524523Y-53734761D01*
X237476904Y-53687142D01*
X237429285Y-53591904D01*
X237429285Y-53353809D01*
X237476904Y-53258571D01*
X237524523Y-53210952D01*
X237619761Y-53163333D01*
X237810238Y-53163333D01*
X237905476Y-53210952D01*
X237953095Y-53258571D01*
X238000714Y-53353809D01*
X238048333Y-55322380D02*
X237381666Y-55322380D01*
X237810238Y-56322380D01*
X237810238Y-58290952D02*
X237905476Y-58243333D01*
X237953095Y-58195714D01*
X238000714Y-58100476D01*
X238000714Y-58052857D01*
X237953095Y-57957619D01*
X237905476Y-57910000D01*
X237810238Y-57862380D01*
X237619761Y-57862380D01*
X237524523Y-57910000D01*
X237476904Y-57957619D01*
X237429285Y-58052857D01*
X237429285Y-58100476D01*
X237476904Y-58195714D01*
X237524523Y-58243333D01*
X237619761Y-58290952D01*
X237810238Y-58290952D01*
X237905476Y-58338571D01*
X237953095Y-58386190D01*
X238000714Y-58481428D01*
X238000714Y-58671904D01*
X237953095Y-58767142D01*
X237905476Y-58814761D01*
X237810238Y-58862380D01*
X237619761Y-58862380D01*
X237524523Y-58814761D01*
X237476904Y-58767142D01*
X237429285Y-58671904D01*
X237429285Y-58481428D01*
X237476904Y-58386190D01*
X237524523Y-58338571D01*
X237619761Y-58290952D01*
X237905476Y-61402380D02*
X237715000Y-61402380D01*
X237619761Y-61354761D01*
X237572142Y-61307142D01*
X237476904Y-61164285D01*
X237429285Y-60973809D01*
X237429285Y-60592857D01*
X237476904Y-60497619D01*
X237524523Y-60450000D01*
X237619761Y-60402380D01*
X237810238Y-60402380D01*
X237905476Y-60450000D01*
X237953095Y-60497619D01*
X238000714Y-60592857D01*
X238000714Y-60830952D01*
X237953095Y-60926190D01*
X237905476Y-60973809D01*
X237810238Y-61021428D01*
X237619761Y-61021428D01*
X237524523Y-60973809D01*
X237476904Y-60926190D01*
X237429285Y-60830952D01*
X237905476Y-63942380D02*
X238476904Y-63942380D01*
X238191190Y-63942380D02*
X238191190Y-62942380D01*
X238286428Y-63085238D01*
X238381666Y-63180476D01*
X238476904Y-63228095D01*
X237286428Y-62942380D02*
X237191190Y-62942380D01*
X237095952Y-62990000D01*
X237048333Y-63037619D01*
X237000714Y-63132857D01*
X236953095Y-63323333D01*
X236953095Y-63561428D01*
X237000714Y-63751904D01*
X237048333Y-63847142D01*
X237095952Y-63894761D01*
X237191190Y-63942380D01*
X237286428Y-63942380D01*
X237381666Y-63894761D01*
X237429285Y-63847142D01*
X237476904Y-63751904D01*
X237524523Y-63561428D01*
X237524523Y-63323333D01*
X237476904Y-63132857D01*
X237429285Y-63037619D01*
X237381666Y-62990000D01*
X237286428Y-62942380D01*
X237905476Y-66482380D02*
X238476904Y-66482380D01*
X238191190Y-66482380D02*
X238191190Y-65482380D01*
X238286428Y-65625238D01*
X238381666Y-65720476D01*
X238476904Y-65768095D01*
X236953095Y-66482380D02*
X237524523Y-66482380D01*
X237238809Y-66482380D02*
X237238809Y-65482380D01*
X237334047Y-65625238D01*
X237429285Y-65720476D01*
X237524523Y-65768095D01*
X237905476Y-69022380D02*
X238476904Y-69022380D01*
X238191190Y-69022380D02*
X238191190Y-68022380D01*
X238286428Y-68165238D01*
X238381666Y-68260476D01*
X238476904Y-68308095D01*
X237524523Y-68117619D02*
X237476904Y-68070000D01*
X237381666Y-68022380D01*
X237143571Y-68022380D01*
X237048333Y-68070000D01*
X237000714Y-68117619D01*
X236953095Y-68212857D01*
X236953095Y-68308095D01*
X237000714Y-68450952D01*
X237572142Y-69022380D01*
X236953095Y-69022380D01*
X237905476Y-71562380D02*
X238476904Y-71562380D01*
X238191190Y-71562380D02*
X238191190Y-70562380D01*
X238286428Y-70705238D01*
X238381666Y-70800476D01*
X238476904Y-70848095D01*
X237572142Y-70562380D02*
X236953095Y-70562380D01*
X237286428Y-70943333D01*
X237143571Y-70943333D01*
X237048333Y-70990952D01*
X237000714Y-71038571D01*
X236953095Y-71133809D01*
X236953095Y-71371904D01*
X237000714Y-71467142D01*
X237048333Y-71514761D01*
X237143571Y-71562380D01*
X237429285Y-71562380D01*
X237524523Y-71514761D01*
X237572142Y-71467142D01*
X239310476Y-38447142D02*
X239358095Y-38494761D01*
X239500952Y-38542380D01*
X239596190Y-38542380D01*
X239739047Y-38494761D01*
X239834285Y-38399523D01*
X239881904Y-38304285D01*
X239929523Y-38113809D01*
X239929523Y-37970952D01*
X239881904Y-37780476D01*
X239834285Y-37685238D01*
X239739047Y-37590000D01*
X239596190Y-37542380D01*
X239500952Y-37542380D01*
X239358095Y-37590000D01*
X239310476Y-37637619D01*
X242088571Y-38018571D02*
X241945714Y-38066190D01*
X241898095Y-38113809D01*
X241850476Y-38209047D01*
X241850476Y-38351904D01*
X241898095Y-38447142D01*
X241945714Y-38494761D01*
X242040952Y-38542380D01*
X242421904Y-38542380D01*
X242421904Y-37542380D01*
X242088571Y-37542380D01*
X241993333Y-37590000D01*
X241945714Y-37637619D01*
X241898095Y-37732857D01*
X241898095Y-37828095D01*
X241945714Y-37923333D01*
X241993333Y-37970952D01*
X242088571Y-38018571D01*
X242421904Y-38018571D01*
X244938095Y-38256666D02*
X244461904Y-38256666D01*
X245033333Y-38542380D02*
X244700000Y-37542380D01*
X244366666Y-38542380D01*
X238524523Y-118822380D02*
X237905476Y-118822380D01*
X238238809Y-119203333D01*
X238095952Y-119203333D01*
X238000714Y-119250952D01*
X237953095Y-119298571D01*
X237905476Y-119393809D01*
X237905476Y-119631904D01*
X237953095Y-119727142D01*
X238000714Y-119774761D01*
X238095952Y-119822380D01*
X238381666Y-119822380D01*
X238476904Y-119774761D01*
X238524523Y-119727142D01*
X237524523Y-118917619D02*
X237476904Y-118870000D01*
X237381666Y-118822380D01*
X237143571Y-118822380D01*
X237048333Y-118870000D01*
X237000714Y-118917619D01*
X236953095Y-119012857D01*
X236953095Y-119108095D01*
X237000714Y-119250952D01*
X237572142Y-119822380D01*
X236953095Y-119822380D01*
X237905476Y-79182380D02*
X238476904Y-79182380D01*
X238191190Y-79182380D02*
X238191190Y-78182380D01*
X238286428Y-78325238D01*
X238381666Y-78420476D01*
X238476904Y-78468095D01*
X237048333Y-78182380D02*
X237238809Y-78182380D01*
X237334047Y-78230000D01*
X237381666Y-78277619D01*
X237476904Y-78420476D01*
X237524523Y-78610952D01*
X237524523Y-78991904D01*
X237476904Y-79087142D01*
X237429285Y-79134761D01*
X237334047Y-79182380D01*
X237143571Y-79182380D01*
X237048333Y-79134761D01*
X237000714Y-79087142D01*
X236953095Y-78991904D01*
X236953095Y-78753809D01*
X237000714Y-78658571D01*
X237048333Y-78610952D01*
X237143571Y-78563333D01*
X237334047Y-78563333D01*
X237429285Y-78610952D01*
X237476904Y-78658571D01*
X237524523Y-78753809D01*
X237905476Y-81722380D02*
X238476904Y-81722380D01*
X238191190Y-81722380D02*
X238191190Y-80722380D01*
X238286428Y-80865238D01*
X238381666Y-80960476D01*
X238476904Y-81008095D01*
X237572142Y-80722380D02*
X236905476Y-80722380D01*
X237334047Y-81722380D01*
X237905476Y-84262380D02*
X238476904Y-84262380D01*
X238191190Y-84262380D02*
X238191190Y-83262380D01*
X238286428Y-83405238D01*
X238381666Y-83500476D01*
X238476904Y-83548095D01*
X237334047Y-83690952D02*
X237429285Y-83643333D01*
X237476904Y-83595714D01*
X237524523Y-83500476D01*
X237524523Y-83452857D01*
X237476904Y-83357619D01*
X237429285Y-83310000D01*
X237334047Y-83262380D01*
X237143571Y-83262380D01*
X237048333Y-83310000D01*
X237000714Y-83357619D01*
X236953095Y-83452857D01*
X236953095Y-83500476D01*
X237000714Y-83595714D01*
X237048333Y-83643333D01*
X237143571Y-83690952D01*
X237334047Y-83690952D01*
X237429285Y-83738571D01*
X237476904Y-83786190D01*
X237524523Y-83881428D01*
X237524523Y-84071904D01*
X237476904Y-84167142D01*
X237429285Y-84214761D01*
X237334047Y-84262380D01*
X237143571Y-84262380D01*
X237048333Y-84214761D01*
X237000714Y-84167142D01*
X236953095Y-84071904D01*
X236953095Y-83881428D01*
X237000714Y-83786190D01*
X237048333Y-83738571D01*
X237143571Y-83690952D01*
X237905476Y-86802380D02*
X238476904Y-86802380D01*
X238191190Y-86802380D02*
X238191190Y-85802380D01*
X238286428Y-85945238D01*
X238381666Y-86040476D01*
X238476904Y-86088095D01*
X237429285Y-86802380D02*
X237238809Y-86802380D01*
X237143571Y-86754761D01*
X237095952Y-86707142D01*
X237000714Y-86564285D01*
X236953095Y-86373809D01*
X236953095Y-85992857D01*
X237000714Y-85897619D01*
X237048333Y-85850000D01*
X237143571Y-85802380D01*
X237334047Y-85802380D01*
X237429285Y-85850000D01*
X237476904Y-85897619D01*
X237524523Y-85992857D01*
X237524523Y-86230952D01*
X237476904Y-86326190D01*
X237429285Y-86373809D01*
X237334047Y-86421428D01*
X237143571Y-86421428D01*
X237048333Y-86373809D01*
X237000714Y-86326190D01*
X236953095Y-86230952D01*
X238476904Y-88437619D02*
X238429285Y-88390000D01*
X238334047Y-88342380D01*
X238095952Y-88342380D01*
X238000714Y-88390000D01*
X237953095Y-88437619D01*
X237905476Y-88532857D01*
X237905476Y-88628095D01*
X237953095Y-88770952D01*
X238524523Y-89342380D01*
X237905476Y-89342380D01*
X237286428Y-88342380D02*
X237191190Y-88342380D01*
X237095952Y-88390000D01*
X237048333Y-88437619D01*
X237000714Y-88532857D01*
X236953095Y-88723333D01*
X236953095Y-88961428D01*
X237000714Y-89151904D01*
X237048333Y-89247142D01*
X237095952Y-89294761D01*
X237191190Y-89342380D01*
X237286428Y-89342380D01*
X237381666Y-89294761D01*
X237429285Y-89247142D01*
X237476904Y-89151904D01*
X237524523Y-88961428D01*
X237524523Y-88723333D01*
X237476904Y-88532857D01*
X237429285Y-88437619D01*
X237381666Y-88390000D01*
X237286428Y-88342380D01*
X238476904Y-90977619D02*
X238429285Y-90930000D01*
X238334047Y-90882380D01*
X238095952Y-90882380D01*
X238000714Y-90930000D01*
X237953095Y-90977619D01*
X237905476Y-91072857D01*
X237905476Y-91168095D01*
X237953095Y-91310952D01*
X238524523Y-91882380D01*
X237905476Y-91882380D01*
X236953095Y-91882380D02*
X237524523Y-91882380D01*
X237238809Y-91882380D02*
X237238809Y-90882380D01*
X237334047Y-91025238D01*
X237429285Y-91120476D01*
X237524523Y-91168095D01*
X238476904Y-93517619D02*
X238429285Y-93470000D01*
X238334047Y-93422380D01*
X238095952Y-93422380D01*
X238000714Y-93470000D01*
X237953095Y-93517619D01*
X237905476Y-93612857D01*
X237905476Y-93708095D01*
X237953095Y-93850952D01*
X238524523Y-94422380D01*
X237905476Y-94422380D01*
X237524523Y-93517619D02*
X237476904Y-93470000D01*
X237381666Y-93422380D01*
X237143571Y-93422380D01*
X237048333Y-93470000D01*
X237000714Y-93517619D01*
X236953095Y-93612857D01*
X236953095Y-93708095D01*
X237000714Y-93850952D01*
X237572142Y-94422380D01*
X236953095Y-94422380D01*
X238476904Y-96057619D02*
X238429285Y-96010000D01*
X238334047Y-95962380D01*
X238095952Y-95962380D01*
X238000714Y-96010000D01*
X237953095Y-96057619D01*
X237905476Y-96152857D01*
X237905476Y-96248095D01*
X237953095Y-96390952D01*
X238524523Y-96962380D01*
X237905476Y-96962380D01*
X237572142Y-95962380D02*
X236953095Y-95962380D01*
X237286428Y-96343333D01*
X237143571Y-96343333D01*
X237048333Y-96390952D01*
X237000714Y-96438571D01*
X236953095Y-96533809D01*
X236953095Y-96771904D01*
X237000714Y-96867142D01*
X237048333Y-96914761D01*
X237143571Y-96962380D01*
X237429285Y-96962380D01*
X237524523Y-96914761D01*
X237572142Y-96867142D01*
X238476904Y-98597619D02*
X238429285Y-98550000D01*
X238334047Y-98502380D01*
X238095952Y-98502380D01*
X238000714Y-98550000D01*
X237953095Y-98597619D01*
X237905476Y-98692857D01*
X237905476Y-98788095D01*
X237953095Y-98930952D01*
X238524523Y-99502380D01*
X237905476Y-99502380D01*
X237048333Y-98835714D02*
X237048333Y-99502380D01*
X237286428Y-98454761D02*
X237524523Y-99169047D01*
X236905476Y-99169047D01*
D11*
X210732914Y-81950285D02*
X210771619Y-81988990D01*
X210887733Y-82027695D01*
X210965142Y-82027695D01*
X211081257Y-81988990D01*
X211158666Y-81911580D01*
X211197371Y-81834171D01*
X211236076Y-81679352D01*
X211236076Y-81563238D01*
X211197371Y-81408419D01*
X211158666Y-81331009D01*
X211081257Y-81253600D01*
X210965142Y-81214895D01*
X210887733Y-81214895D01*
X210771619Y-81253600D01*
X210732914Y-81292304D01*
X210384571Y-82027695D02*
X210384571Y-81214895D01*
X210191047Y-81214895D01*
X210074933Y-81253600D01*
X209997523Y-81331009D01*
X209958819Y-81408419D01*
X209920114Y-81563238D01*
X209920114Y-81679352D01*
X209958819Y-81834171D01*
X209997523Y-81911580D01*
X210074933Y-81988990D01*
X210191047Y-82027695D01*
X210384571Y-82027695D01*
X209223428Y-81485828D02*
X209223428Y-82027695D01*
X209416952Y-81176190D02*
X209610476Y-81756761D01*
X209107314Y-81756761D01*
X208410628Y-81214895D02*
X208797676Y-81214895D01*
X208836380Y-81601942D01*
X208797676Y-81563238D01*
X208720266Y-81524533D01*
X208526742Y-81524533D01*
X208449333Y-81563238D01*
X208410628Y-81601942D01*
X208371923Y-81679352D01*
X208371923Y-81872876D01*
X208410628Y-81950285D01*
X208449333Y-81988990D01*
X208526742Y-82027695D01*
X208720266Y-82027695D01*
X208797676Y-81988990D01*
X208836380Y-81950285D01*
X201842914Y-42580285D02*
X201881619Y-42618990D01*
X201997733Y-42657695D01*
X202075142Y-42657695D01*
X202191257Y-42618990D01*
X202268666Y-42541580D01*
X202307371Y-42464171D01*
X202346076Y-42309352D01*
X202346076Y-42193238D01*
X202307371Y-42038419D01*
X202268666Y-41961009D01*
X202191257Y-41883600D01*
X202075142Y-41844895D01*
X201997733Y-41844895D01*
X201881619Y-41883600D01*
X201842914Y-41922304D01*
X201494571Y-42657695D02*
X201494571Y-41844895D01*
X201301047Y-41844895D01*
X201184933Y-41883600D01*
X201107523Y-41961009D01*
X201068819Y-42038419D01*
X201030114Y-42193238D01*
X201030114Y-42309352D01*
X201068819Y-42464171D01*
X201107523Y-42541580D01*
X201184933Y-42618990D01*
X201301047Y-42657695D01*
X201494571Y-42657695D01*
X200333428Y-42115828D02*
X200333428Y-42657695D01*
X200526952Y-41806190D02*
X200720476Y-42386761D01*
X200217314Y-42386761D01*
X199559333Y-42115828D02*
X199559333Y-42657695D01*
X199752857Y-41806190D02*
X199946380Y-42386761D01*
X199443219Y-42386761D01*
X212764914Y-71030285D02*
X212803619Y-71068990D01*
X212919733Y-71107695D01*
X212997142Y-71107695D01*
X213113257Y-71068990D01*
X213190666Y-70991580D01*
X213229371Y-70914171D01*
X213268076Y-70759352D01*
X213268076Y-70643238D01*
X213229371Y-70488419D01*
X213190666Y-70411009D01*
X213113257Y-70333600D01*
X212997142Y-70294895D01*
X212919733Y-70294895D01*
X212803619Y-70333600D01*
X212764914Y-70372304D01*
X212416571Y-71107695D02*
X212416571Y-70294895D01*
X212223047Y-70294895D01*
X212106933Y-70333600D01*
X212029523Y-70411009D01*
X211990819Y-70488419D01*
X211952114Y-70643238D01*
X211952114Y-70759352D01*
X211990819Y-70914171D01*
X212029523Y-70991580D01*
X212106933Y-71068990D01*
X212223047Y-71107695D01*
X212416571Y-71107695D01*
X211255428Y-70565828D02*
X211255428Y-71107695D01*
X211448952Y-70256190D02*
X211642476Y-70836761D01*
X211139314Y-70836761D01*
X210868380Y-70372304D02*
X210829676Y-70333600D01*
X210752266Y-70294895D01*
X210558742Y-70294895D01*
X210481333Y-70333600D01*
X210442628Y-70372304D01*
X210403923Y-70449714D01*
X210403923Y-70527123D01*
X210442628Y-70643238D01*
X210907085Y-71107695D01*
X210403923Y-71107695D01*
X203874914Y-31660285D02*
X203913619Y-31698990D01*
X204029733Y-31737695D01*
X204107142Y-31737695D01*
X204223257Y-31698990D01*
X204300666Y-31621580D01*
X204339371Y-31544171D01*
X204378076Y-31389352D01*
X204378076Y-31273238D01*
X204339371Y-31118419D01*
X204300666Y-31041009D01*
X204223257Y-30963600D01*
X204107142Y-30924895D01*
X204029733Y-30924895D01*
X203913619Y-30963600D01*
X203874914Y-31002304D01*
X203526571Y-31737695D02*
X203526571Y-30924895D01*
X203333047Y-30924895D01*
X203216933Y-30963600D01*
X203139523Y-31041009D01*
X203100819Y-31118419D01*
X203062114Y-31273238D01*
X203062114Y-31389352D01*
X203100819Y-31544171D01*
X203139523Y-31621580D01*
X203216933Y-31698990D01*
X203333047Y-31737695D01*
X203526571Y-31737695D01*
X202365428Y-31195828D02*
X202365428Y-31737695D01*
X202558952Y-30886190D02*
X202752476Y-31466761D01*
X202249314Y-31466761D01*
X201513923Y-31737695D02*
X201978380Y-31737695D01*
X201746152Y-31737695D02*
X201746152Y-30924895D01*
X201823561Y-31041009D01*
X201900971Y-31118419D01*
X201978380Y-31157123D01*
X140374914Y-107860285D02*
X140413619Y-107898990D01*
X140529733Y-107937695D01*
X140607142Y-107937695D01*
X140723257Y-107898990D01*
X140800666Y-107821580D01*
X140839371Y-107744171D01*
X140878076Y-107589352D01*
X140878076Y-107473238D01*
X140839371Y-107318419D01*
X140800666Y-107241009D01*
X140723257Y-107163600D01*
X140607142Y-107124895D01*
X140529733Y-107124895D01*
X140413619Y-107163600D01*
X140374914Y-107202304D01*
X140026571Y-107937695D02*
X140026571Y-107124895D01*
X139833047Y-107124895D01*
X139716933Y-107163600D01*
X139639523Y-107241009D01*
X139600819Y-107318419D01*
X139562114Y-107473238D01*
X139562114Y-107589352D01*
X139600819Y-107744171D01*
X139639523Y-107821580D01*
X139716933Y-107898990D01*
X139833047Y-107937695D01*
X140026571Y-107937695D01*
X139252476Y-107202304D02*
X139213771Y-107163600D01*
X139136361Y-107124895D01*
X138942838Y-107124895D01*
X138865428Y-107163600D01*
X138826723Y-107202304D01*
X138788019Y-107279714D01*
X138788019Y-107357123D01*
X138826723Y-107473238D01*
X139291180Y-107937695D01*
X138788019Y-107937695D01*
X138013923Y-107937695D02*
X138478380Y-107937695D01*
X138246152Y-107937695D02*
X138246152Y-107124895D01*
X138323561Y-107241009D01*
X138400971Y-107318419D01*
X138478380Y-107357123D01*
X139987866Y-79920285D02*
X140026571Y-79958990D01*
X140142685Y-79997695D01*
X140220095Y-79997695D01*
X140336209Y-79958990D01*
X140413619Y-79881580D01*
X140452323Y-79804171D01*
X140491028Y-79649352D01*
X140491028Y-79533238D01*
X140452323Y-79378419D01*
X140413619Y-79301009D01*
X140336209Y-79223600D01*
X140220095Y-79184895D01*
X140142685Y-79184895D01*
X140026571Y-79223600D01*
X139987866Y-79262304D01*
X139639523Y-79997695D02*
X139639523Y-79184895D01*
X139446000Y-79184895D01*
X139329885Y-79223600D01*
X139252476Y-79301009D01*
X139213771Y-79378419D01*
X139175066Y-79533238D01*
X139175066Y-79649352D01*
X139213771Y-79804171D01*
X139252476Y-79881580D01*
X139329885Y-79958990D01*
X139446000Y-79997695D01*
X139639523Y-79997695D01*
X138478380Y-79184895D02*
X138633200Y-79184895D01*
X138710609Y-79223600D01*
X138749314Y-79262304D01*
X138826723Y-79378419D01*
X138865428Y-79533238D01*
X138865428Y-79842876D01*
X138826723Y-79920285D01*
X138788019Y-79958990D01*
X138710609Y-79997695D01*
X138555790Y-79997695D01*
X138478380Y-79958990D01*
X138439676Y-79920285D01*
X138400971Y-79842876D01*
X138400971Y-79649352D01*
X138439676Y-79571942D01*
X138478380Y-79533238D01*
X138555790Y-79494533D01*
X138710609Y-79494533D01*
X138788019Y-79533238D01*
X138826723Y-79571942D01*
X138865428Y-79649352D01*
X231175285Y-40346085D02*
X231213990Y-40307380D01*
X231252695Y-40191266D01*
X231252695Y-40113857D01*
X231213990Y-39997742D01*
X231136580Y-39920333D01*
X231059171Y-39881628D01*
X230904352Y-39842923D01*
X230788238Y-39842923D01*
X230633419Y-39881628D01*
X230556009Y-39920333D01*
X230478600Y-39997742D01*
X230439895Y-40113857D01*
X230439895Y-40191266D01*
X230478600Y-40307380D01*
X230517304Y-40346085D01*
X231252695Y-40694428D02*
X230439895Y-40694428D01*
X230439895Y-40887952D01*
X230478600Y-41004066D01*
X230556009Y-41081476D01*
X230633419Y-41120180D01*
X230788238Y-41158885D01*
X230904352Y-41158885D01*
X231059171Y-41120180D01*
X231136580Y-41081476D01*
X231213990Y-41004066D01*
X231252695Y-40887952D01*
X231252695Y-40694428D01*
X230517304Y-41468523D02*
X230478600Y-41507228D01*
X230439895Y-41584638D01*
X230439895Y-41778161D01*
X230478600Y-41855571D01*
X230517304Y-41894276D01*
X230594714Y-41932980D01*
X230672123Y-41932980D01*
X230788238Y-41894276D01*
X231252695Y-41429819D01*
X231252695Y-41932980D01*
X230439895Y-42436142D02*
X230439895Y-42513552D01*
X230478600Y-42590961D01*
X230517304Y-42629666D01*
X230594714Y-42668371D01*
X230749533Y-42707076D01*
X230943057Y-42707076D01*
X231097876Y-42668371D01*
X231175285Y-42629666D01*
X231213990Y-42590961D01*
X231252695Y-42513552D01*
X231252695Y-42436142D01*
X231213990Y-42358733D01*
X231175285Y-42320028D01*
X231097876Y-42281323D01*
X230943057Y-42242619D01*
X230749533Y-42242619D01*
X230594714Y-42281323D01*
X230517304Y-42320028D01*
X230478600Y-42358733D01*
X230439895Y-42436142D01*
X216574914Y-100240285D02*
X216613619Y-100278990D01*
X216729733Y-100317695D01*
X216807142Y-100317695D01*
X216923257Y-100278990D01*
X217000666Y-100201580D01*
X217039371Y-100124171D01*
X217078076Y-99969352D01*
X217078076Y-99853238D01*
X217039371Y-99698419D01*
X217000666Y-99621009D01*
X216923257Y-99543600D01*
X216807142Y-99504895D01*
X216729733Y-99504895D01*
X216613619Y-99543600D01*
X216574914Y-99582304D01*
X216226571Y-100317695D02*
X216226571Y-99504895D01*
X216033047Y-99504895D01*
X215916933Y-99543600D01*
X215839523Y-99621009D01*
X215800819Y-99698419D01*
X215762114Y-99853238D01*
X215762114Y-99969352D01*
X215800819Y-100124171D01*
X215839523Y-100201580D01*
X215916933Y-100278990D01*
X216033047Y-100317695D01*
X216226571Y-100317695D01*
X214988019Y-100317695D02*
X215452476Y-100317695D01*
X215220247Y-100317695D02*
X215220247Y-99504895D01*
X215297657Y-99621009D01*
X215375066Y-99698419D01*
X215452476Y-99737123D01*
X214600971Y-100317695D02*
X214446152Y-100317695D01*
X214368742Y-100278990D01*
X214330038Y-100240285D01*
X214252628Y-100124171D01*
X214213923Y-99969352D01*
X214213923Y-99659714D01*
X214252628Y-99582304D01*
X214291333Y-99543600D01*
X214368742Y-99504895D01*
X214523561Y-99504895D01*
X214600971Y-99543600D01*
X214639676Y-99582304D01*
X214678380Y-99659714D01*
X214678380Y-99853238D01*
X214639676Y-99930647D01*
X214600971Y-99969352D01*
X214523561Y-100008057D01*
X214368742Y-100008057D01*
X214291333Y-99969352D01*
X214252628Y-99930647D01*
X214213923Y-99853238D01*
X205144914Y-100240285D02*
X205183619Y-100278990D01*
X205299733Y-100317695D01*
X205377142Y-100317695D01*
X205493257Y-100278990D01*
X205570666Y-100201580D01*
X205609371Y-100124171D01*
X205648076Y-99969352D01*
X205648076Y-99853238D01*
X205609371Y-99698419D01*
X205570666Y-99621009D01*
X205493257Y-99543600D01*
X205377142Y-99504895D01*
X205299733Y-99504895D01*
X205183619Y-99543600D01*
X205144914Y-99582304D01*
X204796571Y-100317695D02*
X204796571Y-99504895D01*
X204603047Y-99504895D01*
X204486933Y-99543600D01*
X204409523Y-99621009D01*
X204370819Y-99698419D01*
X204332114Y-99853238D01*
X204332114Y-99969352D01*
X204370819Y-100124171D01*
X204409523Y-100201580D01*
X204486933Y-100278990D01*
X204603047Y-100317695D01*
X204796571Y-100317695D01*
X203558019Y-100317695D02*
X204022476Y-100317695D01*
X203790247Y-100317695D02*
X203790247Y-99504895D01*
X203867657Y-99621009D01*
X203945066Y-99698419D01*
X204022476Y-99737123D01*
X203093561Y-99853238D02*
X203170971Y-99814533D01*
X203209676Y-99775828D01*
X203248380Y-99698419D01*
X203248380Y-99659714D01*
X203209676Y-99582304D01*
X203170971Y-99543600D01*
X203093561Y-99504895D01*
X202938742Y-99504895D01*
X202861333Y-99543600D01*
X202822628Y-99582304D01*
X202783923Y-99659714D01*
X202783923Y-99698419D01*
X202822628Y-99775828D01*
X202861333Y-99814533D01*
X202938742Y-99853238D01*
X203093561Y-99853238D01*
X203170971Y-99891942D01*
X203209676Y-99930647D01*
X203248380Y-100008057D01*
X203248380Y-100162876D01*
X203209676Y-100240285D01*
X203170971Y-100278990D01*
X203093561Y-100317695D01*
X202938742Y-100317695D01*
X202861333Y-100278990D01*
X202822628Y-100240285D01*
X202783923Y-100162876D01*
X202783923Y-100008057D01*
X202822628Y-99930647D01*
X202861333Y-99891942D01*
X202938742Y-99853238D01*
X192698914Y-90080285D02*
X192737619Y-90118990D01*
X192853733Y-90157695D01*
X192931142Y-90157695D01*
X193047257Y-90118990D01*
X193124666Y-90041580D01*
X193163371Y-89964171D01*
X193202076Y-89809352D01*
X193202076Y-89693238D01*
X193163371Y-89538419D01*
X193124666Y-89461009D01*
X193047257Y-89383600D01*
X192931142Y-89344895D01*
X192853733Y-89344895D01*
X192737619Y-89383600D01*
X192698914Y-89422304D01*
X192350571Y-90157695D02*
X192350571Y-89344895D01*
X192157047Y-89344895D01*
X192040933Y-89383600D01*
X191963523Y-89461009D01*
X191924819Y-89538419D01*
X191886114Y-89693238D01*
X191886114Y-89809352D01*
X191924819Y-89964171D01*
X191963523Y-90041580D01*
X192040933Y-90118990D01*
X192157047Y-90157695D01*
X192350571Y-90157695D01*
X191112019Y-90157695D02*
X191576476Y-90157695D01*
X191344247Y-90157695D02*
X191344247Y-89344895D01*
X191421657Y-89461009D01*
X191499066Y-89538419D01*
X191576476Y-89577123D01*
X190841085Y-89344895D02*
X190299219Y-89344895D01*
X190647561Y-90157695D01*
X163234914Y-105320285D02*
X163273619Y-105358990D01*
X163389733Y-105397695D01*
X163467142Y-105397695D01*
X163583257Y-105358990D01*
X163660666Y-105281580D01*
X163699371Y-105204171D01*
X163738076Y-105049352D01*
X163738076Y-104933238D01*
X163699371Y-104778419D01*
X163660666Y-104701009D01*
X163583257Y-104623600D01*
X163467142Y-104584895D01*
X163389733Y-104584895D01*
X163273619Y-104623600D01*
X163234914Y-104662304D01*
X162886571Y-105397695D02*
X162886571Y-104584895D01*
X162693047Y-104584895D01*
X162576933Y-104623600D01*
X162499523Y-104701009D01*
X162460819Y-104778419D01*
X162422114Y-104933238D01*
X162422114Y-105049352D01*
X162460819Y-105204171D01*
X162499523Y-105281580D01*
X162576933Y-105358990D01*
X162693047Y-105397695D01*
X162886571Y-105397695D01*
X161648019Y-105397695D02*
X162112476Y-105397695D01*
X161880247Y-105397695D02*
X161880247Y-104584895D01*
X161957657Y-104701009D01*
X162035066Y-104778419D01*
X162112476Y-104817123D01*
X160951333Y-104584895D02*
X161106152Y-104584895D01*
X161183561Y-104623600D01*
X161222266Y-104662304D01*
X161299676Y-104778419D01*
X161338380Y-104933238D01*
X161338380Y-105242876D01*
X161299676Y-105320285D01*
X161260971Y-105358990D01*
X161183561Y-105397695D01*
X161028742Y-105397695D01*
X160951333Y-105358990D01*
X160912628Y-105320285D01*
X160873923Y-105242876D01*
X160873923Y-105049352D01*
X160912628Y-104971942D01*
X160951333Y-104933238D01*
X161028742Y-104894533D01*
X161183561Y-104894533D01*
X161260971Y-104933238D01*
X161299676Y-104971942D01*
X161338380Y-105049352D01*
X174664914Y-82460285D02*
X174703619Y-82498990D01*
X174819733Y-82537695D01*
X174897142Y-82537695D01*
X175013257Y-82498990D01*
X175090666Y-82421580D01*
X175129371Y-82344171D01*
X175168076Y-82189352D01*
X175168076Y-82073238D01*
X175129371Y-81918419D01*
X175090666Y-81841009D01*
X175013257Y-81763600D01*
X174897142Y-81724895D01*
X174819733Y-81724895D01*
X174703619Y-81763600D01*
X174664914Y-81802304D01*
X174316571Y-82537695D02*
X174316571Y-81724895D01*
X174123047Y-81724895D01*
X174006933Y-81763600D01*
X173929523Y-81841009D01*
X173890819Y-81918419D01*
X173852114Y-82073238D01*
X173852114Y-82189352D01*
X173890819Y-82344171D01*
X173929523Y-82421580D01*
X174006933Y-82498990D01*
X174123047Y-82537695D01*
X174316571Y-82537695D01*
X173078019Y-82537695D02*
X173542476Y-82537695D01*
X173310247Y-82537695D02*
X173310247Y-81724895D01*
X173387657Y-81841009D01*
X173465066Y-81918419D01*
X173542476Y-81957123D01*
X172342628Y-81724895D02*
X172729676Y-81724895D01*
X172768380Y-82111942D01*
X172729676Y-82073238D01*
X172652266Y-82034533D01*
X172458742Y-82034533D01*
X172381333Y-82073238D01*
X172342628Y-82111942D01*
X172303923Y-82189352D01*
X172303923Y-82382876D01*
X172342628Y-82460285D01*
X172381333Y-82498990D01*
X172458742Y-82537695D01*
X172652266Y-82537695D01*
X172729676Y-82498990D01*
X172768380Y-82460285D01*
X174664914Y-54520285D02*
X174703619Y-54558990D01*
X174819733Y-54597695D01*
X174897142Y-54597695D01*
X175013257Y-54558990D01*
X175090666Y-54481580D01*
X175129371Y-54404171D01*
X175168076Y-54249352D01*
X175168076Y-54133238D01*
X175129371Y-53978419D01*
X175090666Y-53901009D01*
X175013257Y-53823600D01*
X174897142Y-53784895D01*
X174819733Y-53784895D01*
X174703619Y-53823600D01*
X174664914Y-53862304D01*
X174316571Y-54597695D02*
X174316571Y-53784895D01*
X174123047Y-53784895D01*
X174006933Y-53823600D01*
X173929523Y-53901009D01*
X173890819Y-53978419D01*
X173852114Y-54133238D01*
X173852114Y-54249352D01*
X173890819Y-54404171D01*
X173929523Y-54481580D01*
X174006933Y-54558990D01*
X174123047Y-54597695D01*
X174316571Y-54597695D01*
X173078019Y-54597695D02*
X173542476Y-54597695D01*
X173310247Y-54597695D02*
X173310247Y-53784895D01*
X173387657Y-53901009D01*
X173465066Y-53978419D01*
X173542476Y-54017123D01*
X172381333Y-54055828D02*
X172381333Y-54597695D01*
X172574857Y-53746190D02*
X172768380Y-54326761D01*
X172265219Y-54326761D01*
X151804914Y-105320285D02*
X151843619Y-105358990D01*
X151959733Y-105397695D01*
X152037142Y-105397695D01*
X152153257Y-105358990D01*
X152230666Y-105281580D01*
X152269371Y-105204171D01*
X152308076Y-105049352D01*
X152308076Y-104933238D01*
X152269371Y-104778419D01*
X152230666Y-104701009D01*
X152153257Y-104623600D01*
X152037142Y-104584895D01*
X151959733Y-104584895D01*
X151843619Y-104623600D01*
X151804914Y-104662304D01*
X151456571Y-105397695D02*
X151456571Y-104584895D01*
X151263047Y-104584895D01*
X151146933Y-104623600D01*
X151069523Y-104701009D01*
X151030819Y-104778419D01*
X150992114Y-104933238D01*
X150992114Y-105049352D01*
X151030819Y-105204171D01*
X151069523Y-105281580D01*
X151146933Y-105358990D01*
X151263047Y-105397695D01*
X151456571Y-105397695D01*
X150218019Y-105397695D02*
X150682476Y-105397695D01*
X150450247Y-105397695D02*
X150450247Y-104584895D01*
X150527657Y-104701009D01*
X150605066Y-104778419D01*
X150682476Y-104817123D01*
X149947085Y-104584895D02*
X149443923Y-104584895D01*
X149714857Y-104894533D01*
X149598742Y-104894533D01*
X149521333Y-104933238D01*
X149482628Y-104971942D01*
X149443923Y-105049352D01*
X149443923Y-105242876D01*
X149482628Y-105320285D01*
X149521333Y-105358990D01*
X149598742Y-105397695D01*
X149830971Y-105397695D01*
X149908380Y-105358990D01*
X149947085Y-105320285D01*
X163234914Y-82460285D02*
X163273619Y-82498990D01*
X163389733Y-82537695D01*
X163467142Y-82537695D01*
X163583257Y-82498990D01*
X163660666Y-82421580D01*
X163699371Y-82344171D01*
X163738076Y-82189352D01*
X163738076Y-82073238D01*
X163699371Y-81918419D01*
X163660666Y-81841009D01*
X163583257Y-81763600D01*
X163467142Y-81724895D01*
X163389733Y-81724895D01*
X163273619Y-81763600D01*
X163234914Y-81802304D01*
X162886571Y-82537695D02*
X162886571Y-81724895D01*
X162693047Y-81724895D01*
X162576933Y-81763600D01*
X162499523Y-81841009D01*
X162460819Y-81918419D01*
X162422114Y-82073238D01*
X162422114Y-82189352D01*
X162460819Y-82344171D01*
X162499523Y-82421580D01*
X162576933Y-82498990D01*
X162693047Y-82537695D01*
X162886571Y-82537695D01*
X161648019Y-82537695D02*
X162112476Y-82537695D01*
X161880247Y-82537695D02*
X161880247Y-81724895D01*
X161957657Y-81841009D01*
X162035066Y-81918419D01*
X162112476Y-81957123D01*
X161338380Y-81802304D02*
X161299676Y-81763600D01*
X161222266Y-81724895D01*
X161028742Y-81724895D01*
X160951333Y-81763600D01*
X160912628Y-81802304D01*
X160873923Y-81879714D01*
X160873923Y-81957123D01*
X160912628Y-82073238D01*
X161377085Y-82537695D01*
X160873923Y-82537695D01*
X163234914Y-54520285D02*
X163273619Y-54558990D01*
X163389733Y-54597695D01*
X163467142Y-54597695D01*
X163583257Y-54558990D01*
X163660666Y-54481580D01*
X163699371Y-54404171D01*
X163738076Y-54249352D01*
X163738076Y-54133238D01*
X163699371Y-53978419D01*
X163660666Y-53901009D01*
X163583257Y-53823600D01*
X163467142Y-53784895D01*
X163389733Y-53784895D01*
X163273619Y-53823600D01*
X163234914Y-53862304D01*
X162886571Y-54597695D02*
X162886571Y-53784895D01*
X162693047Y-53784895D01*
X162576933Y-53823600D01*
X162499523Y-53901009D01*
X162460819Y-53978419D01*
X162422114Y-54133238D01*
X162422114Y-54249352D01*
X162460819Y-54404171D01*
X162499523Y-54481580D01*
X162576933Y-54558990D01*
X162693047Y-54597695D01*
X162886571Y-54597695D01*
X161648019Y-54597695D02*
X162112476Y-54597695D01*
X161880247Y-54597695D02*
X161880247Y-53784895D01*
X161957657Y-53901009D01*
X162035066Y-53978419D01*
X162112476Y-54017123D01*
X160873923Y-54597695D02*
X161338380Y-54597695D01*
X161106152Y-54597695D02*
X161106152Y-53784895D01*
X161183561Y-53901009D01*
X161260971Y-53978419D01*
X161338380Y-54017123D01*
X151804914Y-79920285D02*
X151843619Y-79958990D01*
X151959733Y-79997695D01*
X152037142Y-79997695D01*
X152153257Y-79958990D01*
X152230666Y-79881580D01*
X152269371Y-79804171D01*
X152308076Y-79649352D01*
X152308076Y-79533238D01*
X152269371Y-79378419D01*
X152230666Y-79301009D01*
X152153257Y-79223600D01*
X152037142Y-79184895D01*
X151959733Y-79184895D01*
X151843619Y-79223600D01*
X151804914Y-79262304D01*
X151456571Y-79997695D02*
X151456571Y-79184895D01*
X151263047Y-79184895D01*
X151146933Y-79223600D01*
X151069523Y-79301009D01*
X151030819Y-79378419D01*
X150992114Y-79533238D01*
X150992114Y-79649352D01*
X151030819Y-79804171D01*
X151069523Y-79881580D01*
X151146933Y-79958990D01*
X151263047Y-79997695D01*
X151456571Y-79997695D01*
X150218019Y-79997695D02*
X150682476Y-79997695D01*
X150450247Y-79997695D02*
X150450247Y-79184895D01*
X150527657Y-79301009D01*
X150605066Y-79378419D01*
X150682476Y-79417123D01*
X149714857Y-79184895D02*
X149637447Y-79184895D01*
X149560038Y-79223600D01*
X149521333Y-79262304D01*
X149482628Y-79339714D01*
X149443923Y-79494533D01*
X149443923Y-79688057D01*
X149482628Y-79842876D01*
X149521333Y-79920285D01*
X149560038Y-79958990D01*
X149637447Y-79997695D01*
X149714857Y-79997695D01*
X149792266Y-79958990D01*
X149830971Y-79920285D01*
X149869676Y-79842876D01*
X149908380Y-79688057D01*
X149908380Y-79494533D01*
X149869676Y-79339714D01*
X149830971Y-79262304D01*
X149792266Y-79223600D01*
X149714857Y-79184895D01*
X151417866Y-54520285D02*
X151456571Y-54558990D01*
X151572685Y-54597695D01*
X151650095Y-54597695D01*
X151766209Y-54558990D01*
X151843619Y-54481580D01*
X151882323Y-54404171D01*
X151921028Y-54249352D01*
X151921028Y-54133238D01*
X151882323Y-53978419D01*
X151843619Y-53901009D01*
X151766209Y-53823600D01*
X151650095Y-53784895D01*
X151572685Y-53784895D01*
X151456571Y-53823600D01*
X151417866Y-53862304D01*
X151069523Y-54597695D02*
X151069523Y-53784895D01*
X150876000Y-53784895D01*
X150759885Y-53823600D01*
X150682476Y-53901009D01*
X150643771Y-53978419D01*
X150605066Y-54133238D01*
X150605066Y-54249352D01*
X150643771Y-54404171D01*
X150682476Y-54481580D01*
X150759885Y-54558990D01*
X150876000Y-54597695D01*
X151069523Y-54597695D01*
X150218019Y-54597695D02*
X150063200Y-54597695D01*
X149985790Y-54558990D01*
X149947085Y-54520285D01*
X149869676Y-54404171D01*
X149830971Y-54249352D01*
X149830971Y-53939714D01*
X149869676Y-53862304D01*
X149908380Y-53823600D01*
X149985790Y-53784895D01*
X150140609Y-53784895D01*
X150218019Y-53823600D01*
X150256723Y-53862304D01*
X150295428Y-53939714D01*
X150295428Y-54133238D01*
X150256723Y-54210647D01*
X150218019Y-54249352D01*
X150140609Y-54288057D01*
X149985790Y-54288057D01*
X149908380Y-54249352D01*
X149869676Y-54210647D01*
X149830971Y-54133238D01*
X151417866Y-34200285D02*
X151456571Y-34238990D01*
X151572685Y-34277695D01*
X151650095Y-34277695D01*
X151766209Y-34238990D01*
X151843619Y-34161580D01*
X151882323Y-34084171D01*
X151921028Y-33929352D01*
X151921028Y-33813238D01*
X151882323Y-33658419D01*
X151843619Y-33581009D01*
X151766209Y-33503600D01*
X151650095Y-33464895D01*
X151572685Y-33464895D01*
X151456571Y-33503600D01*
X151417866Y-33542304D01*
X151069523Y-34277695D02*
X151069523Y-33464895D01*
X150876000Y-33464895D01*
X150759885Y-33503600D01*
X150682476Y-33581009D01*
X150643771Y-33658419D01*
X150605066Y-33813238D01*
X150605066Y-33929352D01*
X150643771Y-34084171D01*
X150682476Y-34161580D01*
X150759885Y-34238990D01*
X150876000Y-34277695D01*
X151069523Y-34277695D01*
X150140609Y-33813238D02*
X150218019Y-33774533D01*
X150256723Y-33735828D01*
X150295428Y-33658419D01*
X150295428Y-33619714D01*
X150256723Y-33542304D01*
X150218019Y-33503600D01*
X150140609Y-33464895D01*
X149985790Y-33464895D01*
X149908380Y-33503600D01*
X149869676Y-33542304D01*
X149830971Y-33619714D01*
X149830971Y-33658419D01*
X149869676Y-33735828D01*
X149908380Y-33774533D01*
X149985790Y-33813238D01*
X150140609Y-33813238D01*
X150218019Y-33851942D01*
X150256723Y-33890647D01*
X150295428Y-33968057D01*
X150295428Y-34122876D01*
X150256723Y-34200285D01*
X150218019Y-34238990D01*
X150140609Y-34277695D01*
X149985790Y-34277695D01*
X149908380Y-34238990D01*
X149869676Y-34200285D01*
X149830971Y-34122876D01*
X149830971Y-33968057D01*
X149869676Y-33890647D01*
X149908380Y-33851942D01*
X149985790Y-33813238D01*
X174277866Y-107860285D02*
X174316571Y-107898990D01*
X174432685Y-107937695D01*
X174510095Y-107937695D01*
X174626209Y-107898990D01*
X174703619Y-107821580D01*
X174742323Y-107744171D01*
X174781028Y-107589352D01*
X174781028Y-107473238D01*
X174742323Y-107318419D01*
X174703619Y-107241009D01*
X174626209Y-107163600D01*
X174510095Y-107124895D01*
X174432685Y-107124895D01*
X174316571Y-107163600D01*
X174277866Y-107202304D01*
X173929523Y-107937695D02*
X173929523Y-107124895D01*
X173736000Y-107124895D01*
X173619885Y-107163600D01*
X173542476Y-107241009D01*
X173503771Y-107318419D01*
X173465066Y-107473238D01*
X173465066Y-107589352D01*
X173503771Y-107744171D01*
X173542476Y-107821580D01*
X173619885Y-107898990D01*
X173736000Y-107937695D01*
X173929523Y-107937695D01*
X173194133Y-107124895D02*
X172652266Y-107124895D01*
X173000609Y-107937695D01*
X139987866Y-54520285D02*
X140026571Y-54558990D01*
X140142685Y-54597695D01*
X140220095Y-54597695D01*
X140336209Y-54558990D01*
X140413619Y-54481580D01*
X140452323Y-54404171D01*
X140491028Y-54249352D01*
X140491028Y-54133238D01*
X140452323Y-53978419D01*
X140413619Y-53901009D01*
X140336209Y-53823600D01*
X140220095Y-53784895D01*
X140142685Y-53784895D01*
X140026571Y-53823600D01*
X139987866Y-53862304D01*
X139639523Y-54597695D02*
X139639523Y-53784895D01*
X139446000Y-53784895D01*
X139329885Y-53823600D01*
X139252476Y-53901009D01*
X139213771Y-53978419D01*
X139175066Y-54133238D01*
X139175066Y-54249352D01*
X139213771Y-54404171D01*
X139252476Y-54481580D01*
X139329885Y-54558990D01*
X139446000Y-54597695D01*
X139639523Y-54597695D01*
X138439676Y-53784895D02*
X138826723Y-53784895D01*
X138865428Y-54171942D01*
X138826723Y-54133238D01*
X138749314Y-54094533D01*
X138555790Y-54094533D01*
X138478380Y-54133238D01*
X138439676Y-54171942D01*
X138400971Y-54249352D01*
X138400971Y-54442876D01*
X138439676Y-54520285D01*
X138478380Y-54558990D01*
X138555790Y-54597695D01*
X138749314Y-54597695D01*
X138826723Y-54558990D01*
X138865428Y-54520285D01*
X139987866Y-34200285D02*
X140026571Y-34238990D01*
X140142685Y-34277695D01*
X140220095Y-34277695D01*
X140336209Y-34238990D01*
X140413619Y-34161580D01*
X140452323Y-34084171D01*
X140491028Y-33929352D01*
X140491028Y-33813238D01*
X140452323Y-33658419D01*
X140413619Y-33581009D01*
X140336209Y-33503600D01*
X140220095Y-33464895D01*
X140142685Y-33464895D01*
X140026571Y-33503600D01*
X139987866Y-33542304D01*
X139639523Y-34277695D02*
X139639523Y-33464895D01*
X139446000Y-33464895D01*
X139329885Y-33503600D01*
X139252476Y-33581009D01*
X139213771Y-33658419D01*
X139175066Y-33813238D01*
X139175066Y-33929352D01*
X139213771Y-34084171D01*
X139252476Y-34161580D01*
X139329885Y-34238990D01*
X139446000Y-34277695D01*
X139639523Y-34277695D01*
X138478380Y-33735828D02*
X138478380Y-34277695D01*
X138671904Y-33426190D02*
X138865428Y-34006761D01*
X138362266Y-34006761D01*
X129192866Y-79920285D02*
X129231571Y-79958990D01*
X129347685Y-79997695D01*
X129425095Y-79997695D01*
X129541209Y-79958990D01*
X129618619Y-79881580D01*
X129657323Y-79804171D01*
X129696028Y-79649352D01*
X129696028Y-79533238D01*
X129657323Y-79378419D01*
X129618619Y-79301009D01*
X129541209Y-79223600D01*
X129425095Y-79184895D01*
X129347685Y-79184895D01*
X129231571Y-79223600D01*
X129192866Y-79262304D01*
X128844523Y-79997695D02*
X128844523Y-79184895D01*
X128651000Y-79184895D01*
X128534885Y-79223600D01*
X128457476Y-79301009D01*
X128418771Y-79378419D01*
X128380066Y-79533238D01*
X128380066Y-79649352D01*
X128418771Y-79804171D01*
X128457476Y-79881580D01*
X128534885Y-79958990D01*
X128651000Y-79997695D01*
X128844523Y-79997695D01*
X128109133Y-79184895D02*
X127605971Y-79184895D01*
X127876904Y-79494533D01*
X127760790Y-79494533D01*
X127683380Y-79533238D01*
X127644676Y-79571942D01*
X127605971Y-79649352D01*
X127605971Y-79842876D01*
X127644676Y-79920285D01*
X127683380Y-79958990D01*
X127760790Y-79997695D01*
X127993019Y-79997695D01*
X128070428Y-79958990D01*
X128109133Y-79920285D01*
X127151866Y-55790285D02*
X127190571Y-55828990D01*
X127306685Y-55867695D01*
X127384095Y-55867695D01*
X127500209Y-55828990D01*
X127577619Y-55751580D01*
X127616323Y-55674171D01*
X127655028Y-55519352D01*
X127655028Y-55403238D01*
X127616323Y-55248419D01*
X127577619Y-55171009D01*
X127500209Y-55093600D01*
X127384095Y-55054895D01*
X127306685Y-55054895D01*
X127190571Y-55093600D01*
X127151866Y-55132304D01*
X126803523Y-55867695D02*
X126803523Y-55054895D01*
X126610000Y-55054895D01*
X126493885Y-55093600D01*
X126416476Y-55171009D01*
X126377771Y-55248419D01*
X126339066Y-55403238D01*
X126339066Y-55519352D01*
X126377771Y-55674171D01*
X126416476Y-55751580D01*
X126493885Y-55828990D01*
X126610000Y-55867695D01*
X126803523Y-55867695D01*
X126029428Y-55132304D02*
X125990723Y-55093600D01*
X125913314Y-55054895D01*
X125719790Y-55054895D01*
X125642380Y-55093600D01*
X125603676Y-55132304D01*
X125564971Y-55209714D01*
X125564971Y-55287123D01*
X125603676Y-55403238D01*
X126068133Y-55867695D01*
X125564971Y-55867695D01*
D12*
X209542748Y-79300000D02*
X210065252Y-79300000D01*
X209542748Y-80720000D02*
X210065252Y-80720000D01*
X200652748Y-39930000D02*
X201175252Y-39930000D01*
X200652748Y-41350000D02*
X201175252Y-41350000D01*
X212097252Y-73100000D02*
X211574748Y-73100000D01*
X212097252Y-71680000D02*
X211574748Y-71680000D01*
X203207252Y-33730000D02*
X202684748Y-33730000D01*
X203207252Y-32310000D02*
X202684748Y-32310000D01*
X139707252Y-109930000D02*
X139184748Y-109930000D01*
X139707252Y-108510000D02*
X139184748Y-108510000D01*
X139707252Y-81990000D02*
X139184748Y-81990000D01*
X139707252Y-80570000D02*
X139184748Y-80570000D01*
X228525000Y-41536252D02*
X228525000Y-41013748D01*
X229945000Y-41536252D02*
X229945000Y-41013748D01*
X215907252Y-102310000D02*
X215384748Y-102310000D01*
X215907252Y-100890000D02*
X215384748Y-100890000D01*
X204477252Y-102310000D02*
X203954748Y-102310000D01*
X204477252Y-100890000D02*
X203954748Y-100890000D01*
X192031252Y-92150000D02*
X191508748Y-92150000D01*
X192031252Y-90730000D02*
X191508748Y-90730000D01*
X162567252Y-107390000D02*
X162044748Y-107390000D01*
X162567252Y-105970000D02*
X162044748Y-105970000D01*
X173997252Y-84530000D02*
X173474748Y-84530000D01*
X173997252Y-83110000D02*
X173474748Y-83110000D01*
X173997252Y-56590000D02*
X173474748Y-56590000D01*
X173997252Y-55170000D02*
X173474748Y-55170000D01*
X151137252Y-107390000D02*
X150614748Y-107390000D01*
X151137252Y-105970000D02*
X150614748Y-105970000D01*
X162567252Y-84530000D02*
X162044748Y-84530000D01*
X162567252Y-83110000D02*
X162044748Y-83110000D01*
X162567252Y-56590000D02*
X162044748Y-56590000D01*
X162567252Y-55170000D02*
X162044748Y-55170000D01*
X151137252Y-81990000D02*
X150614748Y-81990000D01*
X151137252Y-80570000D02*
X150614748Y-80570000D01*
X151137252Y-56590000D02*
X150614748Y-56590000D01*
X151137252Y-55170000D02*
X150614748Y-55170000D01*
X151137252Y-36270000D02*
X150614748Y-36270000D01*
X151137252Y-34850000D02*
X150614748Y-34850000D01*
X173997252Y-109930000D02*
X173474748Y-109930000D01*
X173997252Y-108510000D02*
X173474748Y-108510000D01*
X139707252Y-56590000D02*
X139184748Y-56590000D01*
X139707252Y-55170000D02*
X139184748Y-55170000D01*
X139707252Y-36270000D02*
X139184748Y-36270000D01*
X139707252Y-34850000D02*
X139184748Y-34850000D01*
X128912252Y-81990000D02*
X128389748Y-81990000D01*
X128912252Y-80570000D02*
X128389748Y-80570000D01*
X126871252Y-57860000D02*
X126348748Y-57860000D01*
X126871252Y-56440000D02*
X126348748Y-56440000D01*
%LPC*%
D13*
X213360000Y-68580000D03*
D14*
X203200000Y-68580000D03*
D13*
X142240000Y-81280000D03*
X134620000Y-96520000D03*
X142240000Y-83820000D03*
X134620000Y-93980000D03*
X142240000Y-86360000D03*
X134620000Y-91440000D03*
X142240000Y-88900000D03*
X134620000Y-88900000D03*
X142240000Y-91440000D03*
X134620000Y-86360000D03*
X142240000Y-93980000D03*
X134620000Y-83820000D03*
X142240000Y-96520000D03*
D15*
X134620000Y-81280000D03*
D13*
X153670000Y-81280000D03*
X146050000Y-99060000D03*
X153670000Y-83820000D03*
X146050000Y-96520000D03*
X153670000Y-86360000D03*
X146050000Y-93980000D03*
X153670000Y-88900000D03*
X146050000Y-91440000D03*
X153670000Y-91440000D03*
X146050000Y-88900000D03*
X153670000Y-93980000D03*
X146050000Y-86360000D03*
X153670000Y-96520000D03*
X146050000Y-83820000D03*
X153670000Y-99060000D03*
D15*
X146050000Y-81280000D03*
D16*
X116697056Y-123302944D03*
X115000000Y-122600000D03*
X113302944Y-123302944D03*
X112600000Y-125000000D03*
X113302944Y-126697056D03*
X115000000Y-127400000D03*
X116697056Y-126697056D03*
X117400000Y-125000000D03*
D17*
X115000000Y-125000000D03*
D16*
X116697056Y-33302944D03*
X115000000Y-32600000D03*
X113302944Y-33302944D03*
X112600000Y-35000000D03*
X113302944Y-36697056D03*
X115000000Y-37400000D03*
X116697056Y-36697056D03*
X117400000Y-35000000D03*
D17*
X115000000Y-35000000D03*
D13*
X153670000Y-76835000D03*
D14*
X143510000Y-76835000D03*
X225425000Y-80740000D03*
D15*
X225425000Y-78740000D03*
D14*
X231775000Y-80740000D03*
D15*
X231775000Y-78740000D03*
D14*
X123825000Y-107005000D03*
D15*
X123825000Y-103505000D03*
G36*
G01*
X210254000Y-80460000D02*
X210254000Y-79560000D01*
G75*
G02*
X210504000Y-79310000I250000J0D01*
G01*
X211154000Y-79310000D01*
G75*
G02*
X211404000Y-79560000I0J-250000D01*
G01*
X211404000Y-80460000D01*
G75*
G02*
X211154000Y-80710000I-250000J0D01*
G01*
X210504000Y-80710000D01*
G75*
G02*
X210254000Y-80460000I0J250000D01*
G01*
G37*
G36*
G01*
X208204000Y-80460000D02*
X208204000Y-79560000D01*
G75*
G02*
X208454000Y-79310000I250000J0D01*
G01*
X209104000Y-79310000D01*
G75*
G02*
X209354000Y-79560000I0J-250000D01*
G01*
X209354000Y-80460000D01*
G75*
G02*
X209104000Y-80710000I-250000J0D01*
G01*
X208454000Y-80710000D01*
G75*
G02*
X208204000Y-80460000I0J250000D01*
G01*
G37*
G36*
G01*
X201364000Y-41090000D02*
X201364000Y-40190000D01*
G75*
G02*
X201614000Y-39940000I250000J0D01*
G01*
X202264000Y-39940000D01*
G75*
G02*
X202514000Y-40190000I0J-250000D01*
G01*
X202514000Y-41090000D01*
G75*
G02*
X202264000Y-41340000I-250000J0D01*
G01*
X201614000Y-41340000D01*
G75*
G02*
X201364000Y-41090000I0J250000D01*
G01*
G37*
G36*
G01*
X199314000Y-41090000D02*
X199314000Y-40190000D01*
G75*
G02*
X199564000Y-39940000I250000J0D01*
G01*
X200214000Y-39940000D01*
G75*
G02*
X200464000Y-40190000I0J-250000D01*
G01*
X200464000Y-41090000D01*
G75*
G02*
X200214000Y-41340000I-250000J0D01*
G01*
X199564000Y-41340000D01*
G75*
G02*
X199314000Y-41090000I0J250000D01*
G01*
G37*
G36*
G01*
X211386000Y-71940000D02*
X211386000Y-72840000D01*
G75*
G02*
X211136000Y-73090000I-250000J0D01*
G01*
X210486000Y-73090000D01*
G75*
G02*
X210236000Y-72840000I0J250000D01*
G01*
X210236000Y-71940000D01*
G75*
G02*
X210486000Y-71690000I250000J0D01*
G01*
X211136000Y-71690000D01*
G75*
G02*
X211386000Y-71940000I0J-250000D01*
G01*
G37*
G36*
G01*
X213436000Y-71940000D02*
X213436000Y-72840000D01*
G75*
G02*
X213186000Y-73090000I-250000J0D01*
G01*
X212536000Y-73090000D01*
G75*
G02*
X212286000Y-72840000I0J250000D01*
G01*
X212286000Y-71940000D01*
G75*
G02*
X212536000Y-71690000I250000J0D01*
G01*
X213186000Y-71690000D01*
G75*
G02*
X213436000Y-71940000I0J-250000D01*
G01*
G37*
G36*
G01*
X202496000Y-32570000D02*
X202496000Y-33470000D01*
G75*
G02*
X202246000Y-33720000I-250000J0D01*
G01*
X201596000Y-33720000D01*
G75*
G02*
X201346000Y-33470000I0J250000D01*
G01*
X201346000Y-32570000D01*
G75*
G02*
X201596000Y-32320000I250000J0D01*
G01*
X202246000Y-32320000D01*
G75*
G02*
X202496000Y-32570000I0J-250000D01*
G01*
G37*
G36*
G01*
X204546000Y-32570000D02*
X204546000Y-33470000D01*
G75*
G02*
X204296000Y-33720000I-250000J0D01*
G01*
X203646000Y-33720000D01*
G75*
G02*
X203396000Y-33470000I0J250000D01*
G01*
X203396000Y-32570000D01*
G75*
G02*
X203646000Y-32320000I250000J0D01*
G01*
X204296000Y-32320000D01*
G75*
G02*
X204546000Y-32570000I0J-250000D01*
G01*
G37*
D13*
X176530000Y-109220000D03*
X168910000Y-124460000D03*
X176530000Y-111760000D03*
X168910000Y-121920000D03*
X176530000Y-114300000D03*
X168910000Y-119380000D03*
X176530000Y-116840000D03*
X168910000Y-116840000D03*
X176530000Y-119380000D03*
X168910000Y-114300000D03*
X176530000Y-121920000D03*
X168910000Y-111760000D03*
X176530000Y-124460000D03*
D15*
X168910000Y-109220000D03*
D13*
X165100000Y-106680000D03*
X157480000Y-124460000D03*
X165100000Y-109220000D03*
X157480000Y-121920000D03*
X165100000Y-111760000D03*
X157480000Y-119380000D03*
X165100000Y-114300000D03*
X157480000Y-116840000D03*
X165100000Y-116840000D03*
X157480000Y-114300000D03*
X165100000Y-119380000D03*
X157480000Y-111760000D03*
X165100000Y-121920000D03*
X157480000Y-109220000D03*
X165100000Y-124460000D03*
D15*
X157480000Y-106680000D03*
G36*
G01*
X138996000Y-108770000D02*
X138996000Y-109670000D01*
G75*
G02*
X138746000Y-109920000I-250000J0D01*
G01*
X138096000Y-109920000D01*
G75*
G02*
X137846000Y-109670000I0J250000D01*
G01*
X137846000Y-108770000D01*
G75*
G02*
X138096000Y-108520000I250000J0D01*
G01*
X138746000Y-108520000D01*
G75*
G02*
X138996000Y-108770000I0J-250000D01*
G01*
G37*
G36*
G01*
X141046000Y-108770000D02*
X141046000Y-109670000D01*
G75*
G02*
X140796000Y-109920000I-250000J0D01*
G01*
X140146000Y-109920000D01*
G75*
G02*
X139896000Y-109670000I0J250000D01*
G01*
X139896000Y-108770000D01*
G75*
G02*
X140146000Y-108520000I250000J0D01*
G01*
X140796000Y-108520000D01*
G75*
G02*
X141046000Y-108770000I0J-250000D01*
G01*
G37*
D13*
X142240000Y-55880000D03*
X134620000Y-73660000D03*
X142240000Y-58420000D03*
X134620000Y-71120000D03*
X142240000Y-60960000D03*
X134620000Y-68580000D03*
X142240000Y-63500000D03*
X134620000Y-66040000D03*
X142240000Y-66040000D03*
X134620000Y-63500000D03*
X142240000Y-68580000D03*
X134620000Y-60960000D03*
X142240000Y-71120000D03*
X134620000Y-58420000D03*
X142240000Y-73660000D03*
D15*
X134620000Y-55880000D03*
G36*
G01*
X138996000Y-80830000D02*
X138996000Y-81730000D01*
G75*
G02*
X138746000Y-81980000I-250000J0D01*
G01*
X138096000Y-81980000D01*
G75*
G02*
X137846000Y-81730000I0J250000D01*
G01*
X137846000Y-80830000D01*
G75*
G02*
X138096000Y-80580000I250000J0D01*
G01*
X138746000Y-80580000D01*
G75*
G02*
X138996000Y-80830000I0J-250000D01*
G01*
G37*
G36*
G01*
X141046000Y-80830000D02*
X141046000Y-81730000D01*
G75*
G02*
X140796000Y-81980000I-250000J0D01*
G01*
X140146000Y-81980000D01*
G75*
G02*
X139896000Y-81730000I0J250000D01*
G01*
X139896000Y-80830000D01*
G75*
G02*
X140146000Y-80580000I250000J0D01*
G01*
X140796000Y-80580000D01*
G75*
G02*
X141046000Y-80830000I0J-250000D01*
G01*
G37*
G36*
G01*
X229685000Y-40825000D02*
X228785000Y-40825000D01*
G75*
G02*
X228535000Y-40575000I0J250000D01*
G01*
X228535000Y-39925000D01*
G75*
G02*
X228785000Y-39675000I250000J0D01*
G01*
X229685000Y-39675000D01*
G75*
G02*
X229935000Y-39925000I0J-250000D01*
G01*
X229935000Y-40575000D01*
G75*
G02*
X229685000Y-40825000I-250000J0D01*
G01*
G37*
G36*
G01*
X229685000Y-42875000D02*
X228785000Y-42875000D01*
G75*
G02*
X228535000Y-42625000I0J250000D01*
G01*
X228535000Y-41975000D01*
G75*
G02*
X228785000Y-41725000I250000J0D01*
G01*
X229685000Y-41725000D01*
G75*
G02*
X229935000Y-41975000I0J-250000D01*
G01*
X229935000Y-42625000D01*
G75*
G02*
X229685000Y-42875000I-250000J0D01*
G01*
G37*
G36*
G01*
X215196000Y-101150000D02*
X215196000Y-102050000D01*
G75*
G02*
X214946000Y-102300000I-250000J0D01*
G01*
X214296000Y-102300000D01*
G75*
G02*
X214046000Y-102050000I0J250000D01*
G01*
X214046000Y-101150000D01*
G75*
G02*
X214296000Y-100900000I250000J0D01*
G01*
X214946000Y-100900000D01*
G75*
G02*
X215196000Y-101150000I0J-250000D01*
G01*
G37*
G36*
G01*
X217246000Y-101150000D02*
X217246000Y-102050000D01*
G75*
G02*
X216996000Y-102300000I-250000J0D01*
G01*
X216346000Y-102300000D01*
G75*
G02*
X216096000Y-102050000I0J250000D01*
G01*
X216096000Y-101150000D01*
G75*
G02*
X216346000Y-100900000I250000J0D01*
G01*
X216996000Y-100900000D01*
G75*
G02*
X217246000Y-101150000I0J-250000D01*
G01*
G37*
G36*
G01*
X203766000Y-101150000D02*
X203766000Y-102050000D01*
G75*
G02*
X203516000Y-102300000I-250000J0D01*
G01*
X202866000Y-102300000D01*
G75*
G02*
X202616000Y-102050000I0J250000D01*
G01*
X202616000Y-101150000D01*
G75*
G02*
X202866000Y-100900000I250000J0D01*
G01*
X203516000Y-100900000D01*
G75*
G02*
X203766000Y-101150000I0J-250000D01*
G01*
G37*
G36*
G01*
X205816000Y-101150000D02*
X205816000Y-102050000D01*
G75*
G02*
X205566000Y-102300000I-250000J0D01*
G01*
X204916000Y-102300000D01*
G75*
G02*
X204666000Y-102050000I0J250000D01*
G01*
X204666000Y-101150000D01*
G75*
G02*
X204916000Y-100900000I250000J0D01*
G01*
X205566000Y-100900000D01*
G75*
G02*
X205816000Y-101150000I0J-250000D01*
G01*
G37*
G36*
G01*
X191320000Y-90990000D02*
X191320000Y-91890000D01*
G75*
G02*
X191070000Y-92140000I-250000J0D01*
G01*
X190420000Y-92140000D01*
G75*
G02*
X190170000Y-91890000I0J250000D01*
G01*
X190170000Y-90990000D01*
G75*
G02*
X190420000Y-90740000I250000J0D01*
G01*
X191070000Y-90740000D01*
G75*
G02*
X191320000Y-90990000I0J-250000D01*
G01*
G37*
G36*
G01*
X193370000Y-90990000D02*
X193370000Y-91890000D01*
G75*
G02*
X193120000Y-92140000I-250000J0D01*
G01*
X192470000Y-92140000D01*
G75*
G02*
X192220000Y-91890000I0J250000D01*
G01*
X192220000Y-90990000D01*
G75*
G02*
X192470000Y-90740000I250000J0D01*
G01*
X193120000Y-90740000D01*
G75*
G02*
X193370000Y-90990000I0J-250000D01*
G01*
G37*
G36*
G01*
X161856000Y-106230000D02*
X161856000Y-107130000D01*
G75*
G02*
X161606000Y-107380000I-250000J0D01*
G01*
X160956000Y-107380000D01*
G75*
G02*
X160706000Y-107130000I0J250000D01*
G01*
X160706000Y-106230000D01*
G75*
G02*
X160956000Y-105980000I250000J0D01*
G01*
X161606000Y-105980000D01*
G75*
G02*
X161856000Y-106230000I0J-250000D01*
G01*
G37*
G36*
G01*
X163906000Y-106230000D02*
X163906000Y-107130000D01*
G75*
G02*
X163656000Y-107380000I-250000J0D01*
G01*
X163006000Y-107380000D01*
G75*
G02*
X162756000Y-107130000I0J250000D01*
G01*
X162756000Y-106230000D01*
G75*
G02*
X163006000Y-105980000I250000J0D01*
G01*
X163656000Y-105980000D01*
G75*
G02*
X163906000Y-106230000I0J-250000D01*
G01*
G37*
G36*
G01*
X173286000Y-83370000D02*
X173286000Y-84270000D01*
G75*
G02*
X173036000Y-84520000I-250000J0D01*
G01*
X172386000Y-84520000D01*
G75*
G02*
X172136000Y-84270000I0J250000D01*
G01*
X172136000Y-83370000D01*
G75*
G02*
X172386000Y-83120000I250000J0D01*
G01*
X173036000Y-83120000D01*
G75*
G02*
X173286000Y-83370000I0J-250000D01*
G01*
G37*
G36*
G01*
X175336000Y-83370000D02*
X175336000Y-84270000D01*
G75*
G02*
X175086000Y-84520000I-250000J0D01*
G01*
X174436000Y-84520000D01*
G75*
G02*
X174186000Y-84270000I0J250000D01*
G01*
X174186000Y-83370000D01*
G75*
G02*
X174436000Y-83120000I250000J0D01*
G01*
X175086000Y-83120000D01*
G75*
G02*
X175336000Y-83370000I0J-250000D01*
G01*
G37*
G36*
G01*
X173286000Y-55430000D02*
X173286000Y-56330000D01*
G75*
G02*
X173036000Y-56580000I-250000J0D01*
G01*
X172386000Y-56580000D01*
G75*
G02*
X172136000Y-56330000I0J250000D01*
G01*
X172136000Y-55430000D01*
G75*
G02*
X172386000Y-55180000I250000J0D01*
G01*
X173036000Y-55180000D01*
G75*
G02*
X173286000Y-55430000I0J-250000D01*
G01*
G37*
G36*
G01*
X175336000Y-55430000D02*
X175336000Y-56330000D01*
G75*
G02*
X175086000Y-56580000I-250000J0D01*
G01*
X174436000Y-56580000D01*
G75*
G02*
X174186000Y-56330000I0J250000D01*
G01*
X174186000Y-55430000D01*
G75*
G02*
X174436000Y-55180000I250000J0D01*
G01*
X175086000Y-55180000D01*
G75*
G02*
X175336000Y-55430000I0J-250000D01*
G01*
G37*
G36*
G01*
X150426000Y-106230000D02*
X150426000Y-107130000D01*
G75*
G02*
X150176000Y-107380000I-250000J0D01*
G01*
X149526000Y-107380000D01*
G75*
G02*
X149276000Y-107130000I0J250000D01*
G01*
X149276000Y-106230000D01*
G75*
G02*
X149526000Y-105980000I250000J0D01*
G01*
X150176000Y-105980000D01*
G75*
G02*
X150426000Y-106230000I0J-250000D01*
G01*
G37*
G36*
G01*
X152476000Y-106230000D02*
X152476000Y-107130000D01*
G75*
G02*
X152226000Y-107380000I-250000J0D01*
G01*
X151576000Y-107380000D01*
G75*
G02*
X151326000Y-107130000I0J250000D01*
G01*
X151326000Y-106230000D01*
G75*
G02*
X151576000Y-105980000I250000J0D01*
G01*
X152226000Y-105980000D01*
G75*
G02*
X152476000Y-106230000I0J-250000D01*
G01*
G37*
G36*
G01*
X161856000Y-83370000D02*
X161856000Y-84270000D01*
G75*
G02*
X161606000Y-84520000I-250000J0D01*
G01*
X160956000Y-84520000D01*
G75*
G02*
X160706000Y-84270000I0J250000D01*
G01*
X160706000Y-83370000D01*
G75*
G02*
X160956000Y-83120000I250000J0D01*
G01*
X161606000Y-83120000D01*
G75*
G02*
X161856000Y-83370000I0J-250000D01*
G01*
G37*
G36*
G01*
X163906000Y-83370000D02*
X163906000Y-84270000D01*
G75*
G02*
X163656000Y-84520000I-250000J0D01*
G01*
X163006000Y-84520000D01*
G75*
G02*
X162756000Y-84270000I0J250000D01*
G01*
X162756000Y-83370000D01*
G75*
G02*
X163006000Y-83120000I250000J0D01*
G01*
X163656000Y-83120000D01*
G75*
G02*
X163906000Y-83370000I0J-250000D01*
G01*
G37*
G36*
G01*
X161856000Y-55430000D02*
X161856000Y-56330000D01*
G75*
G02*
X161606000Y-56580000I-250000J0D01*
G01*
X160956000Y-56580000D01*
G75*
G02*
X160706000Y-56330000I0J250000D01*
G01*
X160706000Y-55430000D01*
G75*
G02*
X160956000Y-55180000I250000J0D01*
G01*
X161606000Y-55180000D01*
G75*
G02*
X161856000Y-55430000I0J-250000D01*
G01*
G37*
G36*
G01*
X163906000Y-55430000D02*
X163906000Y-56330000D01*
G75*
G02*
X163656000Y-56580000I-250000J0D01*
G01*
X163006000Y-56580000D01*
G75*
G02*
X162756000Y-56330000I0J250000D01*
G01*
X162756000Y-55430000D01*
G75*
G02*
X163006000Y-55180000I250000J0D01*
G01*
X163656000Y-55180000D01*
G75*
G02*
X163906000Y-55430000I0J-250000D01*
G01*
G37*
G36*
G01*
X150426000Y-80830000D02*
X150426000Y-81730000D01*
G75*
G02*
X150176000Y-81980000I-250000J0D01*
G01*
X149526000Y-81980000D01*
G75*
G02*
X149276000Y-81730000I0J250000D01*
G01*
X149276000Y-80830000D01*
G75*
G02*
X149526000Y-80580000I250000J0D01*
G01*
X150176000Y-80580000D01*
G75*
G02*
X150426000Y-80830000I0J-250000D01*
G01*
G37*
G36*
G01*
X152476000Y-80830000D02*
X152476000Y-81730000D01*
G75*
G02*
X152226000Y-81980000I-250000J0D01*
G01*
X151576000Y-81980000D01*
G75*
G02*
X151326000Y-81730000I0J250000D01*
G01*
X151326000Y-80830000D01*
G75*
G02*
X151576000Y-80580000I250000J0D01*
G01*
X152226000Y-80580000D01*
G75*
G02*
X152476000Y-80830000I0J-250000D01*
G01*
G37*
G36*
G01*
X150426000Y-55430000D02*
X150426000Y-56330000D01*
G75*
G02*
X150176000Y-56580000I-250000J0D01*
G01*
X149526000Y-56580000D01*
G75*
G02*
X149276000Y-56330000I0J250000D01*
G01*
X149276000Y-55430000D01*
G75*
G02*
X149526000Y-55180000I250000J0D01*
G01*
X150176000Y-55180000D01*
G75*
G02*
X150426000Y-55430000I0J-250000D01*
G01*
G37*
G36*
G01*
X152476000Y-55430000D02*
X152476000Y-56330000D01*
G75*
G02*
X152226000Y-56580000I-250000J0D01*
G01*
X151576000Y-56580000D01*
G75*
G02*
X151326000Y-56330000I0J250000D01*
G01*
X151326000Y-55430000D01*
G75*
G02*
X151576000Y-55180000I250000J0D01*
G01*
X152226000Y-55180000D01*
G75*
G02*
X152476000Y-55430000I0J-250000D01*
G01*
G37*
G36*
G01*
X150426000Y-35110000D02*
X150426000Y-36010000D01*
G75*
G02*
X150176000Y-36260000I-250000J0D01*
G01*
X149526000Y-36260000D01*
G75*
G02*
X149276000Y-36010000I0J250000D01*
G01*
X149276000Y-35110000D01*
G75*
G02*
X149526000Y-34860000I250000J0D01*
G01*
X150176000Y-34860000D01*
G75*
G02*
X150426000Y-35110000I0J-250000D01*
G01*
G37*
G36*
G01*
X152476000Y-35110000D02*
X152476000Y-36010000D01*
G75*
G02*
X152226000Y-36260000I-250000J0D01*
G01*
X151576000Y-36260000D01*
G75*
G02*
X151326000Y-36010000I0J250000D01*
G01*
X151326000Y-35110000D01*
G75*
G02*
X151576000Y-34860000I250000J0D01*
G01*
X152226000Y-34860000D01*
G75*
G02*
X152476000Y-35110000I0J-250000D01*
G01*
G37*
G36*
G01*
X173286000Y-108770000D02*
X173286000Y-109670000D01*
G75*
G02*
X173036000Y-109920000I-250000J0D01*
G01*
X172386000Y-109920000D01*
G75*
G02*
X172136000Y-109670000I0J250000D01*
G01*
X172136000Y-108770000D01*
G75*
G02*
X172386000Y-108520000I250000J0D01*
G01*
X173036000Y-108520000D01*
G75*
G02*
X173286000Y-108770000I0J-250000D01*
G01*
G37*
G36*
G01*
X175336000Y-108770000D02*
X175336000Y-109670000D01*
G75*
G02*
X175086000Y-109920000I-250000J0D01*
G01*
X174436000Y-109920000D01*
G75*
G02*
X174186000Y-109670000I0J250000D01*
G01*
X174186000Y-108770000D01*
G75*
G02*
X174436000Y-108520000I250000J0D01*
G01*
X175086000Y-108520000D01*
G75*
G02*
X175336000Y-108770000I0J-250000D01*
G01*
G37*
G36*
G01*
X138996000Y-55430000D02*
X138996000Y-56330000D01*
G75*
G02*
X138746000Y-56580000I-250000J0D01*
G01*
X138096000Y-56580000D01*
G75*
G02*
X137846000Y-56330000I0J250000D01*
G01*
X137846000Y-55430000D01*
G75*
G02*
X138096000Y-55180000I250000J0D01*
G01*
X138746000Y-55180000D01*
G75*
G02*
X138996000Y-55430000I0J-250000D01*
G01*
G37*
G36*
G01*
X141046000Y-55430000D02*
X141046000Y-56330000D01*
G75*
G02*
X140796000Y-56580000I-250000J0D01*
G01*
X140146000Y-56580000D01*
G75*
G02*
X139896000Y-56330000I0J250000D01*
G01*
X139896000Y-55430000D01*
G75*
G02*
X140146000Y-55180000I250000J0D01*
G01*
X140796000Y-55180000D01*
G75*
G02*
X141046000Y-55430000I0J-250000D01*
G01*
G37*
G36*
G01*
X138996000Y-35110000D02*
X138996000Y-36010000D01*
G75*
G02*
X138746000Y-36260000I-250000J0D01*
G01*
X138096000Y-36260000D01*
G75*
G02*
X137846000Y-36010000I0J250000D01*
G01*
X137846000Y-35110000D01*
G75*
G02*
X138096000Y-34860000I250000J0D01*
G01*
X138746000Y-34860000D01*
G75*
G02*
X138996000Y-35110000I0J-250000D01*
G01*
G37*
G36*
G01*
X141046000Y-35110000D02*
X141046000Y-36010000D01*
G75*
G02*
X140796000Y-36260000I-250000J0D01*
G01*
X140146000Y-36260000D01*
G75*
G02*
X139896000Y-36010000I0J250000D01*
G01*
X139896000Y-35110000D01*
G75*
G02*
X140146000Y-34860000I250000J0D01*
G01*
X140796000Y-34860000D01*
G75*
G02*
X141046000Y-35110000I0J-250000D01*
G01*
G37*
G36*
G01*
X128201000Y-80830000D02*
X128201000Y-81730000D01*
G75*
G02*
X127951000Y-81980000I-250000J0D01*
G01*
X127301000Y-81980000D01*
G75*
G02*
X127051000Y-81730000I0J250000D01*
G01*
X127051000Y-80830000D01*
G75*
G02*
X127301000Y-80580000I250000J0D01*
G01*
X127951000Y-80580000D01*
G75*
G02*
X128201000Y-80830000I0J-250000D01*
G01*
G37*
G36*
G01*
X130251000Y-80830000D02*
X130251000Y-81730000D01*
G75*
G02*
X130001000Y-81980000I-250000J0D01*
G01*
X129351000Y-81980000D01*
G75*
G02*
X129101000Y-81730000I0J250000D01*
G01*
X129101000Y-80830000D01*
G75*
G02*
X129351000Y-80580000I250000J0D01*
G01*
X130001000Y-80580000D01*
G75*
G02*
X130251000Y-80830000I0J-250000D01*
G01*
G37*
G36*
G01*
X126160000Y-56700000D02*
X126160000Y-57600000D01*
G75*
G02*
X125910000Y-57850000I-250000J0D01*
G01*
X125260000Y-57850000D01*
G75*
G02*
X125010000Y-57600000I0J250000D01*
G01*
X125010000Y-56700000D01*
G75*
G02*
X125260000Y-56450000I250000J0D01*
G01*
X125910000Y-56450000D01*
G75*
G02*
X126160000Y-56700000I0J-250000D01*
G01*
G37*
G36*
G01*
X128210000Y-56700000D02*
X128210000Y-57600000D01*
G75*
G02*
X127960000Y-57850000I-250000J0D01*
G01*
X127310000Y-57850000D01*
G75*
G02*
X127060000Y-57600000I0J250000D01*
G01*
X127060000Y-56700000D01*
G75*
G02*
X127310000Y-56450000I250000J0D01*
G01*
X127960000Y-56450000D01*
G75*
G02*
X128210000Y-56700000I0J-250000D01*
G01*
G37*
D18*
X195580000Y-86360000D03*
D19*
X195580000Y-83820000D03*
X194310000Y-85090000D03*
D13*
X153670000Y-35560000D03*
X146050000Y-50800000D03*
X153670000Y-38100000D03*
X146050000Y-48260000D03*
X153670000Y-40640000D03*
X146050000Y-45720000D03*
X153670000Y-43180000D03*
X146050000Y-43180000D03*
X153670000Y-45720000D03*
X146050000Y-40640000D03*
X153670000Y-48260000D03*
X146050000Y-38100000D03*
X153670000Y-50800000D03*
D15*
X146050000Y-35560000D03*
D13*
X142240000Y-109220000D03*
X134620000Y-124460000D03*
X142240000Y-111760000D03*
X134620000Y-121920000D03*
X142240000Y-114300000D03*
X134620000Y-119380000D03*
X142240000Y-116840000D03*
X134620000Y-116840000D03*
X142240000Y-119380000D03*
X134620000Y-114300000D03*
X142240000Y-121920000D03*
X134620000Y-111760000D03*
X142240000Y-124460000D03*
D15*
X134620000Y-109220000D03*
D13*
X222885000Y-124460000D03*
X222885000Y-121920000D03*
X222885000Y-119380000D03*
X222885000Y-116840000D03*
X222885000Y-114300000D03*
X222885000Y-111760000D03*
X222885000Y-109220000D03*
X222885000Y-106680000D03*
X222885000Y-104140000D03*
D15*
X222885000Y-101600000D03*
D20*
X247240000Y-124450000D03*
X247240000Y-35550000D03*
D21*
X242160000Y-119370000D03*
X244700000Y-119370000D03*
X242160000Y-116830000D03*
X244700000Y-116830000D03*
X242160000Y-114290000D03*
X244700000Y-114290000D03*
X242160000Y-111750000D03*
X244700000Y-111750000D03*
X242160000Y-109210000D03*
X244700000Y-109210000D03*
X242160000Y-106670000D03*
X244700000Y-106670000D03*
X242160000Y-104130000D03*
X244700000Y-104130000D03*
X242160000Y-101590000D03*
X244700000Y-101590000D03*
X242160000Y-99050000D03*
X244700000Y-99050000D03*
X242160000Y-96510000D03*
X244700000Y-96510000D03*
X242160000Y-93970000D03*
X244700000Y-93970000D03*
X242160000Y-91430000D03*
X244700000Y-91430000D03*
X242160000Y-88890000D03*
X244700000Y-88890000D03*
X242160000Y-86350000D03*
X244700000Y-86350000D03*
X242160000Y-83810000D03*
X244700000Y-83810000D03*
X242160000Y-81270000D03*
X244700000Y-81270000D03*
X242160000Y-78730000D03*
X244700000Y-78730000D03*
X242160000Y-76190000D03*
X244700000Y-76190000D03*
X242160000Y-73650000D03*
X244700000Y-73650000D03*
X242160000Y-71110000D03*
X244700000Y-71110000D03*
X242160000Y-68570000D03*
X244700000Y-68570000D03*
X242160000Y-66030000D03*
X244700000Y-66030000D03*
X242160000Y-63490000D03*
X244700000Y-63490000D03*
X242160000Y-60950000D03*
X244700000Y-60950000D03*
X242160000Y-58410000D03*
X244700000Y-58410000D03*
X242160000Y-55870000D03*
X244700000Y-55870000D03*
X242160000Y-53330000D03*
X244700000Y-53330000D03*
X242160000Y-50790000D03*
X244700000Y-50790000D03*
X242160000Y-48250000D03*
X244700000Y-48250000D03*
X242160000Y-45710000D03*
X244700000Y-45710000D03*
X242160000Y-43170000D03*
X244700000Y-43170000D03*
X242160000Y-40630000D03*
D22*
X244700000Y-40630000D03*
D21*
X239620000Y-104130000D03*
X239620000Y-101590000D03*
X239620000Y-106670000D03*
X239620000Y-53330000D03*
X239620000Y-50790000D03*
X239620000Y-40630000D03*
X239620000Y-76190000D03*
X239620000Y-73650000D03*
X239620000Y-48250000D03*
X239620000Y-45710000D03*
X239620000Y-43170000D03*
X239620000Y-83810000D03*
X239620000Y-116830000D03*
X239620000Y-66030000D03*
X239620000Y-63490000D03*
X239620000Y-96510000D03*
X239620000Y-93970000D03*
X239620000Y-99050000D03*
X239620000Y-88890000D03*
X239620000Y-86350000D03*
X239620000Y-60950000D03*
X239620000Y-58410000D03*
X239620000Y-55870000D03*
X239620000Y-81270000D03*
X239620000Y-78730000D03*
X239620000Y-111750000D03*
X239620000Y-109210000D03*
X239620000Y-114290000D03*
X239620000Y-71110000D03*
X239620000Y-68570000D03*
X239620000Y-91430000D03*
X239620000Y-119370000D03*
D13*
X214630000Y-72390000D03*
X207010000Y-80010000D03*
X214630000Y-74930000D03*
X207010000Y-77470000D03*
X214630000Y-77470000D03*
X207010000Y-74930000D03*
X214630000Y-80010000D03*
D15*
X207010000Y-72390000D03*
D13*
X205740000Y-33020000D03*
X198120000Y-40640000D03*
X205740000Y-35560000D03*
X198120000Y-38100000D03*
X205740000Y-38100000D03*
X198120000Y-35560000D03*
X205740000Y-40640000D03*
D15*
X198120000Y-33020000D03*
D23*
X195580000Y-91440000D03*
X180340000Y-124460000D03*
X195580000Y-93980000D03*
X180340000Y-121920000D03*
X195580000Y-96520000D03*
X180340000Y-119380000D03*
X195580000Y-99060000D03*
X180340000Y-116840000D03*
X195580000Y-101600000D03*
X180340000Y-114300000D03*
X195580000Y-104140000D03*
X180340000Y-111760000D03*
X195580000Y-106680000D03*
X180340000Y-109220000D03*
X195580000Y-109220000D03*
X180340000Y-106680000D03*
X195580000Y-111760000D03*
X180340000Y-104140000D03*
X195580000Y-114300000D03*
X180340000Y-101600000D03*
X195580000Y-116840000D03*
X180340000Y-99060000D03*
X195580000Y-119380000D03*
X180340000Y-96520000D03*
X195580000Y-121920000D03*
X180340000Y-93980000D03*
X195580000Y-124460000D03*
D24*
X180340000Y-91440000D03*
D13*
X176530000Y-55880000D03*
X168910000Y-73660000D03*
X176530000Y-58420000D03*
X168910000Y-71120000D03*
X176530000Y-60960000D03*
X168910000Y-68580000D03*
X176530000Y-63500000D03*
X168910000Y-66040000D03*
X176530000Y-66040000D03*
X168910000Y-63500000D03*
X176530000Y-68580000D03*
X168910000Y-60960000D03*
X176530000Y-71120000D03*
X168910000Y-58420000D03*
X176530000Y-73660000D03*
D15*
X168910000Y-55880000D03*
D13*
X218440000Y-101600000D03*
X210820000Y-124460000D03*
X218440000Y-104140000D03*
X210820000Y-121920000D03*
X218440000Y-106680000D03*
X210820000Y-119380000D03*
X218440000Y-109220000D03*
X210820000Y-116840000D03*
X218440000Y-111760000D03*
X210820000Y-114300000D03*
X218440000Y-114300000D03*
X210820000Y-111760000D03*
X218440000Y-116840000D03*
X210820000Y-109220000D03*
X218440000Y-119380000D03*
X210820000Y-106680000D03*
X218440000Y-121920000D03*
X210820000Y-104140000D03*
X218440000Y-124460000D03*
D15*
X210820000Y-101600000D03*
D13*
X207010000Y-101600000D03*
X199390000Y-124460000D03*
X207010000Y-104140000D03*
X199390000Y-121920000D03*
X207010000Y-106680000D03*
X199390000Y-119380000D03*
X207010000Y-109220000D03*
X199390000Y-116840000D03*
X207010000Y-111760000D03*
X199390000Y-114300000D03*
X207010000Y-114300000D03*
X199390000Y-111760000D03*
X207010000Y-116840000D03*
X199390000Y-109220000D03*
X207010000Y-119380000D03*
X199390000Y-106680000D03*
X207010000Y-121920000D03*
X199390000Y-104140000D03*
X207010000Y-124460000D03*
D15*
X199390000Y-101600000D03*
D13*
X165100000Y-55880000D03*
X157480000Y-78740000D03*
X165100000Y-58420000D03*
X157480000Y-76200000D03*
X165100000Y-60960000D03*
X157480000Y-73660000D03*
X165100000Y-63500000D03*
X157480000Y-71120000D03*
X165100000Y-66040000D03*
X157480000Y-68580000D03*
X165100000Y-68580000D03*
X157480000Y-66040000D03*
X165100000Y-71120000D03*
X157480000Y-63500000D03*
X165100000Y-73660000D03*
X157480000Y-60960000D03*
X165100000Y-76200000D03*
X157480000Y-58420000D03*
X165100000Y-78740000D03*
D15*
X157480000Y-55880000D03*
D13*
X153670000Y-106680000D03*
X146050000Y-124460000D03*
X153670000Y-109220000D03*
X146050000Y-121920000D03*
X153670000Y-111760000D03*
X146050000Y-119380000D03*
X153670000Y-114300000D03*
X146050000Y-116840000D03*
X153670000Y-116840000D03*
X146050000Y-114300000D03*
X153670000Y-119380000D03*
X146050000Y-111760000D03*
X153670000Y-121920000D03*
X146050000Y-109220000D03*
X153670000Y-124460000D03*
D15*
X146050000Y-106680000D03*
D13*
X176530000Y-83820000D03*
X168910000Y-101600000D03*
X176530000Y-86360000D03*
X168910000Y-99060000D03*
X176530000Y-88900000D03*
X168910000Y-96520000D03*
X176530000Y-91440000D03*
X168910000Y-93980000D03*
X176530000Y-93980000D03*
X168910000Y-91440000D03*
X176530000Y-96520000D03*
X168910000Y-88900000D03*
X176530000Y-99060000D03*
X168910000Y-86360000D03*
X176530000Y-101600000D03*
D15*
X168910000Y-83820000D03*
D13*
X153670000Y-55880000D03*
X146050000Y-73660000D03*
X153670000Y-58420000D03*
X146050000Y-71120000D03*
X153670000Y-60960000D03*
X146050000Y-68580000D03*
X153670000Y-63500000D03*
X146050000Y-66040000D03*
X153670000Y-66040000D03*
X146050000Y-63500000D03*
X153670000Y-68580000D03*
X146050000Y-60960000D03*
X153670000Y-71120000D03*
X146050000Y-58420000D03*
X153670000Y-73660000D03*
D15*
X146050000Y-55880000D03*
D13*
X165100000Y-83820000D03*
X157480000Y-99060000D03*
X165100000Y-86360000D03*
X157480000Y-96520000D03*
X165100000Y-88900000D03*
X157480000Y-93980000D03*
X165100000Y-91440000D03*
X157480000Y-91440000D03*
X165100000Y-93980000D03*
X157480000Y-88900000D03*
X165100000Y-96520000D03*
X157480000Y-86360000D03*
X165100000Y-99060000D03*
D15*
X157480000Y-83820000D03*
D13*
X131445000Y-81280000D03*
X123825000Y-99060000D03*
X131445000Y-83820000D03*
X123825000Y-96520000D03*
X131445000Y-86360000D03*
X123825000Y-93980000D03*
X131445000Y-88900000D03*
X123825000Y-91440000D03*
X131445000Y-91440000D03*
X123825000Y-88900000D03*
X131445000Y-93980000D03*
X123825000Y-86360000D03*
X131445000Y-96520000D03*
X123825000Y-83820000D03*
X131445000Y-99060000D03*
D15*
X123825000Y-81280000D03*
D13*
X142240000Y-35560000D03*
X134620000Y-50800000D03*
X142240000Y-38100000D03*
X134620000Y-48260000D03*
X142240000Y-40640000D03*
X134620000Y-45720000D03*
X142240000Y-43180000D03*
X134620000Y-43180000D03*
X142240000Y-45720000D03*
X134620000Y-40640000D03*
X142240000Y-48260000D03*
X134620000Y-38100000D03*
X142240000Y-50800000D03*
D15*
X134620000Y-35560000D03*
D14*
X121920000Y-64770000D03*
X129540000Y-64770000D03*
X129540000Y-57150000D03*
D15*
X121920000Y-57150000D03*
D25*
X203200000Y-63500000D03*
X208280000Y-60960000D03*
X203200000Y-58420000D03*
X233045000Y-69850000D03*
X227965000Y-72390000D03*
X233045000Y-74930000D03*
X200025000Y-87630000D03*
X205105000Y-85090000D03*
X200025000Y-82550000D03*
X212725000Y-48260000D03*
X207645000Y-50800000D03*
X212725000Y-53340000D03*
X225425000Y-43815000D03*
X220345000Y-46355000D03*
X225425000Y-48895000D03*
X198755000Y-71755000D03*
X193675000Y-74295000D03*
X198755000Y-76835000D03*
X198755000Y-62230000D03*
X193675000Y-64770000D03*
X198755000Y-67310000D03*
D13*
X232410000Y-57150000D03*
D14*
X232410000Y-46990000D03*
D13*
X232410000Y-34290000D03*
D14*
X232410000Y-44450000D03*
D13*
X216535000Y-64770000D03*
D14*
X216535000Y-52070000D03*
D13*
X220345000Y-64770000D03*
D14*
X220345000Y-52070000D03*
D13*
X233680000Y-66040000D03*
D14*
X223520000Y-66040000D03*
D13*
X229235000Y-46990000D03*
D14*
X229235000Y-57150000D03*
D13*
X209550000Y-97155000D03*
D14*
X209550000Y-86995000D03*
D13*
X217424000Y-67310000D03*
D14*
X217424000Y-77470000D03*
D13*
X220726000Y-77470000D03*
D14*
X220726000Y-67310000D03*
D13*
X231775000Y-97155000D03*
D14*
X231775000Y-86995000D03*
D13*
X228600000Y-97155000D03*
D14*
X228600000Y-86995000D03*
D13*
X225425000Y-97155000D03*
D14*
X225425000Y-86995000D03*
D13*
X222250000Y-97155000D03*
D14*
X222250000Y-86995000D03*
D13*
X219075000Y-97155000D03*
D14*
X219075000Y-86995000D03*
D13*
X215900000Y-97155000D03*
D14*
X215900000Y-86995000D03*
D13*
X212725000Y-97155000D03*
D14*
X212725000Y-86995000D03*
D13*
X213995000Y-32385000D03*
D14*
X213995000Y-45085000D03*
D13*
X210185000Y-32385000D03*
D14*
X210185000Y-45085000D03*
D13*
X217805000Y-42545000D03*
D14*
X217805000Y-32385000D03*
D13*
X229235000Y-44450000D03*
D14*
X229235000Y-34290000D03*
D13*
X180340000Y-33020000D03*
D14*
X190500000Y-33020000D03*
D13*
X204470000Y-52070000D03*
D14*
X194310000Y-52070000D03*
D13*
X194310000Y-45720000D03*
D14*
X204470000Y-45720000D03*
D13*
X204470000Y-48895000D03*
D14*
X194310000Y-48895000D03*
D13*
X180340000Y-80645000D03*
D14*
X190500000Y-80645000D03*
D13*
X180340000Y-77470000D03*
D14*
X190500000Y-77470000D03*
D13*
X180340000Y-74295000D03*
D14*
X190500000Y-74295000D03*
D13*
X180340000Y-71120000D03*
D14*
X190500000Y-71120000D03*
D13*
X180340000Y-67945000D03*
D14*
X190500000Y-67945000D03*
D13*
X180340000Y-64770000D03*
D14*
X190500000Y-64770000D03*
D13*
X180340000Y-61595000D03*
D14*
X190500000Y-61595000D03*
D13*
X180340000Y-58420000D03*
D14*
X190500000Y-58420000D03*
D13*
X180340000Y-55245000D03*
D14*
X190500000Y-55245000D03*
D13*
X180340000Y-52070000D03*
D14*
X190500000Y-52070000D03*
D13*
X180340000Y-48895000D03*
D14*
X190500000Y-48895000D03*
D13*
X180340000Y-45720000D03*
D14*
X190500000Y-45720000D03*
D13*
X180340000Y-42545000D03*
D14*
X190500000Y-42545000D03*
D13*
X180340000Y-39370000D03*
D14*
X190500000Y-39370000D03*
D13*
X180340000Y-36195000D03*
D14*
X190500000Y-36195000D03*
D13*
X153670000Y-128270000D03*
D14*
X143510000Y-128270000D03*
D13*
X156210000Y-52070000D03*
D14*
X166370000Y-52070000D03*
D13*
X130810000Y-48260000D03*
D14*
X120650000Y-48260000D03*
D13*
X120650000Y-41910000D03*
D14*
X130810000Y-41910000D03*
D13*
X120650000Y-38735000D03*
D14*
X130810000Y-38735000D03*
D18*
X231775000Y-62865000D03*
D19*
X231775000Y-60325000D03*
X230505000Y-61595000D03*
D18*
X226695000Y-62865000D03*
D19*
X226695000Y-60325000D03*
X225425000Y-61595000D03*
D18*
X220980000Y-39370000D03*
D19*
X223520000Y-39370000D03*
X222250000Y-38100000D03*
D18*
X220980000Y-34290000D03*
D19*
X223520000Y-34290000D03*
X222250000Y-33020000D03*
X233045000Y-102870000D03*
X233045000Y-100330000D03*
X231775000Y-101600000D03*
D26*
X226695000Y-101600000D03*
D19*
X227965000Y-100330000D03*
G36*
X228863026Y-102870000D02*
G01*
X227965000Y-103768026D01*
X227066974Y-102870000D01*
X227965000Y-101971974D01*
X228863026Y-102870000D01*
G37*
D13*
X234950000Y-97155000D03*
D15*
X234950000Y-86995000D03*
D13*
X180340000Y-83820000D03*
D15*
X190500000Y-83820000D03*
D13*
X120650000Y-51435000D03*
D15*
X130810000Y-51435000D03*
D14*
X203200000Y-71200000D03*
X203200000Y-76200000D03*
X194310000Y-32465000D03*
X194310000Y-37465000D03*
X130730000Y-45085000D03*
X125730000Y-45085000D03*
X130810000Y-35560000D03*
X125810000Y-35560000D03*
G36*
X104875999Y-120001036D02*
G01*
X104878995Y-120001143D01*
X104881989Y-120001321D01*
X104884977Y-120001571D01*
X104887959Y-120001891D01*
X104890932Y-120002282D01*
X104893895Y-120002745D01*
X104896846Y-120003277D01*
X104899783Y-120003879D01*
X104902706Y-120004552D01*
X104905611Y-120005293D01*
X104908498Y-120006104D01*
X104911365Y-120006983D01*
X104914211Y-120007930D01*
X104917032Y-120008944D01*
X104919829Y-120010026D01*
X104922600Y-120011173D01*
X104925342Y-120012386D01*
X104928055Y-120013664D01*
X104930737Y-120015007D01*
X104933385Y-120016412D01*
X104936000Y-120017881D01*
X104938579Y-120019411D01*
X104941121Y-120021002D01*
X104943624Y-120022653D01*
X104946087Y-120024363D01*
X104948509Y-120026132D01*
X104950888Y-120027957D01*
X104953223Y-120029839D01*
X104955512Y-120031776D01*
X104957755Y-120033766D01*
X104959950Y-120035810D01*
X104962095Y-120037905D01*
X104964190Y-120040050D01*
X104966234Y-120042245D01*
X104968224Y-120044488D01*
X104970161Y-120046777D01*
X104972043Y-120049112D01*
X104973868Y-120051491D01*
X104975637Y-120053913D01*
X104977347Y-120056376D01*
X104978998Y-120058879D01*
X104980589Y-120061421D01*
X104982119Y-120064000D01*
X104983588Y-120066615D01*
X104984993Y-120069263D01*
X104986336Y-120071945D01*
X104987614Y-120074658D01*
X104988827Y-120077400D01*
X104989974Y-120080171D01*
X104991056Y-120082968D01*
X104992070Y-120085789D01*
X104993017Y-120088635D01*
X104993896Y-120091502D01*
X104994707Y-120094389D01*
X104995448Y-120097294D01*
X104996121Y-120100217D01*
X104996723Y-120103154D01*
X104997255Y-120106105D01*
X104997718Y-120109068D01*
X104998109Y-120112041D01*
X104998429Y-120115023D01*
X104998679Y-120118011D01*
X104998857Y-120121005D01*
X104998964Y-120124001D01*
X104999000Y-120127000D01*
X104999000Y-129873000D01*
X104998964Y-129875999D01*
X104998857Y-129878995D01*
X104998679Y-129881989D01*
X104998429Y-129884977D01*
X104998109Y-129887959D01*
X104997718Y-129890932D01*
X104997255Y-129893895D01*
X104996723Y-129896846D01*
X104996121Y-129899783D01*
X104995448Y-129902706D01*
X104994707Y-129905611D01*
X104993896Y-129908498D01*
X104993017Y-129911365D01*
X104992070Y-129914211D01*
X104991056Y-129917032D01*
X104989974Y-129919829D01*
X104988827Y-129922600D01*
X104987614Y-129925342D01*
X104986336Y-129928055D01*
X104984993Y-129930737D01*
X104983588Y-129933385D01*
X104982119Y-129936000D01*
X104980589Y-129938579D01*
X104978998Y-129941121D01*
X104977347Y-129943624D01*
X104975637Y-129946087D01*
X104973868Y-129948509D01*
X104972043Y-129950888D01*
X104970161Y-129953223D01*
X104968224Y-129955512D01*
X104966234Y-129957755D01*
X104964190Y-129959950D01*
X104962095Y-129962095D01*
X104959950Y-129964190D01*
X104957755Y-129966234D01*
X104955512Y-129968224D01*
X104953223Y-129970161D01*
X104950888Y-129972043D01*
X104948509Y-129973868D01*
X104946087Y-129975637D01*
X104943624Y-129977347D01*
X104941121Y-129978998D01*
X104938579Y-129980589D01*
X104936000Y-129982119D01*
X104933385Y-129983588D01*
X104930737Y-129984993D01*
X104928055Y-129986336D01*
X104925342Y-129987614D01*
X104922600Y-129988827D01*
X104919829Y-129989974D01*
X104917032Y-129991056D01*
X104914211Y-129992070D01*
X104911365Y-129993017D01*
X104908498Y-129993896D01*
X104905611Y-129994707D01*
X104902706Y-129995448D01*
X104899783Y-129996121D01*
X104896846Y-129996723D01*
X104893895Y-129997255D01*
X104890932Y-129997718D01*
X104887959Y-129998109D01*
X104884977Y-129998429D01*
X104881989Y-129998679D01*
X104878995Y-129998857D01*
X104875999Y-129998964D01*
X104873000Y-129999000D01*
X90127000Y-129999000D01*
X90124001Y-129998964D01*
X90121005Y-129998857D01*
X90118011Y-129998679D01*
X90115023Y-129998429D01*
X90112041Y-129998109D01*
X90109068Y-129997718D01*
X90106105Y-129997255D01*
X90103154Y-129996723D01*
X90100217Y-129996121D01*
X90097294Y-129995448D01*
X90094389Y-129994707D01*
X90091502Y-129993896D01*
X90088635Y-129993017D01*
X90085789Y-129992070D01*
X90082968Y-129991056D01*
X90080171Y-129989974D01*
X90077400Y-129988827D01*
X90074658Y-129987614D01*
X90071945Y-129986336D01*
X90069263Y-129984993D01*
X90066615Y-129983588D01*
X90064000Y-129982119D01*
X90061421Y-129980589D01*
X90058879Y-129978998D01*
X90056376Y-129977347D01*
X90053913Y-129975637D01*
X90051491Y-129973868D01*
X90049112Y-129972043D01*
X90046777Y-129970161D01*
X90044488Y-129968224D01*
X90042245Y-129966234D01*
X90040050Y-129964190D01*
X90037905Y-129962095D01*
X90035810Y-129959950D01*
X90033766Y-129957755D01*
X90031776Y-129955512D01*
X90029839Y-129953223D01*
X90027957Y-129950888D01*
X90026132Y-129948509D01*
X90024363Y-129946087D01*
X90022653Y-129943624D01*
X90021002Y-129941121D01*
X90019411Y-129938579D01*
X90017881Y-129936000D01*
X90016412Y-129933385D01*
X90015007Y-129930737D01*
X90013664Y-129928055D01*
X90012386Y-129925342D01*
X90011173Y-129922600D01*
X90010026Y-129919829D01*
X90008944Y-129917032D01*
X90007930Y-129914211D01*
X90006983Y-129911365D01*
X90006104Y-129908498D01*
X90005293Y-129905611D01*
X90004552Y-129902706D01*
X90003879Y-129899783D01*
X90003277Y-129896846D01*
X90002745Y-129893895D01*
X90002282Y-129890932D01*
X90001891Y-129887959D01*
X90001571Y-129884977D01*
X90001321Y-129881989D01*
X90001143Y-129878995D01*
X90001036Y-129875999D01*
X90001000Y-129873000D01*
X90001000Y-125000004D01*
X93399009Y-125000004D01*
X93399010Y-125000038D01*
X93399033Y-125000452D01*
X93418649Y-125249689D01*
X93418718Y-125250432D01*
X93418732Y-125250516D01*
X93418791Y-125250793D01*
X93418819Y-125250913D01*
X93477169Y-125493956D01*
X93477350Y-125494672D01*
X93477383Y-125494780D01*
X93477491Y-125495059D01*
X93477559Y-125495228D01*
X93573173Y-125726062D01*
X93573495Y-125726810D01*
X93573519Y-125726859D01*
X93573714Y-125727194D01*
X93704360Y-125940390D01*
X93704763Y-125941027D01*
X93704793Y-125941068D01*
X93705020Y-125941348D01*
X93705123Y-125941470D01*
X93867391Y-126131462D01*
X93867855Y-126131993D01*
X93867923Y-126132067D01*
X93867987Y-126132127D01*
X93868197Y-126132316D01*
X93868367Y-126132464D01*
X94058291Y-126294673D01*
X94058927Y-126295203D01*
X94059000Y-126295256D01*
X94059248Y-126295417D01*
X94059334Y-126295470D01*
X94272497Y-126426097D01*
X94273123Y-126426470D01*
X94273209Y-126426515D01*
X94273492Y-126426641D01*
X94273610Y-126426691D01*
X94504526Y-126522339D01*
X94505247Y-126522626D01*
X94505329Y-126522651D01*
X94505730Y-126522756D01*
X94748752Y-126581100D01*
X94749539Y-126581278D01*
X94749559Y-126581281D01*
X94750002Y-126581327D01*
X94999240Y-126600942D01*
X94999953Y-126600990D01*
X95000038Y-126600990D01*
X95000452Y-126600967D01*
X95249689Y-126581351D01*
X95250432Y-126581282D01*
X95250516Y-126581268D01*
X95250793Y-126581209D01*
X95250913Y-126581181D01*
X95493956Y-126522831D01*
X95494676Y-126522649D01*
X95494787Y-126522614D01*
X95495059Y-126522509D01*
X95495228Y-126522441D01*
X95726062Y-126426827D01*
X95726810Y-126426505D01*
X95726859Y-126426481D01*
X95727194Y-126426286D01*
X95940390Y-126295640D01*
X95941027Y-126295237D01*
X95941068Y-126295207D01*
X95941348Y-126294980D01*
X95941470Y-126294877D01*
X96131462Y-126132609D01*
X96131993Y-126132145D01*
X96132067Y-126132077D01*
X96132127Y-126132013D01*
X96132316Y-126131803D01*
X96132464Y-126131633D01*
X96294673Y-125941709D01*
X96295203Y-125941073D01*
X96295256Y-125941000D01*
X96295417Y-125940752D01*
X96295470Y-125940666D01*
X96426097Y-125727503D01*
X96426470Y-125726877D01*
X96426515Y-125726791D01*
X96426641Y-125726508D01*
X96426691Y-125726390D01*
X96522339Y-125495474D01*
X96522626Y-125494753D01*
X96522651Y-125494671D01*
X96522756Y-125494270D01*
X96581100Y-125251248D01*
X96581278Y-125250461D01*
X96581281Y-125250441D01*
X96581327Y-125249998D01*
X96600942Y-125000760D01*
X96600990Y-125000047D01*
X96600990Y-124999962D01*
X96600967Y-124999548D01*
X96581351Y-124750311D01*
X96581282Y-124749568D01*
X96581276Y-124749526D01*
X96581265Y-124749471D01*
X96581209Y-124749207D01*
X96581181Y-124749087D01*
X96522826Y-124506022D01*
X96522649Y-124505324D01*
X96522617Y-124505220D01*
X96522509Y-124504941D01*
X96522441Y-124504772D01*
X96426827Y-124273938D01*
X96426505Y-124273190D01*
X96426481Y-124273141D01*
X96426286Y-124272806D01*
X96295615Y-124059571D01*
X96295237Y-124058973D01*
X96295207Y-124058932D01*
X96294980Y-124058652D01*
X96294877Y-124058530D01*
X96132609Y-123868538D01*
X96132145Y-123868007D01*
X96132077Y-123867933D01*
X96132013Y-123867873D01*
X96131803Y-123867684D01*
X96131633Y-123867536D01*
X95941709Y-123705327D01*
X95941073Y-123704797D01*
X95941000Y-123704744D01*
X95940752Y-123704583D01*
X95940666Y-123704530D01*
X95727503Y-123573903D01*
X95726877Y-123573530D01*
X95726791Y-123573485D01*
X95726508Y-123573359D01*
X95726390Y-123573309D01*
X95495474Y-123477661D01*
X95494753Y-123477374D01*
X95494671Y-123477349D01*
X95494270Y-123477244D01*
X95251248Y-123418900D01*
X95250461Y-123418722D01*
X95250441Y-123418719D01*
X95249998Y-123418673D01*
X95000760Y-123399058D01*
X95000047Y-123399010D01*
X94999962Y-123399010D01*
X94999548Y-123399033D01*
X94750311Y-123418649D01*
X94749568Y-123418718D01*
X94749484Y-123418732D01*
X94749207Y-123418791D01*
X94749087Y-123418819D01*
X94506044Y-123477169D01*
X94505324Y-123477351D01*
X94505220Y-123477383D01*
X94504941Y-123477491D01*
X94504775Y-123477558D01*
X94273938Y-123573173D01*
X94273190Y-123573495D01*
X94273141Y-123573519D01*
X94272806Y-123573714D01*
X94059610Y-123704360D01*
X94058973Y-123704763D01*
X94058932Y-123704793D01*
X94058652Y-123705020D01*
X94058530Y-123705123D01*
X93868538Y-123867391D01*
X93868007Y-123867855D01*
X93867933Y-123867923D01*
X93867873Y-123867987D01*
X93867684Y-123868197D01*
X93867536Y-123868367D01*
X93705327Y-124058291D01*
X93704797Y-124058927D01*
X93704744Y-124059000D01*
X93704583Y-124059248D01*
X93704530Y-124059334D01*
X93573903Y-124272497D01*
X93573530Y-124273123D01*
X93573485Y-124273209D01*
X93573359Y-124273492D01*
X93573309Y-124273610D01*
X93477661Y-124504526D01*
X93477374Y-124505247D01*
X93477349Y-124505329D01*
X93477244Y-124505730D01*
X93418900Y-124748752D01*
X93418722Y-124749539D01*
X93418719Y-124749559D01*
X93418673Y-124750002D01*
X93399058Y-124999240D01*
X93399010Y-124999953D01*
X93399009Y-125000004D01*
X90001000Y-125000004D01*
X90001000Y-120127000D01*
X90001036Y-120124001D01*
X90001143Y-120121005D01*
X90001321Y-120118011D01*
X90001571Y-120115023D01*
X90001891Y-120112041D01*
X90002282Y-120109068D01*
X90002745Y-120106105D01*
X90003277Y-120103154D01*
X90003879Y-120100217D01*
X90004552Y-120097294D01*
X90005293Y-120094389D01*
X90006104Y-120091502D01*
X90006983Y-120088635D01*
X90007930Y-120085789D01*
X90008944Y-120082968D01*
X90010026Y-120080171D01*
X90011173Y-120077400D01*
X90012386Y-120074658D01*
X90013664Y-120071945D01*
X90015007Y-120069263D01*
X90016412Y-120066615D01*
X90017881Y-120064000D01*
X90019411Y-120061421D01*
X90021002Y-120058879D01*
X90022653Y-120056376D01*
X90024363Y-120053913D01*
X90026132Y-120051491D01*
X90027957Y-120049112D01*
X90029839Y-120046777D01*
X90031776Y-120044488D01*
X90033766Y-120042245D01*
X90035810Y-120040050D01*
X90037905Y-120037905D01*
X90040050Y-120035810D01*
X90042245Y-120033766D01*
X90044488Y-120031776D01*
X90046777Y-120029839D01*
X90049112Y-120027957D01*
X90051491Y-120026132D01*
X90053913Y-120024363D01*
X90056376Y-120022653D01*
X90058879Y-120021002D01*
X90061421Y-120019411D01*
X90064000Y-120017881D01*
X90066615Y-120016412D01*
X90069263Y-120015007D01*
X90071945Y-120013664D01*
X90074658Y-120012386D01*
X90077400Y-120011173D01*
X90080171Y-120010026D01*
X90082968Y-120008944D01*
X90085789Y-120007930D01*
X90088635Y-120006983D01*
X90091502Y-120006104D01*
X90094389Y-120005293D01*
X90097294Y-120004552D01*
X90100217Y-120003879D01*
X90103154Y-120003277D01*
X90106105Y-120002745D01*
X90109068Y-120002282D01*
X90112041Y-120001891D01*
X90115023Y-120001571D01*
X90118011Y-120001321D01*
X90121005Y-120001143D01*
X90124001Y-120001036D01*
X90127000Y-120001000D01*
X104873000Y-120001000D01*
X104875999Y-120001036D01*
G37*
G36*
X104875999Y-30001036D02*
G01*
X104878995Y-30001143D01*
X104881989Y-30001321D01*
X104884977Y-30001571D01*
X104887959Y-30001891D01*
X104890932Y-30002282D01*
X104893895Y-30002745D01*
X104896846Y-30003277D01*
X104899783Y-30003879D01*
X104902706Y-30004552D01*
X104905611Y-30005293D01*
X104908498Y-30006104D01*
X104911365Y-30006983D01*
X104914211Y-30007930D01*
X104917032Y-30008944D01*
X104919829Y-30010026D01*
X104922600Y-30011173D01*
X104925342Y-30012386D01*
X104928055Y-30013664D01*
X104930737Y-30015007D01*
X104933385Y-30016412D01*
X104936000Y-30017881D01*
X104938579Y-30019411D01*
X104941121Y-30021002D01*
X104943624Y-30022653D01*
X104946087Y-30024363D01*
X104948509Y-30026132D01*
X104950888Y-30027957D01*
X104953223Y-30029839D01*
X104955512Y-30031776D01*
X104957755Y-30033766D01*
X104959950Y-30035810D01*
X104962095Y-30037905D01*
X104964190Y-30040050D01*
X104966234Y-30042245D01*
X104968224Y-30044488D01*
X104970161Y-30046777D01*
X104972043Y-30049112D01*
X104973868Y-30051491D01*
X104975637Y-30053913D01*
X104977347Y-30056376D01*
X104978998Y-30058879D01*
X104980589Y-30061421D01*
X104982119Y-30064000D01*
X104983588Y-30066615D01*
X104984993Y-30069263D01*
X104986336Y-30071945D01*
X104987614Y-30074658D01*
X104988827Y-30077400D01*
X104989974Y-30080171D01*
X104991056Y-30082968D01*
X104992070Y-30085789D01*
X104993017Y-30088635D01*
X104993896Y-30091502D01*
X104994707Y-30094389D01*
X104995448Y-30097294D01*
X104996121Y-30100217D01*
X104996723Y-30103154D01*
X104997255Y-30106105D01*
X104997718Y-30109068D01*
X104998109Y-30112041D01*
X104998429Y-30115023D01*
X104998679Y-30118011D01*
X104998857Y-30121005D01*
X104998964Y-30124001D01*
X104999000Y-30127000D01*
X104999000Y-39873000D01*
X104998964Y-39875999D01*
X104998857Y-39878995D01*
X104998679Y-39881989D01*
X104998429Y-39884977D01*
X104998109Y-39887959D01*
X104997718Y-39890932D01*
X104997255Y-39893895D01*
X104996723Y-39896846D01*
X104996121Y-39899783D01*
X104995448Y-39902706D01*
X104994707Y-39905611D01*
X104993896Y-39908498D01*
X104993017Y-39911365D01*
X104992070Y-39914211D01*
X104991056Y-39917032D01*
X104989974Y-39919829D01*
X104988827Y-39922600D01*
X104987614Y-39925342D01*
X104986336Y-39928055D01*
X104984993Y-39930737D01*
X104983588Y-39933385D01*
X104982119Y-39936000D01*
X104980589Y-39938579D01*
X104978998Y-39941121D01*
X104977347Y-39943624D01*
X104975637Y-39946087D01*
X104973868Y-39948509D01*
X104972043Y-39950888D01*
X104970161Y-39953223D01*
X104968224Y-39955512D01*
X104966234Y-39957755D01*
X104964190Y-39959950D01*
X104962095Y-39962095D01*
X104959950Y-39964190D01*
X104957755Y-39966234D01*
X104955512Y-39968224D01*
X104953223Y-39970161D01*
X104950888Y-39972043D01*
X104948509Y-39973868D01*
X104946087Y-39975637D01*
X104943624Y-39977347D01*
X104941121Y-39978998D01*
X104938579Y-39980589D01*
X104936000Y-39982119D01*
X104933385Y-39983588D01*
X104930737Y-39984993D01*
X104928055Y-39986336D01*
X104925342Y-39987614D01*
X104922600Y-39988827D01*
X104919829Y-39989974D01*
X104917032Y-39991056D01*
X104914211Y-39992070D01*
X104911365Y-39993017D01*
X104908498Y-39993896D01*
X104905611Y-39994707D01*
X104902706Y-39995448D01*
X104899783Y-39996121D01*
X104896846Y-39996723D01*
X104893895Y-39997255D01*
X104890932Y-39997718D01*
X104887959Y-39998109D01*
X104884977Y-39998429D01*
X104881989Y-39998679D01*
X104878995Y-39998857D01*
X104875999Y-39998964D01*
X104873000Y-39999000D01*
X90127000Y-39999000D01*
X90124001Y-39998964D01*
X90121005Y-39998857D01*
X90118011Y-39998679D01*
X90115023Y-39998429D01*
X90112041Y-39998109D01*
X90109068Y-39997718D01*
X90106105Y-39997255D01*
X90103154Y-39996723D01*
X90100217Y-39996121D01*
X90097294Y-39995448D01*
X90094389Y-39994707D01*
X90091502Y-39993896D01*
X90088635Y-39993017D01*
X90085789Y-39992070D01*
X90082968Y-39991056D01*
X90080171Y-39989974D01*
X90077400Y-39988827D01*
X90074658Y-39987614D01*
X90071945Y-39986336D01*
X90069263Y-39984993D01*
X90066615Y-39983588D01*
X90064000Y-39982119D01*
X90061421Y-39980589D01*
X90058879Y-39978998D01*
X90056376Y-39977347D01*
X90053913Y-39975637D01*
X90051491Y-39973868D01*
X90049112Y-39972043D01*
X90046777Y-39970161D01*
X90044488Y-39968224D01*
X90042245Y-39966234D01*
X90040050Y-39964190D01*
X90037905Y-39962095D01*
X90035810Y-39959950D01*
X90033766Y-39957755D01*
X90031776Y-39955512D01*
X90029839Y-39953223D01*
X90027957Y-39950888D01*
X90026132Y-39948509D01*
X90024363Y-39946087D01*
X90022653Y-39943624D01*
X90021002Y-39941121D01*
X90019411Y-39938579D01*
X90017881Y-39936000D01*
X90016412Y-39933385D01*
X90015007Y-39930737D01*
X90013664Y-39928055D01*
X90012386Y-39925342D01*
X90011173Y-39922600D01*
X90010026Y-39919829D01*
X90008944Y-39917032D01*
X90007930Y-39914211D01*
X90006983Y-39911365D01*
X90006104Y-39908498D01*
X90005293Y-39905611D01*
X90004552Y-39902706D01*
X90003879Y-39899783D01*
X90003277Y-39896846D01*
X90002745Y-39893895D01*
X90002282Y-39890932D01*
X90001891Y-39887959D01*
X90001571Y-39884977D01*
X90001321Y-39881989D01*
X90001143Y-39878995D01*
X90001036Y-39875999D01*
X90001000Y-39873000D01*
X90001000Y-35000004D01*
X93399009Y-35000004D01*
X93399010Y-35000038D01*
X93399033Y-35000452D01*
X93418649Y-35249689D01*
X93418718Y-35250432D01*
X93418732Y-35250516D01*
X93418791Y-35250793D01*
X93418819Y-35250913D01*
X93477169Y-35493956D01*
X93477350Y-35494672D01*
X93477383Y-35494780D01*
X93477491Y-35495059D01*
X93477559Y-35495228D01*
X93573173Y-35726062D01*
X93573495Y-35726810D01*
X93573519Y-35726859D01*
X93573714Y-35727194D01*
X93704360Y-35940390D01*
X93704763Y-35941027D01*
X93704793Y-35941068D01*
X93705020Y-35941348D01*
X93705123Y-35941470D01*
X93867391Y-36131462D01*
X93867855Y-36131993D01*
X93867923Y-36132067D01*
X93867987Y-36132127D01*
X93868197Y-36132316D01*
X93868367Y-36132464D01*
X94058291Y-36294673D01*
X94058927Y-36295203D01*
X94059000Y-36295256D01*
X94059248Y-36295417D01*
X94059334Y-36295470D01*
X94272497Y-36426097D01*
X94273123Y-36426470D01*
X94273209Y-36426515D01*
X94273492Y-36426641D01*
X94273610Y-36426691D01*
X94504526Y-36522339D01*
X94505247Y-36522626D01*
X94505329Y-36522651D01*
X94505730Y-36522756D01*
X94748752Y-36581100D01*
X94749539Y-36581278D01*
X94749559Y-36581281D01*
X94750002Y-36581327D01*
X94999240Y-36600942D01*
X94999953Y-36600990D01*
X95000038Y-36600990D01*
X95000452Y-36600967D01*
X95249689Y-36581351D01*
X95250432Y-36581282D01*
X95250516Y-36581268D01*
X95250793Y-36581209D01*
X95250913Y-36581181D01*
X95493956Y-36522831D01*
X95494676Y-36522649D01*
X95494787Y-36522614D01*
X95495059Y-36522509D01*
X95495228Y-36522441D01*
X95726062Y-36426827D01*
X95726810Y-36426505D01*
X95726859Y-36426481D01*
X95727194Y-36426286D01*
X95940390Y-36295640D01*
X95941027Y-36295237D01*
X95941068Y-36295207D01*
X95941348Y-36294980D01*
X95941470Y-36294877D01*
X96131462Y-36132609D01*
X96131993Y-36132145D01*
X96132067Y-36132077D01*
X96132127Y-36132013D01*
X96132316Y-36131803D01*
X96132464Y-36131633D01*
X96294673Y-35941709D01*
X96295203Y-35941073D01*
X96295256Y-35941000D01*
X96295417Y-35940752D01*
X96295470Y-35940666D01*
X96426097Y-35727503D01*
X96426470Y-35726877D01*
X96426515Y-35726791D01*
X96426641Y-35726508D01*
X96426691Y-35726390D01*
X96522339Y-35495474D01*
X96522626Y-35494753D01*
X96522651Y-35494671D01*
X96522756Y-35494270D01*
X96581100Y-35251248D01*
X96581278Y-35250461D01*
X96581281Y-35250441D01*
X96581327Y-35249998D01*
X96600942Y-35000760D01*
X96600990Y-35000047D01*
X96600990Y-34999962D01*
X96600967Y-34999548D01*
X96581351Y-34750311D01*
X96581282Y-34749568D01*
X96581276Y-34749526D01*
X96581265Y-34749471D01*
X96581209Y-34749207D01*
X96581181Y-34749087D01*
X96522826Y-34506022D01*
X96522649Y-34505324D01*
X96522617Y-34505220D01*
X96522509Y-34504941D01*
X96522441Y-34504772D01*
X96426827Y-34273938D01*
X96426505Y-34273190D01*
X96426481Y-34273141D01*
X96426286Y-34272806D01*
X96295615Y-34059571D01*
X96295237Y-34058973D01*
X96295207Y-34058932D01*
X96294980Y-34058652D01*
X96294877Y-34058530D01*
X96132609Y-33868538D01*
X96132145Y-33868007D01*
X96132077Y-33867933D01*
X96132013Y-33867873D01*
X96131803Y-33867684D01*
X96131633Y-33867536D01*
X95941709Y-33705327D01*
X95941073Y-33704797D01*
X95941000Y-33704744D01*
X95940752Y-33704583D01*
X95940666Y-33704530D01*
X95727503Y-33573903D01*
X95726877Y-33573530D01*
X95726791Y-33573485D01*
X95726508Y-33573359D01*
X95726390Y-33573309D01*
X95495474Y-33477661D01*
X95494753Y-33477374D01*
X95494671Y-33477349D01*
X95494270Y-33477244D01*
X95251248Y-33418900D01*
X95250461Y-33418722D01*
X95250441Y-33418719D01*
X95249998Y-33418673D01*
X95000760Y-33399058D01*
X95000047Y-33399010D01*
X94999962Y-33399010D01*
X94999548Y-33399033D01*
X94750311Y-33418649D01*
X94749568Y-33418718D01*
X94749484Y-33418732D01*
X94749207Y-33418791D01*
X94749087Y-33418819D01*
X94506044Y-33477169D01*
X94505324Y-33477351D01*
X94505220Y-33477383D01*
X94504941Y-33477491D01*
X94504775Y-33477558D01*
X94273938Y-33573173D01*
X94273190Y-33573495D01*
X94273141Y-33573519D01*
X94272806Y-33573714D01*
X94059610Y-33704360D01*
X94058973Y-33704763D01*
X94058932Y-33704793D01*
X94058652Y-33705020D01*
X94058530Y-33705123D01*
X93868538Y-33867391D01*
X93868007Y-33867855D01*
X93867933Y-33867923D01*
X93867873Y-33867987D01*
X93867684Y-33868197D01*
X93867536Y-33868367D01*
X93705327Y-34058291D01*
X93704797Y-34058927D01*
X93704744Y-34059000D01*
X93704583Y-34059248D01*
X93704530Y-34059334D01*
X93573903Y-34272497D01*
X93573530Y-34273123D01*
X93573485Y-34273209D01*
X93573359Y-34273492D01*
X93573309Y-34273610D01*
X93477661Y-34504526D01*
X93477374Y-34505247D01*
X93477349Y-34505329D01*
X93477244Y-34505730D01*
X93418900Y-34748752D01*
X93418722Y-34749539D01*
X93418719Y-34749559D01*
X93418673Y-34750002D01*
X93399058Y-34999240D01*
X93399010Y-34999953D01*
X93399009Y-35000004D01*
X90001000Y-35000004D01*
X90001000Y-30127000D01*
X90001036Y-30124001D01*
X90001143Y-30121005D01*
X90001321Y-30118011D01*
X90001571Y-30115023D01*
X90001891Y-30112041D01*
X90002282Y-30109068D01*
X90002745Y-30106105D01*
X90003277Y-30103154D01*
X90003879Y-30100217D01*
X90004552Y-30097294D01*
X90005293Y-30094389D01*
X90006104Y-30091502D01*
X90006983Y-30088635D01*
X90007930Y-30085789D01*
X90008944Y-30082968D01*
X90010026Y-30080171D01*
X90011173Y-30077400D01*
X90012386Y-30074658D01*
X90013664Y-30071945D01*
X90015007Y-30069263D01*
X90016412Y-30066615D01*
X90017881Y-30064000D01*
X90019411Y-30061421D01*
X90021002Y-30058879D01*
X90022653Y-30056376D01*
X90024363Y-30053913D01*
X90026132Y-30051491D01*
X90027957Y-30049112D01*
X90029839Y-30046777D01*
X90031776Y-30044488D01*
X90033766Y-30042245D01*
X90035810Y-30040050D01*
X90037905Y-30037905D01*
X90040050Y-30035810D01*
X90042245Y-30033766D01*
X90044488Y-30031776D01*
X90046777Y-30029839D01*
X90049112Y-30027957D01*
X90051491Y-30026132D01*
X90053913Y-30024363D01*
X90056376Y-30022653D01*
X90058879Y-30021002D01*
X90061421Y-30019411D01*
X90064000Y-30017881D01*
X90066615Y-30016412D01*
X90069263Y-30015007D01*
X90071945Y-30013664D01*
X90074658Y-30012386D01*
X90077400Y-30011173D01*
X90080171Y-30010026D01*
X90082968Y-30008944D01*
X90085789Y-30007930D01*
X90088635Y-30006983D01*
X90091502Y-30006104D01*
X90094389Y-30005293D01*
X90097294Y-30004552D01*
X90100217Y-30003879D01*
X90103154Y-30003277D01*
X90106105Y-30002745D01*
X90109068Y-30002282D01*
X90112041Y-30001891D01*
X90115023Y-30001571D01*
X90118011Y-30001321D01*
X90121005Y-30001143D01*
X90124001Y-30001036D01*
X90127000Y-30001000D01*
X104873000Y-30001000D01*
X104875999Y-30001036D01*
G37*
M02*
