M48
; DRILL file {KiCad (5.99.0-2039-g05a89863c)} date Mon Jun 29 23:33:20 2020
; FORMAT={-:-/ absolute / inch / decimal}
; #@! TF.CreationDate,2020-06-29T23:33:20-06:00
; #@! TF.GenerationSoftware,Kicad,Pcbnew,(5.99.0-2039-g05a89863c)
FMAT,2
INCH
T1C0.0118
T2C0.0120
T3C0.0160
T4C0.0197
T5C0.0295
T6C0.0315
T7C0.0394
T8C0.0472
T9C0.1260
T10C0.1102
%
G90
G05
T1
X5.075Y-3.3
T2
X4.725Y-2.125
X4.8Y-1.6
X4.875Y-2.1
X4.875Y-2.25
X4.875Y-3.1
X4.95Y-3.2
X4.95Y-3.95
X5.0Y-3.9
X5.025Y-1.94
X5.025Y-3.7
X5.025Y-4.25
X5.05Y-1.35
X5.05Y-1.975
X5.05Y-3.6
X5.05Y-4.35
X5.12Y-4.04
X5.17Y-4.0
X5.17Y-4.15
X5.17Y-4.44
X5.25Y-2.35
X5.25Y-5.05
X5.32Y-4.15
X5.36Y-1.29
X5.36Y-1.4
X5.36Y-2.2
X5.36Y-2.45
X5.36Y-3.2
X5.36Y-4.3
X5.4Y-1.5
X5.4Y-2.3
X5.4Y-2.54
X5.4Y-2.7
X5.4Y-3.075
X5.4Y-3.4
X5.4Y-3.5
X5.4Y-3.7
X5.4Y-4.075
X5.4Y-4.6
X5.425Y-1.7
X5.425Y-2.275
X5.425Y-2.35
X5.425Y-3.6
X5.425Y-4.0
X5.425Y-4.8
X5.45Y-1.8
X5.45Y-3.025
X5.451Y-4.5
X5.451Y-4.75
X5.46Y-4.14
X5.475Y-4.35
X5.475Y-4.85
X5.475Y-4.9
X5.5Y-3.3
X5.5Y-3.875
X5.5Y-4.0
X5.524Y-1.75
X5.525Y-1.325
X5.525Y-2.625
X5.525Y-2.7
X5.525Y-4.04
X5.525Y-5.0
X5.555Y-1.93
X5.625Y-2.1
X5.65Y-3.7
X5.66Y-3.4
X5.67Y-4.7
X5.67Y-4.8
X5.675Y-2.0
X5.675Y-3.275
X5.675Y-3.5
X5.7Y-1.95
X5.7Y-3.1
X5.77Y-4.04
X5.81Y-1.29
X5.81Y-1.4
X5.81Y-2.2
X5.81Y-3.205
X5.81Y-4.115
X5.81Y-4.2
X5.8475Y-2.2975
X5.85Y-3.175
X5.85Y-3.5
X5.85Y-3.7
X5.85Y-3.75
X5.875Y-1.8
X5.875Y-3.55
X5.875Y-4.45
X5.875Y-4.9
X5.9Y-1.7
X5.9Y-2.85
X5.9Y-4.475
X5.9Y-4.7
X5.925Y-1.6
X5.925Y-3.8
X5.925Y-4.55
X5.925Y-4.775
X5.95Y-2.5
X5.95Y-2.7
X5.95Y-2.9
X5.95Y-3.075
X5.99Y-1.325
X5.99Y-3.6
X5.99Y-5.0
X6.05Y-2.1
X6.05Y-3.145
X6.1Y-2.225
X6.1Y-4.25
X6.1016Y-3.4725
X6.125Y-2.15
X6.125Y-3.9
X6.15Y-3.05
X6.15Y-3.2
X6.15Y-3.475
X6.15Y-3.575
X6.15Y-4.825
X6.175Y-1.95
X6.2Y-5.05
X6.26Y-2.05
X6.26Y-2.2
X6.26Y-3.3
X6.26Y-4.05
X6.26Y-4.115
X6.26Y-4.2
X6.29Y-2.65
X6.3Y-1.925
X6.3Y-2.3
X6.3Y-2.45
X6.3Y-2.85
X6.3Y-3.6
X6.3Y-3.8
X6.3Y-4.025
X6.325Y-2.5
X6.325Y-2.9
X6.325Y-4.7
X6.35Y-2.4
X6.35Y-2.8
X6.35Y-3.6
X6.35Y-4.6
X6.375Y-2.325
X6.375Y-2.6
X6.375Y-3.7
X6.375Y-4.5
X6.4Y-2.26
X6.4Y-2.35
X6.4Y-2.7
X6.4Y-3.8
X6.4Y-4.05
X6.4Y-4.4
X6.425Y-5.0
X6.44Y-1.325
X6.48Y-4.0
X6.52Y-4.11
X6.55Y-3.75
X6.55Y-3.95
X6.569Y-3.475
X6.574Y-2.4
X6.575Y-2.2
X6.575Y-2.3
X6.575Y-2.6
X6.575Y-2.7
X6.575Y-2.9
X6.575Y-3.9
X6.575Y-4.075
X6.59Y-4.3
X6.59Y-4.7
X6.6Y-3.3
X6.6Y-4.15
X6.65Y-3.2
X6.65Y-5.05
X6.71Y-2.2
X6.71Y-3.175
X6.71Y-3.3
X6.71Y-4.3
X6.745Y-4.5
X6.745Y-4.625
X6.775Y-2.6
X6.775Y-2.8
X6.775Y-3.175
X6.78Y-4.6
X6.8Y-1.875
X6.8Y-2.075
X6.8Y-2.3
X6.8Y-2.4
X6.8Y-3.05
X6.8Y-4.4
X6.8Y-4.7
X6.8Y-4.8
X6.8Y-4.9
X6.825Y-2.55
X6.825Y-3.65
X6.825Y-4.225
X6.85Y-2.75
X6.85Y-3.55
X6.85Y-3.725
X6.85Y-4.0
X6.85Y-4.15
X6.85Y-4.25
X6.85Y-4.7
X6.9Y-1.325
X6.9Y-2.725
X6.9Y-3.9
X6.9Y-5.0
X6.95Y-3.125
X6.955Y-3.22
X6.975Y-1.7
X6.975Y-1.8
X6.975Y-2.1
X7.025Y-3.35
X7.025Y-4.5
X7.08Y-3.415
X7.1Y-5.05
X7.175Y-1.425
X7.175Y-3.35
X7.175Y-3.6
X7.175Y-3.85
X7.175Y-4.35
X7.225Y-1.325
X7.225Y-1.75
X7.225Y-2.875
X7.225Y-3.35
X7.225Y-3.5
X7.225Y-4.475
X7.25Y-3.9
X7.25Y-4.75
X7.275Y-3.7
X7.275Y-4.55
X7.3Y-3.55
X7.3Y-4.575
X7.325Y-4.1
X7.325Y-4.35
X7.3375Y-3.8
X7.35Y-4.0
X7.35Y-4.45
X7.375Y-3.65
X7.375Y-4.675
X7.385Y-1.295
X7.385Y-1.55
X7.385Y-1.805
X7.385Y-2.175
X7.385Y-2.67
X7.39Y-3.295
X7.39Y-4.9
X7.4Y-3.6
X7.4Y-3.8
X7.4Y-3.85
X7.4Y-4.8
X7.425Y-3.75
X7.425Y-4.7
X7.45Y-3.725
X7.45Y-4.3
X7.45Y-4.4
X7.475Y-3.675
X7.475Y-4.1
X7.475Y-4.425
X7.53Y-3.8
X7.53Y-4.0
X7.53Y-4.15
X7.53Y-4.4
X7.59Y-2.73
X7.6Y-5.0
X7.615Y-3.19
X7.66Y-1.595
X7.755Y-2.245
X7.76Y-2.925
X7.85Y-3.13
X7.9002Y-1.2998
X7.905Y-1.98
X7.91Y-3.525
X7.91Y-3.79
X7.91Y-3.915
X7.91Y-4.0
X7.91Y-4.175
X7.94Y-1.72
X7.94Y-1.915
X7.94Y-2.03
X7.95Y-1.5
X7.95Y-4.3
X7.95Y-4.65
X7.975Y-1.88
X7.975Y-4.2
X7.976Y-4.55
X8.0Y-1.6
X8.0Y-3.075
X8.005Y-4.8
X8.005Y-4.905
X8.025Y-3.85
X8.025Y-4.55
X8.075Y-3.43
X8.075Y-5.0
X8.12Y-2.7
X8.135Y-2.27
X8.135Y-3.815
X8.15Y-1.75
X8.2Y-2.225
X8.2Y-2.65
X8.215Y-3.21
X8.225Y-1.925
X8.24Y-3.9
X8.24Y-4.525
X8.25Y-3.49
X8.26Y-2.85
X8.31Y-2.38
X8.31Y-2.56
X8.31Y-2.725
X8.31Y-3.05
X8.34Y-2.5
X8.34Y-3.15
X8.36Y-3.92
X8.36Y-4.0
X8.365Y-1.835
X8.4Y-3.0
X8.4Y-3.26
X8.4Y-4.275
X8.4Y-4.6
X8.425Y-1.545
X8.425Y-4.4
X8.425Y-4.7
X8.45Y-4.1
X8.45Y-4.775
X8.465Y-1.99
X8.475Y-4.05
X8.475Y-4.4
X8.475Y-4.55
X8.475Y-4.8
X8.5Y-3.325
X8.5Y-3.525
X8.5Y-3.725
X8.525Y-5.0
X8.55Y-2.765
X8.625Y-3.75
X8.63Y-3.325
X8.65Y-3.875
X8.65Y-4.55
X8.685Y-4.905
X8.69Y-4.33
X8.7Y-4.2
X8.7Y-4.5
X8.7Y-4.7
X8.74Y-3.92
X8.75Y-3.525
X8.75Y-3.7
X8.8Y-2.38
X8.845Y-2.065
X8.845Y-4.675
X8.875Y-2.9
X8.875Y-3.65
X8.875Y-3.935
X8.91Y-1.315
X8.915Y-1.62
X8.925Y-2.6
X8.95Y-4.625
X8.975Y-2.6
X8.975Y-4.75
X9.0Y-3.625
X9.0Y-4.85
X9.025Y-4.225
X9.05Y-4.25
X9.075Y-2.95
X9.075Y-3.525
X9.075Y-3.775
X9.075Y-4.325
X9.095Y-4.905
X9.1Y-4.4
X9.125Y-2.65
X9.125Y-4.5
X9.15Y-4.6
X9.175Y-4.325
X9.175Y-4.7
X9.19Y-2.845
X9.2Y-4.275
X9.2Y-4.8
X9.225Y-4.3
X9.25Y-4.375
X9.26Y-2.265
X9.27Y-4.595
X9.275Y-4.45
X9.355Y-1.5
X9.435Y-1.395
X9.61Y-1.245
T3
X5.36Y-1.529
T4
X4.4331Y-1.378
X4.4607Y-1.3111
X4.4607Y-1.4448
X4.5276Y-1.2835
X4.5276Y-1.4724
X4.5944Y-1.3111
X4.5944Y-1.4448
X4.622Y-1.378
X4.4331Y-4.9213
X4.4607Y-4.8544
X4.4607Y-4.9881
X4.5276Y-4.8268
X4.5276Y-5.0157
X4.5944Y-4.8544
X4.5944Y-4.9881
X4.622Y-4.9213
T5
X8.7Y-1.35
X8.75Y-1.3
X8.8Y-1.35
X8.7Y-1.55
X8.75Y-1.5
X8.8Y-1.55
X8.875Y-2.425
X8.925Y-2.375
X8.925Y-2.475
X8.925Y-4.0
X8.975Y-3.95
X8.975Y-4.05
X9.075Y-2.425
X9.125Y-2.375
X9.125Y-2.475
X9.125Y-4.0
X9.175Y-3.95
X9.175Y-4.05
X7.65Y-3.35
X7.7Y-3.3
X7.7Y-3.4
T6
X5.75Y-2.2
X5.75Y-2.3
X5.75Y-2.4
X5.75Y-2.5
X5.75Y-2.6
X5.75Y-2.7
X5.75Y-2.8
X5.75Y-2.9
X6.05Y-2.2
X6.05Y-2.3
X6.05Y-2.4
X6.05Y-2.5
X6.05Y-2.6
X6.05Y-2.7
X6.05Y-2.8
X6.05Y-2.9
X7.1Y-2.05
X7.5Y-2.05
X5.75Y-3.2
X5.75Y-3.3
X5.75Y-3.4
X5.75Y-3.5
X5.75Y-3.6
X5.75Y-3.7
X5.75Y-3.8
X5.75Y-3.9
X6.05Y-3.2
X6.05Y-3.3
X6.05Y-3.4
X6.05Y-3.5
X6.05Y-3.6
X6.05Y-3.7
X6.05Y-3.8
X6.05Y-3.9
X7.1Y-1.425
X7.5Y-1.425
X5.65Y-5.05
X6.05Y-5.05
X8.8Y-2.6
X9.2Y-2.6
X7.85Y-4.0
X7.85Y-4.1
X7.85Y-4.2
X7.85Y-4.3
X7.85Y-4.4
X7.85Y-4.5
X7.85Y-4.6
X7.85Y-4.7
X7.85Y-4.8
X7.85Y-4.9
X8.15Y-4.0
X8.15Y-4.1
X8.15Y-4.2
X8.15Y-4.3
X8.15Y-4.4
X8.15Y-4.5
X8.15Y-4.6
X8.15Y-4.7
X8.15Y-4.8
X8.15Y-4.9
X4.75Y-1.525
X5.15Y-1.525
X9.125Y-3.425
X9.125Y-3.825
X7.1Y-3.05
X7.5Y-3.05
X8.375Y-3.425
X8.375Y-3.825
X4.875Y-4.075
X4.875Y-4.2128
X7.1Y-2.425
X7.5Y-2.425
X5.75Y-4.2
X5.75Y-4.3
X5.75Y-4.4
X5.75Y-4.5
X5.75Y-4.6
X5.75Y-4.7
X5.75Y-4.8
X5.75Y-4.9
X6.05Y-4.2
X6.05Y-4.3
X6.05Y-4.4
X6.05Y-4.5
X6.05Y-4.6
X6.05Y-4.7
X6.05Y-4.8
X6.05Y-4.9
X7.1Y-1.925
X7.5Y-1.925
X6.15Y-2.05
X6.55Y-2.05
X9.025Y-1.85
X9.025Y-2.25
X7.65Y-1.925
X8.05Y-1.925
X7.1Y-2.925
X7.5Y-2.925
X8.15Y-2.85
X8.15Y-2.95
X8.15Y-3.05
X8.15Y-3.15
X8.45Y-2.85
X8.45Y-2.95
X8.45Y-3.05
X8.45Y-3.15
X7.1Y-2.3
X7.5Y-2.3
X7.8Y-1.3
X7.8Y-1.4
X7.8Y-1.5
X7.8Y-1.6
X8.1Y-1.3
X8.1Y-1.4
X8.1Y-1.5
X8.1Y-1.6
X7.1Y-3.6
X7.1Y-3.7
X7.1Y-3.8
X7.1Y-3.9
X7.1Y-4.0
X7.1Y-4.1
X7.1Y-4.2
X7.1Y-4.3
X7.1Y-4.4
X7.1Y-4.5
X7.1Y-4.6
X7.1Y-4.7
X7.1Y-4.8
X7.1Y-4.9
X7.7Y-3.6
X7.7Y-3.7
X7.7Y-3.8
X7.7Y-3.9
X7.7Y-4.0
X7.7Y-4.1
X7.7Y-4.2
X7.7Y-4.3
X7.7Y-4.4
X7.7Y-4.5
X7.7Y-4.6
X7.7Y-4.7
X7.7Y-4.8
X7.7Y-4.9
X7.1Y-1.8
X7.5Y-1.8
X7.1Y-1.675
X7.5Y-1.675
X7.1Y-1.55
X7.5Y-1.55
X4.95Y-1.775
X5.1469Y-1.775
X9.15Y-1.35
X9.15Y-1.75
X8.25Y-3.425
X8.25Y-3.825
X7.1Y-3.175
X7.5Y-3.175
X8.5Y-3.425
X8.5Y-3.825
X7.1Y-2.8
X7.5Y-2.8
X7.1Y-2.675
X7.5Y-2.675
X8.275Y-1.275
X8.275Y-1.775
X9.125Y-3.1
X9.125Y-3.1787
X9.025Y-1.35
X9.025Y-1.75
X5.65Y-3.025
X6.05Y-3.025
X6.2Y-3.3
X6.2Y-3.4
X6.2Y-3.5
X6.2Y-3.6
X6.2Y-3.7
X6.2Y-3.8
X6.2Y-3.9
X6.5Y-3.3
X6.5Y-3.4
X6.5Y-3.5
X6.5Y-3.6
X6.5Y-3.7
X6.5Y-3.8
X6.5Y-3.9
X5.3Y-1.4
X5.3Y-1.5
X5.3Y-1.6
X5.3Y-1.7
X5.3Y-1.8
X5.3Y-1.9
X5.3Y-2.0
X5.6Y-1.4
X5.6Y-1.5
X5.6Y-1.6
X5.6Y-1.7
X5.6Y-1.8
X5.6Y-1.9
X5.6Y-2.0
X5.75Y-1.4
X5.75Y-1.5
X5.75Y-1.6
X5.75Y-1.7
X5.75Y-1.8
X5.75Y-1.9
X5.75Y-2.0
X6.05Y-1.4
X6.05Y-1.5
X6.05Y-1.6
X6.05Y-1.7
X6.05Y-1.8
X6.05Y-1.9
X6.05Y-2.0
X4.75Y-1.65
X5.15Y-1.65
X8.775Y-4.0
X8.775Y-4.1
X8.775Y-4.2
X8.775Y-4.3
X8.775Y-4.4
X8.775Y-4.5
X8.775Y-4.6
X8.775Y-4.7
X8.775Y-4.8
X8.775Y-4.9
X8.0Y-2.8031
X8.0Y-3.0
X7.1Y-2.55
X7.5Y-2.55
X4.875Y-3.2
X4.875Y-3.3
X4.875Y-3.4
X4.875Y-3.5
X4.875Y-3.6
X4.875Y-3.7
X4.875Y-3.8
X4.875Y-3.9
X5.175Y-3.2
X5.175Y-3.3
X5.175Y-3.4
X5.175Y-3.5
X5.175Y-3.6
X5.175Y-3.7
X5.175Y-3.8
X5.175Y-3.9
X6.2Y-2.2
X6.2Y-2.3
X6.2Y-2.4
X6.2Y-2.5
X6.2Y-2.6
X6.2Y-2.7
X6.2Y-2.8
X6.2Y-2.9
X6.2Y-3.0
X6.2Y-3.1
X6.5Y-2.2
X6.5Y-2.3
X6.5Y-2.4
X6.5Y-2.5
X6.5Y-2.6
X6.5Y-2.7
X6.5Y-2.8
X6.5Y-2.9
X6.5Y-3.0
X6.5Y-3.1
X8.69Y-2.65
X8.69Y-3.05
X8.56Y-2.65
X8.56Y-3.05
X6.65Y-2.2
X6.65Y-2.3
X6.65Y-2.4
X6.65Y-2.5
X6.65Y-2.6
X6.65Y-2.7
X6.65Y-2.8
X6.65Y-2.9
X6.95Y-2.2
X6.95Y-2.3
X6.95Y-2.4
X6.95Y-2.5
X6.95Y-2.6
X6.95Y-2.7
X6.95Y-2.8
X6.95Y-2.9
X5.3Y-3.2
X5.3Y-3.3
X5.3Y-3.4
X5.3Y-3.5
X5.3Y-3.6
X5.3Y-3.7
X5.3Y-3.8
X5.6Y-3.2
X5.6Y-3.3
X5.6Y-3.4
X5.6Y-3.5
X5.6Y-3.6
X5.6Y-3.7
X5.6Y-3.8
X7.1Y-1.3
X7.5Y-1.3
X8.3Y-4.0
X8.3Y-4.1
X8.3Y-4.2
X8.3Y-4.3
X8.3Y-4.4
X8.3Y-4.5
X8.3Y-4.6
X8.3Y-4.7
X8.3Y-4.8
X8.3Y-4.9
X8.6Y-4.0
X8.6Y-4.1
X8.6Y-4.2
X8.6Y-4.3
X8.6Y-4.4
X8.6Y-4.5
X8.6Y-4.6
X8.6Y-4.7
X8.6Y-4.8
X8.6Y-4.9
X8.525Y-2.05
X8.525Y-2.55
X8.75Y-3.425
X8.75Y-3.825
X8.625Y-3.425
X8.625Y-3.825
X8.0Y-2.7
X8.4Y-2.7
X6.2Y-4.2
X6.2Y-4.3
X6.2Y-4.4
X6.2Y-4.5
X6.2Y-4.6
X6.2Y-4.7
X6.2Y-4.8
X6.2Y-4.9
X6.5Y-4.2
X6.5Y-4.3
X6.5Y-4.4
X6.5Y-4.5
X6.5Y-4.6
X6.5Y-4.7
X6.5Y-4.8
X6.5Y-4.9
X7.1Y-2.175
X7.5Y-2.175
X5.3Y-4.3
X5.3Y-4.4
X5.3Y-4.5
X5.3Y-4.6
X5.3Y-4.7
X5.3Y-4.8
X5.3Y-4.9
X5.6Y-4.3
X5.6Y-4.4
X5.6Y-4.5
X5.6Y-4.6
X5.6Y-4.7
X5.6Y-4.8
X5.6Y-4.9
X8.675Y-2.05
X8.675Y-2.55
X7.65Y-2.05
X8.05Y-2.05
X8.425Y-1.275
X8.425Y-1.775
X4.8Y-2.25
X4.8Y-2.55
X5.1Y-2.25
X5.1Y-2.55
X8.875Y-3.1
X8.875Y-3.1787
X8.575Y-1.275
X8.575Y-1.675
X9.15Y-1.85
X9.15Y-2.25
X4.9531Y-1.4
X5.15Y-1.4
X9.25Y-3.425
X9.25Y-3.825
X5.3Y-2.2
X5.3Y-2.3
X5.3Y-2.4
X5.3Y-2.5
X5.3Y-2.6
X5.3Y-2.7
X5.3Y-2.8
X5.3Y-2.9
X5.6Y-2.2
X5.6Y-2.3
X5.6Y-2.4
X5.6Y-2.5
X5.6Y-2.6
X5.6Y-2.7
X5.6Y-2.8
X5.6Y-2.9
X4.75Y-1.9
X5.15Y-1.9
X4.75Y-2.025
X5.15Y-2.025
X7.65Y-1.8
X8.05Y-1.8
X6.65Y-3.3
X6.65Y-3.4
X6.65Y-3.5
X6.65Y-3.6
X6.65Y-3.7
X6.65Y-3.8
X6.65Y-3.9
X6.65Y-4.0
X6.95Y-3.3
X6.95Y-3.4
X6.95Y-3.5
X6.95Y-3.6
X6.95Y-3.7
X6.95Y-3.8
X6.95Y-3.9
X6.95Y-4.0
X6.65Y-4.3
X6.65Y-4.4
X6.65Y-4.5
X6.65Y-4.6
X6.65Y-4.7
X6.65Y-4.8
X6.65Y-4.9
X6.95Y-4.3
X6.95Y-4.4
X6.95Y-4.5
X6.95Y-4.6
X6.95Y-4.7
X6.95Y-4.8
X6.95Y-4.9
X9.0Y-3.425
X9.0Y-3.825
X8.875Y-3.425
X8.875Y-3.825
X7.65Y-1.2781
X7.65Y-1.475
X7.1Y-3.3
X7.5Y-3.3
T7
X9.4339Y-1.5996
X9.4339Y-1.6996
X9.4339Y-1.7996
X9.4339Y-1.8996
X9.4339Y-1.9996
X9.4339Y-2.0996
X9.4339Y-2.1996
X9.4339Y-2.2996
X9.4339Y-2.3996
X9.4339Y-2.4996
X9.4339Y-2.5996
X9.4339Y-2.6996
X9.4339Y-2.7996
X9.4339Y-2.8996
X9.4339Y-2.9996
X9.4339Y-3.0996
X9.4339Y-3.1996
X9.4339Y-3.2996
X9.4339Y-3.3996
X9.4339Y-3.4996
X9.4339Y-3.5996
X9.4339Y-3.6996
X9.4339Y-3.7996
X9.4339Y-3.8996
X9.4339Y-3.9996
X9.4339Y-4.0996
X9.4339Y-4.1996
X9.4339Y-4.2996
X9.4339Y-4.3996
X9.4339Y-4.4996
X9.4339Y-4.5996
X9.4339Y-4.6996
X9.5339Y-1.5996
X9.5339Y-1.6996
X9.5339Y-1.7996
X9.5339Y-1.8996
X9.5339Y-1.9996
X9.5339Y-2.0996
X9.5339Y-2.1996
X9.5339Y-2.2996
X9.5339Y-2.3996
X9.5339Y-2.4996
X9.5339Y-2.5996
X9.5339Y-2.6996
X9.5339Y-2.7996
X9.5339Y-2.8996
X9.5339Y-2.9996
X9.5339Y-3.0996
X9.5339Y-3.1996
X9.5339Y-3.2996
X9.5339Y-3.3996
X9.5339Y-3.4996
X9.5339Y-3.5996
X9.5339Y-3.6996
X9.5339Y-3.7996
X9.5339Y-3.8996
X9.5339Y-3.9996
X9.5339Y-4.0996
X9.5339Y-4.1996
X9.5339Y-4.2996
X9.5339Y-4.3996
X9.5339Y-4.4996
X9.5339Y-4.5996
X9.5339Y-4.6996
X9.6339Y-1.5996
X9.6339Y-1.6996
X9.6339Y-1.7996
X9.6339Y-1.8996
X9.6339Y-1.9996
X9.6339Y-2.0996
X9.6339Y-2.1996
X9.6339Y-2.2996
X9.6339Y-2.3996
X9.6339Y-2.4996
X9.6339Y-2.5996
X9.6339Y-2.6996
X9.6339Y-2.7996
X9.6339Y-2.8996
X9.6339Y-2.9996
X9.6339Y-3.0996
X9.6339Y-3.1996
X9.6339Y-3.2996
X9.6339Y-3.3996
X9.6339Y-3.4996
X9.6339Y-3.5996
X9.6339Y-3.6996
X9.6339Y-3.7996
X9.6339Y-3.8996
X9.6339Y-3.9996
X9.6339Y-4.0996
X9.6339Y-4.1996
X9.6339Y-4.2996
X9.6339Y-4.3996
X9.6339Y-4.4996
X9.6339Y-4.5996
X9.6339Y-4.6996
T8
X8.0Y-2.3
X8.0Y-2.5
X8.2Y-2.4
X8.675Y-1.825
X8.875Y-1.725
X8.875Y-1.925
X7.625Y-2.925
X7.825Y-2.825
X7.825Y-3.025
X7.625Y-2.55
X7.825Y-2.45
X7.825Y-2.65
X8.175Y-2.0
X8.375Y-1.9
X8.375Y-2.1
X8.975Y-2.85
X9.175Y-2.75
X9.175Y-2.95
X7.875Y-3.25
X7.875Y-3.45
X8.075Y-3.35
T9
X4.5276Y-1.378
X4.5276Y-4.9213
T10
X9.7339Y-1.3996
X9.7339Y-4.8996
T0
M30
