G04 #@! TF.GenerationSoftware,KiCad,Pcbnew,(5.99.0-1588-g7ca069e63)*
G04 #@! TF.CreationDate,2020-05-10T11:49:47-06:00*
G04 #@! TF.ProjectId,module_proto,6d6f6475-6c65-45f7-9072-6f746f2e6b69,rev?*
G04 #@! TF.SameCoordinates,Original*
G04 #@! TF.FileFunction,Copper,L2,Bot*
G04 #@! TF.FilePolarity,Positive*
%FSLAX46Y46*%
G04 Gerber Fmt 4.6, Leading zero omitted, Abs format (unit mm)*
G04 Created by KiCad (PCBNEW (5.99.0-1588-g7ca069e63)) date 2020-05-10 11:49:47*
%MOMM*%
%LPD*%
G01*
G04 APERTURE LIST*
G04 #@! TA.AperFunction,ComponentPad*
%ADD10C,0.800000*%
G04 #@! TD*
G04 #@! TA.AperFunction,ComponentPad*
%ADD11C,6.400000*%
G04 #@! TD*
G04 #@! TA.AperFunction,ComponentPad*
%ADD12C,1.700000*%
G04 #@! TD*
G04 #@! TA.AperFunction,ComponentPad*
%ADD13R,1.700000X1.700000*%
G04 #@! TD*
G04 #@! TA.AperFunction,Conductor*
%ADD14C,1.000000*%
G04 #@! TD*
G04 #@! TA.AperFunction,Conductor*
%ADD15C,0.600000*%
G04 #@! TD*
G04 APERTURE END LIST*
D10*
X240697056Y-123302944D03*
X239000000Y-122600000D03*
X237302944Y-123302944D03*
X236600000Y-125000000D03*
X237302944Y-126697056D03*
X239000000Y-127400000D03*
X240697056Y-126697056D03*
X241400000Y-125000000D03*
D11*
X239000000Y-125000000D03*
X115000000Y-125000000D03*
D10*
X117400000Y-125000000D03*
X116697056Y-126697056D03*
X115000000Y-127400000D03*
X113302944Y-126697056D03*
X112600000Y-125000000D03*
X113302944Y-123302944D03*
X115000000Y-122600000D03*
X116697056Y-123302944D03*
X116697056Y-33302944D03*
X115000000Y-32600000D03*
X113302944Y-33302944D03*
X112600000Y-35000000D03*
X113302944Y-36697056D03*
X115000000Y-37400000D03*
X116697056Y-36697056D03*
X117400000Y-35000000D03*
D11*
X115000000Y-35000000D03*
X239000000Y-35000000D03*
D10*
X241400000Y-35000000D03*
X240697056Y-36697056D03*
X239000000Y-37400000D03*
X237302944Y-36697056D03*
X236600000Y-35000000D03*
X237302944Y-33302944D03*
X239000000Y-32600000D03*
X240697056Y-33302944D03*
D12*
X239620000Y-119370000D03*
X239620000Y-91430000D03*
X239620000Y-68570000D03*
X239620000Y-71110000D03*
X239620000Y-114290000D03*
X239620000Y-109210000D03*
X239620000Y-111750000D03*
X239620000Y-78730000D03*
X239620000Y-81270000D03*
X239620000Y-55870000D03*
X239620000Y-58410000D03*
X239620000Y-60950000D03*
X239620000Y-86350000D03*
X239620000Y-88890000D03*
X239620000Y-99050000D03*
X239620000Y-93970000D03*
X239620000Y-96510000D03*
X239620000Y-63490000D03*
X239620000Y-66030000D03*
X239620000Y-116830000D03*
X239620000Y-83810000D03*
X239620000Y-43170000D03*
X239620000Y-45710000D03*
X239620000Y-48250000D03*
X239620000Y-73650000D03*
X239620000Y-76190000D03*
X239620000Y-40630000D03*
X239620000Y-50790000D03*
X239620000Y-53330000D03*
X239620000Y-106670000D03*
X239620000Y-101590000D03*
X239620000Y-104130000D03*
D13*
X244700000Y-40630000D03*
D12*
X242160000Y-40630000D03*
X244700000Y-43170000D03*
X242160000Y-43170000D03*
X244700000Y-45710000D03*
X242160000Y-45710000D03*
X244700000Y-48250000D03*
X242160000Y-48250000D03*
X244700000Y-50790000D03*
X242160000Y-50790000D03*
X244700000Y-53330000D03*
X242160000Y-53330000D03*
X244700000Y-55870000D03*
X242160000Y-55870000D03*
X244700000Y-58410000D03*
X242160000Y-58410000D03*
X244700000Y-60950000D03*
X242160000Y-60950000D03*
X244700000Y-63490000D03*
X242160000Y-63490000D03*
X244700000Y-66030000D03*
X242160000Y-66030000D03*
X244700000Y-68570000D03*
X242160000Y-68570000D03*
X244700000Y-71110000D03*
X242160000Y-71110000D03*
X244700000Y-73650000D03*
X242160000Y-73650000D03*
X244700000Y-76190000D03*
X242160000Y-76190000D03*
X244700000Y-78730000D03*
X242160000Y-78730000D03*
X244700000Y-81270000D03*
X242160000Y-81270000D03*
X244700000Y-83810000D03*
X242160000Y-83810000D03*
X244700000Y-86350000D03*
X242160000Y-86350000D03*
X244700000Y-88890000D03*
X242160000Y-88890000D03*
X244700000Y-91430000D03*
X242160000Y-91430000D03*
X244700000Y-93970000D03*
X242160000Y-93970000D03*
X244700000Y-96510000D03*
X242160000Y-96510000D03*
X244700000Y-99050000D03*
X242160000Y-99050000D03*
X244700000Y-101590000D03*
X242160000Y-101590000D03*
X244700000Y-104130000D03*
X242160000Y-104130000D03*
X244700000Y-106670000D03*
X242160000Y-106670000D03*
X244700000Y-109210000D03*
X242160000Y-109210000D03*
X244700000Y-111750000D03*
X242160000Y-111750000D03*
X244700000Y-114290000D03*
X242160000Y-114290000D03*
X244700000Y-116830000D03*
X242160000Y-116830000D03*
X244700000Y-119370000D03*
X242160000Y-119370000D03*
X216760000Y-124450000D03*
X196440000Y-124450000D03*
X198980000Y-124450000D03*
X219300000Y-124450000D03*
X178660000Y-124450000D03*
X158340000Y-124450000D03*
X176120000Y-124450000D03*
X135480000Y-124450000D03*
X155800000Y-124450000D03*
X138020000Y-124450000D03*
X219300000Y-121910000D03*
X135480000Y-121910000D03*
X138020000Y-121910000D03*
X198980000Y-121910000D03*
X178660000Y-121910000D03*
X158340000Y-121910000D03*
X196440000Y-121910000D03*
X155800000Y-121910000D03*
X216760000Y-121910000D03*
X176120000Y-121910000D03*
X219300000Y-119370000D03*
X176120000Y-119370000D03*
X196440000Y-119370000D03*
X135480000Y-119370000D03*
X155800000Y-119370000D03*
X158340000Y-119370000D03*
X198980000Y-119370000D03*
X178660000Y-119370000D03*
X138020000Y-119370000D03*
X216760000Y-119370000D03*
X219300000Y-116830000D03*
X138020000Y-116830000D03*
X158340000Y-116830000D03*
X155800000Y-116830000D03*
X178660000Y-116830000D03*
X135480000Y-116830000D03*
X176120000Y-116830000D03*
X196440000Y-116830000D03*
X216760000Y-116830000D03*
X198980000Y-116830000D03*
X176120000Y-114290000D03*
X155800000Y-114290000D03*
X216760000Y-114290000D03*
X178660000Y-114290000D03*
X219300000Y-114290000D03*
X138020000Y-114290000D03*
X135480000Y-114290000D03*
X196440000Y-114290000D03*
X198980000Y-114290000D03*
X158340000Y-114290000D03*
X138020000Y-111750000D03*
X155800000Y-111750000D03*
X176120000Y-111750000D03*
X219300000Y-111750000D03*
X216760000Y-111750000D03*
X135480000Y-111750000D03*
X158340000Y-111750000D03*
X178660000Y-111750000D03*
X196440000Y-111750000D03*
X198980000Y-111750000D03*
X219300000Y-109210000D03*
X135480000Y-109210000D03*
X176120000Y-109210000D03*
X216760000Y-109210000D03*
X138020000Y-109210000D03*
X198980000Y-109210000D03*
X178660000Y-109210000D03*
X196440000Y-109210000D03*
X158340000Y-109210000D03*
X155800000Y-109210000D03*
X155800000Y-106670000D03*
X198980000Y-106670000D03*
X135480000Y-106670000D03*
X216760000Y-106670000D03*
X158340000Y-106670000D03*
X138020000Y-106670000D03*
X196440000Y-106670000D03*
X219300000Y-106670000D03*
X178660000Y-106670000D03*
X176120000Y-106670000D03*
X198980000Y-104130000D03*
X178660000Y-104130000D03*
X135480000Y-104130000D03*
X176120000Y-104130000D03*
X219300000Y-104130000D03*
X196440000Y-104130000D03*
X155800000Y-104130000D03*
X158340000Y-104130000D03*
X138020000Y-104130000D03*
X216760000Y-104130000D03*
X138020000Y-101590000D03*
X176120000Y-101590000D03*
X219300000Y-101590000D03*
X198980000Y-101590000D03*
X158340000Y-101590000D03*
X196440000Y-101590000D03*
X178660000Y-101590000D03*
X216760000Y-101590000D03*
X135480000Y-101590000D03*
X155800000Y-101590000D03*
X216760000Y-99050000D03*
X178660000Y-99050000D03*
X176120000Y-99050000D03*
X135480000Y-99050000D03*
X198980000Y-99050000D03*
X158340000Y-99050000D03*
X138020000Y-99050000D03*
X196440000Y-99050000D03*
X155800000Y-99050000D03*
X219300000Y-99050000D03*
X178660000Y-96510000D03*
X138020000Y-96510000D03*
X216760000Y-96510000D03*
X198980000Y-96510000D03*
X158340000Y-96510000D03*
X155800000Y-96510000D03*
X219300000Y-96510000D03*
X196440000Y-96510000D03*
X135480000Y-96510000D03*
X176120000Y-96510000D03*
X178660000Y-93970000D03*
X158340000Y-93970000D03*
X176120000Y-93970000D03*
X138020000Y-93970000D03*
X219300000Y-93970000D03*
X198980000Y-93970000D03*
X216760000Y-93970000D03*
X135480000Y-93970000D03*
X155800000Y-93970000D03*
X196440000Y-93970000D03*
X158340000Y-91430000D03*
X135480000Y-91430000D03*
X155800000Y-91430000D03*
X138020000Y-91430000D03*
X198980000Y-91430000D03*
X196440000Y-91430000D03*
X176120000Y-91430000D03*
X178660000Y-91430000D03*
X219300000Y-91430000D03*
X216760000Y-91430000D03*
X216760000Y-88890000D03*
X158340000Y-88890000D03*
X138020000Y-88890000D03*
X196440000Y-88890000D03*
X135480000Y-88890000D03*
X176120000Y-88890000D03*
X198980000Y-88890000D03*
X219300000Y-88890000D03*
X178660000Y-88890000D03*
X155800000Y-88890000D03*
X158340000Y-86350000D03*
X138020000Y-86350000D03*
X178660000Y-86350000D03*
X196440000Y-86350000D03*
X219300000Y-86350000D03*
X135480000Y-86350000D03*
X155800000Y-86350000D03*
X198980000Y-86350000D03*
X216760000Y-86350000D03*
X176120000Y-86350000D03*
X219300000Y-83810000D03*
X216760000Y-83810000D03*
X198980000Y-83810000D03*
X196440000Y-83810000D03*
X178660000Y-83810000D03*
X176120000Y-83810000D03*
X158340000Y-83810000D03*
X155800000Y-83810000D03*
X135480000Y-83810000D03*
X138020000Y-83810000D03*
X176120000Y-35550000D03*
X155800000Y-35550000D03*
X178660000Y-35550000D03*
X135480000Y-35550000D03*
X198980000Y-35550000D03*
X138020000Y-35550000D03*
X196440000Y-35550000D03*
X158340000Y-35550000D03*
X176120000Y-38090000D03*
X135480000Y-38090000D03*
X155800000Y-38090000D03*
X158340000Y-38090000D03*
X178660000Y-38090000D03*
X198980000Y-38090000D03*
X138020000Y-38090000D03*
X196440000Y-38090000D03*
X155800000Y-40630000D03*
X196440000Y-40630000D03*
X178660000Y-40630000D03*
X198980000Y-40630000D03*
X158340000Y-40630000D03*
X176120000Y-40630000D03*
X138020000Y-40630000D03*
X135480000Y-40630000D03*
X196440000Y-43170000D03*
X176120000Y-43170000D03*
X178660000Y-43170000D03*
X135480000Y-43170000D03*
X198980000Y-43170000D03*
X138020000Y-43170000D03*
X158340000Y-43170000D03*
X155800000Y-43170000D03*
X155800000Y-45710000D03*
X176120000Y-45710000D03*
X158340000Y-45710000D03*
X198980000Y-45710000D03*
X135480000Y-45710000D03*
X178660000Y-45710000D03*
X196440000Y-45710000D03*
X138020000Y-45710000D03*
X198980000Y-48250000D03*
X158340000Y-48250000D03*
X178660000Y-48250000D03*
X196440000Y-48250000D03*
X135480000Y-48250000D03*
X138020000Y-48250000D03*
X176120000Y-48250000D03*
X155800000Y-48250000D03*
X176120000Y-50790000D03*
X196440000Y-50790000D03*
X178660000Y-50790000D03*
X138020000Y-50790000D03*
X155800000Y-50790000D03*
X135480000Y-50790000D03*
X158340000Y-50790000D03*
X198980000Y-50790000D03*
X135480000Y-53330000D03*
X158340000Y-53330000D03*
X138020000Y-53330000D03*
X176120000Y-53330000D03*
X196440000Y-53330000D03*
X198980000Y-53330000D03*
X178660000Y-53330000D03*
X155800000Y-53330000D03*
X178660000Y-55870000D03*
X198980000Y-55870000D03*
X138020000Y-55870000D03*
X158340000Y-55870000D03*
X196440000Y-55870000D03*
X176120000Y-55870000D03*
X135480000Y-55870000D03*
X155800000Y-55870000D03*
X178660000Y-58410000D03*
X196440000Y-58410000D03*
X155800000Y-58410000D03*
X176120000Y-58410000D03*
X138020000Y-58410000D03*
X158340000Y-58410000D03*
X135480000Y-58410000D03*
X198980000Y-58410000D03*
X196440000Y-60950000D03*
X135480000Y-60950000D03*
X176120000Y-60950000D03*
X198980000Y-60950000D03*
X138020000Y-60950000D03*
X178660000Y-60950000D03*
X155800000Y-60950000D03*
X158340000Y-60950000D03*
X178660000Y-63490000D03*
X158340000Y-63490000D03*
X135480000Y-63490000D03*
X155800000Y-63490000D03*
X176120000Y-63490000D03*
X138020000Y-63490000D03*
X198980000Y-63490000D03*
X196440000Y-63490000D03*
X155800000Y-66030000D03*
X198980000Y-66030000D03*
X178660000Y-66030000D03*
X135480000Y-66030000D03*
X138020000Y-66030000D03*
X196440000Y-66030000D03*
X158340000Y-66030000D03*
X176120000Y-66030000D03*
X135480000Y-68570000D03*
X196440000Y-68570000D03*
X155800000Y-68570000D03*
X176120000Y-68570000D03*
X138020000Y-68570000D03*
X158340000Y-68570000D03*
X178660000Y-68570000D03*
X198980000Y-68570000D03*
X158340000Y-71110000D03*
X196440000Y-71110000D03*
X176120000Y-71110000D03*
X138020000Y-71110000D03*
X155800000Y-71110000D03*
X198980000Y-71110000D03*
X135480000Y-71110000D03*
X178660000Y-71110000D03*
X155800000Y-73650000D03*
X158340000Y-73650000D03*
X198980000Y-73650000D03*
X135480000Y-73650000D03*
X138020000Y-73650000D03*
X196440000Y-73650000D03*
X178660000Y-73650000D03*
X176120000Y-73650000D03*
X198980000Y-76190000D03*
X196440000Y-76190000D03*
X178660000Y-76190000D03*
X176120000Y-76190000D03*
X158340000Y-76190000D03*
X155800000Y-76190000D03*
X135480000Y-76190000D03*
X138020000Y-76190000D03*
X216760000Y-35550000D03*
X216760000Y-38090000D03*
X216760000Y-55870000D03*
X216760000Y-48250000D03*
X216760000Y-50790000D03*
X216760000Y-58410000D03*
X216760000Y-45710000D03*
X216760000Y-53330000D03*
X216760000Y-43170000D03*
X216760000Y-40630000D03*
X216760000Y-66030000D03*
X216760000Y-60950000D03*
X216760000Y-68570000D03*
X216760000Y-63490000D03*
X216760000Y-71110000D03*
X216760000Y-73650000D03*
X216760000Y-76190000D03*
X219300000Y-38090000D03*
X219300000Y-35550000D03*
X219300000Y-43170000D03*
X219300000Y-45710000D03*
X219300000Y-58410000D03*
X219300000Y-40630000D03*
X219300000Y-48250000D03*
X219300000Y-50790000D03*
X219300000Y-55870000D03*
X219300000Y-53330000D03*
X219300000Y-68570000D03*
X219300000Y-60950000D03*
X219300000Y-66030000D03*
X219300000Y-63490000D03*
X219300000Y-73650000D03*
X219300000Y-71110000D03*
X219300000Y-76190000D03*
X120240000Y-88890000D03*
X120240000Y-40630000D03*
X120240000Y-78730000D03*
X122780000Y-83810000D03*
X120240000Y-60950000D03*
X122780000Y-40630000D03*
X122780000Y-58410000D03*
X122780000Y-45710000D03*
X122780000Y-35550000D03*
X122780000Y-66030000D03*
X120240000Y-101590000D03*
X120240000Y-58410000D03*
X122780000Y-55870000D03*
X120240000Y-99050000D03*
X122780000Y-101590000D03*
X122780000Y-106670000D03*
X120240000Y-116830000D03*
X122780000Y-78730000D03*
X120240000Y-66030000D03*
X122780000Y-48250000D03*
X120240000Y-81270000D03*
X122780000Y-53330000D03*
X122780000Y-71110000D03*
X122780000Y-50790000D03*
X120240000Y-111750000D03*
X120240000Y-55870000D03*
X122780000Y-68570000D03*
X122780000Y-119370000D03*
X120240000Y-43170000D03*
X120240000Y-48250000D03*
X122780000Y-116830000D03*
X122780000Y-38090000D03*
X122780000Y-96510000D03*
X120240000Y-53330000D03*
X120240000Y-86350000D03*
X120240000Y-104130000D03*
X120240000Y-68570000D03*
X120240000Y-96510000D03*
X120240000Y-38090000D03*
X120240000Y-83810000D03*
X120240000Y-93970000D03*
X122780000Y-121910000D03*
X122780000Y-91430000D03*
X122780000Y-86350000D03*
X120240000Y-114290000D03*
X120240000Y-63490000D03*
X120240000Y-91430000D03*
X120240000Y-50790000D03*
X122780000Y-109210000D03*
X122780000Y-76190000D03*
X120240000Y-106670000D03*
X122780000Y-124450000D03*
X122780000Y-43170000D03*
X120240000Y-76190000D03*
X122780000Y-104130000D03*
X122780000Y-60950000D03*
X122780000Y-88890000D03*
X122780000Y-73650000D03*
X120240000Y-109210000D03*
X122780000Y-93970000D03*
X122780000Y-114290000D03*
X120240000Y-121910000D03*
X122780000Y-81270000D03*
X120240000Y-73650000D03*
X122780000Y-111750000D03*
X122780000Y-63490000D03*
X120240000Y-45710000D03*
X120240000Y-71110000D03*
X120240000Y-119370000D03*
X122780000Y-99050000D03*
X125320000Y-53330000D03*
X125320000Y-86350000D03*
X125320000Y-104130000D03*
X125320000Y-68570000D03*
X125320000Y-96510000D03*
X125320000Y-38090000D03*
X125320000Y-83810000D03*
X125320000Y-93970000D03*
X127860000Y-121910000D03*
X127860000Y-91430000D03*
X127860000Y-86350000D03*
X125320000Y-114290000D03*
X125320000Y-63490000D03*
X125320000Y-91430000D03*
X125320000Y-50790000D03*
X127860000Y-109210000D03*
X127860000Y-76190000D03*
X125320000Y-106670000D03*
X127860000Y-124450000D03*
X127860000Y-43170000D03*
X125320000Y-76190000D03*
X127860000Y-104130000D03*
X127860000Y-60950000D03*
X127860000Y-88890000D03*
X127860000Y-73650000D03*
X125320000Y-109210000D03*
X127860000Y-93970000D03*
X127860000Y-114290000D03*
X125320000Y-121910000D03*
X127860000Y-81270000D03*
X125320000Y-73650000D03*
X130400000Y-53330000D03*
X130400000Y-86350000D03*
X127860000Y-111750000D03*
X127860000Y-63490000D03*
X130400000Y-104130000D03*
X125320000Y-45710000D03*
X130400000Y-68570000D03*
X125320000Y-71110000D03*
X125320000Y-124450000D03*
X125320000Y-119370000D03*
X130400000Y-96510000D03*
X130400000Y-38090000D03*
X127860000Y-55870000D03*
X125320000Y-99050000D03*
X130400000Y-111750000D03*
X130400000Y-83810000D03*
X127860000Y-101590000D03*
X127860000Y-106670000D03*
X125320000Y-116830000D03*
X127860000Y-78730000D03*
X130400000Y-93970000D03*
X125320000Y-66030000D03*
X127860000Y-48250000D03*
X125320000Y-81270000D03*
X127860000Y-53330000D03*
X132940000Y-121910000D03*
X132940000Y-91430000D03*
X127860000Y-71110000D03*
X132940000Y-86350000D03*
X132940000Y-99050000D03*
X130400000Y-50790000D03*
X132940000Y-109210000D03*
X132940000Y-76190000D03*
X130400000Y-106670000D03*
X132940000Y-124450000D03*
X132940000Y-43170000D03*
X130400000Y-76190000D03*
X132940000Y-104130000D03*
X132940000Y-60950000D03*
X132940000Y-88890000D03*
X132940000Y-73650000D03*
X130400000Y-109210000D03*
X132940000Y-93970000D03*
X132940000Y-114290000D03*
X130400000Y-121910000D03*
X127860000Y-50790000D03*
X130400000Y-101590000D03*
X130400000Y-58410000D03*
X132940000Y-81270000D03*
X130400000Y-73650000D03*
X130400000Y-66030000D03*
X132940000Y-48250000D03*
X130400000Y-81270000D03*
X132940000Y-53330000D03*
X125320000Y-111750000D03*
X132940000Y-106670000D03*
X130400000Y-116830000D03*
X130400000Y-119370000D03*
X132940000Y-68570000D03*
X132940000Y-119370000D03*
X132940000Y-55870000D03*
X130400000Y-99050000D03*
X130400000Y-78730000D03*
X132940000Y-101590000D03*
X130400000Y-71110000D03*
X125320000Y-35550000D03*
X130400000Y-124450000D03*
X125320000Y-55870000D03*
X127860000Y-68570000D03*
X127860000Y-119370000D03*
X125320000Y-43170000D03*
X125320000Y-48250000D03*
X130400000Y-43170000D03*
X130400000Y-48250000D03*
X130400000Y-45710000D03*
X132940000Y-50790000D03*
X132940000Y-78730000D03*
X132940000Y-58410000D03*
X125320000Y-88890000D03*
X130400000Y-40630000D03*
X132940000Y-63490000D03*
X125320000Y-40630000D03*
X125320000Y-78730000D03*
X127860000Y-83810000D03*
X130400000Y-55870000D03*
X125320000Y-60950000D03*
X130400000Y-35550000D03*
X127860000Y-40630000D03*
X130400000Y-88890000D03*
X130400000Y-60950000D03*
X132940000Y-83810000D03*
X127860000Y-58410000D03*
X132940000Y-40630000D03*
X127860000Y-45710000D03*
X127860000Y-35550000D03*
X132940000Y-71110000D03*
X132940000Y-116830000D03*
X132940000Y-96510000D03*
X132940000Y-66030000D03*
X127860000Y-116830000D03*
X132940000Y-111750000D03*
X127860000Y-38090000D03*
X132940000Y-38090000D03*
X127860000Y-99050000D03*
X125320000Y-101590000D03*
X125320000Y-58410000D03*
X132940000Y-35550000D03*
X127860000Y-66030000D03*
X132940000Y-45710000D03*
X127860000Y-96510000D03*
X130400000Y-114290000D03*
X130400000Y-63490000D03*
X130400000Y-91430000D03*
X138020000Y-78730000D03*
X138020000Y-81270000D03*
X135480000Y-78730000D03*
X140560000Y-53330000D03*
X140560000Y-86350000D03*
X140560000Y-104130000D03*
X140560000Y-68570000D03*
X140560000Y-96510000D03*
X140560000Y-38090000D03*
X140560000Y-111750000D03*
X140560000Y-83810000D03*
X140560000Y-93970000D03*
X135480000Y-81270000D03*
X143100000Y-121910000D03*
X143100000Y-91430000D03*
X143100000Y-86350000D03*
X143100000Y-99050000D03*
X140560000Y-50790000D03*
X143100000Y-109210000D03*
X143100000Y-76190000D03*
X140560000Y-106670000D03*
X143100000Y-124450000D03*
X143100000Y-43170000D03*
X140560000Y-76190000D03*
X143100000Y-104130000D03*
X143100000Y-60950000D03*
X143100000Y-88890000D03*
X143100000Y-73650000D03*
X140560000Y-109210000D03*
X143100000Y-93970000D03*
X143100000Y-114290000D03*
X140560000Y-121910000D03*
X140560000Y-101590000D03*
X140560000Y-58410000D03*
X143100000Y-81270000D03*
X140560000Y-73650000D03*
X140560000Y-66030000D03*
X143100000Y-48250000D03*
X140560000Y-81270000D03*
X143100000Y-53330000D03*
X143100000Y-106670000D03*
X140560000Y-116830000D03*
X140560000Y-119370000D03*
X143100000Y-68570000D03*
X143100000Y-119370000D03*
X143100000Y-55870000D03*
X140560000Y-99050000D03*
X140560000Y-78730000D03*
X143100000Y-101590000D03*
X140560000Y-71110000D03*
X140560000Y-124450000D03*
X140560000Y-43170000D03*
X140560000Y-48250000D03*
X140560000Y-45710000D03*
X143100000Y-50790000D03*
X143100000Y-78730000D03*
X143100000Y-58410000D03*
X140560000Y-40630000D03*
X143100000Y-63490000D03*
X140560000Y-55870000D03*
X140560000Y-35550000D03*
X140560000Y-88890000D03*
X140560000Y-60950000D03*
X143100000Y-83810000D03*
X143100000Y-40630000D03*
X143100000Y-71110000D03*
X143100000Y-116830000D03*
X143100000Y-96510000D03*
X143100000Y-66030000D03*
X143100000Y-111750000D03*
X143100000Y-38090000D03*
X145640000Y-53330000D03*
X145640000Y-86350000D03*
X145640000Y-104130000D03*
X145640000Y-68570000D03*
X145640000Y-96510000D03*
X145640000Y-38090000D03*
X145640000Y-83810000D03*
X145640000Y-93970000D03*
X148180000Y-121910000D03*
X148180000Y-91430000D03*
X148180000Y-86350000D03*
X145640000Y-114290000D03*
X145640000Y-63490000D03*
X145640000Y-91430000D03*
X148180000Y-99050000D03*
X145640000Y-50790000D03*
X148180000Y-109210000D03*
X148180000Y-76190000D03*
X145640000Y-106670000D03*
X148180000Y-124450000D03*
X148180000Y-43170000D03*
X145640000Y-76190000D03*
X148180000Y-104130000D03*
X148180000Y-60950000D03*
X148180000Y-88890000D03*
X148180000Y-73650000D03*
X145640000Y-109210000D03*
X148180000Y-93970000D03*
X148180000Y-114290000D03*
X145640000Y-121910000D03*
X145640000Y-101590000D03*
X145640000Y-58410000D03*
X148180000Y-81270000D03*
X145640000Y-73650000D03*
X150720000Y-53330000D03*
X150720000Y-86350000D03*
X148180000Y-111750000D03*
X148180000Y-63490000D03*
X150720000Y-104130000D03*
X145640000Y-45710000D03*
X150720000Y-68570000D03*
X145640000Y-71110000D03*
X145640000Y-124450000D03*
X145640000Y-119370000D03*
X150720000Y-96510000D03*
X150720000Y-38090000D03*
X148180000Y-55870000D03*
X145640000Y-99050000D03*
X150720000Y-111750000D03*
X150720000Y-83810000D03*
X148180000Y-101590000D03*
X148180000Y-106670000D03*
X145640000Y-116830000D03*
X148180000Y-78730000D03*
X143100000Y-35550000D03*
X145640000Y-111750000D03*
X145640000Y-55870000D03*
X148180000Y-71110000D03*
X148180000Y-53330000D03*
X145640000Y-81270000D03*
X150720000Y-114290000D03*
X150720000Y-93970000D03*
X145640000Y-66030000D03*
X148180000Y-48250000D03*
X148180000Y-68570000D03*
X148180000Y-66030000D03*
X145640000Y-48250000D03*
X148180000Y-35550000D03*
X148180000Y-40630000D03*
X150720000Y-106670000D03*
X148180000Y-50790000D03*
X145640000Y-43170000D03*
X145640000Y-60950000D03*
X145640000Y-88890000D03*
X150720000Y-50790000D03*
X148180000Y-45710000D03*
X150720000Y-45710000D03*
X150720000Y-91430000D03*
X145640000Y-40630000D03*
X150720000Y-71110000D03*
X148180000Y-38090000D03*
X150720000Y-109210000D03*
X143100000Y-45710000D03*
X150720000Y-55870000D03*
X150720000Y-121910000D03*
X150720000Y-101590000D03*
X150720000Y-40630000D03*
X150720000Y-76190000D03*
X150720000Y-48250000D03*
X150720000Y-73650000D03*
X150720000Y-63490000D03*
X150720000Y-58410000D03*
X148180000Y-96510000D03*
X150720000Y-60950000D03*
X150720000Y-116830000D03*
X148180000Y-83810000D03*
X150720000Y-35550000D03*
X150720000Y-88890000D03*
X150720000Y-43170000D03*
X150720000Y-66030000D03*
X150720000Y-124450000D03*
X148180000Y-58410000D03*
X148180000Y-116830000D03*
X148180000Y-119370000D03*
X150720000Y-119370000D03*
X150720000Y-99050000D03*
X145640000Y-35550000D03*
X145640000Y-78730000D03*
X150720000Y-78730000D03*
X150720000Y-81270000D03*
X140560000Y-114290000D03*
X140560000Y-63490000D03*
X140560000Y-91430000D03*
X153260000Y-53330000D03*
X153260000Y-86350000D03*
X153260000Y-104130000D03*
X153260000Y-68570000D03*
X153260000Y-96510000D03*
X153260000Y-38090000D03*
X153260000Y-83810000D03*
X153260000Y-93970000D03*
X153260000Y-114290000D03*
X153260000Y-63490000D03*
X153260000Y-91430000D03*
X153260000Y-50790000D03*
X155800000Y-78730000D03*
X153260000Y-106670000D03*
X153260000Y-76190000D03*
X153260000Y-109210000D03*
X153260000Y-121910000D03*
X155800000Y-81270000D03*
X153260000Y-73650000D03*
X153260000Y-45710000D03*
X153260000Y-71110000D03*
X153260000Y-124450000D03*
X153260000Y-119370000D03*
X153260000Y-99050000D03*
X153260000Y-116830000D03*
X153260000Y-66030000D03*
X153260000Y-81270000D03*
X160880000Y-121910000D03*
X160880000Y-91430000D03*
X160880000Y-86350000D03*
X160880000Y-99050000D03*
X160880000Y-109210000D03*
X160880000Y-76190000D03*
X160880000Y-124450000D03*
X160880000Y-43170000D03*
X158340000Y-78730000D03*
X160880000Y-104130000D03*
X160880000Y-60950000D03*
X160880000Y-88890000D03*
X160880000Y-73650000D03*
X160880000Y-93970000D03*
X160880000Y-114290000D03*
X160880000Y-81270000D03*
X160880000Y-48250000D03*
X158340000Y-81270000D03*
X160880000Y-53330000D03*
X153260000Y-111750000D03*
X160880000Y-106670000D03*
X160880000Y-68570000D03*
X160880000Y-119370000D03*
X160880000Y-55870000D03*
X160880000Y-101590000D03*
X153260000Y-35550000D03*
X153260000Y-55870000D03*
X153260000Y-43170000D03*
X153260000Y-48250000D03*
X160880000Y-50790000D03*
X160880000Y-78730000D03*
X160880000Y-58410000D03*
X153260000Y-88890000D03*
X160880000Y-63490000D03*
X153260000Y-40630000D03*
X153260000Y-78730000D03*
X153260000Y-60950000D03*
X160880000Y-83810000D03*
X160880000Y-40630000D03*
X160880000Y-71110000D03*
X160880000Y-116830000D03*
X160880000Y-96510000D03*
X160880000Y-66030000D03*
X160880000Y-111750000D03*
X160880000Y-38090000D03*
X163420000Y-53330000D03*
X163420000Y-86350000D03*
X163420000Y-104130000D03*
X163420000Y-68570000D03*
X163420000Y-96510000D03*
X163420000Y-38090000D03*
X163420000Y-83810000D03*
X163420000Y-93970000D03*
X165960000Y-121910000D03*
X165960000Y-91430000D03*
X165960000Y-86350000D03*
X163420000Y-114290000D03*
X163420000Y-63490000D03*
X163420000Y-91430000D03*
X165960000Y-99050000D03*
X163420000Y-50790000D03*
X165960000Y-109210000D03*
X165960000Y-76190000D03*
X163420000Y-106670000D03*
X165960000Y-124450000D03*
X165960000Y-43170000D03*
X163420000Y-76190000D03*
X165960000Y-104130000D03*
X165960000Y-60950000D03*
X165960000Y-88890000D03*
X165960000Y-73650000D03*
X163420000Y-109210000D03*
X165960000Y-93970000D03*
X165960000Y-114290000D03*
X163420000Y-121910000D03*
X163420000Y-101590000D03*
X163420000Y-58410000D03*
X165960000Y-81270000D03*
X163420000Y-73650000D03*
X168500000Y-53330000D03*
X168500000Y-86350000D03*
X165960000Y-111750000D03*
X165960000Y-63490000D03*
X168500000Y-104130000D03*
X163420000Y-45710000D03*
X168500000Y-68570000D03*
X163420000Y-71110000D03*
X163420000Y-124450000D03*
X163420000Y-119370000D03*
X168500000Y-96510000D03*
X168500000Y-38090000D03*
X165960000Y-55870000D03*
X163420000Y-99050000D03*
X168500000Y-111750000D03*
X168500000Y-83810000D03*
X165960000Y-101590000D03*
X165960000Y-106670000D03*
X163420000Y-116830000D03*
X165960000Y-78730000D03*
X173580000Y-53330000D03*
X173580000Y-86350000D03*
X173580000Y-104130000D03*
X173580000Y-68570000D03*
X173580000Y-96510000D03*
X173580000Y-38090000D03*
X173580000Y-83810000D03*
X173580000Y-93970000D03*
X173580000Y-114290000D03*
X173580000Y-63490000D03*
X173580000Y-91430000D03*
X153260000Y-101590000D03*
X153260000Y-58410000D03*
X173580000Y-50790000D03*
X173580000Y-106670000D03*
X173580000Y-76190000D03*
X173580000Y-109210000D03*
X173580000Y-121910000D03*
X173580000Y-101590000D03*
X173580000Y-58410000D03*
X176120000Y-81270000D03*
X173580000Y-73650000D03*
X173580000Y-45710000D03*
X173580000Y-71110000D03*
X173580000Y-124450000D03*
X173580000Y-119370000D03*
X173580000Y-99050000D03*
X173580000Y-116830000D03*
X176120000Y-78730000D03*
X173580000Y-66030000D03*
X173580000Y-81270000D03*
X181200000Y-121910000D03*
X181200000Y-91430000D03*
X181200000Y-86350000D03*
X181200000Y-99050000D03*
X181200000Y-109210000D03*
X181200000Y-76190000D03*
X181200000Y-124450000D03*
X181200000Y-43170000D03*
X181200000Y-104130000D03*
X181200000Y-60950000D03*
X181200000Y-88890000D03*
X181200000Y-73650000D03*
X181200000Y-93970000D03*
X181200000Y-114290000D03*
X181200000Y-81270000D03*
X181200000Y-48250000D03*
X178660000Y-81270000D03*
X181200000Y-53330000D03*
X173580000Y-111750000D03*
X181200000Y-106670000D03*
X181200000Y-68570000D03*
X181200000Y-119370000D03*
X181200000Y-55870000D03*
X178660000Y-78730000D03*
X181200000Y-101590000D03*
X173580000Y-35550000D03*
X173580000Y-55870000D03*
X173580000Y-43170000D03*
X173580000Y-48250000D03*
X181200000Y-50790000D03*
X181200000Y-78730000D03*
X181200000Y-58410000D03*
X173580000Y-88890000D03*
X181200000Y-63490000D03*
X173580000Y-40630000D03*
X173580000Y-78730000D03*
X173580000Y-60950000D03*
X181200000Y-83810000D03*
X181200000Y-40630000D03*
X181200000Y-71110000D03*
X181200000Y-116830000D03*
X181200000Y-96510000D03*
X181200000Y-66030000D03*
X181200000Y-111750000D03*
X181200000Y-38090000D03*
X183740000Y-53330000D03*
X183740000Y-86350000D03*
X183740000Y-104130000D03*
X183740000Y-68570000D03*
X183740000Y-96510000D03*
X183740000Y-38090000D03*
X183740000Y-83810000D03*
X183740000Y-93970000D03*
X186280000Y-121910000D03*
X186280000Y-91430000D03*
X186280000Y-86350000D03*
X183740000Y-114290000D03*
X183740000Y-63490000D03*
X183740000Y-91430000D03*
X186280000Y-99050000D03*
X183740000Y-50790000D03*
X186280000Y-109210000D03*
X186280000Y-76190000D03*
X183740000Y-106670000D03*
X186280000Y-124450000D03*
X186280000Y-43170000D03*
X183740000Y-76190000D03*
X186280000Y-104130000D03*
X186280000Y-60950000D03*
X186280000Y-88890000D03*
X186280000Y-73650000D03*
X183740000Y-109210000D03*
X186280000Y-93970000D03*
X186280000Y-114290000D03*
X183740000Y-121910000D03*
X183740000Y-101590000D03*
X183740000Y-58410000D03*
X186280000Y-81270000D03*
X183740000Y-73650000D03*
X171040000Y-99050000D03*
X160880000Y-35550000D03*
X163420000Y-111750000D03*
X171040000Y-58410000D03*
X163420000Y-55870000D03*
X165960000Y-71110000D03*
X165960000Y-53330000D03*
X171040000Y-121910000D03*
X163420000Y-81270000D03*
X171040000Y-86350000D03*
X168500000Y-114290000D03*
X168500000Y-93970000D03*
X163420000Y-66030000D03*
X165960000Y-48250000D03*
X171040000Y-63490000D03*
X171040000Y-50790000D03*
X171040000Y-91430000D03*
X171040000Y-38090000D03*
X165960000Y-68570000D03*
X188820000Y-53330000D03*
X188820000Y-86350000D03*
X186280000Y-111750000D03*
X186280000Y-63490000D03*
X188820000Y-104130000D03*
X183740000Y-45710000D03*
X188820000Y-68570000D03*
X183740000Y-71110000D03*
X183740000Y-124450000D03*
X183740000Y-119370000D03*
X188820000Y-96510000D03*
X188820000Y-38090000D03*
X186280000Y-55870000D03*
X183740000Y-99050000D03*
X188820000Y-111750000D03*
X188820000Y-83810000D03*
X186280000Y-101590000D03*
X186280000Y-106670000D03*
X183740000Y-116830000D03*
X186280000Y-78730000D03*
X188820000Y-93970000D03*
X183740000Y-66030000D03*
X186280000Y-48250000D03*
X183740000Y-81270000D03*
X186280000Y-53330000D03*
X191360000Y-121910000D03*
X191360000Y-91430000D03*
X186280000Y-71110000D03*
X191360000Y-86350000D03*
X188820000Y-114290000D03*
X188820000Y-63490000D03*
X188820000Y-91430000D03*
X191360000Y-99050000D03*
X188820000Y-50790000D03*
X191360000Y-109210000D03*
X191360000Y-76190000D03*
X188820000Y-106670000D03*
X191360000Y-124450000D03*
X165960000Y-66030000D03*
X191360000Y-43170000D03*
X188820000Y-76190000D03*
X191360000Y-104130000D03*
X191360000Y-60950000D03*
X191360000Y-88890000D03*
X191360000Y-73650000D03*
X163420000Y-48250000D03*
X188820000Y-109210000D03*
X191360000Y-93970000D03*
X191360000Y-114290000D03*
X188820000Y-121910000D03*
X186280000Y-50790000D03*
X188820000Y-101590000D03*
X188820000Y-58410000D03*
X191360000Y-81270000D03*
X188820000Y-73650000D03*
X188820000Y-66030000D03*
X171040000Y-73650000D03*
X191360000Y-48250000D03*
X188820000Y-81270000D03*
X191360000Y-53330000D03*
X171040000Y-119370000D03*
X183740000Y-111750000D03*
X191360000Y-106670000D03*
X188820000Y-116830000D03*
X188820000Y-119370000D03*
X191360000Y-68570000D03*
X165960000Y-35550000D03*
X191360000Y-119370000D03*
X191360000Y-55870000D03*
X188820000Y-99050000D03*
X188820000Y-78730000D03*
X191360000Y-101590000D03*
X165960000Y-40630000D03*
X188820000Y-71110000D03*
X183740000Y-35550000D03*
X168500000Y-106670000D03*
X188820000Y-124450000D03*
X183740000Y-55870000D03*
X186280000Y-68570000D03*
X186280000Y-119370000D03*
X183740000Y-43170000D03*
X183740000Y-48250000D03*
X188820000Y-43170000D03*
X188820000Y-48250000D03*
X188820000Y-45710000D03*
X191360000Y-50790000D03*
X191360000Y-78730000D03*
X191360000Y-58410000D03*
X165960000Y-50790000D03*
X183740000Y-88890000D03*
X188820000Y-40630000D03*
X191360000Y-63490000D03*
X183740000Y-40630000D03*
X183740000Y-78730000D03*
X186280000Y-83810000D03*
X188820000Y-55870000D03*
X163420000Y-43170000D03*
X183740000Y-60950000D03*
X188820000Y-35550000D03*
X163420000Y-60950000D03*
X163420000Y-88890000D03*
X186280000Y-40630000D03*
X181200000Y-45710000D03*
X181200000Y-35550000D03*
X188820000Y-88890000D03*
X171040000Y-106670000D03*
X171040000Y-76190000D03*
X168500000Y-50790000D03*
X171040000Y-93970000D03*
X165960000Y-45710000D03*
X171040000Y-40630000D03*
X168500000Y-45710000D03*
X188820000Y-60950000D03*
X191360000Y-83810000D03*
X186280000Y-58410000D03*
X168500000Y-91430000D03*
X163420000Y-40630000D03*
X168500000Y-71110000D03*
X191360000Y-40630000D03*
X171040000Y-71110000D03*
X165960000Y-38090000D03*
X168500000Y-109210000D03*
X160880000Y-45710000D03*
X171040000Y-101590000D03*
X168500000Y-55870000D03*
X171040000Y-114290000D03*
X168500000Y-121910000D03*
X168500000Y-101590000D03*
X171040000Y-60950000D03*
X168500000Y-40630000D03*
X168500000Y-76190000D03*
X168500000Y-48250000D03*
X168500000Y-73650000D03*
X171040000Y-43170000D03*
X171040000Y-124450000D03*
X168500000Y-63490000D03*
X186280000Y-45710000D03*
X168500000Y-58410000D03*
X165960000Y-96510000D03*
X168500000Y-60950000D03*
X171040000Y-104130000D03*
X186280000Y-35550000D03*
X168500000Y-116830000D03*
X165960000Y-83810000D03*
X171040000Y-109210000D03*
X191360000Y-71110000D03*
X191360000Y-116830000D03*
X191360000Y-96510000D03*
X191360000Y-66030000D03*
X168500000Y-35550000D03*
X171040000Y-35550000D03*
X186280000Y-116830000D03*
X171040000Y-83810000D03*
X191360000Y-111750000D03*
X168500000Y-88890000D03*
X171040000Y-78730000D03*
X171040000Y-55870000D03*
X171040000Y-81270000D03*
X171040000Y-66030000D03*
X171040000Y-68570000D03*
X191360000Y-45710000D03*
X191360000Y-35550000D03*
X168500000Y-43170000D03*
X171040000Y-53330000D03*
X168500000Y-66030000D03*
X171040000Y-116830000D03*
X171040000Y-48250000D03*
X168500000Y-124450000D03*
X165960000Y-58410000D03*
X165960000Y-116830000D03*
X186280000Y-66030000D03*
X165960000Y-119370000D03*
X171040000Y-111750000D03*
X186280000Y-96510000D03*
X168500000Y-119370000D03*
X171040000Y-96510000D03*
X186280000Y-38090000D03*
X191360000Y-38090000D03*
X168500000Y-99050000D03*
X171040000Y-88890000D03*
X163420000Y-35550000D03*
X163420000Y-78730000D03*
X168500000Y-78730000D03*
X171040000Y-45710000D03*
X168500000Y-81270000D03*
X193900000Y-53330000D03*
X193900000Y-86350000D03*
X193900000Y-104130000D03*
X193900000Y-68570000D03*
X193900000Y-96510000D03*
X193900000Y-38090000D03*
X193900000Y-83810000D03*
X193900000Y-93970000D03*
X193900000Y-114290000D03*
X193900000Y-63490000D03*
X193900000Y-91430000D03*
X193900000Y-50790000D03*
X193900000Y-106670000D03*
X193900000Y-76190000D03*
X193900000Y-109210000D03*
X193900000Y-121910000D03*
X193900000Y-101590000D03*
X193900000Y-58410000D03*
X196440000Y-81270000D03*
X193900000Y-73650000D03*
X193900000Y-45710000D03*
X193900000Y-71110000D03*
X193900000Y-124450000D03*
X193900000Y-119370000D03*
X193900000Y-99050000D03*
X193900000Y-116830000D03*
X196440000Y-78730000D03*
X193900000Y-66030000D03*
X193900000Y-81270000D03*
X201520000Y-121910000D03*
X201520000Y-91430000D03*
X201520000Y-86350000D03*
X201520000Y-99050000D03*
X201520000Y-109210000D03*
X201520000Y-76190000D03*
X201520000Y-124450000D03*
X201520000Y-43170000D03*
X201520000Y-104130000D03*
X201520000Y-60950000D03*
X201520000Y-88890000D03*
X201520000Y-73650000D03*
X201520000Y-93970000D03*
X201520000Y-114290000D03*
X201520000Y-81270000D03*
X201520000Y-48250000D03*
X198980000Y-81270000D03*
X201520000Y-53330000D03*
X193900000Y-111750000D03*
X201520000Y-106670000D03*
X201520000Y-68570000D03*
X201520000Y-119370000D03*
X201520000Y-55870000D03*
X198980000Y-78730000D03*
X201520000Y-101590000D03*
X193900000Y-35550000D03*
X193900000Y-55870000D03*
X193900000Y-43170000D03*
X193900000Y-48250000D03*
X201520000Y-50790000D03*
X201520000Y-78730000D03*
X201520000Y-58410000D03*
X193900000Y-88890000D03*
X201520000Y-63490000D03*
X193900000Y-40630000D03*
X193900000Y-78730000D03*
X193900000Y-60950000D03*
X201520000Y-83810000D03*
X201520000Y-40630000D03*
X201520000Y-71110000D03*
X201520000Y-116830000D03*
X201520000Y-96510000D03*
X201520000Y-66030000D03*
X201520000Y-111750000D03*
X201520000Y-38090000D03*
X204060000Y-53330000D03*
X204060000Y-86350000D03*
X204060000Y-104130000D03*
X204060000Y-68570000D03*
X204060000Y-96510000D03*
X204060000Y-38090000D03*
X204060000Y-83810000D03*
X204060000Y-93970000D03*
X206600000Y-121910000D03*
X206600000Y-91430000D03*
X206600000Y-86350000D03*
X204060000Y-114290000D03*
X204060000Y-63490000D03*
X204060000Y-91430000D03*
X206600000Y-99050000D03*
X204060000Y-50790000D03*
X206600000Y-109210000D03*
X206600000Y-76190000D03*
X204060000Y-106670000D03*
X206600000Y-124450000D03*
X206600000Y-43170000D03*
X204060000Y-76190000D03*
X206600000Y-104130000D03*
X206600000Y-60950000D03*
X206600000Y-88890000D03*
X206600000Y-73650000D03*
X204060000Y-109210000D03*
X206600000Y-93970000D03*
X206600000Y-114290000D03*
X204060000Y-121910000D03*
X204060000Y-101590000D03*
X204060000Y-58410000D03*
X206600000Y-81270000D03*
X204060000Y-73650000D03*
X209140000Y-53330000D03*
X209140000Y-86350000D03*
X206600000Y-111750000D03*
X206600000Y-63490000D03*
X209140000Y-104130000D03*
X204060000Y-45710000D03*
X209140000Y-68570000D03*
X204060000Y-71110000D03*
X204060000Y-124450000D03*
X204060000Y-119370000D03*
X209140000Y-96510000D03*
X209140000Y-38090000D03*
X206600000Y-55870000D03*
X204060000Y-99050000D03*
X209140000Y-111750000D03*
X209140000Y-83810000D03*
X206600000Y-101590000D03*
X206600000Y-106670000D03*
X204060000Y-116830000D03*
X206600000Y-78730000D03*
X209140000Y-93970000D03*
X204060000Y-66030000D03*
X206600000Y-48250000D03*
X204060000Y-81270000D03*
X206600000Y-53330000D03*
X211680000Y-121910000D03*
X211680000Y-91430000D03*
X206600000Y-71110000D03*
X211680000Y-86350000D03*
X209140000Y-114290000D03*
X209140000Y-63490000D03*
X209140000Y-91430000D03*
X211680000Y-99050000D03*
X209140000Y-50790000D03*
X211680000Y-109210000D03*
X211680000Y-76190000D03*
X209140000Y-106670000D03*
X211680000Y-124450000D03*
X211680000Y-43170000D03*
X209140000Y-76190000D03*
X211680000Y-104130000D03*
X211680000Y-60950000D03*
X211680000Y-88890000D03*
X211680000Y-73650000D03*
X209140000Y-109210000D03*
X211680000Y-93970000D03*
X211680000Y-114290000D03*
X209140000Y-121910000D03*
X206600000Y-50790000D03*
X209140000Y-101590000D03*
X209140000Y-58410000D03*
X211680000Y-81270000D03*
X209140000Y-73650000D03*
X209140000Y-66030000D03*
X211680000Y-48250000D03*
X209140000Y-81270000D03*
X211680000Y-53330000D03*
X204060000Y-111750000D03*
X211680000Y-106670000D03*
X209140000Y-116830000D03*
X209140000Y-119370000D03*
X211680000Y-68570000D03*
X211680000Y-119370000D03*
X211680000Y-55870000D03*
X209140000Y-99050000D03*
X209140000Y-78730000D03*
X211680000Y-101590000D03*
X209140000Y-71110000D03*
X204060000Y-35550000D03*
X209140000Y-124450000D03*
X204060000Y-55870000D03*
X206600000Y-68570000D03*
X206600000Y-119370000D03*
X204060000Y-43170000D03*
X204060000Y-48250000D03*
X209140000Y-43170000D03*
X209140000Y-48250000D03*
X209140000Y-45710000D03*
X211680000Y-50790000D03*
X211680000Y-78730000D03*
X211680000Y-58410000D03*
X204060000Y-88890000D03*
X209140000Y-40630000D03*
X211680000Y-63490000D03*
X204060000Y-40630000D03*
X204060000Y-78730000D03*
X206600000Y-83810000D03*
X209140000Y-55870000D03*
X204060000Y-60950000D03*
X209140000Y-35550000D03*
X206600000Y-40630000D03*
X201520000Y-45710000D03*
X201520000Y-35550000D03*
X209140000Y-88890000D03*
X209140000Y-60950000D03*
X211680000Y-83810000D03*
X206600000Y-58410000D03*
X211680000Y-40630000D03*
X206600000Y-45710000D03*
X206600000Y-35550000D03*
X211680000Y-71110000D03*
X211680000Y-116830000D03*
X211680000Y-96510000D03*
X211680000Y-66030000D03*
X206600000Y-116830000D03*
X211680000Y-111750000D03*
X211680000Y-45710000D03*
X211680000Y-35550000D03*
X206600000Y-66030000D03*
X206600000Y-96510000D03*
X206600000Y-38090000D03*
X211680000Y-38090000D03*
X214220000Y-53330000D03*
X214220000Y-86350000D03*
X214220000Y-104130000D03*
X214220000Y-68570000D03*
X214220000Y-96510000D03*
X214220000Y-38090000D03*
X214220000Y-83810000D03*
X214220000Y-93970000D03*
X214220000Y-114290000D03*
X214220000Y-63490000D03*
X214220000Y-91430000D03*
X214220000Y-50790000D03*
X214220000Y-106670000D03*
X214220000Y-76190000D03*
X214220000Y-109210000D03*
X214220000Y-121910000D03*
X214220000Y-101590000D03*
X214220000Y-58410000D03*
X216760000Y-81270000D03*
X214220000Y-73650000D03*
X214220000Y-45710000D03*
X214220000Y-71110000D03*
X214220000Y-124450000D03*
X214220000Y-119370000D03*
X214220000Y-99050000D03*
X214220000Y-116830000D03*
X216760000Y-78730000D03*
X214220000Y-66030000D03*
X214220000Y-81270000D03*
X221840000Y-121910000D03*
X221840000Y-91430000D03*
X221840000Y-86350000D03*
X221840000Y-99050000D03*
X221840000Y-109210000D03*
X221840000Y-76190000D03*
X221840000Y-124450000D03*
X221840000Y-43170000D03*
X221840000Y-104130000D03*
X221840000Y-60950000D03*
X221840000Y-88890000D03*
X221840000Y-73650000D03*
X221840000Y-93970000D03*
X221840000Y-114290000D03*
X221840000Y-81270000D03*
X221840000Y-48250000D03*
X219300000Y-81270000D03*
X221840000Y-53330000D03*
X214220000Y-111750000D03*
X221840000Y-106670000D03*
X221840000Y-68570000D03*
X221840000Y-119370000D03*
X221840000Y-55870000D03*
X219300000Y-78730000D03*
X221840000Y-101590000D03*
X214220000Y-35550000D03*
X214220000Y-55870000D03*
X214220000Y-43170000D03*
X214220000Y-48250000D03*
X221840000Y-50790000D03*
X221840000Y-78730000D03*
X221840000Y-58410000D03*
X214220000Y-88890000D03*
X221840000Y-63490000D03*
X214220000Y-40630000D03*
X214220000Y-78730000D03*
X214220000Y-60950000D03*
X221840000Y-83810000D03*
X221840000Y-40630000D03*
X221840000Y-71110000D03*
X221840000Y-116830000D03*
X221840000Y-96510000D03*
X221840000Y-66030000D03*
X221840000Y-111750000D03*
X221840000Y-45710000D03*
X221840000Y-35550000D03*
X221840000Y-38090000D03*
X224380000Y-53330000D03*
X224380000Y-86350000D03*
X224380000Y-104130000D03*
X224380000Y-68570000D03*
X224380000Y-96510000D03*
X224380000Y-38090000D03*
X224380000Y-111750000D03*
X224380000Y-83810000D03*
X224380000Y-93970000D03*
X226920000Y-121910000D03*
X226920000Y-91430000D03*
X226920000Y-86350000D03*
X224380000Y-114290000D03*
X224380000Y-63490000D03*
X224380000Y-91430000D03*
X226920000Y-99050000D03*
X224380000Y-50790000D03*
X226920000Y-109210000D03*
X226920000Y-76190000D03*
X224380000Y-106670000D03*
X226920000Y-124450000D03*
X226920000Y-43170000D03*
X224380000Y-76190000D03*
X226920000Y-104130000D03*
X226920000Y-60950000D03*
X226920000Y-88890000D03*
X226920000Y-73650000D03*
X224380000Y-109210000D03*
X226920000Y-93970000D03*
X226920000Y-114290000D03*
X224380000Y-121910000D03*
X224380000Y-101590000D03*
X224380000Y-58410000D03*
X226920000Y-81270000D03*
X224380000Y-73650000D03*
X224380000Y-66030000D03*
X226920000Y-48250000D03*
X224380000Y-81270000D03*
X226920000Y-53330000D03*
X226920000Y-106670000D03*
X224380000Y-116830000D03*
X224380000Y-119370000D03*
X226920000Y-68570000D03*
X226920000Y-119370000D03*
X226920000Y-55870000D03*
X224380000Y-99050000D03*
X224380000Y-78730000D03*
X226920000Y-101590000D03*
X224380000Y-71110000D03*
X224380000Y-124450000D03*
X224380000Y-43170000D03*
X224380000Y-48250000D03*
X224380000Y-45710000D03*
X226920000Y-50790000D03*
X226920000Y-78730000D03*
X226920000Y-58410000D03*
X224380000Y-40630000D03*
X226920000Y-63490000D03*
X224380000Y-55870000D03*
X224380000Y-35550000D03*
X224380000Y-88890000D03*
X224380000Y-60950000D03*
X226920000Y-83810000D03*
X226920000Y-40630000D03*
X226920000Y-71110000D03*
X226920000Y-116830000D03*
X226920000Y-96510000D03*
X226920000Y-66030000D03*
X226920000Y-111750000D03*
X226920000Y-45710000D03*
X226920000Y-35550000D03*
X226920000Y-38090000D03*
X229460000Y-121910000D03*
X229460000Y-91430000D03*
X229460000Y-86350000D03*
X229460000Y-99050000D03*
X229460000Y-109210000D03*
X229460000Y-76190000D03*
X229460000Y-124450000D03*
X229460000Y-43170000D03*
X229460000Y-104130000D03*
X229460000Y-60950000D03*
X229460000Y-88890000D03*
X229460000Y-73650000D03*
X229460000Y-93970000D03*
X229460000Y-114290000D03*
X229460000Y-81270000D03*
X229460000Y-48250000D03*
X229460000Y-53330000D03*
X229460000Y-106670000D03*
X229460000Y-68570000D03*
X229460000Y-119370000D03*
X229460000Y-55870000D03*
X229460000Y-101590000D03*
X229460000Y-50790000D03*
X229460000Y-78730000D03*
X229460000Y-58410000D03*
X229460000Y-63490000D03*
X229460000Y-83810000D03*
X229460000Y-40630000D03*
X229460000Y-71110000D03*
X229460000Y-116830000D03*
X229460000Y-96510000D03*
X229460000Y-66030000D03*
X229460000Y-111750000D03*
X229460000Y-45710000D03*
X229460000Y-35550000D03*
X229460000Y-38090000D03*
X232000000Y-124450000D03*
X232000000Y-121910000D03*
X232000000Y-35550000D03*
X232000000Y-38090000D03*
X232000000Y-111750000D03*
X232000000Y-106670000D03*
X232000000Y-119370000D03*
X232000000Y-109210000D03*
X232000000Y-114290000D03*
X232000000Y-101590000D03*
X232000000Y-104130000D03*
X232000000Y-116830000D03*
X232000000Y-96510000D03*
X232000000Y-81270000D03*
X232000000Y-93970000D03*
X232000000Y-88890000D03*
X232000000Y-99050000D03*
X232000000Y-83810000D03*
X232000000Y-91430000D03*
X232000000Y-86350000D03*
X232000000Y-63490000D03*
X232000000Y-68570000D03*
X232000000Y-73650000D03*
X232000000Y-76190000D03*
X232000000Y-71110000D03*
X232000000Y-78730000D03*
X232000000Y-60950000D03*
X232000000Y-66030000D03*
X232000000Y-53330000D03*
X232000000Y-58410000D03*
X232000000Y-50790000D03*
X232000000Y-55870000D03*
X232000000Y-48250000D03*
X232000000Y-45710000D03*
X232000000Y-43170000D03*
X232000000Y-40630000D03*
D14*
X244700000Y-104130000D02*
X244700000Y-106670000D01*
X244700000Y-109210000D02*
X244700000Y-111750000D01*
X244700000Y-116830000D02*
X244700000Y-114290000D01*
D15*
X135480000Y-81270000D02*
X135480000Y-124450000D01*
X138020000Y-124450000D02*
X138020000Y-81270000D01*
X155800000Y-81270000D02*
X155800000Y-124450000D01*
X158340000Y-124450000D02*
X158340000Y-81270000D01*
X176120000Y-81270000D02*
X176120000Y-124450000D01*
X178660000Y-124450000D02*
X178660000Y-81270000D01*
X196440000Y-81270000D02*
X196440000Y-124450000D01*
X198980000Y-124450000D02*
X198980000Y-81270000D01*
X216760000Y-124450000D02*
X216760000Y-81270000D01*
X219300000Y-124450000D02*
X219300000Y-81270000D01*
X219300000Y-78730000D02*
X219300000Y-35550000D01*
X216760000Y-35550000D02*
X216760000Y-78730000D01*
X198980000Y-78730000D02*
X198980000Y-35550000D01*
X196440000Y-35550000D02*
X196440000Y-78730000D01*
X178660000Y-78730000D02*
X178660000Y-35550000D01*
X176120000Y-35550000D02*
X176120000Y-78730000D01*
X155800000Y-35550000D02*
X155800000Y-78730000D01*
X158340000Y-78730000D02*
X158340000Y-35550000D01*
X138020000Y-35550000D02*
X138020000Y-78730000D01*
X135480000Y-78730000D02*
X135480000Y-35550000D01*
M02*
