G04 #@! TF.GenerationSoftware,KiCad,Pcbnew,(5.99.0-1588-g7ca069e63)*
G04 #@! TF.CreationDate,2020-05-10T11:49:47-06:00*
G04 #@! TF.ProjectId,module_proto,6d6f6475-6c65-45f7-9072-6f746f2e6b69,rev?*
G04 #@! TF.SameCoordinates,Original*
G04 #@! TF.FileFunction,Legend,Bot*
G04 #@! TF.FilePolarity,Positive*
%FSLAX46Y46*%
G04 Gerber Fmt 4.6, Leading zero omitted, Abs format (unit mm)*
G04 Created by KiCad (PCBNEW (5.99.0-1588-g7ca069e63)) date 2020-05-10 11:49:47*
%MOMM*%
%LPD*%
G01*
G04 APERTURE LIST*
%ADD10C,0.200000*%
%ADD11C,0.254000*%
%ADD12C,0.900000*%
%ADD13C,6.500000*%
%ADD14C,1.800000*%
%ADD15C,2.900000*%
G04 APERTURE END LIST*
D10*
X238476904Y-111297619D02*
X238429285Y-111250000D01*
X238334047Y-111202380D01*
X238095952Y-111202380D01*
X238000714Y-111250000D01*
X237953095Y-111297619D01*
X237905476Y-111392857D01*
X237905476Y-111488095D01*
X237953095Y-111630952D01*
X238524523Y-112202380D01*
X237905476Y-112202380D01*
X237429285Y-112202380D02*
X237238809Y-112202380D01*
X237143571Y-112154761D01*
X237095952Y-112107142D01*
X237000714Y-111964285D01*
X236953095Y-111773809D01*
X236953095Y-111392857D01*
X237000714Y-111297619D01*
X237048333Y-111250000D01*
X237143571Y-111202380D01*
X237334047Y-111202380D01*
X237429285Y-111250000D01*
X237476904Y-111297619D01*
X237524523Y-111392857D01*
X237524523Y-111630952D01*
X237476904Y-111726190D01*
X237429285Y-111773809D01*
X237334047Y-111821428D01*
X237143571Y-111821428D01*
X237048333Y-111773809D01*
X237000714Y-111726190D01*
X236953095Y-111630952D01*
X238524523Y-113742380D02*
X237905476Y-113742380D01*
X238238809Y-114123333D01*
X238095952Y-114123333D01*
X238000714Y-114170952D01*
X237953095Y-114218571D01*
X237905476Y-114313809D01*
X237905476Y-114551904D01*
X237953095Y-114647142D01*
X238000714Y-114694761D01*
X238095952Y-114742380D01*
X238381666Y-114742380D01*
X238476904Y-114694761D01*
X238524523Y-114647142D01*
X237286428Y-113742380D02*
X237191190Y-113742380D01*
X237095952Y-113790000D01*
X237048333Y-113837619D01*
X237000714Y-113932857D01*
X236953095Y-114123333D01*
X236953095Y-114361428D01*
X237000714Y-114551904D01*
X237048333Y-114647142D01*
X237095952Y-114694761D01*
X237191190Y-114742380D01*
X237286428Y-114742380D01*
X237381666Y-114694761D01*
X237429285Y-114647142D01*
X237476904Y-114551904D01*
X237524523Y-114361428D01*
X237524523Y-114123333D01*
X237476904Y-113932857D01*
X237429285Y-113837619D01*
X237381666Y-113790000D01*
X237286428Y-113742380D01*
X238524523Y-116282380D02*
X237905476Y-116282380D01*
X238238809Y-116663333D01*
X238095952Y-116663333D01*
X238000714Y-116710952D01*
X237953095Y-116758571D01*
X237905476Y-116853809D01*
X237905476Y-117091904D01*
X237953095Y-117187142D01*
X238000714Y-117234761D01*
X238095952Y-117282380D01*
X238381666Y-117282380D01*
X238476904Y-117234761D01*
X238524523Y-117187142D01*
X236953095Y-117282380D02*
X237524523Y-117282380D01*
X237238809Y-117282380D02*
X237238809Y-116282380D01*
X237334047Y-116425238D01*
X237429285Y-116520476D01*
X237524523Y-116568095D01*
X238524523Y-118822380D02*
X237905476Y-118822380D01*
X238238809Y-119203333D01*
X238095952Y-119203333D01*
X238000714Y-119250952D01*
X237953095Y-119298571D01*
X237905476Y-119393809D01*
X237905476Y-119631904D01*
X237953095Y-119727142D01*
X238000714Y-119774761D01*
X238095952Y-119822380D01*
X238381666Y-119822380D01*
X238476904Y-119774761D01*
X238524523Y-119727142D01*
X237524523Y-118917619D02*
X237476904Y-118870000D01*
X237381666Y-118822380D01*
X237143571Y-118822380D01*
X237048333Y-118870000D01*
X237000714Y-118917619D01*
X236953095Y-119012857D01*
X236953095Y-119108095D01*
X237000714Y-119250952D01*
X237572142Y-119822380D01*
X236953095Y-119822380D01*
X237905476Y-79182380D02*
X238476904Y-79182380D01*
X238191190Y-79182380D02*
X238191190Y-78182380D01*
X238286428Y-78325238D01*
X238381666Y-78420476D01*
X238476904Y-78468095D01*
X237048333Y-78182380D02*
X237238809Y-78182380D01*
X237334047Y-78230000D01*
X237381666Y-78277619D01*
X237476904Y-78420476D01*
X237524523Y-78610952D01*
X237524523Y-78991904D01*
X237476904Y-79087142D01*
X237429285Y-79134761D01*
X237334047Y-79182380D01*
X237143571Y-79182380D01*
X237048333Y-79134761D01*
X237000714Y-79087142D01*
X236953095Y-78991904D01*
X236953095Y-78753809D01*
X237000714Y-78658571D01*
X237048333Y-78610952D01*
X237143571Y-78563333D01*
X237334047Y-78563333D01*
X237429285Y-78610952D01*
X237476904Y-78658571D01*
X237524523Y-78753809D01*
X237905476Y-81722380D02*
X238476904Y-81722380D01*
X238191190Y-81722380D02*
X238191190Y-80722380D01*
X238286428Y-80865238D01*
X238381666Y-80960476D01*
X238476904Y-81008095D01*
X237572142Y-80722380D02*
X236905476Y-80722380D01*
X237334047Y-81722380D01*
X237905476Y-84262380D02*
X238476904Y-84262380D01*
X238191190Y-84262380D02*
X238191190Y-83262380D01*
X238286428Y-83405238D01*
X238381666Y-83500476D01*
X238476904Y-83548095D01*
X237334047Y-83690952D02*
X237429285Y-83643333D01*
X237476904Y-83595714D01*
X237524523Y-83500476D01*
X237524523Y-83452857D01*
X237476904Y-83357619D01*
X237429285Y-83310000D01*
X237334047Y-83262380D01*
X237143571Y-83262380D01*
X237048333Y-83310000D01*
X237000714Y-83357619D01*
X236953095Y-83452857D01*
X236953095Y-83500476D01*
X237000714Y-83595714D01*
X237048333Y-83643333D01*
X237143571Y-83690952D01*
X237334047Y-83690952D01*
X237429285Y-83738571D01*
X237476904Y-83786190D01*
X237524523Y-83881428D01*
X237524523Y-84071904D01*
X237476904Y-84167142D01*
X237429285Y-84214761D01*
X237334047Y-84262380D01*
X237143571Y-84262380D01*
X237048333Y-84214761D01*
X237000714Y-84167142D01*
X236953095Y-84071904D01*
X236953095Y-83881428D01*
X237000714Y-83786190D01*
X237048333Y-83738571D01*
X237143571Y-83690952D01*
X237905476Y-86802380D02*
X238476904Y-86802380D01*
X238191190Y-86802380D02*
X238191190Y-85802380D01*
X238286428Y-85945238D01*
X238381666Y-86040476D01*
X238476904Y-86088095D01*
X237429285Y-86802380D02*
X237238809Y-86802380D01*
X237143571Y-86754761D01*
X237095952Y-86707142D01*
X237000714Y-86564285D01*
X236953095Y-86373809D01*
X236953095Y-85992857D01*
X237000714Y-85897619D01*
X237048333Y-85850000D01*
X237143571Y-85802380D01*
X237334047Y-85802380D01*
X237429285Y-85850000D01*
X237476904Y-85897619D01*
X237524523Y-85992857D01*
X237524523Y-86230952D01*
X237476904Y-86326190D01*
X237429285Y-86373809D01*
X237334047Y-86421428D01*
X237143571Y-86421428D01*
X237048333Y-86373809D01*
X237000714Y-86326190D01*
X236953095Y-86230952D01*
X238476904Y-88437619D02*
X238429285Y-88390000D01*
X238334047Y-88342380D01*
X238095952Y-88342380D01*
X238000714Y-88390000D01*
X237953095Y-88437619D01*
X237905476Y-88532857D01*
X237905476Y-88628095D01*
X237953095Y-88770952D01*
X238524523Y-89342380D01*
X237905476Y-89342380D01*
X237286428Y-88342380D02*
X237191190Y-88342380D01*
X237095952Y-88390000D01*
X237048333Y-88437619D01*
X237000714Y-88532857D01*
X236953095Y-88723333D01*
X236953095Y-88961428D01*
X237000714Y-89151904D01*
X237048333Y-89247142D01*
X237095952Y-89294761D01*
X237191190Y-89342380D01*
X237286428Y-89342380D01*
X237381666Y-89294761D01*
X237429285Y-89247142D01*
X237476904Y-89151904D01*
X237524523Y-88961428D01*
X237524523Y-88723333D01*
X237476904Y-88532857D01*
X237429285Y-88437619D01*
X237381666Y-88390000D01*
X237286428Y-88342380D01*
X238476904Y-90977619D02*
X238429285Y-90930000D01*
X238334047Y-90882380D01*
X238095952Y-90882380D01*
X238000714Y-90930000D01*
X237953095Y-90977619D01*
X237905476Y-91072857D01*
X237905476Y-91168095D01*
X237953095Y-91310952D01*
X238524523Y-91882380D01*
X237905476Y-91882380D01*
X236953095Y-91882380D02*
X237524523Y-91882380D01*
X237238809Y-91882380D02*
X237238809Y-90882380D01*
X237334047Y-91025238D01*
X237429285Y-91120476D01*
X237524523Y-91168095D01*
X238476904Y-93517619D02*
X238429285Y-93470000D01*
X238334047Y-93422380D01*
X238095952Y-93422380D01*
X238000714Y-93470000D01*
X237953095Y-93517619D01*
X237905476Y-93612857D01*
X237905476Y-93708095D01*
X237953095Y-93850952D01*
X238524523Y-94422380D01*
X237905476Y-94422380D01*
X237524523Y-93517619D02*
X237476904Y-93470000D01*
X237381666Y-93422380D01*
X237143571Y-93422380D01*
X237048333Y-93470000D01*
X237000714Y-93517619D01*
X236953095Y-93612857D01*
X236953095Y-93708095D01*
X237000714Y-93850952D01*
X237572142Y-94422380D01*
X236953095Y-94422380D01*
X238476904Y-96057619D02*
X238429285Y-96010000D01*
X238334047Y-95962380D01*
X238095952Y-95962380D01*
X238000714Y-96010000D01*
X237953095Y-96057619D01*
X237905476Y-96152857D01*
X237905476Y-96248095D01*
X237953095Y-96390952D01*
X238524523Y-96962380D01*
X237905476Y-96962380D01*
X237572142Y-95962380D02*
X236953095Y-95962380D01*
X237286428Y-96343333D01*
X237143571Y-96343333D01*
X237048333Y-96390952D01*
X237000714Y-96438571D01*
X236953095Y-96533809D01*
X236953095Y-96771904D01*
X237000714Y-96867142D01*
X237048333Y-96914761D01*
X237143571Y-96962380D01*
X237429285Y-96962380D01*
X237524523Y-96914761D01*
X237572142Y-96867142D01*
X238476904Y-98597619D02*
X238429285Y-98550000D01*
X238334047Y-98502380D01*
X238095952Y-98502380D01*
X238000714Y-98550000D01*
X237953095Y-98597619D01*
X237905476Y-98692857D01*
X237905476Y-98788095D01*
X237953095Y-98930952D01*
X238524523Y-99502380D01*
X237905476Y-99502380D01*
X237048333Y-98835714D02*
X237048333Y-99502380D01*
X237286428Y-98454761D02*
X237524523Y-99169047D01*
X236905476Y-99169047D01*
X238476904Y-101137619D02*
X238429285Y-101090000D01*
X238334047Y-101042380D01*
X238095952Y-101042380D01*
X238000714Y-101090000D01*
X237953095Y-101137619D01*
X237905476Y-101232857D01*
X237905476Y-101328095D01*
X237953095Y-101470952D01*
X238524523Y-102042380D01*
X237905476Y-102042380D01*
X237000714Y-101042380D02*
X237476904Y-101042380D01*
X237524523Y-101518571D01*
X237476904Y-101470952D01*
X237381666Y-101423333D01*
X237143571Y-101423333D01*
X237048333Y-101470952D01*
X237000714Y-101518571D01*
X236953095Y-101613809D01*
X236953095Y-101851904D01*
X237000714Y-101947142D01*
X237048333Y-101994761D01*
X237143571Y-102042380D01*
X237381666Y-102042380D01*
X237476904Y-101994761D01*
X237524523Y-101947142D01*
X238476904Y-103677619D02*
X238429285Y-103630000D01*
X238334047Y-103582380D01*
X238095952Y-103582380D01*
X238000714Y-103630000D01*
X237953095Y-103677619D01*
X237905476Y-103772857D01*
X237905476Y-103868095D01*
X237953095Y-104010952D01*
X238524523Y-104582380D01*
X237905476Y-104582380D01*
X237048333Y-103582380D02*
X237238809Y-103582380D01*
X237334047Y-103630000D01*
X237381666Y-103677619D01*
X237476904Y-103820476D01*
X237524523Y-104010952D01*
X237524523Y-104391904D01*
X237476904Y-104487142D01*
X237429285Y-104534761D01*
X237334047Y-104582380D01*
X237143571Y-104582380D01*
X237048333Y-104534761D01*
X237000714Y-104487142D01*
X236953095Y-104391904D01*
X236953095Y-104153809D01*
X237000714Y-104058571D01*
X237048333Y-104010952D01*
X237143571Y-103963333D01*
X237334047Y-103963333D01*
X237429285Y-104010952D01*
X237476904Y-104058571D01*
X237524523Y-104153809D01*
X237429285Y-41082380D02*
X238000714Y-41082380D01*
X237715000Y-41082380D02*
X237715000Y-40082380D01*
X237810238Y-40225238D01*
X237905476Y-40320476D01*
X238000714Y-40368095D01*
X238000714Y-42717619D02*
X237953095Y-42670000D01*
X237857857Y-42622380D01*
X237619761Y-42622380D01*
X237524523Y-42670000D01*
X237476904Y-42717619D01*
X237429285Y-42812857D01*
X237429285Y-42908095D01*
X237476904Y-43050952D01*
X238048333Y-43622380D01*
X237429285Y-43622380D01*
X238048333Y-45162380D02*
X237429285Y-45162380D01*
X237762619Y-45543333D01*
X237619761Y-45543333D01*
X237524523Y-45590952D01*
X237476904Y-45638571D01*
X237429285Y-45733809D01*
X237429285Y-45971904D01*
X237476904Y-46067142D01*
X237524523Y-46114761D01*
X237619761Y-46162380D01*
X237905476Y-46162380D01*
X238000714Y-46114761D01*
X238048333Y-46067142D01*
X237524523Y-48035714D02*
X237524523Y-48702380D01*
X237762619Y-47654761D02*
X238000714Y-48369047D01*
X237381666Y-48369047D01*
X237476904Y-50242380D02*
X237953095Y-50242380D01*
X238000714Y-50718571D01*
X237953095Y-50670952D01*
X237857857Y-50623333D01*
X237619761Y-50623333D01*
X237524523Y-50670952D01*
X237476904Y-50718571D01*
X237429285Y-50813809D01*
X237429285Y-51051904D01*
X237476904Y-51147142D01*
X237524523Y-51194761D01*
X237619761Y-51242380D01*
X237857857Y-51242380D01*
X237953095Y-51194761D01*
X238000714Y-51147142D01*
X237524523Y-52782380D02*
X237715000Y-52782380D01*
X237810238Y-52830000D01*
X237857857Y-52877619D01*
X237953095Y-53020476D01*
X238000714Y-53210952D01*
X238000714Y-53591904D01*
X237953095Y-53687142D01*
X237905476Y-53734761D01*
X237810238Y-53782380D01*
X237619761Y-53782380D01*
X237524523Y-53734761D01*
X237476904Y-53687142D01*
X237429285Y-53591904D01*
X237429285Y-53353809D01*
X237476904Y-53258571D01*
X237524523Y-53210952D01*
X237619761Y-53163333D01*
X237810238Y-53163333D01*
X237905476Y-53210952D01*
X237953095Y-53258571D01*
X238000714Y-53353809D01*
X238048333Y-55322380D02*
X237381666Y-55322380D01*
X237810238Y-56322380D01*
X237810238Y-58290952D02*
X237905476Y-58243333D01*
X237953095Y-58195714D01*
X238000714Y-58100476D01*
X238000714Y-58052857D01*
X237953095Y-57957619D01*
X237905476Y-57910000D01*
X237810238Y-57862380D01*
X237619761Y-57862380D01*
X237524523Y-57910000D01*
X237476904Y-57957619D01*
X237429285Y-58052857D01*
X237429285Y-58100476D01*
X237476904Y-58195714D01*
X237524523Y-58243333D01*
X237619761Y-58290952D01*
X237810238Y-58290952D01*
X237905476Y-58338571D01*
X237953095Y-58386190D01*
X238000714Y-58481428D01*
X238000714Y-58671904D01*
X237953095Y-58767142D01*
X237905476Y-58814761D01*
X237810238Y-58862380D01*
X237619761Y-58862380D01*
X237524523Y-58814761D01*
X237476904Y-58767142D01*
X237429285Y-58671904D01*
X237429285Y-58481428D01*
X237476904Y-58386190D01*
X237524523Y-58338571D01*
X237619761Y-58290952D01*
X237905476Y-61402380D02*
X237715000Y-61402380D01*
X237619761Y-61354761D01*
X237572142Y-61307142D01*
X237476904Y-61164285D01*
X237429285Y-60973809D01*
X237429285Y-60592857D01*
X237476904Y-60497619D01*
X237524523Y-60450000D01*
X237619761Y-60402380D01*
X237810238Y-60402380D01*
X237905476Y-60450000D01*
X237953095Y-60497619D01*
X238000714Y-60592857D01*
X238000714Y-60830952D01*
X237953095Y-60926190D01*
X237905476Y-60973809D01*
X237810238Y-61021428D01*
X237619761Y-61021428D01*
X237524523Y-60973809D01*
X237476904Y-60926190D01*
X237429285Y-60830952D01*
X237905476Y-63942380D02*
X238476904Y-63942380D01*
X238191190Y-63942380D02*
X238191190Y-62942380D01*
X238286428Y-63085238D01*
X238381666Y-63180476D01*
X238476904Y-63228095D01*
X237286428Y-62942380D02*
X237191190Y-62942380D01*
X237095952Y-62990000D01*
X237048333Y-63037619D01*
X237000714Y-63132857D01*
X236953095Y-63323333D01*
X236953095Y-63561428D01*
X237000714Y-63751904D01*
X237048333Y-63847142D01*
X237095952Y-63894761D01*
X237191190Y-63942380D01*
X237286428Y-63942380D01*
X237381666Y-63894761D01*
X237429285Y-63847142D01*
X237476904Y-63751904D01*
X237524523Y-63561428D01*
X237524523Y-63323333D01*
X237476904Y-63132857D01*
X237429285Y-63037619D01*
X237381666Y-62990000D01*
X237286428Y-62942380D01*
X237905476Y-66482380D02*
X238476904Y-66482380D01*
X238191190Y-66482380D02*
X238191190Y-65482380D01*
X238286428Y-65625238D01*
X238381666Y-65720476D01*
X238476904Y-65768095D01*
X236953095Y-66482380D02*
X237524523Y-66482380D01*
X237238809Y-66482380D02*
X237238809Y-65482380D01*
X237334047Y-65625238D01*
X237429285Y-65720476D01*
X237524523Y-65768095D01*
X237905476Y-69022380D02*
X238476904Y-69022380D01*
X238191190Y-69022380D02*
X238191190Y-68022380D01*
X238286428Y-68165238D01*
X238381666Y-68260476D01*
X238476904Y-68308095D01*
X237524523Y-68117619D02*
X237476904Y-68070000D01*
X237381666Y-68022380D01*
X237143571Y-68022380D01*
X237048333Y-68070000D01*
X237000714Y-68117619D01*
X236953095Y-68212857D01*
X236953095Y-68308095D01*
X237000714Y-68450952D01*
X237572142Y-69022380D01*
X236953095Y-69022380D01*
X237905476Y-71562380D02*
X238476904Y-71562380D01*
X238191190Y-71562380D02*
X238191190Y-70562380D01*
X238286428Y-70705238D01*
X238381666Y-70800476D01*
X238476904Y-70848095D01*
X237572142Y-70562380D02*
X236953095Y-70562380D01*
X237286428Y-70943333D01*
X237143571Y-70943333D01*
X237048333Y-70990952D01*
X237000714Y-71038571D01*
X236953095Y-71133809D01*
X236953095Y-71371904D01*
X237000714Y-71467142D01*
X237048333Y-71514761D01*
X237143571Y-71562380D01*
X237429285Y-71562380D01*
X237524523Y-71514761D01*
X237572142Y-71467142D01*
X237905476Y-74102380D02*
X238476904Y-74102380D01*
X238191190Y-74102380D02*
X238191190Y-73102380D01*
X238286428Y-73245238D01*
X238381666Y-73340476D01*
X238476904Y-73388095D01*
X237048333Y-73435714D02*
X237048333Y-74102380D01*
X237286428Y-73054761D02*
X237524523Y-73769047D01*
X236905476Y-73769047D01*
X237905476Y-76642380D02*
X238476904Y-76642380D01*
X238191190Y-76642380D02*
X238191190Y-75642380D01*
X238286428Y-75785238D01*
X238381666Y-75880476D01*
X238476904Y-75928095D01*
X237000714Y-75642380D02*
X237476904Y-75642380D01*
X237524523Y-76118571D01*
X237476904Y-76070952D01*
X237381666Y-76023333D01*
X237143571Y-76023333D01*
X237048333Y-76070952D01*
X237000714Y-76118571D01*
X236953095Y-76213809D01*
X236953095Y-76451904D01*
X237000714Y-76547142D01*
X237048333Y-76594761D01*
X237143571Y-76642380D01*
X237381666Y-76642380D01*
X237476904Y-76594761D01*
X237524523Y-76547142D01*
X246533571Y-103796666D02*
X246533571Y-103463333D01*
X247057380Y-103463333D02*
X246057380Y-103463333D01*
X246057380Y-103939523D01*
X247009761Y-104272857D02*
X247057380Y-104415714D01*
X247057380Y-104653809D01*
X247009761Y-104749047D01*
X246962142Y-104796666D01*
X246866904Y-104844285D01*
X246771666Y-104844285D01*
X246676428Y-104796666D01*
X246628809Y-104749047D01*
X246581190Y-104653809D01*
X246533571Y-104463333D01*
X246485952Y-104368095D01*
X246438333Y-104320476D01*
X246343095Y-104272857D01*
X246247857Y-104272857D01*
X246152619Y-104320476D01*
X246105000Y-104368095D01*
X246057380Y-104463333D01*
X246057380Y-104701428D01*
X246105000Y-104844285D01*
X249502142Y-98597619D02*
X249549761Y-98550000D01*
X249597380Y-98407142D01*
X249597380Y-98311904D01*
X249549761Y-98169047D01*
X249454523Y-98073809D01*
X249359285Y-98026190D01*
X249168809Y-97978571D01*
X249025952Y-97978571D01*
X248835476Y-98026190D01*
X248740238Y-98073809D01*
X248645000Y-98169047D01*
X248597380Y-98311904D01*
X248597380Y-98407142D01*
X248645000Y-98550000D01*
X248692619Y-98597619D01*
X249597380Y-99026190D02*
X248597380Y-99026190D01*
X249597380Y-99502380D02*
X248597380Y-99502380D01*
X249597380Y-100073809D01*
X248597380Y-100073809D01*
X248232142Y-98883333D02*
X248279761Y-98835714D01*
X248327380Y-98692857D01*
X248327380Y-98597619D01*
X248279761Y-98454761D01*
X248184523Y-98359523D01*
X248089285Y-98311904D01*
X247898809Y-98264285D01*
X247755952Y-98264285D01*
X247565476Y-98311904D01*
X247470238Y-98359523D01*
X247375000Y-98454761D01*
X247327380Y-98597619D01*
X247327380Y-98692857D01*
X247375000Y-98835714D01*
X247422619Y-98883333D01*
X247327380Y-99740476D02*
X247327380Y-99550000D01*
X247375000Y-99454761D01*
X247422619Y-99407142D01*
X247565476Y-99311904D01*
X247755952Y-99264285D01*
X248136904Y-99264285D01*
X248232142Y-99311904D01*
X248279761Y-99359523D01*
X248327380Y-99454761D01*
X248327380Y-99645238D01*
X248279761Y-99740476D01*
X248232142Y-99788095D01*
X248136904Y-99835714D01*
X247898809Y-99835714D01*
X247803571Y-99788095D01*
X247755952Y-99740476D01*
X247708333Y-99645238D01*
X247708333Y-99454761D01*
X247755952Y-99359523D01*
X247803571Y-99311904D01*
X247898809Y-99264285D01*
X240890000Y-107940000D02*
X241525000Y-107305000D01*
X237715000Y-107940000D02*
X240890000Y-107940000D01*
X237151428Y-104908095D02*
X237151428Y-105670000D01*
X237532380Y-105289047D02*
X236770476Y-105289047D01*
X236532380Y-106622380D02*
X236532380Y-106146190D01*
X237008571Y-106098571D01*
X236960952Y-106146190D01*
X236913333Y-106241428D01*
X236913333Y-106479523D01*
X236960952Y-106574761D01*
X237008571Y-106622380D01*
X237103809Y-106670000D01*
X237341904Y-106670000D01*
X237437142Y-106622380D01*
X237484761Y-106574761D01*
X237532380Y-106479523D01*
X237532380Y-106241428D01*
X237484761Y-106146190D01*
X237437142Y-106098571D01*
X236532380Y-107574761D02*
X236532380Y-107098571D01*
X237008571Y-107050952D01*
X236960952Y-107098571D01*
X236913333Y-107193809D01*
X236913333Y-107431904D01*
X236960952Y-107527142D01*
X237008571Y-107574761D01*
X237103809Y-107622380D01*
X237341904Y-107622380D01*
X237437142Y-107574761D01*
X237484761Y-107527142D01*
X237532380Y-107431904D01*
X237532380Y-107193809D01*
X237484761Y-107098571D01*
X237437142Y-107050952D01*
X236532380Y-107908095D02*
X237532380Y-108241428D01*
X236532380Y-108574761D01*
X247946428Y-107448095D02*
X247946428Y-108210000D01*
X248327380Y-107829047D02*
X247565476Y-107829047D01*
X248327380Y-109210000D02*
X248327380Y-108638571D01*
X248327380Y-108924285D02*
X247327380Y-108924285D01*
X247470238Y-108829047D01*
X247565476Y-108733809D01*
X247613095Y-108638571D01*
X247327380Y-110114761D02*
X247327380Y-109638571D01*
X247803571Y-109590952D01*
X247755952Y-109638571D01*
X247708333Y-109733809D01*
X247708333Y-109971904D01*
X247755952Y-110067142D01*
X247803571Y-110114761D01*
X247898809Y-110162380D01*
X248136904Y-110162380D01*
X248232142Y-110114761D01*
X248279761Y-110067142D01*
X248327380Y-109971904D01*
X248327380Y-109733809D01*
X248279761Y-109638571D01*
X248232142Y-109590952D01*
X247327380Y-110448095D02*
X248327380Y-110781428D01*
X247327380Y-111114761D01*
X246676428Y-109678571D02*
X246676428Y-110440476D01*
X247057380Y-110059523D02*
X246295476Y-110059523D01*
X247057380Y-111440476D02*
X247057380Y-110869047D01*
X247057380Y-111154761D02*
X246057380Y-111154761D01*
X246200238Y-111059523D01*
X246295476Y-110964285D01*
X246343095Y-110869047D01*
X246057380Y-112059523D02*
X246057380Y-112154761D01*
X246105000Y-112250000D01*
X246152619Y-112297619D01*
X246247857Y-112345238D01*
X246438333Y-112392857D01*
X246676428Y-112392857D01*
X246866904Y-112345238D01*
X246962142Y-112297619D01*
X247009761Y-112250000D01*
X247057380Y-112154761D01*
X247057380Y-112059523D01*
X247009761Y-111964285D01*
X246962142Y-111916666D01*
X246866904Y-111869047D01*
X246676428Y-111821428D01*
X246438333Y-111821428D01*
X246247857Y-111869047D01*
X246152619Y-111916666D01*
X246105000Y-111964285D01*
X246057380Y-112059523D01*
X246057380Y-112678571D02*
X247057380Y-113011904D01*
X246057380Y-113345238D01*
X247057380Y-113678571D02*
X246390714Y-113678571D01*
X246581190Y-113678571D02*
X246485952Y-113726190D01*
X246438333Y-113773809D01*
X246390714Y-113869047D01*
X246390714Y-113964285D01*
X246676428Y-115068095D02*
X246676428Y-115830000D01*
X246057380Y-116782380D02*
X246057380Y-116306190D01*
X246533571Y-116258571D01*
X246485952Y-116306190D01*
X246438333Y-116401428D01*
X246438333Y-116639523D01*
X246485952Y-116734761D01*
X246533571Y-116782380D01*
X246628809Y-116830000D01*
X246866904Y-116830000D01*
X246962142Y-116782380D01*
X247009761Y-116734761D01*
X247057380Y-116639523D01*
X247057380Y-116401428D01*
X247009761Y-116306190D01*
X246962142Y-116258571D01*
X246057380Y-117734761D02*
X246057380Y-117258571D01*
X246533571Y-117210952D01*
X246485952Y-117258571D01*
X246438333Y-117353809D01*
X246438333Y-117591904D01*
X246485952Y-117687142D01*
X246533571Y-117734761D01*
X246628809Y-117782380D01*
X246866904Y-117782380D01*
X246962142Y-117734761D01*
X247009761Y-117687142D01*
X247057380Y-117591904D01*
X247057380Y-117353809D01*
X247009761Y-117258571D01*
X246962142Y-117210952D01*
X246057380Y-118068095D02*
X247057380Y-118401428D01*
X246057380Y-118734761D01*
X247946428Y-115068095D02*
X247946428Y-115830000D01*
X248327380Y-116830000D02*
X248327380Y-116258571D01*
X248327380Y-116544285D02*
X247327380Y-116544285D01*
X247470238Y-116449047D01*
X247565476Y-116353809D01*
X247613095Y-116258571D01*
X247327380Y-117734761D02*
X247327380Y-117258571D01*
X247803571Y-117210952D01*
X247755952Y-117258571D01*
X247708333Y-117353809D01*
X247708333Y-117591904D01*
X247755952Y-117687142D01*
X247803571Y-117734761D01*
X247898809Y-117782380D01*
X248136904Y-117782380D01*
X248232142Y-117734761D01*
X248279761Y-117687142D01*
X248327380Y-117591904D01*
X248327380Y-117353809D01*
X248279761Y-117258571D01*
X248232142Y-117210952D01*
X247327380Y-118068095D02*
X248327380Y-118401428D01*
X247327380Y-118734761D01*
X249216428Y-114274285D02*
X249216428Y-115036190D01*
X249597380Y-114655238D02*
X248835476Y-114655238D01*
X248597380Y-115988571D02*
X248597380Y-115512380D01*
X249073571Y-115464761D01*
X249025952Y-115512380D01*
X248978333Y-115607619D01*
X248978333Y-115845714D01*
X249025952Y-115940952D01*
X249073571Y-115988571D01*
X249168809Y-116036190D01*
X249406904Y-116036190D01*
X249502142Y-115988571D01*
X249549761Y-115940952D01*
X249597380Y-115845714D01*
X249597380Y-115607619D01*
X249549761Y-115512380D01*
X249502142Y-115464761D01*
X248597380Y-116321904D02*
X249597380Y-116655238D01*
X248597380Y-116988571D01*
X249216428Y-108718095D02*
X249216428Y-109480000D01*
X249597380Y-109099047D02*
X248835476Y-109099047D01*
X249597380Y-110480000D02*
X249597380Y-109908571D01*
X249597380Y-110194285D02*
X248597380Y-110194285D01*
X248740238Y-110099047D01*
X248835476Y-110003809D01*
X248883095Y-109908571D01*
X248692619Y-110860952D02*
X248645000Y-110908571D01*
X248597380Y-111003809D01*
X248597380Y-111241904D01*
X248645000Y-111337142D01*
X248692619Y-111384761D01*
X248787857Y-111432380D01*
X248883095Y-111432380D01*
X249025952Y-111384761D01*
X249597380Y-110813333D01*
X249597380Y-111432380D01*
X248597380Y-111718095D02*
X249597380Y-112051428D01*
X248597380Y-112384761D01*
X249216428Y-103638095D02*
X249216428Y-104400000D01*
X249597380Y-104019047D02*
X248835476Y-104019047D01*
X248692619Y-104828571D02*
X248645000Y-104876190D01*
X248597380Y-104971428D01*
X248597380Y-105209523D01*
X248645000Y-105304761D01*
X248692619Y-105352380D01*
X248787857Y-105400000D01*
X248883095Y-105400000D01*
X249025952Y-105352380D01*
X249597380Y-104780952D01*
X249597380Y-105400000D01*
X248930714Y-106257142D02*
X249597380Y-106257142D01*
X248549761Y-106019047D02*
X249264047Y-105780952D01*
X249264047Y-106400000D01*
X248597380Y-106638095D02*
X249597380Y-106971428D01*
X248597380Y-107304761D01*
X249597380Y-100851904D02*
X248597380Y-100851904D01*
X248597380Y-101232857D01*
X248645000Y-101328095D01*
X248692619Y-101375714D01*
X248787857Y-101423333D01*
X248930714Y-101423333D01*
X249025952Y-101375714D01*
X249073571Y-101328095D01*
X249121190Y-101232857D01*
X249121190Y-100851904D01*
X248692619Y-101804285D02*
X248645000Y-101851904D01*
X248597380Y-101947142D01*
X248597380Y-102185238D01*
X248645000Y-102280476D01*
X248692619Y-102328095D01*
X248787857Y-102375714D01*
X248883095Y-102375714D01*
X249025952Y-102328095D01*
X249597380Y-101756666D01*
X249597380Y-102375714D01*
X248327380Y-100851904D02*
X247327380Y-100851904D01*
X247327380Y-101232857D01*
X247375000Y-101328095D01*
X247422619Y-101375714D01*
X247517857Y-101423333D01*
X247660714Y-101423333D01*
X247755952Y-101375714D01*
X247803571Y-101328095D01*
X247851190Y-101232857D01*
X247851190Y-100851904D01*
X248327380Y-102375714D02*
X248327380Y-101804285D01*
X248327380Y-102090000D02*
X247327380Y-102090000D01*
X247470238Y-101994761D01*
X247565476Y-101899523D01*
X247613095Y-101804285D01*
X247057380Y-100851904D02*
X246057380Y-100851904D01*
X246057380Y-101232857D01*
X246105000Y-101328095D01*
X246152619Y-101375714D01*
X246247857Y-101423333D01*
X246390714Y-101423333D01*
X246485952Y-101375714D01*
X246533571Y-101328095D01*
X246581190Y-101232857D01*
X246581190Y-100851904D01*
X246057380Y-102042380D02*
X246057380Y-102137619D01*
X246105000Y-102232857D01*
X246152619Y-102280476D01*
X246247857Y-102328095D01*
X246438333Y-102375714D01*
X246676428Y-102375714D01*
X246866904Y-102328095D01*
X246962142Y-102280476D01*
X247009761Y-102232857D01*
X247057380Y-102137619D01*
X247057380Y-102042380D01*
X247009761Y-101947142D01*
X246962142Y-101899523D01*
X246866904Y-101851904D01*
X246676428Y-101804285D01*
X246438333Y-101804285D01*
X246247857Y-101851904D01*
X246152619Y-101899523D01*
X246105000Y-101947142D01*
X246057380Y-102042380D01*
X248232142Y-96343333D02*
X248279761Y-96295714D01*
X248327380Y-96152857D01*
X248327380Y-96057619D01*
X248279761Y-95914761D01*
X248184523Y-95819523D01*
X248089285Y-95771904D01*
X247898809Y-95724285D01*
X247755952Y-95724285D01*
X247565476Y-95771904D01*
X247470238Y-95819523D01*
X247375000Y-95914761D01*
X247327380Y-96057619D01*
X247327380Y-96152857D01*
X247375000Y-96295714D01*
X247422619Y-96343333D01*
X247327380Y-96676666D02*
X247327380Y-97295714D01*
X247708333Y-96962380D01*
X247708333Y-97105238D01*
X247755952Y-97200476D01*
X247803571Y-97248095D01*
X247898809Y-97295714D01*
X248136904Y-97295714D01*
X248232142Y-97248095D01*
X248279761Y-97200476D01*
X248327380Y-97105238D01*
X248327380Y-96819523D01*
X248279761Y-96724285D01*
X248232142Y-96676666D01*
X249629142Y-96343333D02*
X249676761Y-96295714D01*
X249724380Y-96152857D01*
X249724380Y-96057619D01*
X249676761Y-95914761D01*
X249581523Y-95819523D01*
X249486285Y-95771904D01*
X249295809Y-95724285D01*
X249152952Y-95724285D01*
X248962476Y-95771904D01*
X248867238Y-95819523D01*
X248772000Y-95914761D01*
X248724380Y-96057619D01*
X248724380Y-96152857D01*
X248772000Y-96295714D01*
X248819619Y-96343333D01*
X249057714Y-97200476D02*
X249724380Y-97200476D01*
X248676761Y-96962380D02*
X249391047Y-96724285D01*
X249391047Y-97343333D01*
X246962142Y-98883333D02*
X247009761Y-98835714D01*
X247057380Y-98692857D01*
X247057380Y-98597619D01*
X247009761Y-98454761D01*
X246914523Y-98359523D01*
X246819285Y-98311904D01*
X246628809Y-98264285D01*
X246485952Y-98264285D01*
X246295476Y-98311904D01*
X246200238Y-98359523D01*
X246105000Y-98454761D01*
X246057380Y-98597619D01*
X246057380Y-98692857D01*
X246105000Y-98835714D01*
X246152619Y-98883333D01*
X246057380Y-99788095D02*
X246057380Y-99311904D01*
X246533571Y-99264285D01*
X246485952Y-99311904D01*
X246438333Y-99407142D01*
X246438333Y-99645238D01*
X246485952Y-99740476D01*
X246533571Y-99788095D01*
X246628809Y-99835714D01*
X246866904Y-99835714D01*
X246962142Y-99788095D01*
X247009761Y-99740476D01*
X247057380Y-99645238D01*
X247057380Y-99407142D01*
X247009761Y-99311904D01*
X246962142Y-99264285D01*
X248232142Y-93803333D02*
X248279761Y-93755714D01*
X248327380Y-93612857D01*
X248327380Y-93517619D01*
X248279761Y-93374761D01*
X248184523Y-93279523D01*
X248089285Y-93231904D01*
X247898809Y-93184285D01*
X247755952Y-93184285D01*
X247565476Y-93231904D01*
X247470238Y-93279523D01*
X247375000Y-93374761D01*
X247327380Y-93517619D01*
X247327380Y-93612857D01*
X247375000Y-93755714D01*
X247422619Y-93803333D01*
X247327380Y-94422380D02*
X247327380Y-94517619D01*
X247375000Y-94612857D01*
X247422619Y-94660476D01*
X247517857Y-94708095D01*
X247708333Y-94755714D01*
X247946428Y-94755714D01*
X248136904Y-94708095D01*
X248232142Y-94660476D01*
X248279761Y-94612857D01*
X248327380Y-94517619D01*
X248327380Y-94422380D01*
X248279761Y-94327142D01*
X248232142Y-94279523D01*
X248136904Y-94231904D01*
X247946428Y-94184285D01*
X247708333Y-94184285D01*
X247517857Y-94231904D01*
X247422619Y-94279523D01*
X247375000Y-94327142D01*
X247327380Y-94422380D01*
X249629142Y-93803333D02*
X249676761Y-93755714D01*
X249724380Y-93612857D01*
X249724380Y-93517619D01*
X249676761Y-93374761D01*
X249581523Y-93279523D01*
X249486285Y-93231904D01*
X249295809Y-93184285D01*
X249152952Y-93184285D01*
X248962476Y-93231904D01*
X248867238Y-93279523D01*
X248772000Y-93374761D01*
X248724380Y-93517619D01*
X248724380Y-93612857D01*
X248772000Y-93755714D01*
X248819619Y-93803333D01*
X249724380Y-94755714D02*
X249724380Y-94184285D01*
X249724380Y-94470000D02*
X248724380Y-94470000D01*
X248867238Y-94374761D01*
X248962476Y-94279523D01*
X249010095Y-94184285D01*
X246962142Y-96343333D02*
X247009761Y-96295714D01*
X247057380Y-96152857D01*
X247057380Y-96057619D01*
X247009761Y-95914761D01*
X246914523Y-95819523D01*
X246819285Y-95771904D01*
X246628809Y-95724285D01*
X246485952Y-95724285D01*
X246295476Y-95771904D01*
X246200238Y-95819523D01*
X246105000Y-95914761D01*
X246057380Y-96057619D01*
X246057380Y-96152857D01*
X246105000Y-96295714D01*
X246152619Y-96343333D01*
X246152619Y-96724285D02*
X246105000Y-96771904D01*
X246057380Y-96867142D01*
X246057380Y-97105238D01*
X246105000Y-97200476D01*
X246152619Y-97248095D01*
X246247857Y-97295714D01*
X246343095Y-97295714D01*
X246485952Y-97248095D01*
X247057380Y-96676666D01*
X247057380Y-97295714D01*
X247057380Y-93231904D02*
X246533571Y-93231904D01*
X246438333Y-93184285D01*
X246390714Y-93089047D01*
X246390714Y-92898571D01*
X246438333Y-92803333D01*
X247009761Y-93231904D02*
X247057380Y-93136666D01*
X247057380Y-92898571D01*
X247009761Y-92803333D01*
X246914523Y-92755714D01*
X246819285Y-92755714D01*
X246724047Y-92803333D01*
X246676428Y-92898571D01*
X246676428Y-93136666D01*
X246628809Y-93231904D01*
X247057380Y-94231904D02*
X247057380Y-93660476D01*
X247057380Y-93946190D02*
X246057380Y-93946190D01*
X246200238Y-93850952D01*
X246295476Y-93755714D01*
X246343095Y-93660476D01*
X246057380Y-95136666D02*
X246057380Y-94660476D01*
X246533571Y-94612857D01*
X246485952Y-94660476D01*
X246438333Y-94755714D01*
X246438333Y-94993809D01*
X246485952Y-95089047D01*
X246533571Y-95136666D01*
X246628809Y-95184285D01*
X246866904Y-95184285D01*
X246962142Y-95136666D01*
X247009761Y-95089047D01*
X247057380Y-94993809D01*
X247057380Y-94755714D01*
X247009761Y-94660476D01*
X246962142Y-94612857D01*
X249597380Y-90691904D02*
X249073571Y-90691904D01*
X248978333Y-90644285D01*
X248930714Y-90549047D01*
X248930714Y-90358571D01*
X248978333Y-90263333D01*
X249549761Y-90691904D02*
X249597380Y-90596666D01*
X249597380Y-90358571D01*
X249549761Y-90263333D01*
X249454523Y-90215714D01*
X249359285Y-90215714D01*
X249264047Y-90263333D01*
X249216428Y-90358571D01*
X249216428Y-90596666D01*
X249168809Y-90691904D01*
X249597380Y-91691904D02*
X249597380Y-91120476D01*
X249597380Y-91406190D02*
X248597380Y-91406190D01*
X248740238Y-91310952D01*
X248835476Y-91215714D01*
X248883095Y-91120476D01*
X248930714Y-92549047D02*
X249597380Y-92549047D01*
X248549761Y-92310952D02*
X249264047Y-92072857D01*
X249264047Y-92691904D01*
X248327380Y-90691904D02*
X247803571Y-90691904D01*
X247708333Y-90644285D01*
X247660714Y-90549047D01*
X247660714Y-90358571D01*
X247708333Y-90263333D01*
X248279761Y-90691904D02*
X248327380Y-90596666D01*
X248327380Y-90358571D01*
X248279761Y-90263333D01*
X248184523Y-90215714D01*
X248089285Y-90215714D01*
X247994047Y-90263333D01*
X247946428Y-90358571D01*
X247946428Y-90596666D01*
X247898809Y-90691904D01*
X248327380Y-91691904D02*
X248327380Y-91120476D01*
X248327380Y-91406190D02*
X247327380Y-91406190D01*
X247470238Y-91310952D01*
X247565476Y-91215714D01*
X247613095Y-91120476D01*
X247327380Y-92025238D02*
X247327380Y-92644285D01*
X247708333Y-92310952D01*
X247708333Y-92453809D01*
X247755952Y-92549047D01*
X247803571Y-92596666D01*
X247898809Y-92644285D01*
X248136904Y-92644285D01*
X248232142Y-92596666D01*
X248279761Y-92549047D01*
X248327380Y-92453809D01*
X248327380Y-92168095D01*
X248279761Y-92072857D01*
X248232142Y-92025238D01*
X247057380Y-90691904D02*
X246533571Y-90691904D01*
X246438333Y-90644285D01*
X246390714Y-90549047D01*
X246390714Y-90358571D01*
X246438333Y-90263333D01*
X247009761Y-90691904D02*
X247057380Y-90596666D01*
X247057380Y-90358571D01*
X247009761Y-90263333D01*
X246914523Y-90215714D01*
X246819285Y-90215714D01*
X246724047Y-90263333D01*
X246676428Y-90358571D01*
X246676428Y-90596666D01*
X246628809Y-90691904D01*
X247057380Y-91691904D02*
X247057380Y-91120476D01*
X247057380Y-91406190D02*
X246057380Y-91406190D01*
X246200238Y-91310952D01*
X246295476Y-91215714D01*
X246343095Y-91120476D01*
X246152619Y-92072857D02*
X246105000Y-92120476D01*
X246057380Y-92215714D01*
X246057380Y-92453809D01*
X246105000Y-92549047D01*
X246152619Y-92596666D01*
X246247857Y-92644285D01*
X246343095Y-92644285D01*
X246485952Y-92596666D01*
X247057380Y-92025238D01*
X247057380Y-92644285D01*
X247057380Y-88151904D02*
X246533571Y-88151904D01*
X246438333Y-88104285D01*
X246390714Y-88009047D01*
X246390714Y-87818571D01*
X246438333Y-87723333D01*
X247009761Y-88151904D02*
X247057380Y-88056666D01*
X247057380Y-87818571D01*
X247009761Y-87723333D01*
X246914523Y-87675714D01*
X246819285Y-87675714D01*
X246724047Y-87723333D01*
X246676428Y-87818571D01*
X246676428Y-88056666D01*
X246628809Y-88151904D01*
X247057380Y-89151904D02*
X247057380Y-88580476D01*
X247057380Y-88866190D02*
X246057380Y-88866190D01*
X246200238Y-88770952D01*
X246295476Y-88675714D01*
X246343095Y-88580476D01*
X246057380Y-89770952D02*
X246057380Y-89866190D01*
X246105000Y-89961428D01*
X246152619Y-90009047D01*
X246247857Y-90056666D01*
X246438333Y-90104285D01*
X246676428Y-90104285D01*
X246866904Y-90056666D01*
X246962142Y-90009047D01*
X247009761Y-89961428D01*
X247057380Y-89866190D01*
X247057380Y-89770952D01*
X247009761Y-89675714D01*
X246962142Y-89628095D01*
X246866904Y-89580476D01*
X246676428Y-89532857D01*
X246438333Y-89532857D01*
X246247857Y-89580476D01*
X246152619Y-89628095D01*
X246105000Y-89675714D01*
X246057380Y-89770952D01*
X249597380Y-88151904D02*
X249073571Y-88151904D01*
X248978333Y-88104285D01*
X248930714Y-88009047D01*
X248930714Y-87818571D01*
X248978333Y-87723333D01*
X249549761Y-88151904D02*
X249597380Y-88056666D01*
X249597380Y-87818571D01*
X249549761Y-87723333D01*
X249454523Y-87675714D01*
X249359285Y-87675714D01*
X249264047Y-87723333D01*
X249216428Y-87818571D01*
X249216428Y-88056666D01*
X249168809Y-88151904D01*
X249597380Y-89151904D02*
X249597380Y-88580476D01*
X249597380Y-88866190D02*
X248597380Y-88866190D01*
X248740238Y-88770952D01*
X248835476Y-88675714D01*
X248883095Y-88580476D01*
X249597380Y-90104285D02*
X249597380Y-89532857D01*
X249597380Y-89818571D02*
X248597380Y-89818571D01*
X248740238Y-89723333D01*
X248835476Y-89628095D01*
X248883095Y-89532857D01*
X249597380Y-86088095D02*
X249073571Y-86088095D01*
X248978333Y-86040476D01*
X248930714Y-85945238D01*
X248930714Y-85754761D01*
X248978333Y-85659523D01*
X249549761Y-86088095D02*
X249597380Y-85992857D01*
X249597380Y-85754761D01*
X249549761Y-85659523D01*
X249454523Y-85611904D01*
X249359285Y-85611904D01*
X249264047Y-85659523D01*
X249216428Y-85754761D01*
X249216428Y-85992857D01*
X249168809Y-86088095D01*
X249597380Y-86611904D02*
X249597380Y-86802380D01*
X249549761Y-86897619D01*
X249502142Y-86945238D01*
X249359285Y-87040476D01*
X249168809Y-87088095D01*
X248787857Y-87088095D01*
X248692619Y-87040476D01*
X248645000Y-86992857D01*
X248597380Y-86897619D01*
X248597380Y-86707142D01*
X248645000Y-86611904D01*
X248692619Y-86564285D01*
X248787857Y-86516666D01*
X249025952Y-86516666D01*
X249121190Y-86564285D01*
X249168809Y-86611904D01*
X249216428Y-86707142D01*
X249216428Y-86897619D01*
X249168809Y-86992857D01*
X249121190Y-87040476D01*
X249025952Y-87088095D01*
X248327380Y-86088095D02*
X247803571Y-86088095D01*
X247708333Y-86040476D01*
X247660714Y-85945238D01*
X247660714Y-85754761D01*
X247708333Y-85659523D01*
X248279761Y-86088095D02*
X248327380Y-85992857D01*
X248327380Y-85754761D01*
X248279761Y-85659523D01*
X248184523Y-85611904D01*
X248089285Y-85611904D01*
X247994047Y-85659523D01*
X247946428Y-85754761D01*
X247946428Y-85992857D01*
X247898809Y-86088095D01*
X247755952Y-86707142D02*
X247708333Y-86611904D01*
X247660714Y-86564285D01*
X247565476Y-86516666D01*
X247517857Y-86516666D01*
X247422619Y-86564285D01*
X247375000Y-86611904D01*
X247327380Y-86707142D01*
X247327380Y-86897619D01*
X247375000Y-86992857D01*
X247422619Y-87040476D01*
X247517857Y-87088095D01*
X247565476Y-87088095D01*
X247660714Y-87040476D01*
X247708333Y-86992857D01*
X247755952Y-86897619D01*
X247755952Y-86707142D01*
X247803571Y-86611904D01*
X247851190Y-86564285D01*
X247946428Y-86516666D01*
X248136904Y-86516666D01*
X248232142Y-86564285D01*
X248279761Y-86611904D01*
X248327380Y-86707142D01*
X248327380Y-86897619D01*
X248279761Y-86992857D01*
X248232142Y-87040476D01*
X248136904Y-87088095D01*
X247946428Y-87088095D01*
X247851190Y-87040476D01*
X247803571Y-86992857D01*
X247755952Y-86897619D01*
X249597380Y-83548095D02*
X249073571Y-83548095D01*
X248978333Y-83500476D01*
X248930714Y-83405238D01*
X248930714Y-83214761D01*
X248978333Y-83119523D01*
X249549761Y-83548095D02*
X249597380Y-83452857D01*
X249597380Y-83214761D01*
X249549761Y-83119523D01*
X249454523Y-83071904D01*
X249359285Y-83071904D01*
X249264047Y-83119523D01*
X249216428Y-83214761D01*
X249216428Y-83452857D01*
X249168809Y-83548095D01*
X248597380Y-83929047D02*
X248597380Y-84595714D01*
X249597380Y-84167142D01*
X248327380Y-83548095D02*
X247803571Y-83548095D01*
X247708333Y-83500476D01*
X247660714Y-83405238D01*
X247660714Y-83214761D01*
X247708333Y-83119523D01*
X248279761Y-83548095D02*
X248327380Y-83452857D01*
X248327380Y-83214761D01*
X248279761Y-83119523D01*
X248184523Y-83071904D01*
X248089285Y-83071904D01*
X247994047Y-83119523D01*
X247946428Y-83214761D01*
X247946428Y-83452857D01*
X247898809Y-83548095D01*
X247327380Y-84452857D02*
X247327380Y-84262380D01*
X247375000Y-84167142D01*
X247422619Y-84119523D01*
X247565476Y-84024285D01*
X247755952Y-83976666D01*
X248136904Y-83976666D01*
X248232142Y-84024285D01*
X248279761Y-84071904D01*
X248327380Y-84167142D01*
X248327380Y-84357619D01*
X248279761Y-84452857D01*
X248232142Y-84500476D01*
X248136904Y-84548095D01*
X247898809Y-84548095D01*
X247803571Y-84500476D01*
X247755952Y-84452857D01*
X247708333Y-84357619D01*
X247708333Y-84167142D01*
X247755952Y-84071904D01*
X247803571Y-84024285D01*
X247898809Y-83976666D01*
X247057380Y-83548095D02*
X246533571Y-83548095D01*
X246438333Y-83500476D01*
X246390714Y-83405238D01*
X246390714Y-83214761D01*
X246438333Y-83119523D01*
X247009761Y-83548095D02*
X247057380Y-83452857D01*
X247057380Y-83214761D01*
X247009761Y-83119523D01*
X246914523Y-83071904D01*
X246819285Y-83071904D01*
X246724047Y-83119523D01*
X246676428Y-83214761D01*
X246676428Y-83452857D01*
X246628809Y-83548095D01*
X246057380Y-84500476D02*
X246057380Y-84024285D01*
X246533571Y-83976666D01*
X246485952Y-84024285D01*
X246438333Y-84119523D01*
X246438333Y-84357619D01*
X246485952Y-84452857D01*
X246533571Y-84500476D01*
X246628809Y-84548095D01*
X246866904Y-84548095D01*
X246962142Y-84500476D01*
X247009761Y-84452857D01*
X247057380Y-84357619D01*
X247057380Y-84119523D01*
X247009761Y-84024285D01*
X246962142Y-83976666D01*
X248327380Y-81008095D02*
X247803571Y-81008095D01*
X247708333Y-80960476D01*
X247660714Y-80865238D01*
X247660714Y-80674761D01*
X247708333Y-80579523D01*
X248279761Y-81008095D02*
X248327380Y-80912857D01*
X248327380Y-80674761D01*
X248279761Y-80579523D01*
X248184523Y-80531904D01*
X248089285Y-80531904D01*
X247994047Y-80579523D01*
X247946428Y-80674761D01*
X247946428Y-80912857D01*
X247898809Y-81008095D01*
X247660714Y-81912857D02*
X248327380Y-81912857D01*
X247279761Y-81674761D02*
X247994047Y-81436666D01*
X247994047Y-82055714D01*
X247057380Y-81008095D02*
X246533571Y-81008095D01*
X246438333Y-80960476D01*
X246390714Y-80865238D01*
X246390714Y-80674761D01*
X246438333Y-80579523D01*
X247009761Y-81008095D02*
X247057380Y-80912857D01*
X247057380Y-80674761D01*
X247009761Y-80579523D01*
X246914523Y-80531904D01*
X246819285Y-80531904D01*
X246724047Y-80579523D01*
X246676428Y-80674761D01*
X246676428Y-80912857D01*
X246628809Y-81008095D01*
X246057380Y-81389047D02*
X246057380Y-82008095D01*
X246438333Y-81674761D01*
X246438333Y-81817619D01*
X246485952Y-81912857D01*
X246533571Y-81960476D01*
X246628809Y-82008095D01*
X246866904Y-82008095D01*
X246962142Y-81960476D01*
X247009761Y-81912857D01*
X247057380Y-81817619D01*
X247057380Y-81531904D01*
X247009761Y-81436666D01*
X246962142Y-81389047D01*
X249597380Y-78468095D02*
X249073571Y-78468095D01*
X248978333Y-78420476D01*
X248930714Y-78325238D01*
X248930714Y-78134761D01*
X248978333Y-78039523D01*
X249549761Y-78468095D02*
X249597380Y-78372857D01*
X249597380Y-78134761D01*
X249549761Y-78039523D01*
X249454523Y-77991904D01*
X249359285Y-77991904D01*
X249264047Y-78039523D01*
X249216428Y-78134761D01*
X249216428Y-78372857D01*
X249168809Y-78468095D01*
X248692619Y-78896666D02*
X248645000Y-78944285D01*
X248597380Y-79039523D01*
X248597380Y-79277619D01*
X248645000Y-79372857D01*
X248692619Y-79420476D01*
X248787857Y-79468095D01*
X248883095Y-79468095D01*
X249025952Y-79420476D01*
X249597380Y-78849047D01*
X249597380Y-79468095D01*
X248327380Y-78468095D02*
X247803571Y-78468095D01*
X247708333Y-78420476D01*
X247660714Y-78325238D01*
X247660714Y-78134761D01*
X247708333Y-78039523D01*
X248279761Y-78468095D02*
X248327380Y-78372857D01*
X248327380Y-78134761D01*
X248279761Y-78039523D01*
X248184523Y-77991904D01*
X248089285Y-77991904D01*
X247994047Y-78039523D01*
X247946428Y-78134761D01*
X247946428Y-78372857D01*
X247898809Y-78468095D01*
X248327380Y-79468095D02*
X248327380Y-78896666D01*
X248327380Y-79182380D02*
X247327380Y-79182380D01*
X247470238Y-79087142D01*
X247565476Y-78991904D01*
X247613095Y-78896666D01*
X247057380Y-78468095D02*
X246533571Y-78468095D01*
X246438333Y-78420476D01*
X246390714Y-78325238D01*
X246390714Y-78134761D01*
X246438333Y-78039523D01*
X247009761Y-78468095D02*
X247057380Y-78372857D01*
X247057380Y-78134761D01*
X247009761Y-78039523D01*
X246914523Y-77991904D01*
X246819285Y-77991904D01*
X246724047Y-78039523D01*
X246676428Y-78134761D01*
X246676428Y-78372857D01*
X246628809Y-78468095D01*
X246057380Y-79134761D02*
X246057380Y-79230000D01*
X246105000Y-79325238D01*
X246152619Y-79372857D01*
X246247857Y-79420476D01*
X246438333Y-79468095D01*
X246676428Y-79468095D01*
X246866904Y-79420476D01*
X246962142Y-79372857D01*
X247009761Y-79325238D01*
X247057380Y-79230000D01*
X247057380Y-79134761D01*
X247009761Y-79039523D01*
X246962142Y-78991904D01*
X246866904Y-78944285D01*
X246676428Y-78896666D01*
X246438333Y-78896666D01*
X246247857Y-78944285D01*
X246152619Y-78991904D01*
X246105000Y-79039523D01*
X246057380Y-79134761D01*
X246676428Y-70213333D02*
X246676428Y-70975238D01*
X247057380Y-70594285D02*
X246295476Y-70594285D01*
X247057380Y-71451428D02*
X246390714Y-71451428D01*
X246057380Y-71451428D02*
X246105000Y-71403809D01*
X246152619Y-71451428D01*
X246105000Y-71499047D01*
X246057380Y-71451428D01*
X246152619Y-71451428D01*
X246390714Y-71927619D02*
X247057380Y-71927619D01*
X246485952Y-71927619D02*
X246438333Y-71975238D01*
X246390714Y-72070476D01*
X246390714Y-72213333D01*
X246438333Y-72308571D01*
X246533571Y-72356190D01*
X247057380Y-72356190D01*
X246057380Y-73308571D02*
X246057380Y-72832380D01*
X246533571Y-72784761D01*
X246485952Y-72832380D01*
X246438333Y-72927619D01*
X246438333Y-73165714D01*
X246485952Y-73260952D01*
X246533571Y-73308571D01*
X246628809Y-73356190D01*
X246866904Y-73356190D01*
X246962142Y-73308571D01*
X247009761Y-73260952D01*
X247057380Y-73165714D01*
X247057380Y-72927619D01*
X247009761Y-72832380D01*
X246962142Y-72784761D01*
X246676428Y-73784761D02*
X246676428Y-74546666D01*
X249549761Y-72959523D02*
X249597380Y-73054761D01*
X249597380Y-73245238D01*
X249549761Y-73340476D01*
X249454523Y-73388095D01*
X249406904Y-73388095D01*
X249311666Y-73340476D01*
X249264047Y-73245238D01*
X249264047Y-73102380D01*
X249216428Y-73007142D01*
X249121190Y-72959523D01*
X249073571Y-72959523D01*
X248978333Y-73007142D01*
X248930714Y-73102380D01*
X248930714Y-73245238D01*
X248978333Y-73340476D01*
X248597380Y-74292857D02*
X248597380Y-73816666D01*
X249073571Y-73769047D01*
X249025952Y-73816666D01*
X248978333Y-73911904D01*
X248978333Y-74150000D01*
X249025952Y-74245238D01*
X249073571Y-74292857D01*
X249168809Y-74340476D01*
X249406904Y-74340476D01*
X249502142Y-74292857D01*
X249549761Y-74245238D01*
X249597380Y-74150000D01*
X249597380Y-73911904D01*
X249549761Y-73816666D01*
X249502142Y-73769047D01*
X249549761Y-70419523D02*
X249597380Y-70514761D01*
X249597380Y-70705238D01*
X249549761Y-70800476D01*
X249454523Y-70848095D01*
X249406904Y-70848095D01*
X249311666Y-70800476D01*
X249264047Y-70705238D01*
X249264047Y-70562380D01*
X249216428Y-70467142D01*
X249121190Y-70419523D01*
X249073571Y-70419523D01*
X248978333Y-70467142D01*
X248930714Y-70562380D01*
X248930714Y-70705238D01*
X248978333Y-70800476D01*
X248930714Y-71705238D02*
X249597380Y-71705238D01*
X248549761Y-71467142D02*
X249264047Y-71229047D01*
X249264047Y-71848095D01*
X247946428Y-65133333D02*
X247946428Y-65895238D01*
X248327380Y-65514285D02*
X247565476Y-65514285D01*
X248327380Y-66371428D02*
X247660714Y-66371428D01*
X247327380Y-66371428D02*
X247375000Y-66323809D01*
X247422619Y-66371428D01*
X247375000Y-66419047D01*
X247327380Y-66371428D01*
X247422619Y-66371428D01*
X247660714Y-66847619D02*
X248327380Y-66847619D01*
X247755952Y-66847619D02*
X247708333Y-66895238D01*
X247660714Y-66990476D01*
X247660714Y-67133333D01*
X247708333Y-67228571D01*
X247803571Y-67276190D01*
X248327380Y-67276190D01*
X247660714Y-68180952D02*
X248327380Y-68180952D01*
X247279761Y-67942857D02*
X247994047Y-67704761D01*
X247994047Y-68323809D01*
X247946428Y-68704761D02*
X247946428Y-69466666D01*
X249549761Y-62799523D02*
X249597380Y-62894761D01*
X249597380Y-63085238D01*
X249549761Y-63180476D01*
X249454523Y-63228095D01*
X249406904Y-63228095D01*
X249311666Y-63180476D01*
X249264047Y-63085238D01*
X249264047Y-62942380D01*
X249216428Y-62847142D01*
X249121190Y-62799523D01*
X249073571Y-62799523D01*
X248978333Y-62847142D01*
X248930714Y-62942380D01*
X248930714Y-63085238D01*
X248978333Y-63180476D01*
X248597380Y-63561428D02*
X248597380Y-64180476D01*
X248978333Y-63847142D01*
X248978333Y-63990000D01*
X249025952Y-64085238D01*
X249073571Y-64132857D01*
X249168809Y-64180476D01*
X249406904Y-64180476D01*
X249502142Y-64132857D01*
X249549761Y-64085238D01*
X249597380Y-63990000D01*
X249597380Y-63704285D01*
X249549761Y-63609047D01*
X249502142Y-63561428D01*
X249549761Y-60259523D02*
X249597380Y-60354761D01*
X249597380Y-60545238D01*
X249549761Y-60640476D01*
X249454523Y-60688095D01*
X249406904Y-60688095D01*
X249311666Y-60640476D01*
X249264047Y-60545238D01*
X249264047Y-60402380D01*
X249216428Y-60307142D01*
X249121190Y-60259523D01*
X249073571Y-60259523D01*
X248978333Y-60307142D01*
X248930714Y-60402380D01*
X248930714Y-60545238D01*
X248978333Y-60640476D01*
X248692619Y-61069047D02*
X248645000Y-61116666D01*
X248597380Y-61211904D01*
X248597380Y-61450000D01*
X248645000Y-61545238D01*
X248692619Y-61592857D01*
X248787857Y-61640476D01*
X248883095Y-61640476D01*
X249025952Y-61592857D01*
X249597380Y-61021428D01*
X249597380Y-61640476D01*
X246676428Y-60053333D02*
X246676428Y-60815238D01*
X247057380Y-60434285D02*
X246295476Y-60434285D01*
X247057380Y-61291428D02*
X246390714Y-61291428D01*
X246057380Y-61291428D02*
X246105000Y-61243809D01*
X246152619Y-61291428D01*
X246105000Y-61339047D01*
X246057380Y-61291428D01*
X246152619Y-61291428D01*
X246390714Y-61767619D02*
X247057380Y-61767619D01*
X246485952Y-61767619D02*
X246438333Y-61815238D01*
X246390714Y-61910476D01*
X246390714Y-62053333D01*
X246438333Y-62148571D01*
X246533571Y-62196190D01*
X247057380Y-62196190D01*
X246057380Y-62577142D02*
X246057380Y-63196190D01*
X246438333Y-62862857D01*
X246438333Y-63005714D01*
X246485952Y-63100952D01*
X246533571Y-63148571D01*
X246628809Y-63196190D01*
X246866904Y-63196190D01*
X246962142Y-63148571D01*
X247009761Y-63100952D01*
X247057380Y-63005714D01*
X247057380Y-62720000D01*
X247009761Y-62624761D01*
X246962142Y-62577142D01*
X246676428Y-63624761D02*
X246676428Y-64386666D01*
X247946428Y-54973333D02*
X247946428Y-55735238D01*
X248327380Y-55354285D02*
X247565476Y-55354285D01*
X248327380Y-56211428D02*
X247660714Y-56211428D01*
X247327380Y-56211428D02*
X247375000Y-56163809D01*
X247422619Y-56211428D01*
X247375000Y-56259047D01*
X247327380Y-56211428D01*
X247422619Y-56211428D01*
X247660714Y-56687619D02*
X248327380Y-56687619D01*
X247755952Y-56687619D02*
X247708333Y-56735238D01*
X247660714Y-56830476D01*
X247660714Y-56973333D01*
X247708333Y-57068571D01*
X247803571Y-57116190D01*
X248327380Y-57116190D01*
X247422619Y-57544761D02*
X247375000Y-57592380D01*
X247327380Y-57687619D01*
X247327380Y-57925714D01*
X247375000Y-58020952D01*
X247422619Y-58068571D01*
X247517857Y-58116190D01*
X247613095Y-58116190D01*
X247755952Y-58068571D01*
X248327380Y-57497142D01*
X248327380Y-58116190D01*
X247946428Y-58544761D02*
X247946428Y-59306666D01*
X249549761Y-52639523D02*
X249597380Y-52734761D01*
X249597380Y-52925238D01*
X249549761Y-53020476D01*
X249454523Y-53068095D01*
X249406904Y-53068095D01*
X249311666Y-53020476D01*
X249264047Y-52925238D01*
X249264047Y-52782380D01*
X249216428Y-52687142D01*
X249121190Y-52639523D01*
X249073571Y-52639523D01*
X248978333Y-52687142D01*
X248930714Y-52782380D01*
X248930714Y-52925238D01*
X248978333Y-53020476D01*
X249597380Y-54020476D02*
X249597380Y-53449047D01*
X249597380Y-53734761D02*
X248597380Y-53734761D01*
X248740238Y-53639523D01*
X248835476Y-53544285D01*
X248883095Y-53449047D01*
X249549761Y-50099523D02*
X249597380Y-50194761D01*
X249597380Y-50385238D01*
X249549761Y-50480476D01*
X249454523Y-50528095D01*
X249406904Y-50528095D01*
X249311666Y-50480476D01*
X249264047Y-50385238D01*
X249264047Y-50242380D01*
X249216428Y-50147142D01*
X249121190Y-50099523D01*
X249073571Y-50099523D01*
X248978333Y-50147142D01*
X248930714Y-50242380D01*
X248930714Y-50385238D01*
X248978333Y-50480476D01*
X248597380Y-51147142D02*
X248597380Y-51242380D01*
X248645000Y-51337619D01*
X248692619Y-51385238D01*
X248787857Y-51432857D01*
X248978333Y-51480476D01*
X249216428Y-51480476D01*
X249406904Y-51432857D01*
X249502142Y-51385238D01*
X249549761Y-51337619D01*
X249597380Y-51242380D01*
X249597380Y-51147142D01*
X249549761Y-51051904D01*
X249502142Y-51004285D01*
X249406904Y-50956666D01*
X249216428Y-50909047D01*
X248978333Y-50909047D01*
X248787857Y-50956666D01*
X248692619Y-51004285D01*
X248645000Y-51051904D01*
X248597380Y-51147142D01*
X246676428Y-49893333D02*
X246676428Y-50655238D01*
X247057380Y-50274285D02*
X246295476Y-50274285D01*
X247057380Y-51131428D02*
X246390714Y-51131428D01*
X246057380Y-51131428D02*
X246105000Y-51083809D01*
X246152619Y-51131428D01*
X246105000Y-51179047D01*
X246057380Y-51131428D01*
X246152619Y-51131428D01*
X246390714Y-51607619D02*
X247057380Y-51607619D01*
X246485952Y-51607619D02*
X246438333Y-51655238D01*
X246390714Y-51750476D01*
X246390714Y-51893333D01*
X246438333Y-51988571D01*
X246533571Y-52036190D01*
X247057380Y-52036190D01*
X247057380Y-53036190D02*
X247057380Y-52464761D01*
X247057380Y-52750476D02*
X246057380Y-52750476D01*
X246200238Y-52655238D01*
X246295476Y-52560000D01*
X246343095Y-52464761D01*
X246676428Y-53464761D02*
X246676428Y-54226666D01*
X249216428Y-42059047D02*
X249216428Y-42820952D01*
X249597380Y-42440000D02*
X248835476Y-42440000D01*
X248930714Y-43154285D02*
X248930714Y-43535238D01*
X248597380Y-43297142D02*
X249454523Y-43297142D01*
X249549761Y-43344761D01*
X249597380Y-43440000D01*
X249597380Y-43535238D01*
X249549761Y-43820952D02*
X249597380Y-43916190D01*
X249597380Y-44106666D01*
X249549761Y-44201904D01*
X249454523Y-44249523D01*
X249406904Y-44249523D01*
X249311666Y-44201904D01*
X249264047Y-44106666D01*
X249264047Y-43963809D01*
X249216428Y-43868571D01*
X249121190Y-43820952D01*
X249073571Y-43820952D01*
X248978333Y-43868571D01*
X248930714Y-43963809D01*
X248930714Y-44106666D01*
X248978333Y-44201904D01*
X249597380Y-44678095D02*
X248930714Y-44678095D01*
X248597380Y-44678095D02*
X248645000Y-44630476D01*
X248692619Y-44678095D01*
X248645000Y-44725714D01*
X248597380Y-44678095D01*
X248692619Y-44678095D01*
X248930714Y-45582857D02*
X249740238Y-45582857D01*
X249835476Y-45535238D01*
X249883095Y-45487619D01*
X249930714Y-45392380D01*
X249930714Y-45249523D01*
X249883095Y-45154285D01*
X249549761Y-45582857D02*
X249597380Y-45487619D01*
X249597380Y-45297142D01*
X249549761Y-45201904D01*
X249502142Y-45154285D01*
X249406904Y-45106666D01*
X249121190Y-45106666D01*
X249025952Y-45154285D01*
X248978333Y-45201904D01*
X248930714Y-45297142D01*
X248930714Y-45487619D01*
X248978333Y-45582857D01*
X249216428Y-46059047D02*
X249216428Y-46820952D01*
X246676428Y-42344761D02*
X246676428Y-43106666D01*
X247057380Y-42725714D02*
X246295476Y-42725714D01*
X247009761Y-43535238D02*
X247057380Y-43630476D01*
X247057380Y-43820952D01*
X247009761Y-43916190D01*
X246914523Y-43963809D01*
X246866904Y-43963809D01*
X246771666Y-43916190D01*
X246724047Y-43820952D01*
X246724047Y-43678095D01*
X246676428Y-43582857D01*
X246581190Y-43535238D01*
X246533571Y-43535238D01*
X246438333Y-43582857D01*
X246390714Y-43678095D01*
X246390714Y-43820952D01*
X246438333Y-43916190D01*
X247057380Y-44392380D02*
X246390714Y-44392380D01*
X246057380Y-44392380D02*
X246105000Y-44344761D01*
X246152619Y-44392380D01*
X246105000Y-44440000D01*
X246057380Y-44392380D01*
X246152619Y-44392380D01*
X246390714Y-45297142D02*
X247200238Y-45297142D01*
X247295476Y-45249523D01*
X247343095Y-45201904D01*
X247390714Y-45106666D01*
X247390714Y-44963809D01*
X247343095Y-44868571D01*
X247009761Y-45297142D02*
X247057380Y-45201904D01*
X247057380Y-45011428D01*
X247009761Y-44916190D01*
X246962142Y-44868571D01*
X246866904Y-44820952D01*
X246581190Y-44820952D01*
X246485952Y-44868571D01*
X246438333Y-44916190D01*
X246390714Y-45011428D01*
X246390714Y-45201904D01*
X246438333Y-45297142D01*
X246676428Y-45773333D02*
X246676428Y-46535238D01*
X120692380Y-124378571D02*
X120549523Y-124426190D01*
X120501904Y-124473809D01*
X120454285Y-124569047D01*
X120454285Y-124711904D01*
X120501904Y-124807142D01*
X120549523Y-124854761D01*
X120644761Y-124902380D01*
X121025714Y-124902380D01*
X121025714Y-123902380D01*
X120692380Y-123902380D01*
X120597142Y-123950000D01*
X120549523Y-123997619D01*
X120501904Y-124092857D01*
X120501904Y-124188095D01*
X120549523Y-124283333D01*
X120597142Y-124330952D01*
X120692380Y-124378571D01*
X121025714Y-124378571D01*
X120025714Y-124902380D02*
X120025714Y-123902380D01*
X120025714Y-124378571D02*
X119454285Y-124378571D01*
X119454285Y-124902380D02*
X119454285Y-123902380D01*
X120692380Y-36113571D02*
X120549523Y-36161190D01*
X120501904Y-36208809D01*
X120454285Y-36304047D01*
X120454285Y-36446904D01*
X120501904Y-36542142D01*
X120549523Y-36589761D01*
X120644761Y-36637380D01*
X121025714Y-36637380D01*
X121025714Y-35637380D01*
X120692380Y-35637380D01*
X120597142Y-35685000D01*
X120549523Y-35732619D01*
X120501904Y-35827857D01*
X120501904Y-35923095D01*
X120549523Y-36018333D01*
X120597142Y-36065952D01*
X120692380Y-36113571D01*
X121025714Y-36113571D01*
X120025714Y-36637380D02*
X120025714Y-35637380D01*
X120025714Y-36113571D02*
X119454285Y-36113571D01*
X119454285Y-36637380D02*
X119454285Y-35637380D01*
X123208571Y-126918571D02*
X123065714Y-126966190D01*
X123018095Y-127013809D01*
X122970476Y-127109047D01*
X122970476Y-127251904D01*
X123018095Y-127347142D01*
X123065714Y-127394761D01*
X123160952Y-127442380D01*
X123541904Y-127442380D01*
X123541904Y-126442380D01*
X123208571Y-126442380D01*
X123113333Y-126490000D01*
X123065714Y-126537619D01*
X123018095Y-126632857D01*
X123018095Y-126728095D01*
X123065714Y-126823333D01*
X123113333Y-126870952D01*
X123208571Y-126918571D01*
X123541904Y-126918571D01*
X122018095Y-126490000D02*
X122113333Y-126442380D01*
X122256190Y-126442380D01*
X122399047Y-126490000D01*
X122494285Y-126585238D01*
X122541904Y-126680476D01*
X122589523Y-126870952D01*
X122589523Y-127013809D01*
X122541904Y-127204285D01*
X122494285Y-127299523D01*
X122399047Y-127394761D01*
X122256190Y-127442380D01*
X122160952Y-127442380D01*
X122018095Y-127394761D01*
X121970476Y-127347142D01*
X121970476Y-127013809D01*
X122160952Y-127013809D01*
X232261904Y-127442380D02*
X232261904Y-126442380D01*
X232023809Y-126442380D01*
X231880952Y-126490000D01*
X231785714Y-126585238D01*
X231738095Y-126680476D01*
X231690476Y-126870952D01*
X231690476Y-127013809D01*
X231738095Y-127204285D01*
X231785714Y-127299523D01*
X231880952Y-127394761D01*
X232023809Y-127442380D01*
X232261904Y-127442380D01*
X229674285Y-126918571D02*
X229340952Y-126918571D01*
X229198095Y-127442380D02*
X229674285Y-127442380D01*
X229674285Y-126442380D01*
X229198095Y-126442380D01*
X226777142Y-126918571D02*
X227110476Y-126918571D01*
X227110476Y-127442380D02*
X227110476Y-126442380D01*
X226634285Y-126442380D01*
X224118095Y-126490000D02*
X224213333Y-126442380D01*
X224356190Y-126442380D01*
X224499047Y-126490000D01*
X224594285Y-126585238D01*
X224641904Y-126680476D01*
X224689523Y-126870952D01*
X224689523Y-127013809D01*
X224641904Y-127204285D01*
X224594285Y-127299523D01*
X224499047Y-127394761D01*
X224356190Y-127442380D01*
X224260952Y-127442380D01*
X224118095Y-127394761D01*
X224070476Y-127347142D01*
X224070476Y-127013809D01*
X224260952Y-127013809D01*
X222125714Y-127442380D02*
X222125714Y-126442380D01*
X222125714Y-126918571D02*
X221554285Y-126918571D01*
X221554285Y-127442380D02*
X221554285Y-126442380D01*
X219157142Y-126442380D02*
X219157142Y-127156666D01*
X219204761Y-127299523D01*
X219300000Y-127394761D01*
X219442857Y-127442380D01*
X219538095Y-127442380D01*
X217021904Y-127442380D02*
X217021904Y-126442380D01*
X216450476Y-127442380D02*
X216879047Y-126870952D01*
X216450476Y-126442380D02*
X217021904Y-127013809D01*
X213910476Y-127442380D02*
X214386666Y-127442380D01*
X214386666Y-126442380D01*
X212013333Y-127442380D02*
X212013333Y-126442380D01*
X211680000Y-127156666D01*
X211346666Y-126442380D01*
X211346666Y-127442380D01*
X209425714Y-127442380D02*
X209425714Y-126442380D01*
X208854285Y-127442380D01*
X208854285Y-126442380D01*
X206861904Y-127442380D02*
X206861904Y-126442380D01*
X206480952Y-126442380D01*
X206385714Y-126490000D01*
X206338095Y-126537619D01*
X206290476Y-126632857D01*
X206290476Y-126775714D01*
X206338095Y-126870952D01*
X206385714Y-126918571D01*
X206480952Y-126966190D01*
X206861904Y-126966190D01*
X203750476Y-127442380D02*
X204083809Y-126966190D01*
X204321904Y-127442380D02*
X204321904Y-126442380D01*
X203940952Y-126442380D01*
X203845714Y-126490000D01*
X203798095Y-126537619D01*
X203750476Y-126632857D01*
X203750476Y-126775714D01*
X203798095Y-126870952D01*
X203845714Y-126918571D01*
X203940952Y-126966190D01*
X204321904Y-126966190D01*
X201805714Y-126442380D02*
X201234285Y-126442380D01*
X201520000Y-127442380D02*
X201520000Y-126442380D01*
X199265714Y-126442380D02*
X199265714Y-127251904D01*
X199218095Y-127347142D01*
X199170476Y-127394761D01*
X199075238Y-127442380D01*
X198884761Y-127442380D01*
X198789523Y-127394761D01*
X198741904Y-127347142D01*
X198694285Y-127251904D01*
X198694285Y-126442380D01*
X194328571Y-126442380D02*
X194090476Y-127442380D01*
X193900000Y-126728095D01*
X193709523Y-127442380D01*
X193471428Y-126442380D01*
X196773333Y-126442380D02*
X196440000Y-127442380D01*
X196106666Y-126442380D01*
X191360000Y-126966190D02*
X191360000Y-127442380D01*
X191693333Y-126442380D02*
X191360000Y-126966190D01*
X191026666Y-126442380D01*
X189486666Y-127156666D02*
X189010476Y-127156666D01*
X189581904Y-127442380D02*
X189248571Y-126442380D01*
X188915238Y-127442380D01*
X188629523Y-127156666D02*
X188153333Y-127156666D01*
X188724761Y-127442380D02*
X188391428Y-126442380D01*
X188058095Y-127442380D01*
X187018095Y-127156666D02*
X186541904Y-127156666D01*
X187113333Y-127442380D02*
X186780000Y-126442380D01*
X186446666Y-127442380D01*
X185780000Y-126918571D02*
X185637142Y-126966190D01*
X185589523Y-127013809D01*
X185541904Y-127109047D01*
X185541904Y-127251904D01*
X185589523Y-127347142D01*
X185637142Y-127394761D01*
X185732380Y-127442380D01*
X186113333Y-127442380D01*
X186113333Y-126442380D01*
X185780000Y-126442380D01*
X185684761Y-126490000D01*
X185637142Y-126537619D01*
X185589523Y-126632857D01*
X185589523Y-126728095D01*
X185637142Y-126823333D01*
X185684761Y-126870952D01*
X185780000Y-126918571D01*
X186113333Y-126918571D01*
X184478095Y-127156666D02*
X184001904Y-127156666D01*
X184573333Y-127442380D02*
X184240000Y-126442380D01*
X183906666Y-127442380D01*
X183001904Y-127347142D02*
X183049523Y-127394761D01*
X183192380Y-127442380D01*
X183287619Y-127442380D01*
X183430476Y-127394761D01*
X183525714Y-127299523D01*
X183573333Y-127204285D01*
X183620952Y-127013809D01*
X183620952Y-126870952D01*
X183573333Y-126680476D01*
X183525714Y-126585238D01*
X183430476Y-126490000D01*
X183287619Y-126442380D01*
X183192380Y-126442380D01*
X183049523Y-126490000D01*
X183001904Y-126537619D01*
X181938095Y-127156666D02*
X181461904Y-127156666D01*
X182033333Y-127442380D02*
X181700000Y-126442380D01*
X181366666Y-127442380D01*
X181033333Y-127442380D02*
X181033333Y-126442380D01*
X180795238Y-126442380D01*
X180652380Y-126490000D01*
X180557142Y-126585238D01*
X180509523Y-126680476D01*
X180461904Y-126870952D01*
X180461904Y-127013809D01*
X180509523Y-127204285D01*
X180557142Y-127299523D01*
X180652380Y-127394761D01*
X180795238Y-127442380D01*
X181033333Y-127442380D01*
X179350476Y-127156666D02*
X178874285Y-127156666D01*
X179445714Y-127442380D02*
X179112380Y-126442380D01*
X178779047Y-127442380D01*
X178445714Y-126918571D02*
X178112380Y-126918571D01*
X177969523Y-127442380D02*
X178445714Y-127442380D01*
X178445714Y-126442380D01*
X177969523Y-126442380D01*
X176786666Y-127156666D02*
X176310476Y-127156666D01*
X176881904Y-127442380D02*
X176548571Y-126442380D01*
X176215238Y-127442380D01*
X175548571Y-126918571D02*
X175881904Y-126918571D01*
X175881904Y-127442380D02*
X175881904Y-126442380D01*
X175405714Y-126442380D01*
X174318095Y-127156666D02*
X173841904Y-127156666D01*
X174413333Y-127442380D02*
X174080000Y-126442380D01*
X173746666Y-127442380D01*
X172889523Y-126490000D02*
X172984761Y-126442380D01*
X173127619Y-126442380D01*
X173270476Y-126490000D01*
X173365714Y-126585238D01*
X173413333Y-126680476D01*
X173460952Y-126870952D01*
X173460952Y-127013809D01*
X173413333Y-127204285D01*
X173365714Y-127299523D01*
X173270476Y-127394761D01*
X173127619Y-127442380D01*
X173032380Y-127442380D01*
X172889523Y-127394761D01*
X172841904Y-127347142D01*
X172841904Y-127013809D01*
X173032380Y-127013809D01*
X171801904Y-127156666D02*
X171325714Y-127156666D01*
X171897142Y-127442380D02*
X171563809Y-126442380D01*
X171230476Y-127442380D01*
X170897142Y-127442380D02*
X170897142Y-126442380D01*
X170897142Y-126918571D02*
X170325714Y-126918571D01*
X170325714Y-127442380D02*
X170325714Y-126442380D01*
X169119047Y-127156666D02*
X168642857Y-127156666D01*
X169214285Y-127442380D02*
X168880952Y-126442380D01*
X168547619Y-127442380D01*
X167928571Y-126442380D02*
X167928571Y-127156666D01*
X167976190Y-127299523D01*
X168071428Y-127394761D01*
X168214285Y-127442380D01*
X168309523Y-127442380D01*
X166698095Y-127156666D02*
X166221904Y-127156666D01*
X166793333Y-127442380D02*
X166460000Y-126442380D01*
X166126666Y-127442380D01*
X165793333Y-127442380D02*
X165793333Y-126442380D01*
X165221904Y-127442380D02*
X165650476Y-126870952D01*
X165221904Y-126442380D02*
X165793333Y-127013809D01*
X164062857Y-127156666D02*
X163586666Y-127156666D01*
X164158095Y-127442380D02*
X163824761Y-126442380D01*
X163491428Y-127442380D01*
X162681904Y-127442380D02*
X163158095Y-127442380D01*
X163158095Y-126442380D01*
X161689523Y-127156666D02*
X161213333Y-127156666D01*
X161784761Y-127442380D02*
X161451428Y-126442380D01*
X161118095Y-127442380D01*
X160784761Y-127442380D02*
X160784761Y-126442380D01*
X160451428Y-127156666D01*
X160118095Y-126442380D01*
X160118095Y-127442380D01*
X159101904Y-127156666D02*
X158625714Y-127156666D01*
X159197142Y-127442380D02*
X158863809Y-126442380D01*
X158530476Y-127442380D01*
X158197142Y-127442380D02*
X158197142Y-126442380D01*
X157625714Y-127442380D01*
X157625714Y-126442380D01*
X156538095Y-127156666D02*
X156061904Y-127156666D01*
X156633333Y-127442380D02*
X156300000Y-126442380D01*
X155966666Y-127442380D01*
X155633333Y-127442380D02*
X155633333Y-126442380D01*
X155252380Y-126442380D01*
X155157142Y-126490000D01*
X155109523Y-126537619D01*
X155061904Y-126632857D01*
X155061904Y-126775714D01*
X155109523Y-126870952D01*
X155157142Y-126918571D01*
X155252380Y-126966190D01*
X155633333Y-126966190D01*
X153998095Y-127156666D02*
X153521904Y-127156666D01*
X154093333Y-127442380D02*
X153760000Y-126442380D01*
X153426666Y-127442380D01*
X152521904Y-127442380D02*
X152855238Y-126966190D01*
X153093333Y-127442380D02*
X153093333Y-126442380D01*
X152712380Y-126442380D01*
X152617142Y-126490000D01*
X152569523Y-126537619D01*
X152521904Y-126632857D01*
X152521904Y-126775714D01*
X152569523Y-126870952D01*
X152617142Y-126918571D01*
X152712380Y-126966190D01*
X153093333Y-126966190D01*
X151339047Y-127156666D02*
X150862857Y-127156666D01*
X151434285Y-127442380D02*
X151100952Y-126442380D01*
X150767619Y-127442380D01*
X150577142Y-126442380D02*
X150005714Y-126442380D01*
X150291428Y-127442380D02*
X150291428Y-126442380D01*
X148941904Y-127156666D02*
X148465714Y-127156666D01*
X149037142Y-127442380D02*
X148703809Y-126442380D01*
X148370476Y-127442380D01*
X148037142Y-126442380D02*
X148037142Y-127251904D01*
X147989523Y-127347142D01*
X147941904Y-127394761D01*
X147846666Y-127442380D01*
X147656190Y-127442380D01*
X147560952Y-127394761D01*
X147513333Y-127347142D01*
X147465714Y-127251904D01*
X147465714Y-126442380D01*
X146306666Y-127156666D02*
X145830476Y-127156666D01*
X146401904Y-127442380D02*
X146068571Y-126442380D01*
X145735238Y-127442380D01*
X145544761Y-126442380D02*
X145211428Y-127442380D01*
X144878095Y-126442380D01*
X143909523Y-127156666D02*
X143433333Y-127156666D01*
X144004761Y-127442380D02*
X143671428Y-126442380D01*
X143338095Y-127442380D01*
X143100000Y-126442380D02*
X142861904Y-127442380D01*
X142671428Y-126728095D01*
X142480952Y-127442380D01*
X142242857Y-126442380D01*
X141226666Y-127156666D02*
X140750476Y-127156666D01*
X141321904Y-127442380D02*
X140988571Y-126442380D01*
X140655238Y-127442380D01*
X140131428Y-126966190D02*
X140131428Y-127442380D01*
X140464761Y-126442380D02*
X140131428Y-126966190D01*
X139798095Y-126442380D01*
X138377142Y-126918571D02*
X138234285Y-126966190D01*
X138186666Y-127013809D01*
X138139047Y-127109047D01*
X138139047Y-127251904D01*
X138186666Y-127347142D01*
X138234285Y-127394761D01*
X138329523Y-127442380D01*
X138710476Y-127442380D01*
X138710476Y-126442380D01*
X138377142Y-126442380D01*
X138281904Y-126490000D01*
X138234285Y-126537619D01*
X138186666Y-126632857D01*
X138186666Y-126728095D01*
X138234285Y-126823333D01*
X138281904Y-126870952D01*
X138377142Y-126918571D01*
X138710476Y-126918571D01*
X137758095Y-127156666D02*
X137281904Y-127156666D01*
X137853333Y-127442380D02*
X137520000Y-126442380D01*
X137186666Y-127442380D01*
X135908571Y-126918571D02*
X135765714Y-126966190D01*
X135718095Y-127013809D01*
X135670476Y-127109047D01*
X135670476Y-127251904D01*
X135718095Y-127347142D01*
X135765714Y-127394761D01*
X135860952Y-127442380D01*
X136241904Y-127442380D01*
X136241904Y-126442380D01*
X135908571Y-126442380D01*
X135813333Y-126490000D01*
X135765714Y-126537619D01*
X135718095Y-126632857D01*
X135718095Y-126728095D01*
X135765714Y-126823333D01*
X135813333Y-126870952D01*
X135908571Y-126918571D01*
X136241904Y-126918571D01*
X134908571Y-126918571D02*
X134765714Y-126966190D01*
X134718095Y-127013809D01*
X134670476Y-127109047D01*
X134670476Y-127251904D01*
X134718095Y-127347142D01*
X134765714Y-127394761D01*
X134860952Y-127442380D01*
X135241904Y-127442380D01*
X135241904Y-126442380D01*
X134908571Y-126442380D01*
X134813333Y-126490000D01*
X134765714Y-126537619D01*
X134718095Y-126632857D01*
X134718095Y-126728095D01*
X134765714Y-126823333D01*
X134813333Y-126870952D01*
X134908571Y-126918571D01*
X135241904Y-126918571D01*
X133368571Y-126918571D02*
X133225714Y-126966190D01*
X133178095Y-127013809D01*
X133130476Y-127109047D01*
X133130476Y-127251904D01*
X133178095Y-127347142D01*
X133225714Y-127394761D01*
X133320952Y-127442380D01*
X133701904Y-127442380D01*
X133701904Y-126442380D01*
X133368571Y-126442380D01*
X133273333Y-126490000D01*
X133225714Y-126537619D01*
X133178095Y-126632857D01*
X133178095Y-126728095D01*
X133225714Y-126823333D01*
X133273333Y-126870952D01*
X133368571Y-126918571D01*
X133701904Y-126918571D01*
X132130476Y-127347142D02*
X132178095Y-127394761D01*
X132320952Y-127442380D01*
X132416190Y-127442380D01*
X132559047Y-127394761D01*
X132654285Y-127299523D01*
X132701904Y-127204285D01*
X132749523Y-127013809D01*
X132749523Y-126870952D01*
X132701904Y-126680476D01*
X132654285Y-126585238D01*
X132559047Y-126490000D01*
X132416190Y-126442380D01*
X132320952Y-126442380D01*
X132178095Y-126490000D01*
X132130476Y-126537619D01*
X130828571Y-126918571D02*
X130685714Y-126966190D01*
X130638095Y-127013809D01*
X130590476Y-127109047D01*
X130590476Y-127251904D01*
X130638095Y-127347142D01*
X130685714Y-127394761D01*
X130780952Y-127442380D01*
X131161904Y-127442380D01*
X131161904Y-126442380D01*
X130828571Y-126442380D01*
X130733333Y-126490000D01*
X130685714Y-126537619D01*
X130638095Y-126632857D01*
X130638095Y-126728095D01*
X130685714Y-126823333D01*
X130733333Y-126870952D01*
X130828571Y-126918571D01*
X131161904Y-126918571D01*
X130161904Y-127442380D02*
X130161904Y-126442380D01*
X129923809Y-126442380D01*
X129780952Y-126490000D01*
X129685714Y-126585238D01*
X129638095Y-126680476D01*
X129590476Y-126870952D01*
X129590476Y-127013809D01*
X129638095Y-127204285D01*
X129685714Y-127299523D01*
X129780952Y-127394761D01*
X129923809Y-127442380D01*
X130161904Y-127442380D01*
X134464000Y-125974000D02*
X134464000Y-128006000D01*
X134464000Y-128006000D02*
X136496000Y-128006000D01*
X136496000Y-128006000D02*
X136496000Y-125974000D01*
X136496000Y-125974000D02*
X134464000Y-125974000D01*
X137004000Y-125974000D02*
X137004000Y-128006000D01*
X137004000Y-128006000D02*
X139036000Y-128006000D01*
X139036000Y-128006000D02*
X139036000Y-125974000D01*
X139036000Y-125974000D02*
X137004000Y-125974000D01*
X154784000Y-125974000D02*
X154784000Y-128006000D01*
X154784000Y-128006000D02*
X156816000Y-128006000D01*
X156816000Y-128006000D02*
X156816000Y-125974000D01*
X156816000Y-125974000D02*
X154784000Y-125974000D01*
X157324000Y-125974000D02*
X157324000Y-128006000D01*
X157324000Y-128006000D02*
X159356000Y-128006000D01*
X159356000Y-128006000D02*
X159356000Y-125974000D01*
X159356000Y-125974000D02*
X157324000Y-125974000D01*
X175104000Y-125974000D02*
X175104000Y-128006000D01*
X175104000Y-128006000D02*
X177136000Y-128006000D01*
X177136000Y-128006000D02*
X177136000Y-125974000D01*
X177136000Y-125974000D02*
X175104000Y-125974000D01*
X177644000Y-125974000D02*
X177644000Y-128006000D01*
X177644000Y-128006000D02*
X179676000Y-128006000D01*
X179676000Y-128006000D02*
X179676000Y-125974000D01*
X179676000Y-125974000D02*
X177644000Y-125974000D01*
X195424000Y-125974000D02*
X195424000Y-128006000D01*
X195424000Y-128006000D02*
X197456000Y-128006000D01*
X197456000Y-128006000D02*
X197456000Y-125974000D01*
X197456000Y-125974000D02*
X195424000Y-125974000D01*
X197964000Y-125974000D02*
X197964000Y-128006000D01*
X197964000Y-128006000D02*
X199996000Y-128006000D01*
X199996000Y-128006000D02*
X199996000Y-125974000D01*
X199996000Y-125974000D02*
X197964000Y-125974000D01*
X215744000Y-125974000D02*
X215744000Y-128006000D01*
X215744000Y-128006000D02*
X217776000Y-128006000D01*
X217776000Y-128006000D02*
X217776000Y-125974000D01*
X217776000Y-125974000D02*
X215744000Y-125974000D01*
X218284000Y-125974000D02*
X218284000Y-128006000D01*
X218284000Y-128006000D02*
X220316000Y-128006000D01*
X220316000Y-128006000D02*
X220316000Y-125974000D01*
X220316000Y-125974000D02*
X218284000Y-125974000D01*
X128240952Y-126918571D02*
X128098095Y-126966190D01*
X128050476Y-127013809D01*
X128002857Y-127109047D01*
X128002857Y-127251904D01*
X128050476Y-127347142D01*
X128098095Y-127394761D01*
X128193333Y-127442380D01*
X128574285Y-127442380D01*
X128574285Y-126442380D01*
X128240952Y-126442380D01*
X128145714Y-126490000D01*
X128098095Y-126537619D01*
X128050476Y-126632857D01*
X128050476Y-126728095D01*
X128098095Y-126823333D01*
X128145714Y-126870952D01*
X128240952Y-126918571D01*
X128574285Y-126918571D01*
X127574285Y-126918571D02*
X127240952Y-126918571D01*
X127098095Y-127442380D02*
X127574285Y-127442380D01*
X127574285Y-126442380D01*
X127098095Y-126442380D01*
X125677142Y-126918571D02*
X125534285Y-126966190D01*
X125486666Y-127013809D01*
X125439047Y-127109047D01*
X125439047Y-127251904D01*
X125486666Y-127347142D01*
X125534285Y-127394761D01*
X125629523Y-127442380D01*
X126010476Y-127442380D01*
X126010476Y-126442380D01*
X125677142Y-126442380D01*
X125581904Y-126490000D01*
X125534285Y-126537619D01*
X125486666Y-126632857D01*
X125486666Y-126728095D01*
X125534285Y-126823333D01*
X125581904Y-126870952D01*
X125677142Y-126918571D01*
X126010476Y-126918571D01*
X124677142Y-126918571D02*
X125010476Y-126918571D01*
X125010476Y-127442380D02*
X125010476Y-126442380D01*
X124534285Y-126442380D01*
X123208571Y-32938571D02*
X123065714Y-32986190D01*
X123018095Y-33033809D01*
X122970476Y-33129047D01*
X122970476Y-33271904D01*
X123018095Y-33367142D01*
X123065714Y-33414761D01*
X123160952Y-33462380D01*
X123541904Y-33462380D01*
X123541904Y-32462380D01*
X123208571Y-32462380D01*
X123113333Y-32510000D01*
X123065714Y-32557619D01*
X123018095Y-32652857D01*
X123018095Y-32748095D01*
X123065714Y-32843333D01*
X123113333Y-32890952D01*
X123208571Y-32938571D01*
X123541904Y-32938571D01*
X122018095Y-32510000D02*
X122113333Y-32462380D01*
X122256190Y-32462380D01*
X122399047Y-32510000D01*
X122494285Y-32605238D01*
X122541904Y-32700476D01*
X122589523Y-32890952D01*
X122589523Y-33033809D01*
X122541904Y-33224285D01*
X122494285Y-33319523D01*
X122399047Y-33414761D01*
X122256190Y-33462380D01*
X122160952Y-33462380D01*
X122018095Y-33414761D01*
X121970476Y-33367142D01*
X121970476Y-33033809D01*
X122160952Y-33033809D01*
X125677142Y-32938571D02*
X125534285Y-32986190D01*
X125486666Y-33033809D01*
X125439047Y-33129047D01*
X125439047Y-33271904D01*
X125486666Y-33367142D01*
X125534285Y-33414761D01*
X125629523Y-33462380D01*
X126010476Y-33462380D01*
X126010476Y-32462380D01*
X125677142Y-32462380D01*
X125581904Y-32510000D01*
X125534285Y-32557619D01*
X125486666Y-32652857D01*
X125486666Y-32748095D01*
X125534285Y-32843333D01*
X125581904Y-32890952D01*
X125677142Y-32938571D01*
X126010476Y-32938571D01*
X124677142Y-32938571D02*
X125010476Y-32938571D01*
X125010476Y-33462380D02*
X125010476Y-32462380D01*
X124534285Y-32462380D01*
X244938095Y-122076666D02*
X244461904Y-122076666D01*
X245033333Y-122362380D02*
X244700000Y-121362380D01*
X244366666Y-122362380D01*
X242088571Y-121838571D02*
X241945714Y-121886190D01*
X241898095Y-121933809D01*
X241850476Y-122029047D01*
X241850476Y-122171904D01*
X241898095Y-122267142D01*
X241945714Y-122314761D01*
X242040952Y-122362380D01*
X242421904Y-122362380D01*
X242421904Y-121362380D01*
X242088571Y-121362380D01*
X241993333Y-121410000D01*
X241945714Y-121457619D01*
X241898095Y-121552857D01*
X241898095Y-121648095D01*
X241945714Y-121743333D01*
X241993333Y-121790952D01*
X242088571Y-121838571D01*
X242421904Y-121838571D01*
X240326476Y-121759142D02*
X240374095Y-121806761D01*
X240516952Y-121854380D01*
X240612190Y-121854380D01*
X240755047Y-121806761D01*
X240850285Y-121711523D01*
X240897904Y-121616285D01*
X240945523Y-121425809D01*
X240945523Y-121282952D01*
X240897904Y-121092476D01*
X240850285Y-120997238D01*
X240755047Y-120902000D01*
X240612190Y-120854380D01*
X240516952Y-120854380D01*
X240374095Y-120902000D01*
X240326476Y-120949619D01*
X240326476Y-38955142D02*
X240374095Y-39002761D01*
X240516952Y-39050380D01*
X240612190Y-39050380D01*
X240755047Y-39002761D01*
X240850285Y-38907523D01*
X240897904Y-38812285D01*
X240945523Y-38621809D01*
X240945523Y-38478952D01*
X240897904Y-38288476D01*
X240850285Y-38193238D01*
X240755047Y-38098000D01*
X240612190Y-38050380D01*
X240516952Y-38050380D01*
X240374095Y-38098000D01*
X240326476Y-38145619D01*
X242088571Y-38018571D02*
X241945714Y-38066190D01*
X241898095Y-38113809D01*
X241850476Y-38209047D01*
X241850476Y-38351904D01*
X241898095Y-38447142D01*
X241945714Y-38494761D01*
X242040952Y-38542380D01*
X242421904Y-38542380D01*
X242421904Y-37542380D01*
X242088571Y-37542380D01*
X241993333Y-37590000D01*
X241945714Y-37637619D01*
X241898095Y-37732857D01*
X241898095Y-37828095D01*
X241945714Y-37923333D01*
X241993333Y-37970952D01*
X242088571Y-38018571D01*
X242421904Y-38018571D01*
X244938095Y-38256666D02*
X244461904Y-38256666D01*
X245033333Y-38542380D02*
X244700000Y-37542380D01*
X244366666Y-38542380D01*
X117398333Y-40082380D02*
X116779285Y-40082380D01*
X117112619Y-40463333D01*
X116969761Y-40463333D01*
X116874523Y-40510952D01*
X116826904Y-40558571D01*
X116779285Y-40653809D01*
X116779285Y-40891904D01*
X116826904Y-40987142D01*
X116874523Y-41034761D01*
X116969761Y-41082380D01*
X117255476Y-41082380D01*
X117350714Y-41034761D01*
X117398333Y-40987142D01*
X116874523Y-42955714D02*
X116874523Y-43622380D01*
X117112619Y-42574761D02*
X117350714Y-43289047D01*
X116731666Y-43289047D01*
X116826904Y-45162380D02*
X117303095Y-45162380D01*
X117350714Y-45638571D01*
X117303095Y-45590952D01*
X117207857Y-45543333D01*
X116969761Y-45543333D01*
X116874523Y-45590952D01*
X116826904Y-45638571D01*
X116779285Y-45733809D01*
X116779285Y-45971904D01*
X116826904Y-46067142D01*
X116874523Y-46114761D01*
X116969761Y-46162380D01*
X117207857Y-46162380D01*
X117303095Y-46114761D01*
X117350714Y-46067142D01*
X116874523Y-47702380D02*
X117065000Y-47702380D01*
X117160238Y-47750000D01*
X117207857Y-47797619D01*
X117303095Y-47940476D01*
X117350714Y-48130952D01*
X117350714Y-48511904D01*
X117303095Y-48607142D01*
X117255476Y-48654761D01*
X117160238Y-48702380D01*
X116969761Y-48702380D01*
X116874523Y-48654761D01*
X116826904Y-48607142D01*
X116779285Y-48511904D01*
X116779285Y-48273809D01*
X116826904Y-48178571D01*
X116874523Y-48130952D01*
X116969761Y-48083333D01*
X117160238Y-48083333D01*
X117255476Y-48130952D01*
X117303095Y-48178571D01*
X117350714Y-48273809D01*
X117398333Y-50242380D02*
X116731666Y-50242380D01*
X117160238Y-51242380D01*
X117160238Y-53210952D02*
X117255476Y-53163333D01*
X117303095Y-53115714D01*
X117350714Y-53020476D01*
X117350714Y-52972857D01*
X117303095Y-52877619D01*
X117255476Y-52830000D01*
X117160238Y-52782380D01*
X116969761Y-52782380D01*
X116874523Y-52830000D01*
X116826904Y-52877619D01*
X116779285Y-52972857D01*
X116779285Y-53020476D01*
X116826904Y-53115714D01*
X116874523Y-53163333D01*
X116969761Y-53210952D01*
X117160238Y-53210952D01*
X117255476Y-53258571D01*
X117303095Y-53306190D01*
X117350714Y-53401428D01*
X117350714Y-53591904D01*
X117303095Y-53687142D01*
X117255476Y-53734761D01*
X117160238Y-53782380D01*
X116969761Y-53782380D01*
X116874523Y-53734761D01*
X116826904Y-53687142D01*
X116779285Y-53591904D01*
X116779285Y-53401428D01*
X116826904Y-53306190D01*
X116874523Y-53258571D01*
X116969761Y-53210952D01*
X117255476Y-56322380D02*
X117065000Y-56322380D01*
X116969761Y-56274761D01*
X116922142Y-56227142D01*
X116826904Y-56084285D01*
X116779285Y-55893809D01*
X116779285Y-55512857D01*
X116826904Y-55417619D01*
X116874523Y-55370000D01*
X116969761Y-55322380D01*
X117160238Y-55322380D01*
X117255476Y-55370000D01*
X117303095Y-55417619D01*
X117350714Y-55512857D01*
X117350714Y-55750952D01*
X117303095Y-55846190D01*
X117255476Y-55893809D01*
X117160238Y-55941428D01*
X116969761Y-55941428D01*
X116874523Y-55893809D01*
X116826904Y-55846190D01*
X116779285Y-55750952D01*
X117255476Y-58862380D02*
X117826904Y-58862380D01*
X117541190Y-58862380D02*
X117541190Y-57862380D01*
X117636428Y-58005238D01*
X117731666Y-58100476D01*
X117826904Y-58148095D01*
X116636428Y-57862380D02*
X116541190Y-57862380D01*
X116445952Y-57910000D01*
X116398333Y-57957619D01*
X116350714Y-58052857D01*
X116303095Y-58243333D01*
X116303095Y-58481428D01*
X116350714Y-58671904D01*
X116398333Y-58767142D01*
X116445952Y-58814761D01*
X116541190Y-58862380D01*
X116636428Y-58862380D01*
X116731666Y-58814761D01*
X116779285Y-58767142D01*
X116826904Y-58671904D01*
X116874523Y-58481428D01*
X116874523Y-58243333D01*
X116826904Y-58052857D01*
X116779285Y-57957619D01*
X116731666Y-57910000D01*
X116636428Y-57862380D01*
X117255476Y-61402380D02*
X117826904Y-61402380D01*
X117541190Y-61402380D02*
X117541190Y-60402380D01*
X117636428Y-60545238D01*
X117731666Y-60640476D01*
X117826904Y-60688095D01*
X116303095Y-61402380D02*
X116874523Y-61402380D01*
X116588809Y-61402380D02*
X116588809Y-60402380D01*
X116684047Y-60545238D01*
X116779285Y-60640476D01*
X116874523Y-60688095D01*
X117255476Y-63942380D02*
X117826904Y-63942380D01*
X117541190Y-63942380D02*
X117541190Y-62942380D01*
X117636428Y-63085238D01*
X117731666Y-63180476D01*
X117826904Y-63228095D01*
X116874523Y-63037619D02*
X116826904Y-62990000D01*
X116731666Y-62942380D01*
X116493571Y-62942380D01*
X116398333Y-62990000D01*
X116350714Y-63037619D01*
X116303095Y-63132857D01*
X116303095Y-63228095D01*
X116350714Y-63370952D01*
X116922142Y-63942380D01*
X116303095Y-63942380D01*
X117255476Y-66482380D02*
X117826904Y-66482380D01*
X117541190Y-66482380D02*
X117541190Y-65482380D01*
X117636428Y-65625238D01*
X117731666Y-65720476D01*
X117826904Y-65768095D01*
X116922142Y-65482380D02*
X116303095Y-65482380D01*
X116636428Y-65863333D01*
X116493571Y-65863333D01*
X116398333Y-65910952D01*
X116350714Y-65958571D01*
X116303095Y-66053809D01*
X116303095Y-66291904D01*
X116350714Y-66387142D01*
X116398333Y-66434761D01*
X116493571Y-66482380D01*
X116779285Y-66482380D01*
X116874523Y-66434761D01*
X116922142Y-66387142D01*
X117255476Y-69022380D02*
X117826904Y-69022380D01*
X117541190Y-69022380D02*
X117541190Y-68022380D01*
X117636428Y-68165238D01*
X117731666Y-68260476D01*
X117826904Y-68308095D01*
X116398333Y-68355714D02*
X116398333Y-69022380D01*
X116636428Y-67974761D02*
X116874523Y-68689047D01*
X116255476Y-68689047D01*
X117255476Y-71562380D02*
X117826904Y-71562380D01*
X117541190Y-71562380D02*
X117541190Y-70562380D01*
X117636428Y-70705238D01*
X117731666Y-70800476D01*
X117826904Y-70848095D01*
X116350714Y-70562380D02*
X116826904Y-70562380D01*
X116874523Y-71038571D01*
X116826904Y-70990952D01*
X116731666Y-70943333D01*
X116493571Y-70943333D01*
X116398333Y-70990952D01*
X116350714Y-71038571D01*
X116303095Y-71133809D01*
X116303095Y-71371904D01*
X116350714Y-71467142D01*
X116398333Y-71514761D01*
X116493571Y-71562380D01*
X116731666Y-71562380D01*
X116826904Y-71514761D01*
X116874523Y-71467142D01*
X117255476Y-74102380D02*
X117826904Y-74102380D01*
X117541190Y-74102380D02*
X117541190Y-73102380D01*
X117636428Y-73245238D01*
X117731666Y-73340476D01*
X117826904Y-73388095D01*
X116398333Y-73102380D02*
X116588809Y-73102380D01*
X116684047Y-73150000D01*
X116731666Y-73197619D01*
X116826904Y-73340476D01*
X116874523Y-73530952D01*
X116874523Y-73911904D01*
X116826904Y-74007142D01*
X116779285Y-74054761D01*
X116684047Y-74102380D01*
X116493571Y-74102380D01*
X116398333Y-74054761D01*
X116350714Y-74007142D01*
X116303095Y-73911904D01*
X116303095Y-73673809D01*
X116350714Y-73578571D01*
X116398333Y-73530952D01*
X116493571Y-73483333D01*
X116684047Y-73483333D01*
X116779285Y-73530952D01*
X116826904Y-73578571D01*
X116874523Y-73673809D01*
X117255476Y-76642380D02*
X117826904Y-76642380D01*
X117541190Y-76642380D02*
X117541190Y-75642380D01*
X117636428Y-75785238D01*
X117731666Y-75880476D01*
X117826904Y-75928095D01*
X116922142Y-75642380D02*
X116255476Y-75642380D01*
X116684047Y-76642380D01*
X117255476Y-79182380D02*
X117826904Y-79182380D01*
X117541190Y-79182380D02*
X117541190Y-78182380D01*
X117636428Y-78325238D01*
X117731666Y-78420476D01*
X117826904Y-78468095D01*
X116684047Y-78610952D02*
X116779285Y-78563333D01*
X116826904Y-78515714D01*
X116874523Y-78420476D01*
X116874523Y-78372857D01*
X116826904Y-78277619D01*
X116779285Y-78230000D01*
X116684047Y-78182380D01*
X116493571Y-78182380D01*
X116398333Y-78230000D01*
X116350714Y-78277619D01*
X116303095Y-78372857D01*
X116303095Y-78420476D01*
X116350714Y-78515714D01*
X116398333Y-78563333D01*
X116493571Y-78610952D01*
X116684047Y-78610952D01*
X116779285Y-78658571D01*
X116826904Y-78706190D01*
X116874523Y-78801428D01*
X116874523Y-78991904D01*
X116826904Y-79087142D01*
X116779285Y-79134761D01*
X116684047Y-79182380D01*
X116493571Y-79182380D01*
X116398333Y-79134761D01*
X116350714Y-79087142D01*
X116303095Y-78991904D01*
X116303095Y-78801428D01*
X116350714Y-78706190D01*
X116398333Y-78658571D01*
X116493571Y-78610952D01*
X117255476Y-81722380D02*
X117826904Y-81722380D01*
X117541190Y-81722380D02*
X117541190Y-80722380D01*
X117636428Y-80865238D01*
X117731666Y-80960476D01*
X117826904Y-81008095D01*
X116779285Y-81722380D02*
X116588809Y-81722380D01*
X116493571Y-81674761D01*
X116445952Y-81627142D01*
X116350714Y-81484285D01*
X116303095Y-81293809D01*
X116303095Y-80912857D01*
X116350714Y-80817619D01*
X116398333Y-80770000D01*
X116493571Y-80722380D01*
X116684047Y-80722380D01*
X116779285Y-80770000D01*
X116826904Y-80817619D01*
X116874523Y-80912857D01*
X116874523Y-81150952D01*
X116826904Y-81246190D01*
X116779285Y-81293809D01*
X116684047Y-81341428D01*
X116493571Y-81341428D01*
X116398333Y-81293809D01*
X116350714Y-81246190D01*
X116303095Y-81150952D01*
X117826904Y-83357619D02*
X117779285Y-83310000D01*
X117684047Y-83262380D01*
X117445952Y-83262380D01*
X117350714Y-83310000D01*
X117303095Y-83357619D01*
X117255476Y-83452857D01*
X117255476Y-83548095D01*
X117303095Y-83690952D01*
X117874523Y-84262380D01*
X117255476Y-84262380D01*
X116636428Y-83262380D02*
X116541190Y-83262380D01*
X116445952Y-83310000D01*
X116398333Y-83357619D01*
X116350714Y-83452857D01*
X116303095Y-83643333D01*
X116303095Y-83881428D01*
X116350714Y-84071904D01*
X116398333Y-84167142D01*
X116445952Y-84214761D01*
X116541190Y-84262380D01*
X116636428Y-84262380D01*
X116731666Y-84214761D01*
X116779285Y-84167142D01*
X116826904Y-84071904D01*
X116874523Y-83881428D01*
X116874523Y-83643333D01*
X116826904Y-83452857D01*
X116779285Y-83357619D01*
X116731666Y-83310000D01*
X116636428Y-83262380D01*
X117826904Y-85897619D02*
X117779285Y-85850000D01*
X117684047Y-85802380D01*
X117445952Y-85802380D01*
X117350714Y-85850000D01*
X117303095Y-85897619D01*
X117255476Y-85992857D01*
X117255476Y-86088095D01*
X117303095Y-86230952D01*
X117874523Y-86802380D01*
X117255476Y-86802380D01*
X116303095Y-86802380D02*
X116874523Y-86802380D01*
X116588809Y-86802380D02*
X116588809Y-85802380D01*
X116684047Y-85945238D01*
X116779285Y-86040476D01*
X116874523Y-86088095D01*
X117826904Y-88437619D02*
X117779285Y-88390000D01*
X117684047Y-88342380D01*
X117445952Y-88342380D01*
X117350714Y-88390000D01*
X117303095Y-88437619D01*
X117255476Y-88532857D01*
X117255476Y-88628095D01*
X117303095Y-88770952D01*
X117874523Y-89342380D01*
X117255476Y-89342380D01*
X116874523Y-88437619D02*
X116826904Y-88390000D01*
X116731666Y-88342380D01*
X116493571Y-88342380D01*
X116398333Y-88390000D01*
X116350714Y-88437619D01*
X116303095Y-88532857D01*
X116303095Y-88628095D01*
X116350714Y-88770952D01*
X116922142Y-89342380D01*
X116303095Y-89342380D01*
X117826904Y-90977619D02*
X117779285Y-90930000D01*
X117684047Y-90882380D01*
X117445952Y-90882380D01*
X117350714Y-90930000D01*
X117303095Y-90977619D01*
X117255476Y-91072857D01*
X117255476Y-91168095D01*
X117303095Y-91310952D01*
X117874523Y-91882380D01*
X117255476Y-91882380D01*
X116922142Y-90882380D02*
X116303095Y-90882380D01*
X116636428Y-91263333D01*
X116493571Y-91263333D01*
X116398333Y-91310952D01*
X116350714Y-91358571D01*
X116303095Y-91453809D01*
X116303095Y-91691904D01*
X116350714Y-91787142D01*
X116398333Y-91834761D01*
X116493571Y-91882380D01*
X116779285Y-91882380D01*
X116874523Y-91834761D01*
X116922142Y-91787142D01*
X117826904Y-93517619D02*
X117779285Y-93470000D01*
X117684047Y-93422380D01*
X117445952Y-93422380D01*
X117350714Y-93470000D01*
X117303095Y-93517619D01*
X117255476Y-93612857D01*
X117255476Y-93708095D01*
X117303095Y-93850952D01*
X117874523Y-94422380D01*
X117255476Y-94422380D01*
X116398333Y-93755714D02*
X116398333Y-94422380D01*
X116636428Y-93374761D02*
X116874523Y-94089047D01*
X116255476Y-94089047D01*
X117826904Y-96057619D02*
X117779285Y-96010000D01*
X117684047Y-95962380D01*
X117445952Y-95962380D01*
X117350714Y-96010000D01*
X117303095Y-96057619D01*
X117255476Y-96152857D01*
X117255476Y-96248095D01*
X117303095Y-96390952D01*
X117874523Y-96962380D01*
X117255476Y-96962380D01*
X116350714Y-95962380D02*
X116826904Y-95962380D01*
X116874523Y-96438571D01*
X116826904Y-96390952D01*
X116731666Y-96343333D01*
X116493571Y-96343333D01*
X116398333Y-96390952D01*
X116350714Y-96438571D01*
X116303095Y-96533809D01*
X116303095Y-96771904D01*
X116350714Y-96867142D01*
X116398333Y-96914761D01*
X116493571Y-96962380D01*
X116731666Y-96962380D01*
X116826904Y-96914761D01*
X116874523Y-96867142D01*
X117826904Y-98597619D02*
X117779285Y-98550000D01*
X117684047Y-98502380D01*
X117445952Y-98502380D01*
X117350714Y-98550000D01*
X117303095Y-98597619D01*
X117255476Y-98692857D01*
X117255476Y-98788095D01*
X117303095Y-98930952D01*
X117874523Y-99502380D01*
X117255476Y-99502380D01*
X116398333Y-98502380D02*
X116588809Y-98502380D01*
X116684047Y-98550000D01*
X116731666Y-98597619D01*
X116826904Y-98740476D01*
X116874523Y-98930952D01*
X116874523Y-99311904D01*
X116826904Y-99407142D01*
X116779285Y-99454761D01*
X116684047Y-99502380D01*
X116493571Y-99502380D01*
X116398333Y-99454761D01*
X116350714Y-99407142D01*
X116303095Y-99311904D01*
X116303095Y-99073809D01*
X116350714Y-98978571D01*
X116398333Y-98930952D01*
X116493571Y-98883333D01*
X116684047Y-98883333D01*
X116779285Y-98930952D01*
X116826904Y-98978571D01*
X116874523Y-99073809D01*
X117826904Y-101137619D02*
X117779285Y-101090000D01*
X117684047Y-101042380D01*
X117445952Y-101042380D01*
X117350714Y-101090000D01*
X117303095Y-101137619D01*
X117255476Y-101232857D01*
X117255476Y-101328095D01*
X117303095Y-101470952D01*
X117874523Y-102042380D01*
X117255476Y-102042380D01*
X116922142Y-101042380D02*
X116255476Y-101042380D01*
X116684047Y-102042380D01*
X117826904Y-103677619D02*
X117779285Y-103630000D01*
X117684047Y-103582380D01*
X117445952Y-103582380D01*
X117350714Y-103630000D01*
X117303095Y-103677619D01*
X117255476Y-103772857D01*
X117255476Y-103868095D01*
X117303095Y-104010952D01*
X117874523Y-104582380D01*
X117255476Y-104582380D01*
X116684047Y-104010952D02*
X116779285Y-103963333D01*
X116826904Y-103915714D01*
X116874523Y-103820476D01*
X116874523Y-103772857D01*
X116826904Y-103677619D01*
X116779285Y-103630000D01*
X116684047Y-103582380D01*
X116493571Y-103582380D01*
X116398333Y-103630000D01*
X116350714Y-103677619D01*
X116303095Y-103772857D01*
X116303095Y-103820476D01*
X116350714Y-103915714D01*
X116398333Y-103963333D01*
X116493571Y-104010952D01*
X116684047Y-104010952D01*
X116779285Y-104058571D01*
X116826904Y-104106190D01*
X116874523Y-104201428D01*
X116874523Y-104391904D01*
X116826904Y-104487142D01*
X116779285Y-104534761D01*
X116684047Y-104582380D01*
X116493571Y-104582380D01*
X116398333Y-104534761D01*
X116350714Y-104487142D01*
X116303095Y-104391904D01*
X116303095Y-104201428D01*
X116350714Y-104106190D01*
X116398333Y-104058571D01*
X116493571Y-104010952D01*
X117826904Y-106217619D02*
X117779285Y-106170000D01*
X117684047Y-106122380D01*
X117445952Y-106122380D01*
X117350714Y-106170000D01*
X117303095Y-106217619D01*
X117255476Y-106312857D01*
X117255476Y-106408095D01*
X117303095Y-106550952D01*
X117874523Y-107122380D01*
X117255476Y-107122380D01*
X116779285Y-107122380D02*
X116588809Y-107122380D01*
X116493571Y-107074761D01*
X116445952Y-107027142D01*
X116350714Y-106884285D01*
X116303095Y-106693809D01*
X116303095Y-106312857D01*
X116350714Y-106217619D01*
X116398333Y-106170000D01*
X116493571Y-106122380D01*
X116684047Y-106122380D01*
X116779285Y-106170000D01*
X116826904Y-106217619D01*
X116874523Y-106312857D01*
X116874523Y-106550952D01*
X116826904Y-106646190D01*
X116779285Y-106693809D01*
X116684047Y-106741428D01*
X116493571Y-106741428D01*
X116398333Y-106693809D01*
X116350714Y-106646190D01*
X116303095Y-106550952D01*
X117874523Y-108662380D02*
X117255476Y-108662380D01*
X117588809Y-109043333D01*
X117445952Y-109043333D01*
X117350714Y-109090952D01*
X117303095Y-109138571D01*
X117255476Y-109233809D01*
X117255476Y-109471904D01*
X117303095Y-109567142D01*
X117350714Y-109614761D01*
X117445952Y-109662380D01*
X117731666Y-109662380D01*
X117826904Y-109614761D01*
X117874523Y-109567142D01*
X116636428Y-108662380D02*
X116541190Y-108662380D01*
X116445952Y-108710000D01*
X116398333Y-108757619D01*
X116350714Y-108852857D01*
X116303095Y-109043333D01*
X116303095Y-109281428D01*
X116350714Y-109471904D01*
X116398333Y-109567142D01*
X116445952Y-109614761D01*
X116541190Y-109662380D01*
X116636428Y-109662380D01*
X116731666Y-109614761D01*
X116779285Y-109567142D01*
X116826904Y-109471904D01*
X116874523Y-109281428D01*
X116874523Y-109043333D01*
X116826904Y-108852857D01*
X116779285Y-108757619D01*
X116731666Y-108710000D01*
X116636428Y-108662380D01*
X117874523Y-111202380D02*
X117255476Y-111202380D01*
X117588809Y-111583333D01*
X117445952Y-111583333D01*
X117350714Y-111630952D01*
X117303095Y-111678571D01*
X117255476Y-111773809D01*
X117255476Y-112011904D01*
X117303095Y-112107142D01*
X117350714Y-112154761D01*
X117445952Y-112202380D01*
X117731666Y-112202380D01*
X117826904Y-112154761D01*
X117874523Y-112107142D01*
X116303095Y-112202380D02*
X116874523Y-112202380D01*
X116588809Y-112202380D02*
X116588809Y-111202380D01*
X116684047Y-111345238D01*
X116779285Y-111440476D01*
X116874523Y-111488095D01*
X117874523Y-113742380D02*
X117255476Y-113742380D01*
X117588809Y-114123333D01*
X117445952Y-114123333D01*
X117350714Y-114170952D01*
X117303095Y-114218571D01*
X117255476Y-114313809D01*
X117255476Y-114551904D01*
X117303095Y-114647142D01*
X117350714Y-114694761D01*
X117445952Y-114742380D01*
X117731666Y-114742380D01*
X117826904Y-114694761D01*
X117874523Y-114647142D01*
X116874523Y-113837619D02*
X116826904Y-113790000D01*
X116731666Y-113742380D01*
X116493571Y-113742380D01*
X116398333Y-113790000D01*
X116350714Y-113837619D01*
X116303095Y-113932857D01*
X116303095Y-114028095D01*
X116350714Y-114170952D01*
X116922142Y-114742380D01*
X116303095Y-114742380D01*
X117874523Y-116282380D02*
X117255476Y-116282380D01*
X117588809Y-116663333D01*
X117445952Y-116663333D01*
X117350714Y-116710952D01*
X117303095Y-116758571D01*
X117255476Y-116853809D01*
X117255476Y-117091904D01*
X117303095Y-117187142D01*
X117350714Y-117234761D01*
X117445952Y-117282380D01*
X117731666Y-117282380D01*
X117826904Y-117234761D01*
X117874523Y-117187142D01*
X116922142Y-116282380D02*
X116303095Y-116282380D01*
X116636428Y-116663333D01*
X116493571Y-116663333D01*
X116398333Y-116710952D01*
X116350714Y-116758571D01*
X116303095Y-116853809D01*
X116303095Y-117091904D01*
X116350714Y-117187142D01*
X116398333Y-117234761D01*
X116493571Y-117282380D01*
X116779285Y-117282380D01*
X116874523Y-117234761D01*
X116922142Y-117187142D01*
X117874523Y-118822380D02*
X117255476Y-118822380D01*
X117588809Y-119203333D01*
X117445952Y-119203333D01*
X117350714Y-119250952D01*
X117303095Y-119298571D01*
X117255476Y-119393809D01*
X117255476Y-119631904D01*
X117303095Y-119727142D01*
X117350714Y-119774761D01*
X117445952Y-119822380D01*
X117731666Y-119822380D01*
X117826904Y-119774761D01*
X117874523Y-119727142D01*
X116398333Y-119155714D02*
X116398333Y-119822380D01*
X116636428Y-118774761D02*
X116874523Y-119489047D01*
X116255476Y-119489047D01*
X128240952Y-32938571D02*
X128098095Y-32986190D01*
X128050476Y-33033809D01*
X128002857Y-33129047D01*
X128002857Y-33271904D01*
X128050476Y-33367142D01*
X128098095Y-33414761D01*
X128193333Y-33462380D01*
X128574285Y-33462380D01*
X128574285Y-32462380D01*
X128240952Y-32462380D01*
X128145714Y-32510000D01*
X128098095Y-32557619D01*
X128050476Y-32652857D01*
X128050476Y-32748095D01*
X128098095Y-32843333D01*
X128145714Y-32890952D01*
X128240952Y-32938571D01*
X128574285Y-32938571D01*
X127574285Y-32938571D02*
X127240952Y-32938571D01*
X127098095Y-33462380D02*
X127574285Y-33462380D01*
X127574285Y-32462380D01*
X127098095Y-32462380D01*
X220316000Y-31994000D02*
X218284000Y-31994000D01*
X220316000Y-34026000D02*
X220316000Y-31994000D01*
X218284000Y-34026000D02*
X220316000Y-34026000D01*
X218284000Y-31994000D02*
X218284000Y-34026000D01*
X217776000Y-31994000D02*
X215744000Y-31994000D01*
X217776000Y-34026000D02*
X217776000Y-31994000D01*
X215744000Y-34026000D02*
X217776000Y-34026000D01*
X215744000Y-31994000D02*
X215744000Y-34026000D01*
X199996000Y-31994000D02*
X197964000Y-31994000D01*
X199996000Y-34026000D02*
X199996000Y-31994000D01*
X197964000Y-34026000D02*
X199996000Y-34026000D01*
X197964000Y-31994000D02*
X197964000Y-34026000D01*
X197456000Y-31994000D02*
X195424000Y-31994000D01*
X197456000Y-34026000D02*
X197456000Y-31994000D01*
X195424000Y-34026000D02*
X197456000Y-34026000D01*
X195424000Y-31994000D02*
X195424000Y-34026000D01*
X179676000Y-31994000D02*
X177644000Y-31994000D01*
X179676000Y-34026000D02*
X179676000Y-31994000D01*
X177644000Y-34026000D02*
X179676000Y-34026000D01*
X177644000Y-31994000D02*
X177644000Y-34026000D01*
X177136000Y-31994000D02*
X175104000Y-31994000D01*
X177136000Y-34026000D02*
X177136000Y-31994000D01*
X175104000Y-34026000D02*
X177136000Y-34026000D01*
X175104000Y-31994000D02*
X175104000Y-34026000D01*
X159356000Y-31994000D02*
X157324000Y-31994000D01*
X159356000Y-34026000D02*
X159356000Y-31994000D01*
X157324000Y-34026000D02*
X159356000Y-34026000D01*
X157324000Y-31994000D02*
X157324000Y-34026000D01*
X156816000Y-31994000D02*
X154784000Y-31994000D01*
X156816000Y-34026000D02*
X156816000Y-31994000D01*
X154784000Y-34026000D02*
X156816000Y-34026000D01*
X154784000Y-31994000D02*
X154784000Y-34026000D01*
X139036000Y-31994000D02*
X137004000Y-31994000D01*
X139036000Y-34026000D02*
X139036000Y-31994000D01*
X137004000Y-34026000D02*
X139036000Y-34026000D01*
X137004000Y-31994000D02*
X137004000Y-34026000D01*
X136496000Y-31994000D02*
X134464000Y-31994000D01*
X136496000Y-34026000D02*
X136496000Y-31994000D01*
X134464000Y-34026000D02*
X136496000Y-34026000D01*
X134464000Y-31994000D02*
X134464000Y-34026000D01*
X235349523Y-123902380D02*
X234730476Y-123902380D01*
X235063809Y-124283333D01*
X234920952Y-124283333D01*
X234825714Y-124330952D01*
X234778095Y-124378571D01*
X234730476Y-124473809D01*
X234730476Y-124711904D01*
X234778095Y-124807142D01*
X234825714Y-124854761D01*
X234920952Y-124902380D01*
X235206666Y-124902380D01*
X235301904Y-124854761D01*
X235349523Y-124807142D01*
X233873333Y-123902380D02*
X234063809Y-123902380D01*
X234159047Y-123950000D01*
X234206666Y-123997619D01*
X234301904Y-124140476D01*
X234349523Y-124330952D01*
X234349523Y-124711904D01*
X234301904Y-124807142D01*
X234254285Y-124854761D01*
X234159047Y-124902380D01*
X233968571Y-124902380D01*
X233873333Y-124854761D01*
X233825714Y-124807142D01*
X233778095Y-124711904D01*
X233778095Y-124473809D01*
X233825714Y-124378571D01*
X233873333Y-124330952D01*
X233968571Y-124283333D01*
X234159047Y-124283333D01*
X234254285Y-124330952D01*
X234301904Y-124378571D01*
X234349523Y-124473809D01*
X235349523Y-121362380D02*
X234730476Y-121362380D01*
X235063809Y-121743333D01*
X234920952Y-121743333D01*
X234825714Y-121790952D01*
X234778095Y-121838571D01*
X234730476Y-121933809D01*
X234730476Y-122171904D01*
X234778095Y-122267142D01*
X234825714Y-122314761D01*
X234920952Y-122362380D01*
X235206666Y-122362380D01*
X235301904Y-122314761D01*
X235349523Y-122267142D01*
X233825714Y-121362380D02*
X234301904Y-121362380D01*
X234349523Y-121838571D01*
X234301904Y-121790952D01*
X234206666Y-121743333D01*
X233968571Y-121743333D01*
X233873333Y-121790952D01*
X233825714Y-121838571D01*
X233778095Y-121933809D01*
X233778095Y-122171904D01*
X233825714Y-122267142D01*
X233873333Y-122314761D01*
X233968571Y-122362380D01*
X234206666Y-122362380D01*
X234301904Y-122314761D01*
X234349523Y-122267142D01*
X235349523Y-118822380D02*
X234730476Y-118822380D01*
X235063809Y-119203333D01*
X234920952Y-119203333D01*
X234825714Y-119250952D01*
X234778095Y-119298571D01*
X234730476Y-119393809D01*
X234730476Y-119631904D01*
X234778095Y-119727142D01*
X234825714Y-119774761D01*
X234920952Y-119822380D01*
X235206666Y-119822380D01*
X235301904Y-119774761D01*
X235349523Y-119727142D01*
X233873333Y-119155714D02*
X233873333Y-119822380D01*
X234111428Y-118774761D02*
X234349523Y-119489047D01*
X233730476Y-119489047D01*
X235349523Y-116282380D02*
X234730476Y-116282380D01*
X235063809Y-116663333D01*
X234920952Y-116663333D01*
X234825714Y-116710952D01*
X234778095Y-116758571D01*
X234730476Y-116853809D01*
X234730476Y-117091904D01*
X234778095Y-117187142D01*
X234825714Y-117234761D01*
X234920952Y-117282380D01*
X235206666Y-117282380D01*
X235301904Y-117234761D01*
X235349523Y-117187142D01*
X234397142Y-116282380D02*
X233778095Y-116282380D01*
X234111428Y-116663333D01*
X233968571Y-116663333D01*
X233873333Y-116710952D01*
X233825714Y-116758571D01*
X233778095Y-116853809D01*
X233778095Y-117091904D01*
X233825714Y-117187142D01*
X233873333Y-117234761D01*
X233968571Y-117282380D01*
X234254285Y-117282380D01*
X234349523Y-117234761D01*
X234397142Y-117187142D01*
X235349523Y-113742380D02*
X234730476Y-113742380D01*
X235063809Y-114123333D01*
X234920952Y-114123333D01*
X234825714Y-114170952D01*
X234778095Y-114218571D01*
X234730476Y-114313809D01*
X234730476Y-114551904D01*
X234778095Y-114647142D01*
X234825714Y-114694761D01*
X234920952Y-114742380D01*
X235206666Y-114742380D01*
X235301904Y-114694761D01*
X235349523Y-114647142D01*
X234349523Y-113837619D02*
X234301904Y-113790000D01*
X234206666Y-113742380D01*
X233968571Y-113742380D01*
X233873333Y-113790000D01*
X233825714Y-113837619D01*
X233778095Y-113932857D01*
X233778095Y-114028095D01*
X233825714Y-114170952D01*
X234397142Y-114742380D01*
X233778095Y-114742380D01*
X235349523Y-111202380D02*
X234730476Y-111202380D01*
X235063809Y-111583333D01*
X234920952Y-111583333D01*
X234825714Y-111630952D01*
X234778095Y-111678571D01*
X234730476Y-111773809D01*
X234730476Y-112011904D01*
X234778095Y-112107142D01*
X234825714Y-112154761D01*
X234920952Y-112202380D01*
X235206666Y-112202380D01*
X235301904Y-112154761D01*
X235349523Y-112107142D01*
X233778095Y-112202380D02*
X234349523Y-112202380D01*
X234063809Y-112202380D02*
X234063809Y-111202380D01*
X234159047Y-111345238D01*
X234254285Y-111440476D01*
X234349523Y-111488095D01*
X235349523Y-108662380D02*
X234730476Y-108662380D01*
X235063809Y-109043333D01*
X234920952Y-109043333D01*
X234825714Y-109090952D01*
X234778095Y-109138571D01*
X234730476Y-109233809D01*
X234730476Y-109471904D01*
X234778095Y-109567142D01*
X234825714Y-109614761D01*
X234920952Y-109662380D01*
X235206666Y-109662380D01*
X235301904Y-109614761D01*
X235349523Y-109567142D01*
X234111428Y-108662380D02*
X234016190Y-108662380D01*
X233920952Y-108710000D01*
X233873333Y-108757619D01*
X233825714Y-108852857D01*
X233778095Y-109043333D01*
X233778095Y-109281428D01*
X233825714Y-109471904D01*
X233873333Y-109567142D01*
X233920952Y-109614761D01*
X234016190Y-109662380D01*
X234111428Y-109662380D01*
X234206666Y-109614761D01*
X234254285Y-109567142D01*
X234301904Y-109471904D01*
X234349523Y-109281428D01*
X234349523Y-109043333D01*
X234301904Y-108852857D01*
X234254285Y-108757619D01*
X234206666Y-108710000D01*
X234111428Y-108662380D01*
X235301904Y-106217619D02*
X235254285Y-106170000D01*
X235159047Y-106122380D01*
X234920952Y-106122380D01*
X234825714Y-106170000D01*
X234778095Y-106217619D01*
X234730476Y-106312857D01*
X234730476Y-106408095D01*
X234778095Y-106550952D01*
X235349523Y-107122380D01*
X234730476Y-107122380D01*
X234254285Y-107122380D02*
X234063809Y-107122380D01*
X233968571Y-107074761D01*
X233920952Y-107027142D01*
X233825714Y-106884285D01*
X233778095Y-106693809D01*
X233778095Y-106312857D01*
X233825714Y-106217619D01*
X233873333Y-106170000D01*
X233968571Y-106122380D01*
X234159047Y-106122380D01*
X234254285Y-106170000D01*
X234301904Y-106217619D01*
X234349523Y-106312857D01*
X234349523Y-106550952D01*
X234301904Y-106646190D01*
X234254285Y-106693809D01*
X234159047Y-106741428D01*
X233968571Y-106741428D01*
X233873333Y-106693809D01*
X233825714Y-106646190D01*
X233778095Y-106550952D01*
X235301904Y-103677619D02*
X235254285Y-103630000D01*
X235159047Y-103582380D01*
X234920952Y-103582380D01*
X234825714Y-103630000D01*
X234778095Y-103677619D01*
X234730476Y-103772857D01*
X234730476Y-103868095D01*
X234778095Y-104010952D01*
X235349523Y-104582380D01*
X234730476Y-104582380D01*
X234159047Y-104010952D02*
X234254285Y-103963333D01*
X234301904Y-103915714D01*
X234349523Y-103820476D01*
X234349523Y-103772857D01*
X234301904Y-103677619D01*
X234254285Y-103630000D01*
X234159047Y-103582380D01*
X233968571Y-103582380D01*
X233873333Y-103630000D01*
X233825714Y-103677619D01*
X233778095Y-103772857D01*
X233778095Y-103820476D01*
X233825714Y-103915714D01*
X233873333Y-103963333D01*
X233968571Y-104010952D01*
X234159047Y-104010952D01*
X234254285Y-104058571D01*
X234301904Y-104106190D01*
X234349523Y-104201428D01*
X234349523Y-104391904D01*
X234301904Y-104487142D01*
X234254285Y-104534761D01*
X234159047Y-104582380D01*
X233968571Y-104582380D01*
X233873333Y-104534761D01*
X233825714Y-104487142D01*
X233778095Y-104391904D01*
X233778095Y-104201428D01*
X233825714Y-104106190D01*
X233873333Y-104058571D01*
X233968571Y-104010952D01*
X235301904Y-101137619D02*
X235254285Y-101090000D01*
X235159047Y-101042380D01*
X234920952Y-101042380D01*
X234825714Y-101090000D01*
X234778095Y-101137619D01*
X234730476Y-101232857D01*
X234730476Y-101328095D01*
X234778095Y-101470952D01*
X235349523Y-102042380D01*
X234730476Y-102042380D01*
X234397142Y-101042380D02*
X233730476Y-101042380D01*
X234159047Y-102042380D01*
X235301904Y-98597619D02*
X235254285Y-98550000D01*
X235159047Y-98502380D01*
X234920952Y-98502380D01*
X234825714Y-98550000D01*
X234778095Y-98597619D01*
X234730476Y-98692857D01*
X234730476Y-98788095D01*
X234778095Y-98930952D01*
X235349523Y-99502380D01*
X234730476Y-99502380D01*
X233873333Y-98502380D02*
X234063809Y-98502380D01*
X234159047Y-98550000D01*
X234206666Y-98597619D01*
X234301904Y-98740476D01*
X234349523Y-98930952D01*
X234349523Y-99311904D01*
X234301904Y-99407142D01*
X234254285Y-99454761D01*
X234159047Y-99502380D01*
X233968571Y-99502380D01*
X233873333Y-99454761D01*
X233825714Y-99407142D01*
X233778095Y-99311904D01*
X233778095Y-99073809D01*
X233825714Y-98978571D01*
X233873333Y-98930952D01*
X233968571Y-98883333D01*
X234159047Y-98883333D01*
X234254285Y-98930952D01*
X234301904Y-98978571D01*
X234349523Y-99073809D01*
X235301904Y-96057619D02*
X235254285Y-96010000D01*
X235159047Y-95962380D01*
X234920952Y-95962380D01*
X234825714Y-96010000D01*
X234778095Y-96057619D01*
X234730476Y-96152857D01*
X234730476Y-96248095D01*
X234778095Y-96390952D01*
X235349523Y-96962380D01*
X234730476Y-96962380D01*
X233825714Y-95962380D02*
X234301904Y-95962380D01*
X234349523Y-96438571D01*
X234301904Y-96390952D01*
X234206666Y-96343333D01*
X233968571Y-96343333D01*
X233873333Y-96390952D01*
X233825714Y-96438571D01*
X233778095Y-96533809D01*
X233778095Y-96771904D01*
X233825714Y-96867142D01*
X233873333Y-96914761D01*
X233968571Y-96962380D01*
X234206666Y-96962380D01*
X234301904Y-96914761D01*
X234349523Y-96867142D01*
X235301904Y-93517619D02*
X235254285Y-93470000D01*
X235159047Y-93422380D01*
X234920952Y-93422380D01*
X234825714Y-93470000D01*
X234778095Y-93517619D01*
X234730476Y-93612857D01*
X234730476Y-93708095D01*
X234778095Y-93850952D01*
X235349523Y-94422380D01*
X234730476Y-94422380D01*
X233873333Y-93755714D02*
X233873333Y-94422380D01*
X234111428Y-93374761D02*
X234349523Y-94089047D01*
X233730476Y-94089047D01*
X235301904Y-90977619D02*
X235254285Y-90930000D01*
X235159047Y-90882380D01*
X234920952Y-90882380D01*
X234825714Y-90930000D01*
X234778095Y-90977619D01*
X234730476Y-91072857D01*
X234730476Y-91168095D01*
X234778095Y-91310952D01*
X235349523Y-91882380D01*
X234730476Y-91882380D01*
X234397142Y-90882380D02*
X233778095Y-90882380D01*
X234111428Y-91263333D01*
X233968571Y-91263333D01*
X233873333Y-91310952D01*
X233825714Y-91358571D01*
X233778095Y-91453809D01*
X233778095Y-91691904D01*
X233825714Y-91787142D01*
X233873333Y-91834761D01*
X233968571Y-91882380D01*
X234254285Y-91882380D01*
X234349523Y-91834761D01*
X234397142Y-91787142D01*
X235301904Y-88437619D02*
X235254285Y-88390000D01*
X235159047Y-88342380D01*
X234920952Y-88342380D01*
X234825714Y-88390000D01*
X234778095Y-88437619D01*
X234730476Y-88532857D01*
X234730476Y-88628095D01*
X234778095Y-88770952D01*
X235349523Y-89342380D01*
X234730476Y-89342380D01*
X234349523Y-88437619D02*
X234301904Y-88390000D01*
X234206666Y-88342380D01*
X233968571Y-88342380D01*
X233873333Y-88390000D01*
X233825714Y-88437619D01*
X233778095Y-88532857D01*
X233778095Y-88628095D01*
X233825714Y-88770952D01*
X234397142Y-89342380D01*
X233778095Y-89342380D01*
X235301904Y-85897619D02*
X235254285Y-85850000D01*
X235159047Y-85802380D01*
X234920952Y-85802380D01*
X234825714Y-85850000D01*
X234778095Y-85897619D01*
X234730476Y-85992857D01*
X234730476Y-86088095D01*
X234778095Y-86230952D01*
X235349523Y-86802380D01*
X234730476Y-86802380D01*
X233778095Y-86802380D02*
X234349523Y-86802380D01*
X234063809Y-86802380D02*
X234063809Y-85802380D01*
X234159047Y-85945238D01*
X234254285Y-86040476D01*
X234349523Y-86088095D01*
X235301904Y-83357619D02*
X235254285Y-83310000D01*
X235159047Y-83262380D01*
X234920952Y-83262380D01*
X234825714Y-83310000D01*
X234778095Y-83357619D01*
X234730476Y-83452857D01*
X234730476Y-83548095D01*
X234778095Y-83690952D01*
X235349523Y-84262380D01*
X234730476Y-84262380D01*
X234111428Y-83262380D02*
X234016190Y-83262380D01*
X233920952Y-83310000D01*
X233873333Y-83357619D01*
X233825714Y-83452857D01*
X233778095Y-83643333D01*
X233778095Y-83881428D01*
X233825714Y-84071904D01*
X233873333Y-84167142D01*
X233920952Y-84214761D01*
X234016190Y-84262380D01*
X234111428Y-84262380D01*
X234206666Y-84214761D01*
X234254285Y-84167142D01*
X234301904Y-84071904D01*
X234349523Y-83881428D01*
X234349523Y-83643333D01*
X234301904Y-83452857D01*
X234254285Y-83357619D01*
X234206666Y-83310000D01*
X234111428Y-83262380D01*
X234730476Y-81722380D02*
X235301904Y-81722380D01*
X235016190Y-81722380D02*
X235016190Y-80722380D01*
X235111428Y-80865238D01*
X235206666Y-80960476D01*
X235301904Y-81008095D01*
X234254285Y-81722380D02*
X234063809Y-81722380D01*
X233968571Y-81674761D01*
X233920952Y-81627142D01*
X233825714Y-81484285D01*
X233778095Y-81293809D01*
X233778095Y-80912857D01*
X233825714Y-80817619D01*
X233873333Y-80770000D01*
X233968571Y-80722380D01*
X234159047Y-80722380D01*
X234254285Y-80770000D01*
X234301904Y-80817619D01*
X234349523Y-80912857D01*
X234349523Y-81150952D01*
X234301904Y-81246190D01*
X234254285Y-81293809D01*
X234159047Y-81341428D01*
X233968571Y-81341428D01*
X233873333Y-81293809D01*
X233825714Y-81246190D01*
X233778095Y-81150952D01*
X234730476Y-79182380D02*
X235301904Y-79182380D01*
X235016190Y-79182380D02*
X235016190Y-78182380D01*
X235111428Y-78325238D01*
X235206666Y-78420476D01*
X235301904Y-78468095D01*
X234159047Y-78610952D02*
X234254285Y-78563333D01*
X234301904Y-78515714D01*
X234349523Y-78420476D01*
X234349523Y-78372857D01*
X234301904Y-78277619D01*
X234254285Y-78230000D01*
X234159047Y-78182380D01*
X233968571Y-78182380D01*
X233873333Y-78230000D01*
X233825714Y-78277619D01*
X233778095Y-78372857D01*
X233778095Y-78420476D01*
X233825714Y-78515714D01*
X233873333Y-78563333D01*
X233968571Y-78610952D01*
X234159047Y-78610952D01*
X234254285Y-78658571D01*
X234301904Y-78706190D01*
X234349523Y-78801428D01*
X234349523Y-78991904D01*
X234301904Y-79087142D01*
X234254285Y-79134761D01*
X234159047Y-79182380D01*
X233968571Y-79182380D01*
X233873333Y-79134761D01*
X233825714Y-79087142D01*
X233778095Y-78991904D01*
X233778095Y-78801428D01*
X233825714Y-78706190D01*
X233873333Y-78658571D01*
X233968571Y-78610952D01*
X234730476Y-76642380D02*
X235301904Y-76642380D01*
X235016190Y-76642380D02*
X235016190Y-75642380D01*
X235111428Y-75785238D01*
X235206666Y-75880476D01*
X235301904Y-75928095D01*
X234397142Y-75642380D02*
X233730476Y-75642380D01*
X234159047Y-76642380D01*
X234730476Y-74102380D02*
X235301904Y-74102380D01*
X235016190Y-74102380D02*
X235016190Y-73102380D01*
X235111428Y-73245238D01*
X235206666Y-73340476D01*
X235301904Y-73388095D01*
X233873333Y-73102380D02*
X234063809Y-73102380D01*
X234159047Y-73150000D01*
X234206666Y-73197619D01*
X234301904Y-73340476D01*
X234349523Y-73530952D01*
X234349523Y-73911904D01*
X234301904Y-74007142D01*
X234254285Y-74054761D01*
X234159047Y-74102380D01*
X233968571Y-74102380D01*
X233873333Y-74054761D01*
X233825714Y-74007142D01*
X233778095Y-73911904D01*
X233778095Y-73673809D01*
X233825714Y-73578571D01*
X233873333Y-73530952D01*
X233968571Y-73483333D01*
X234159047Y-73483333D01*
X234254285Y-73530952D01*
X234301904Y-73578571D01*
X234349523Y-73673809D01*
X234730476Y-71562380D02*
X235301904Y-71562380D01*
X235016190Y-71562380D02*
X235016190Y-70562380D01*
X235111428Y-70705238D01*
X235206666Y-70800476D01*
X235301904Y-70848095D01*
X233825714Y-70562380D02*
X234301904Y-70562380D01*
X234349523Y-71038571D01*
X234301904Y-70990952D01*
X234206666Y-70943333D01*
X233968571Y-70943333D01*
X233873333Y-70990952D01*
X233825714Y-71038571D01*
X233778095Y-71133809D01*
X233778095Y-71371904D01*
X233825714Y-71467142D01*
X233873333Y-71514761D01*
X233968571Y-71562380D01*
X234206666Y-71562380D01*
X234301904Y-71514761D01*
X234349523Y-71467142D01*
X234730476Y-69022380D02*
X235301904Y-69022380D01*
X235016190Y-69022380D02*
X235016190Y-68022380D01*
X235111428Y-68165238D01*
X235206666Y-68260476D01*
X235301904Y-68308095D01*
X233873333Y-68355714D02*
X233873333Y-69022380D01*
X234111428Y-67974761D02*
X234349523Y-68689047D01*
X233730476Y-68689047D01*
X234730476Y-66482380D02*
X235301904Y-66482380D01*
X235016190Y-66482380D02*
X235016190Y-65482380D01*
X235111428Y-65625238D01*
X235206666Y-65720476D01*
X235301904Y-65768095D01*
X234397142Y-65482380D02*
X233778095Y-65482380D01*
X234111428Y-65863333D01*
X233968571Y-65863333D01*
X233873333Y-65910952D01*
X233825714Y-65958571D01*
X233778095Y-66053809D01*
X233778095Y-66291904D01*
X233825714Y-66387142D01*
X233873333Y-66434761D01*
X233968571Y-66482380D01*
X234254285Y-66482380D01*
X234349523Y-66434761D01*
X234397142Y-66387142D01*
X234730476Y-63942380D02*
X235301904Y-63942380D01*
X235016190Y-63942380D02*
X235016190Y-62942380D01*
X235111428Y-63085238D01*
X235206666Y-63180476D01*
X235301904Y-63228095D01*
X234349523Y-63037619D02*
X234301904Y-62990000D01*
X234206666Y-62942380D01*
X233968571Y-62942380D01*
X233873333Y-62990000D01*
X233825714Y-63037619D01*
X233778095Y-63132857D01*
X233778095Y-63228095D01*
X233825714Y-63370952D01*
X234397142Y-63942380D01*
X233778095Y-63942380D01*
X234730476Y-61402380D02*
X235301904Y-61402380D01*
X235016190Y-61402380D02*
X235016190Y-60402380D01*
X235111428Y-60545238D01*
X235206666Y-60640476D01*
X235301904Y-60688095D01*
X233778095Y-61402380D02*
X234349523Y-61402380D01*
X234063809Y-61402380D02*
X234063809Y-60402380D01*
X234159047Y-60545238D01*
X234254285Y-60640476D01*
X234349523Y-60688095D01*
X234730476Y-58862380D02*
X235301904Y-58862380D01*
X235016190Y-58862380D02*
X235016190Y-57862380D01*
X235111428Y-58005238D01*
X235206666Y-58100476D01*
X235301904Y-58148095D01*
X234111428Y-57862380D02*
X234016190Y-57862380D01*
X233920952Y-57910000D01*
X233873333Y-57957619D01*
X233825714Y-58052857D01*
X233778095Y-58243333D01*
X233778095Y-58481428D01*
X233825714Y-58671904D01*
X233873333Y-58767142D01*
X233920952Y-58814761D01*
X234016190Y-58862380D01*
X234111428Y-58862380D01*
X234206666Y-58814761D01*
X234254285Y-58767142D01*
X234301904Y-58671904D01*
X234349523Y-58481428D01*
X234349523Y-58243333D01*
X234301904Y-58052857D01*
X234254285Y-57957619D01*
X234206666Y-57910000D01*
X234111428Y-57862380D01*
X234730476Y-56322380D02*
X234540000Y-56322380D01*
X234444761Y-56274761D01*
X234397142Y-56227142D01*
X234301904Y-56084285D01*
X234254285Y-55893809D01*
X234254285Y-55512857D01*
X234301904Y-55417619D01*
X234349523Y-55370000D01*
X234444761Y-55322380D01*
X234635238Y-55322380D01*
X234730476Y-55370000D01*
X234778095Y-55417619D01*
X234825714Y-55512857D01*
X234825714Y-55750952D01*
X234778095Y-55846190D01*
X234730476Y-55893809D01*
X234635238Y-55941428D01*
X234444761Y-55941428D01*
X234349523Y-55893809D01*
X234301904Y-55846190D01*
X234254285Y-55750952D01*
X234635238Y-53210952D02*
X234730476Y-53163333D01*
X234778095Y-53115714D01*
X234825714Y-53020476D01*
X234825714Y-52972857D01*
X234778095Y-52877619D01*
X234730476Y-52830000D01*
X234635238Y-52782380D01*
X234444761Y-52782380D01*
X234349523Y-52830000D01*
X234301904Y-52877619D01*
X234254285Y-52972857D01*
X234254285Y-53020476D01*
X234301904Y-53115714D01*
X234349523Y-53163333D01*
X234444761Y-53210952D01*
X234635238Y-53210952D01*
X234730476Y-53258571D01*
X234778095Y-53306190D01*
X234825714Y-53401428D01*
X234825714Y-53591904D01*
X234778095Y-53687142D01*
X234730476Y-53734761D01*
X234635238Y-53782380D01*
X234444761Y-53782380D01*
X234349523Y-53734761D01*
X234301904Y-53687142D01*
X234254285Y-53591904D01*
X234254285Y-53401428D01*
X234301904Y-53306190D01*
X234349523Y-53258571D01*
X234444761Y-53210952D01*
X234873333Y-50242380D02*
X234206666Y-50242380D01*
X234635238Y-51242380D01*
X234349523Y-47702380D02*
X234540000Y-47702380D01*
X234635238Y-47750000D01*
X234682857Y-47797619D01*
X234778095Y-47940476D01*
X234825714Y-48130952D01*
X234825714Y-48511904D01*
X234778095Y-48607142D01*
X234730476Y-48654761D01*
X234635238Y-48702380D01*
X234444761Y-48702380D01*
X234349523Y-48654761D01*
X234301904Y-48607142D01*
X234254285Y-48511904D01*
X234254285Y-48273809D01*
X234301904Y-48178571D01*
X234349523Y-48130952D01*
X234444761Y-48083333D01*
X234635238Y-48083333D01*
X234730476Y-48130952D01*
X234778095Y-48178571D01*
X234825714Y-48273809D01*
X234301904Y-45162380D02*
X234778095Y-45162380D01*
X234825714Y-45638571D01*
X234778095Y-45590952D01*
X234682857Y-45543333D01*
X234444761Y-45543333D01*
X234349523Y-45590952D01*
X234301904Y-45638571D01*
X234254285Y-45733809D01*
X234254285Y-45971904D01*
X234301904Y-46067142D01*
X234349523Y-46114761D01*
X234444761Y-46162380D01*
X234682857Y-46162380D01*
X234778095Y-46114761D01*
X234825714Y-46067142D01*
X234349523Y-42955714D02*
X234349523Y-43622380D01*
X234587619Y-42574761D02*
X234825714Y-43289047D01*
X234206666Y-43289047D01*
X234873333Y-40082380D02*
X234254285Y-40082380D01*
X234587619Y-40463333D01*
X234444761Y-40463333D01*
X234349523Y-40510952D01*
X234301904Y-40558571D01*
X234254285Y-40653809D01*
X234254285Y-40891904D01*
X234301904Y-40987142D01*
X234349523Y-41034761D01*
X234444761Y-41082380D01*
X234730476Y-41082380D01*
X234825714Y-41034761D01*
X234873333Y-40987142D01*
X234825714Y-37637619D02*
X234778095Y-37590000D01*
X234682857Y-37542380D01*
X234444761Y-37542380D01*
X234349523Y-37590000D01*
X234301904Y-37637619D01*
X234254285Y-37732857D01*
X234254285Y-37828095D01*
X234301904Y-37970952D01*
X234873333Y-38542380D01*
X234254285Y-38542380D01*
X234254285Y-36002380D02*
X234825714Y-36002380D01*
X234540000Y-36002380D02*
X234540000Y-35002380D01*
X234635238Y-35145238D01*
X234730476Y-35240476D01*
X234825714Y-35288095D01*
X130828571Y-32938571D02*
X130685714Y-32986190D01*
X130638095Y-33033809D01*
X130590476Y-33129047D01*
X130590476Y-33271904D01*
X130638095Y-33367142D01*
X130685714Y-33414761D01*
X130780952Y-33462380D01*
X131161904Y-33462380D01*
X131161904Y-32462380D01*
X130828571Y-32462380D01*
X130733333Y-32510000D01*
X130685714Y-32557619D01*
X130638095Y-32652857D01*
X130638095Y-32748095D01*
X130685714Y-32843333D01*
X130733333Y-32890952D01*
X130828571Y-32938571D01*
X131161904Y-32938571D01*
X130161904Y-33462380D02*
X130161904Y-32462380D01*
X129923809Y-32462380D01*
X129780952Y-32510000D01*
X129685714Y-32605238D01*
X129638095Y-32700476D01*
X129590476Y-32890952D01*
X129590476Y-33033809D01*
X129638095Y-33224285D01*
X129685714Y-33319523D01*
X129780952Y-33414761D01*
X129923809Y-33462380D01*
X130161904Y-33462380D01*
X133368571Y-32938571D02*
X133225714Y-32986190D01*
X133178095Y-33033809D01*
X133130476Y-33129047D01*
X133130476Y-33271904D01*
X133178095Y-33367142D01*
X133225714Y-33414761D01*
X133320952Y-33462380D01*
X133701904Y-33462380D01*
X133701904Y-32462380D01*
X133368571Y-32462380D01*
X133273333Y-32510000D01*
X133225714Y-32557619D01*
X133178095Y-32652857D01*
X133178095Y-32748095D01*
X133225714Y-32843333D01*
X133273333Y-32890952D01*
X133368571Y-32938571D01*
X133701904Y-32938571D01*
X132130476Y-33367142D02*
X132178095Y-33414761D01*
X132320952Y-33462380D01*
X132416190Y-33462380D01*
X132559047Y-33414761D01*
X132654285Y-33319523D01*
X132701904Y-33224285D01*
X132749523Y-33033809D01*
X132749523Y-32890952D01*
X132701904Y-32700476D01*
X132654285Y-32605238D01*
X132559047Y-32510000D01*
X132416190Y-32462380D01*
X132320952Y-32462380D01*
X132178095Y-32510000D01*
X132130476Y-32557619D01*
X135908571Y-32938571D02*
X135765714Y-32986190D01*
X135718095Y-33033809D01*
X135670476Y-33129047D01*
X135670476Y-33271904D01*
X135718095Y-33367142D01*
X135765714Y-33414761D01*
X135860952Y-33462380D01*
X136241904Y-33462380D01*
X136241904Y-32462380D01*
X135908571Y-32462380D01*
X135813333Y-32510000D01*
X135765714Y-32557619D01*
X135718095Y-32652857D01*
X135718095Y-32748095D01*
X135765714Y-32843333D01*
X135813333Y-32890952D01*
X135908571Y-32938571D01*
X136241904Y-32938571D01*
X134908571Y-32938571D02*
X134765714Y-32986190D01*
X134718095Y-33033809D01*
X134670476Y-33129047D01*
X134670476Y-33271904D01*
X134718095Y-33367142D01*
X134765714Y-33414761D01*
X134860952Y-33462380D01*
X135241904Y-33462380D01*
X135241904Y-32462380D01*
X134908571Y-32462380D01*
X134813333Y-32510000D01*
X134765714Y-32557619D01*
X134718095Y-32652857D01*
X134718095Y-32748095D01*
X134765714Y-32843333D01*
X134813333Y-32890952D01*
X134908571Y-32938571D01*
X135241904Y-32938571D01*
X138377142Y-32938571D02*
X138234285Y-32986190D01*
X138186666Y-33033809D01*
X138139047Y-33129047D01*
X138139047Y-33271904D01*
X138186666Y-33367142D01*
X138234285Y-33414761D01*
X138329523Y-33462380D01*
X138710476Y-33462380D01*
X138710476Y-32462380D01*
X138377142Y-32462380D01*
X138281904Y-32510000D01*
X138234285Y-32557619D01*
X138186666Y-32652857D01*
X138186666Y-32748095D01*
X138234285Y-32843333D01*
X138281904Y-32890952D01*
X138377142Y-32938571D01*
X138710476Y-32938571D01*
X137758095Y-33176666D02*
X137281904Y-33176666D01*
X137853333Y-33462380D02*
X137520000Y-32462380D01*
X137186666Y-33462380D01*
X141226666Y-33176666D02*
X140750476Y-33176666D01*
X141321904Y-33462380D02*
X140988571Y-32462380D01*
X140655238Y-33462380D01*
X140131428Y-32986190D02*
X140131428Y-33462380D01*
X140464761Y-32462380D02*
X140131428Y-32986190D01*
X139798095Y-32462380D01*
X143909523Y-33176666D02*
X143433333Y-33176666D01*
X144004761Y-33462380D02*
X143671428Y-32462380D01*
X143338095Y-33462380D01*
X143100000Y-32462380D02*
X142861904Y-33462380D01*
X142671428Y-32748095D01*
X142480952Y-33462380D01*
X142242857Y-32462380D01*
X146306666Y-33176666D02*
X145830476Y-33176666D01*
X146401904Y-33462380D02*
X146068571Y-32462380D01*
X145735238Y-33462380D01*
X145544761Y-32462380D02*
X145211428Y-33462380D01*
X144878095Y-32462380D01*
X148941904Y-33176666D02*
X148465714Y-33176666D01*
X149037142Y-33462380D02*
X148703809Y-32462380D01*
X148370476Y-33462380D01*
X148037142Y-32462380D02*
X148037142Y-33271904D01*
X147989523Y-33367142D01*
X147941904Y-33414761D01*
X147846666Y-33462380D01*
X147656190Y-33462380D01*
X147560952Y-33414761D01*
X147513333Y-33367142D01*
X147465714Y-33271904D01*
X147465714Y-32462380D01*
X151339047Y-33176666D02*
X150862857Y-33176666D01*
X151434285Y-33462380D02*
X151100952Y-32462380D01*
X150767619Y-33462380D01*
X150577142Y-32462380D02*
X150005714Y-32462380D01*
X150291428Y-33462380D02*
X150291428Y-32462380D01*
X153998095Y-33176666D02*
X153521904Y-33176666D01*
X154093333Y-33462380D02*
X153760000Y-32462380D01*
X153426666Y-33462380D01*
X152521904Y-33462380D02*
X152855238Y-32986190D01*
X153093333Y-33462380D02*
X153093333Y-32462380D01*
X152712380Y-32462380D01*
X152617142Y-32510000D01*
X152569523Y-32557619D01*
X152521904Y-32652857D01*
X152521904Y-32795714D01*
X152569523Y-32890952D01*
X152617142Y-32938571D01*
X152712380Y-32986190D01*
X153093333Y-32986190D01*
X156538095Y-33176666D02*
X156061904Y-33176666D01*
X156633333Y-33462380D02*
X156300000Y-32462380D01*
X155966666Y-33462380D01*
X155633333Y-33462380D02*
X155633333Y-32462380D01*
X155252380Y-32462380D01*
X155157142Y-32510000D01*
X155109523Y-32557619D01*
X155061904Y-32652857D01*
X155061904Y-32795714D01*
X155109523Y-32890952D01*
X155157142Y-32938571D01*
X155252380Y-32986190D01*
X155633333Y-32986190D01*
X159101904Y-33176666D02*
X158625714Y-33176666D01*
X159197142Y-33462380D02*
X158863809Y-32462380D01*
X158530476Y-33462380D01*
X158197142Y-33462380D02*
X158197142Y-32462380D01*
X157625714Y-33462380D01*
X157625714Y-32462380D01*
X161689523Y-33176666D02*
X161213333Y-33176666D01*
X161784761Y-33462380D02*
X161451428Y-32462380D01*
X161118095Y-33462380D01*
X160784761Y-33462380D02*
X160784761Y-32462380D01*
X160451428Y-33176666D01*
X160118095Y-32462380D01*
X160118095Y-33462380D01*
X164062857Y-33176666D02*
X163586666Y-33176666D01*
X164158095Y-33462380D02*
X163824761Y-32462380D01*
X163491428Y-33462380D01*
X162681904Y-33462380D02*
X163158095Y-33462380D01*
X163158095Y-32462380D01*
X166698095Y-33176666D02*
X166221904Y-33176666D01*
X166793333Y-33462380D02*
X166460000Y-32462380D01*
X166126666Y-33462380D01*
X165793333Y-33462380D02*
X165793333Y-32462380D01*
X165221904Y-33462380D02*
X165650476Y-32890952D01*
X165221904Y-32462380D02*
X165793333Y-33033809D01*
X169119047Y-33176666D02*
X168642857Y-33176666D01*
X169214285Y-33462380D02*
X168880952Y-32462380D01*
X168547619Y-33462380D01*
X167928571Y-32462380D02*
X167928571Y-33176666D01*
X167976190Y-33319523D01*
X168071428Y-33414761D01*
X168214285Y-33462380D01*
X168309523Y-33462380D01*
X171801904Y-33176666D02*
X171325714Y-33176666D01*
X171897142Y-33462380D02*
X171563809Y-32462380D01*
X171230476Y-33462380D01*
X170897142Y-33462380D02*
X170897142Y-32462380D01*
X170897142Y-32938571D02*
X170325714Y-32938571D01*
X170325714Y-33462380D02*
X170325714Y-32462380D01*
X174318095Y-33176666D02*
X173841904Y-33176666D01*
X174413333Y-33462380D02*
X174080000Y-32462380D01*
X173746666Y-33462380D01*
X172889523Y-32510000D02*
X172984761Y-32462380D01*
X173127619Y-32462380D01*
X173270476Y-32510000D01*
X173365714Y-32605238D01*
X173413333Y-32700476D01*
X173460952Y-32890952D01*
X173460952Y-33033809D01*
X173413333Y-33224285D01*
X173365714Y-33319523D01*
X173270476Y-33414761D01*
X173127619Y-33462380D01*
X173032380Y-33462380D01*
X172889523Y-33414761D01*
X172841904Y-33367142D01*
X172841904Y-33033809D01*
X173032380Y-33033809D01*
X176786666Y-33176666D02*
X176310476Y-33176666D01*
X176881904Y-33462380D02*
X176548571Y-32462380D01*
X176215238Y-33462380D01*
X175548571Y-32938571D02*
X175881904Y-32938571D01*
X175881904Y-33462380D02*
X175881904Y-32462380D01*
X175405714Y-32462380D01*
X179350476Y-33176666D02*
X178874285Y-33176666D01*
X179445714Y-33462380D02*
X179112380Y-32462380D01*
X178779047Y-33462380D01*
X178445714Y-32938571D02*
X178112380Y-32938571D01*
X177969523Y-33462380D02*
X178445714Y-33462380D01*
X178445714Y-32462380D01*
X177969523Y-32462380D01*
X181938095Y-33176666D02*
X181461904Y-33176666D01*
X182033333Y-33462380D02*
X181700000Y-32462380D01*
X181366666Y-33462380D01*
X181033333Y-33462380D02*
X181033333Y-32462380D01*
X180795238Y-32462380D01*
X180652380Y-32510000D01*
X180557142Y-32605238D01*
X180509523Y-32700476D01*
X180461904Y-32890952D01*
X180461904Y-33033809D01*
X180509523Y-33224285D01*
X180557142Y-33319523D01*
X180652380Y-33414761D01*
X180795238Y-33462380D01*
X181033333Y-33462380D01*
X184478095Y-33176666D02*
X184001904Y-33176666D01*
X184573333Y-33462380D02*
X184240000Y-32462380D01*
X183906666Y-33462380D01*
X183001904Y-33367142D02*
X183049523Y-33414761D01*
X183192380Y-33462380D01*
X183287619Y-33462380D01*
X183430476Y-33414761D01*
X183525714Y-33319523D01*
X183573333Y-33224285D01*
X183620952Y-33033809D01*
X183620952Y-32890952D01*
X183573333Y-32700476D01*
X183525714Y-32605238D01*
X183430476Y-32510000D01*
X183287619Y-32462380D01*
X183192380Y-32462380D01*
X183049523Y-32510000D01*
X183001904Y-32557619D01*
X187018095Y-33176666D02*
X186541904Y-33176666D01*
X187113333Y-33462380D02*
X186780000Y-32462380D01*
X186446666Y-33462380D01*
X185780000Y-32938571D02*
X185637142Y-32986190D01*
X185589523Y-33033809D01*
X185541904Y-33129047D01*
X185541904Y-33271904D01*
X185589523Y-33367142D01*
X185637142Y-33414761D01*
X185732380Y-33462380D01*
X186113333Y-33462380D01*
X186113333Y-32462380D01*
X185780000Y-32462380D01*
X185684761Y-32510000D01*
X185637142Y-32557619D01*
X185589523Y-32652857D01*
X185589523Y-32748095D01*
X185637142Y-32843333D01*
X185684761Y-32890952D01*
X185780000Y-32938571D01*
X186113333Y-32938571D01*
X189486666Y-33176666D02*
X189010476Y-33176666D01*
X189581904Y-33462380D02*
X189248571Y-32462380D01*
X188915238Y-33462380D01*
X188629523Y-33176666D02*
X188153333Y-33176666D01*
X188724761Y-33462380D02*
X188391428Y-32462380D01*
X188058095Y-33462380D01*
X191360000Y-32986190D02*
X191360000Y-33462380D01*
X191693333Y-32462380D02*
X191360000Y-32986190D01*
X191026666Y-32462380D01*
X196773333Y-32462380D02*
X196440000Y-33462380D01*
X196106666Y-32462380D01*
X194328571Y-32462380D02*
X194090476Y-33462380D01*
X193900000Y-32748095D01*
X193709523Y-33462380D01*
X193471428Y-32462380D01*
X199265714Y-32462380D02*
X199265714Y-33271904D01*
X199218095Y-33367142D01*
X199170476Y-33414761D01*
X199075238Y-33462380D01*
X198884761Y-33462380D01*
X198789523Y-33414761D01*
X198741904Y-33367142D01*
X198694285Y-33271904D01*
X198694285Y-32462380D01*
X201805714Y-32462380D02*
X201234285Y-32462380D01*
X201520000Y-33462380D02*
X201520000Y-32462380D01*
X203750476Y-33462380D02*
X204083809Y-32986190D01*
X204321904Y-33462380D02*
X204321904Y-32462380D01*
X203940952Y-32462380D01*
X203845714Y-32510000D01*
X203798095Y-32557619D01*
X203750476Y-32652857D01*
X203750476Y-32795714D01*
X203798095Y-32890952D01*
X203845714Y-32938571D01*
X203940952Y-32986190D01*
X204321904Y-32986190D01*
X206861904Y-33462380D02*
X206861904Y-32462380D01*
X206480952Y-32462380D01*
X206385714Y-32510000D01*
X206338095Y-32557619D01*
X206290476Y-32652857D01*
X206290476Y-32795714D01*
X206338095Y-32890952D01*
X206385714Y-32938571D01*
X206480952Y-32986190D01*
X206861904Y-32986190D01*
X209425714Y-33462380D02*
X209425714Y-32462380D01*
X208854285Y-33462380D01*
X208854285Y-32462380D01*
X212013333Y-33462380D02*
X212013333Y-32462380D01*
X211680000Y-33176666D01*
X211346666Y-32462380D01*
X211346666Y-33462380D01*
X213910476Y-33462380D02*
X214386666Y-33462380D01*
X214386666Y-32462380D01*
X217021904Y-33462380D02*
X217021904Y-32462380D01*
X216450476Y-33462380D02*
X216879047Y-32890952D01*
X216450476Y-32462380D02*
X217021904Y-33033809D01*
X219157142Y-32462380D02*
X219157142Y-33176666D01*
X219204761Y-33319523D01*
X219300000Y-33414761D01*
X219442857Y-33462380D01*
X219538095Y-33462380D01*
X222125714Y-33462380D02*
X222125714Y-32462380D01*
X222125714Y-32938571D02*
X221554285Y-32938571D01*
X221554285Y-33462380D02*
X221554285Y-32462380D01*
X224118095Y-32510000D02*
X224213333Y-32462380D01*
X224356190Y-32462380D01*
X224499047Y-32510000D01*
X224594285Y-32605238D01*
X224641904Y-32700476D01*
X224689523Y-32890952D01*
X224689523Y-33033809D01*
X224641904Y-33224285D01*
X224594285Y-33319523D01*
X224499047Y-33414761D01*
X224356190Y-33462380D01*
X224260952Y-33462380D01*
X224118095Y-33414761D01*
X224070476Y-33367142D01*
X224070476Y-33033809D01*
X224260952Y-33033809D01*
X226777142Y-32938571D02*
X227110476Y-32938571D01*
X227110476Y-33462380D02*
X227110476Y-32462380D01*
X226634285Y-32462380D01*
X229674285Y-32938571D02*
X229340952Y-32938571D01*
X229198095Y-33462380D02*
X229674285Y-33462380D01*
X229674285Y-32462380D01*
X229198095Y-32462380D01*
X232261904Y-33462380D02*
X232261904Y-32462380D01*
X232023809Y-32462380D01*
X231880952Y-32510000D01*
X231785714Y-32605238D01*
X231738095Y-32700476D01*
X231690476Y-32890952D01*
X231690476Y-33033809D01*
X231738095Y-33224285D01*
X231785714Y-33319523D01*
X231880952Y-33414761D01*
X232023809Y-33462380D01*
X232261904Y-33462380D01*
G36*
X220189000Y-125339000D02*
G01*
X218411000Y-125339000D01*
X218411000Y-80381000D01*
X220189000Y-80381000D01*
X220189000Y-125339000D01*
G37*
D11*
X220189000Y-125339000D02*
X218411000Y-125339000D01*
X218411000Y-80381000D01*
X220189000Y-80381000D01*
X220189000Y-125339000D01*
G36*
X217649000Y-125339000D02*
G01*
X215871000Y-125339000D01*
X215871000Y-80381000D01*
X217649000Y-80381000D01*
X217649000Y-125339000D01*
G37*
X217649000Y-125339000D02*
X215871000Y-125339000D01*
X215871000Y-80381000D01*
X217649000Y-80381000D01*
X217649000Y-125339000D01*
G36*
X199869000Y-125339000D02*
G01*
X198091000Y-125339000D01*
X198091000Y-80381000D01*
X199869000Y-80381000D01*
X199869000Y-125339000D01*
G37*
X199869000Y-125339000D02*
X198091000Y-125339000D01*
X198091000Y-80381000D01*
X199869000Y-80381000D01*
X199869000Y-125339000D01*
G36*
X197329000Y-125339000D02*
G01*
X195551000Y-125339000D01*
X195551000Y-80381000D01*
X197329000Y-80381000D01*
X197329000Y-125339000D01*
G37*
X197329000Y-125339000D02*
X195551000Y-125339000D01*
X195551000Y-80381000D01*
X197329000Y-80381000D01*
X197329000Y-125339000D01*
G36*
X179549000Y-125339000D02*
G01*
X177771000Y-125339000D01*
X177771000Y-80381000D01*
X179549000Y-80381000D01*
X179549000Y-125339000D01*
G37*
X179549000Y-125339000D02*
X177771000Y-125339000D01*
X177771000Y-80381000D01*
X179549000Y-80381000D01*
X179549000Y-125339000D01*
G36*
X177009000Y-125339000D02*
G01*
X175231000Y-125339000D01*
X175231000Y-80381000D01*
X177009000Y-80381000D01*
X177009000Y-125339000D01*
G37*
X177009000Y-125339000D02*
X175231000Y-125339000D01*
X175231000Y-80381000D01*
X177009000Y-80381000D01*
X177009000Y-125339000D01*
G36*
X159229000Y-125339000D02*
G01*
X157451000Y-125339000D01*
X157451000Y-80381000D01*
X159229000Y-80381000D01*
X159229000Y-125339000D01*
G37*
X159229000Y-125339000D02*
X157451000Y-125339000D01*
X157451000Y-80381000D01*
X159229000Y-80381000D01*
X159229000Y-125339000D01*
G36*
X156689000Y-125339000D02*
G01*
X154911000Y-125339000D01*
X154911000Y-80381000D01*
X156689000Y-80381000D01*
X156689000Y-125339000D01*
G37*
X156689000Y-125339000D02*
X154911000Y-125339000D01*
X154911000Y-80381000D01*
X156689000Y-80381000D01*
X156689000Y-125339000D01*
G36*
X138909000Y-125339000D02*
G01*
X137131000Y-125339000D01*
X137131000Y-80381000D01*
X138909000Y-80381000D01*
X138909000Y-125339000D01*
G37*
X138909000Y-125339000D02*
X137131000Y-125339000D01*
X137131000Y-80381000D01*
X138909000Y-80381000D01*
X138909000Y-125339000D01*
G36*
X136369000Y-125339000D02*
G01*
X134591000Y-125339000D01*
X134591000Y-80381000D01*
X136369000Y-80381000D01*
X136369000Y-125339000D01*
G37*
X136369000Y-125339000D02*
X134591000Y-125339000D01*
X134591000Y-80381000D01*
X136369000Y-80381000D01*
X136369000Y-125339000D01*
G36*
X217649000Y-79619000D02*
G01*
X215871000Y-79619000D01*
X215871000Y-34661000D01*
X217649000Y-34661000D01*
X217649000Y-79619000D01*
G37*
X217649000Y-79619000D02*
X215871000Y-79619000D01*
X215871000Y-34661000D01*
X217649000Y-34661000D01*
X217649000Y-79619000D01*
G36*
X199869000Y-79619000D02*
G01*
X198091000Y-79619000D01*
X198091000Y-34661000D01*
X199869000Y-34661000D01*
X199869000Y-79619000D01*
G37*
X199869000Y-79619000D02*
X198091000Y-79619000D01*
X198091000Y-34661000D01*
X199869000Y-34661000D01*
X199869000Y-79619000D01*
G36*
X197329000Y-79619000D02*
G01*
X195551000Y-79619000D01*
X195551000Y-34661000D01*
X197329000Y-34661000D01*
X197329000Y-79619000D01*
G37*
X197329000Y-79619000D02*
X195551000Y-79619000D01*
X195551000Y-34661000D01*
X197329000Y-34661000D01*
X197329000Y-79619000D01*
G36*
X179549000Y-79619000D02*
G01*
X177771000Y-79619000D01*
X177771000Y-34661000D01*
X179549000Y-34661000D01*
X179549000Y-79619000D01*
G37*
X179549000Y-79619000D02*
X177771000Y-79619000D01*
X177771000Y-34661000D01*
X179549000Y-34661000D01*
X179549000Y-79619000D01*
G36*
X177009000Y-79619000D02*
G01*
X175231000Y-79619000D01*
X175231000Y-34661000D01*
X177009000Y-34661000D01*
X177009000Y-79619000D01*
G37*
X177009000Y-79619000D02*
X175231000Y-79619000D01*
X175231000Y-34661000D01*
X177009000Y-34661000D01*
X177009000Y-79619000D01*
G36*
X159229000Y-79619000D02*
G01*
X157451000Y-79619000D01*
X157451000Y-34661000D01*
X159229000Y-34661000D01*
X159229000Y-79619000D01*
G37*
X159229000Y-79619000D02*
X157451000Y-79619000D01*
X157451000Y-34661000D01*
X159229000Y-34661000D01*
X159229000Y-79619000D01*
G36*
X156689000Y-79619000D02*
G01*
X154911000Y-79619000D01*
X154911000Y-34661000D01*
X156689000Y-34661000D01*
X156689000Y-79619000D01*
G37*
X156689000Y-79619000D02*
X154911000Y-79619000D01*
X154911000Y-34661000D01*
X156689000Y-34661000D01*
X156689000Y-79619000D01*
G36*
X138909000Y-79619000D02*
G01*
X137131000Y-79619000D01*
X137131000Y-34661000D01*
X138909000Y-34661000D01*
X138909000Y-79619000D01*
G37*
X138909000Y-79619000D02*
X137131000Y-79619000D01*
X137131000Y-34661000D01*
X138909000Y-34661000D01*
X138909000Y-79619000D01*
G36*
X136369000Y-79619000D02*
G01*
X134591000Y-79619000D01*
X134591000Y-34661000D01*
X136369000Y-34661000D01*
X136369000Y-79619000D01*
G37*
X136369000Y-79619000D02*
X134591000Y-79619000D01*
X134591000Y-34661000D01*
X136369000Y-34661000D01*
X136369000Y-79619000D01*
G36*
X220189000Y-79619000D02*
G01*
X218411000Y-79619000D01*
X218411000Y-34661000D01*
X220189000Y-34661000D01*
X220189000Y-79619000D01*
G37*
X220189000Y-79619000D02*
X218411000Y-79619000D01*
X218411000Y-34661000D01*
X220189000Y-34661000D01*
X220189000Y-79619000D01*
%LPC*%
D12*
X240697056Y-123302944D03*
X239000000Y-122600000D03*
X237302944Y-123302944D03*
X236600000Y-125000000D03*
X237302944Y-126697056D03*
X239000000Y-127400000D03*
X240697056Y-126697056D03*
X241400000Y-125000000D03*
D13*
X239000000Y-125000000D03*
X115000000Y-125000000D03*
D12*
X117400000Y-125000000D03*
X116697056Y-126697056D03*
X115000000Y-127400000D03*
X113302944Y-126697056D03*
X112600000Y-125000000D03*
X113302944Y-123302944D03*
X115000000Y-122600000D03*
X116697056Y-123302944D03*
X116697056Y-33302944D03*
X115000000Y-32600000D03*
X113302944Y-33302944D03*
X112600000Y-35000000D03*
X113302944Y-36697056D03*
X115000000Y-37400000D03*
X116697056Y-36697056D03*
X117400000Y-35000000D03*
D13*
X115000000Y-35000000D03*
X239000000Y-35000000D03*
D12*
X241400000Y-35000000D03*
X240697056Y-36697056D03*
X239000000Y-37400000D03*
X237302944Y-36697056D03*
X236600000Y-35000000D03*
X237302944Y-33302944D03*
X239000000Y-32600000D03*
X240697056Y-33302944D03*
D14*
X239620000Y-119370000D03*
X239620000Y-91430000D03*
X239620000Y-68570000D03*
X239620000Y-71110000D03*
X239620000Y-114290000D03*
X239620000Y-109210000D03*
X239620000Y-111750000D03*
X239620000Y-78730000D03*
X239620000Y-81270000D03*
X239620000Y-55870000D03*
X239620000Y-58410000D03*
X239620000Y-60950000D03*
X239620000Y-86350000D03*
X239620000Y-88890000D03*
X239620000Y-99050000D03*
X239620000Y-93970000D03*
X239620000Y-96510000D03*
X239620000Y-63490000D03*
X239620000Y-66030000D03*
X239620000Y-116830000D03*
X239620000Y-83810000D03*
X239620000Y-43170000D03*
X239620000Y-45710000D03*
X239620000Y-48250000D03*
X239620000Y-73650000D03*
X239620000Y-76190000D03*
X239620000Y-40630000D03*
X239620000Y-50790000D03*
X239620000Y-53330000D03*
X239620000Y-106670000D03*
X239620000Y-101590000D03*
X239620000Y-104130000D03*
G36*
G01*
X243850000Y-39730000D02*
X245550000Y-39730000D01*
G75*
G02*
X245600000Y-39780000I0J-50000D01*
G01*
X245600000Y-41480000D01*
G75*
G02*
X245550000Y-41530000I-50000J0D01*
G01*
X243850000Y-41530000D01*
G75*
G02*
X243800000Y-41480000I0J50000D01*
G01*
X243800000Y-39780000D01*
G75*
G02*
X243850000Y-39730000I50000J0D01*
G01*
G37*
X242160000Y-40630000D03*
X244700000Y-43170000D03*
X242160000Y-43170000D03*
X244700000Y-45710000D03*
X242160000Y-45710000D03*
X244700000Y-48250000D03*
X242160000Y-48250000D03*
X244700000Y-50790000D03*
X242160000Y-50790000D03*
X244700000Y-53330000D03*
X242160000Y-53330000D03*
X244700000Y-55870000D03*
X242160000Y-55870000D03*
X244700000Y-58410000D03*
X242160000Y-58410000D03*
X244700000Y-60950000D03*
X242160000Y-60950000D03*
X244700000Y-63490000D03*
X242160000Y-63490000D03*
X244700000Y-66030000D03*
X242160000Y-66030000D03*
X244700000Y-68570000D03*
X242160000Y-68570000D03*
X244700000Y-71110000D03*
X242160000Y-71110000D03*
X244700000Y-73650000D03*
X242160000Y-73650000D03*
X244700000Y-76190000D03*
X242160000Y-76190000D03*
X244700000Y-78730000D03*
X242160000Y-78730000D03*
X244700000Y-81270000D03*
X242160000Y-81270000D03*
X244700000Y-83810000D03*
X242160000Y-83810000D03*
X244700000Y-86350000D03*
X242160000Y-86350000D03*
X244700000Y-88890000D03*
X242160000Y-88890000D03*
X244700000Y-91430000D03*
X242160000Y-91430000D03*
X244700000Y-93970000D03*
X242160000Y-93970000D03*
X244700000Y-96510000D03*
X242160000Y-96510000D03*
X244700000Y-99050000D03*
X242160000Y-99050000D03*
X244700000Y-101590000D03*
X242160000Y-101590000D03*
X244700000Y-104130000D03*
X242160000Y-104130000D03*
X244700000Y-106670000D03*
X242160000Y-106670000D03*
X244700000Y-109210000D03*
X242160000Y-109210000D03*
X244700000Y-111750000D03*
X242160000Y-111750000D03*
X244700000Y-114290000D03*
X242160000Y-114290000D03*
X244700000Y-116830000D03*
X242160000Y-116830000D03*
X244700000Y-119370000D03*
X242160000Y-119370000D03*
D15*
X247240000Y-35550000D03*
X247240000Y-124450000D03*
D14*
X216760000Y-124450000D03*
X196440000Y-124450000D03*
X198980000Y-124450000D03*
X219300000Y-124450000D03*
X178660000Y-124450000D03*
X158340000Y-124450000D03*
X176120000Y-124450000D03*
X135480000Y-124450000D03*
X155800000Y-124450000D03*
X138020000Y-124450000D03*
X219300000Y-121910000D03*
X135480000Y-121910000D03*
X138020000Y-121910000D03*
X198980000Y-121910000D03*
X178660000Y-121910000D03*
X158340000Y-121910000D03*
X196440000Y-121910000D03*
X155800000Y-121910000D03*
X216760000Y-121910000D03*
X176120000Y-121910000D03*
X219300000Y-119370000D03*
X176120000Y-119370000D03*
X196440000Y-119370000D03*
X135480000Y-119370000D03*
X155800000Y-119370000D03*
X158340000Y-119370000D03*
X198980000Y-119370000D03*
X178660000Y-119370000D03*
X138020000Y-119370000D03*
X216760000Y-119370000D03*
X219300000Y-116830000D03*
X138020000Y-116830000D03*
X158340000Y-116830000D03*
X155800000Y-116830000D03*
X178660000Y-116830000D03*
X135480000Y-116830000D03*
X176120000Y-116830000D03*
X196440000Y-116830000D03*
X216760000Y-116830000D03*
X198980000Y-116830000D03*
X176120000Y-114290000D03*
X155800000Y-114290000D03*
X216760000Y-114290000D03*
X178660000Y-114290000D03*
X219300000Y-114290000D03*
X138020000Y-114290000D03*
X135480000Y-114290000D03*
X196440000Y-114290000D03*
X198980000Y-114290000D03*
X158340000Y-114290000D03*
X138020000Y-111750000D03*
X155800000Y-111750000D03*
X176120000Y-111750000D03*
X219300000Y-111750000D03*
X216760000Y-111750000D03*
X135480000Y-111750000D03*
X158340000Y-111750000D03*
X178660000Y-111750000D03*
X196440000Y-111750000D03*
X198980000Y-111750000D03*
X219300000Y-109210000D03*
X135480000Y-109210000D03*
X176120000Y-109210000D03*
X216760000Y-109210000D03*
X138020000Y-109210000D03*
X198980000Y-109210000D03*
X178660000Y-109210000D03*
X196440000Y-109210000D03*
X158340000Y-109210000D03*
X155800000Y-109210000D03*
X155800000Y-106670000D03*
X198980000Y-106670000D03*
X135480000Y-106670000D03*
X216760000Y-106670000D03*
X158340000Y-106670000D03*
X138020000Y-106670000D03*
X196440000Y-106670000D03*
X219300000Y-106670000D03*
X178660000Y-106670000D03*
X176120000Y-106670000D03*
X198980000Y-104130000D03*
X178660000Y-104130000D03*
X135480000Y-104130000D03*
X176120000Y-104130000D03*
X219300000Y-104130000D03*
X196440000Y-104130000D03*
X155800000Y-104130000D03*
X158340000Y-104130000D03*
X138020000Y-104130000D03*
X216760000Y-104130000D03*
X138020000Y-101590000D03*
X176120000Y-101590000D03*
X219300000Y-101590000D03*
X198980000Y-101590000D03*
X158340000Y-101590000D03*
X196440000Y-101590000D03*
X178660000Y-101590000D03*
X216760000Y-101590000D03*
X135480000Y-101590000D03*
X155800000Y-101590000D03*
X216760000Y-99050000D03*
X178660000Y-99050000D03*
X176120000Y-99050000D03*
X135480000Y-99050000D03*
X198980000Y-99050000D03*
X158340000Y-99050000D03*
X138020000Y-99050000D03*
X196440000Y-99050000D03*
X155800000Y-99050000D03*
X219300000Y-99050000D03*
X178660000Y-96510000D03*
X138020000Y-96510000D03*
X216760000Y-96510000D03*
X198980000Y-96510000D03*
X158340000Y-96510000D03*
X155800000Y-96510000D03*
X219300000Y-96510000D03*
X196440000Y-96510000D03*
X135480000Y-96510000D03*
X176120000Y-96510000D03*
X178660000Y-93970000D03*
X158340000Y-93970000D03*
X176120000Y-93970000D03*
X138020000Y-93970000D03*
X219300000Y-93970000D03*
X198980000Y-93970000D03*
X216760000Y-93970000D03*
X135480000Y-93970000D03*
X155800000Y-93970000D03*
X196440000Y-93970000D03*
X158340000Y-91430000D03*
X135480000Y-91430000D03*
X155800000Y-91430000D03*
X138020000Y-91430000D03*
X198980000Y-91430000D03*
X196440000Y-91430000D03*
X176120000Y-91430000D03*
X178660000Y-91430000D03*
X219300000Y-91430000D03*
X216760000Y-91430000D03*
X216760000Y-88890000D03*
X158340000Y-88890000D03*
X138020000Y-88890000D03*
X196440000Y-88890000D03*
X135480000Y-88890000D03*
X176120000Y-88890000D03*
X198980000Y-88890000D03*
X219300000Y-88890000D03*
X178660000Y-88890000D03*
X155800000Y-88890000D03*
X158340000Y-86350000D03*
X138020000Y-86350000D03*
X178660000Y-86350000D03*
X196440000Y-86350000D03*
X219300000Y-86350000D03*
X135480000Y-86350000D03*
X155800000Y-86350000D03*
X198980000Y-86350000D03*
X216760000Y-86350000D03*
X176120000Y-86350000D03*
X219300000Y-83810000D03*
X216760000Y-83810000D03*
X198980000Y-83810000D03*
X196440000Y-83810000D03*
X178660000Y-83810000D03*
X176120000Y-83810000D03*
X158340000Y-83810000D03*
X155800000Y-83810000D03*
X135480000Y-83810000D03*
X138020000Y-83810000D03*
X176120000Y-35550000D03*
X155800000Y-35550000D03*
X178660000Y-35550000D03*
X135480000Y-35550000D03*
X198980000Y-35550000D03*
X138020000Y-35550000D03*
X196440000Y-35550000D03*
X158340000Y-35550000D03*
X176120000Y-38090000D03*
X135480000Y-38090000D03*
X155800000Y-38090000D03*
X158340000Y-38090000D03*
X178660000Y-38090000D03*
X198980000Y-38090000D03*
X138020000Y-38090000D03*
X196440000Y-38090000D03*
X155800000Y-40630000D03*
X196440000Y-40630000D03*
X178660000Y-40630000D03*
X198980000Y-40630000D03*
X158340000Y-40630000D03*
X176120000Y-40630000D03*
X138020000Y-40630000D03*
X135480000Y-40630000D03*
X196440000Y-43170000D03*
X176120000Y-43170000D03*
X178660000Y-43170000D03*
X135480000Y-43170000D03*
X198980000Y-43170000D03*
X138020000Y-43170000D03*
X158340000Y-43170000D03*
X155800000Y-43170000D03*
X155800000Y-45710000D03*
X176120000Y-45710000D03*
X158340000Y-45710000D03*
X198980000Y-45710000D03*
X135480000Y-45710000D03*
X178660000Y-45710000D03*
X196440000Y-45710000D03*
X138020000Y-45710000D03*
X198980000Y-48250000D03*
X158340000Y-48250000D03*
X178660000Y-48250000D03*
X196440000Y-48250000D03*
X135480000Y-48250000D03*
X138020000Y-48250000D03*
X176120000Y-48250000D03*
X155800000Y-48250000D03*
X176120000Y-50790000D03*
X196440000Y-50790000D03*
X178660000Y-50790000D03*
X138020000Y-50790000D03*
X155800000Y-50790000D03*
X135480000Y-50790000D03*
X158340000Y-50790000D03*
X198980000Y-50790000D03*
X135480000Y-53330000D03*
X158340000Y-53330000D03*
X138020000Y-53330000D03*
X176120000Y-53330000D03*
X196440000Y-53330000D03*
X198980000Y-53330000D03*
X178660000Y-53330000D03*
X155800000Y-53330000D03*
X178660000Y-55870000D03*
X198980000Y-55870000D03*
X138020000Y-55870000D03*
X158340000Y-55870000D03*
X196440000Y-55870000D03*
X176120000Y-55870000D03*
X135480000Y-55870000D03*
X155800000Y-55870000D03*
X178660000Y-58410000D03*
X196440000Y-58410000D03*
X155800000Y-58410000D03*
X176120000Y-58410000D03*
X138020000Y-58410000D03*
X158340000Y-58410000D03*
X135480000Y-58410000D03*
X198980000Y-58410000D03*
X196440000Y-60950000D03*
X135480000Y-60950000D03*
X176120000Y-60950000D03*
X198980000Y-60950000D03*
X138020000Y-60950000D03*
X178660000Y-60950000D03*
X155800000Y-60950000D03*
X158340000Y-60950000D03*
X178660000Y-63490000D03*
X158340000Y-63490000D03*
X135480000Y-63490000D03*
X155800000Y-63490000D03*
X176120000Y-63490000D03*
X138020000Y-63490000D03*
X198980000Y-63490000D03*
X196440000Y-63490000D03*
X155800000Y-66030000D03*
X198980000Y-66030000D03*
X178660000Y-66030000D03*
X135480000Y-66030000D03*
X138020000Y-66030000D03*
X196440000Y-66030000D03*
X158340000Y-66030000D03*
X176120000Y-66030000D03*
X135480000Y-68570000D03*
X196440000Y-68570000D03*
X155800000Y-68570000D03*
X176120000Y-68570000D03*
X138020000Y-68570000D03*
X158340000Y-68570000D03*
X178660000Y-68570000D03*
X198980000Y-68570000D03*
X158340000Y-71110000D03*
X196440000Y-71110000D03*
X176120000Y-71110000D03*
X138020000Y-71110000D03*
X155800000Y-71110000D03*
X198980000Y-71110000D03*
X135480000Y-71110000D03*
X178660000Y-71110000D03*
X155800000Y-73650000D03*
X158340000Y-73650000D03*
X198980000Y-73650000D03*
X135480000Y-73650000D03*
X138020000Y-73650000D03*
X196440000Y-73650000D03*
X178660000Y-73650000D03*
X176120000Y-73650000D03*
X198980000Y-76190000D03*
X196440000Y-76190000D03*
X178660000Y-76190000D03*
X176120000Y-76190000D03*
X158340000Y-76190000D03*
X155800000Y-76190000D03*
X135480000Y-76190000D03*
X138020000Y-76190000D03*
X216760000Y-35550000D03*
X216760000Y-38090000D03*
X216760000Y-55870000D03*
X216760000Y-48250000D03*
X216760000Y-50790000D03*
X216760000Y-58410000D03*
X216760000Y-45710000D03*
X216760000Y-53330000D03*
X216760000Y-43170000D03*
X216760000Y-40630000D03*
X216760000Y-66030000D03*
X216760000Y-60950000D03*
X216760000Y-68570000D03*
X216760000Y-63490000D03*
X216760000Y-71110000D03*
X216760000Y-73650000D03*
X216760000Y-76190000D03*
X219300000Y-38090000D03*
X219300000Y-35550000D03*
X219300000Y-43170000D03*
X219300000Y-45710000D03*
X219300000Y-58410000D03*
X219300000Y-40630000D03*
X219300000Y-48250000D03*
X219300000Y-50790000D03*
X219300000Y-55870000D03*
X219300000Y-53330000D03*
X219300000Y-68570000D03*
X219300000Y-60950000D03*
X219300000Y-66030000D03*
X219300000Y-63490000D03*
X219300000Y-73650000D03*
X219300000Y-71110000D03*
X219300000Y-76190000D03*
X120240000Y-88890000D03*
X120240000Y-40630000D03*
X120240000Y-78730000D03*
X122780000Y-83810000D03*
X120240000Y-60950000D03*
X122780000Y-40630000D03*
X122780000Y-58410000D03*
X122780000Y-45710000D03*
X122780000Y-35550000D03*
X122780000Y-66030000D03*
X120240000Y-101590000D03*
X120240000Y-58410000D03*
X122780000Y-55870000D03*
X120240000Y-99050000D03*
X122780000Y-101590000D03*
X122780000Y-106670000D03*
X120240000Y-116830000D03*
X122780000Y-78730000D03*
X120240000Y-66030000D03*
X122780000Y-48250000D03*
X120240000Y-81270000D03*
X122780000Y-53330000D03*
X122780000Y-71110000D03*
X122780000Y-50790000D03*
X120240000Y-111750000D03*
X120240000Y-55870000D03*
X122780000Y-68570000D03*
X122780000Y-119370000D03*
X120240000Y-43170000D03*
X120240000Y-48250000D03*
X122780000Y-116830000D03*
X122780000Y-38090000D03*
X122780000Y-96510000D03*
X120240000Y-53330000D03*
X120240000Y-86350000D03*
X120240000Y-104130000D03*
X120240000Y-68570000D03*
X120240000Y-96510000D03*
X120240000Y-38090000D03*
X120240000Y-83810000D03*
X120240000Y-93970000D03*
X122780000Y-121910000D03*
X122780000Y-91430000D03*
X122780000Y-86350000D03*
X120240000Y-114290000D03*
X120240000Y-63490000D03*
X120240000Y-91430000D03*
X120240000Y-50790000D03*
X122780000Y-109210000D03*
X122780000Y-76190000D03*
X120240000Y-106670000D03*
X122780000Y-124450000D03*
X122780000Y-43170000D03*
X120240000Y-76190000D03*
X122780000Y-104130000D03*
X122780000Y-60950000D03*
X122780000Y-88890000D03*
X122780000Y-73650000D03*
X120240000Y-109210000D03*
X122780000Y-93970000D03*
X122780000Y-114290000D03*
X120240000Y-121910000D03*
X122780000Y-81270000D03*
X120240000Y-73650000D03*
X122780000Y-111750000D03*
X122780000Y-63490000D03*
X120240000Y-45710000D03*
X120240000Y-71110000D03*
X120240000Y-119370000D03*
X122780000Y-99050000D03*
X125320000Y-53330000D03*
X125320000Y-86350000D03*
X125320000Y-104130000D03*
X125320000Y-68570000D03*
X125320000Y-96510000D03*
X125320000Y-38090000D03*
X125320000Y-83810000D03*
X125320000Y-93970000D03*
X127860000Y-121910000D03*
X127860000Y-91430000D03*
X127860000Y-86350000D03*
X125320000Y-114290000D03*
X125320000Y-63490000D03*
X125320000Y-91430000D03*
X125320000Y-50790000D03*
X127860000Y-109210000D03*
X127860000Y-76190000D03*
X125320000Y-106670000D03*
X127860000Y-124450000D03*
X127860000Y-43170000D03*
X125320000Y-76190000D03*
X127860000Y-104130000D03*
X127860000Y-60950000D03*
X127860000Y-88890000D03*
X127860000Y-73650000D03*
X125320000Y-109210000D03*
X127860000Y-93970000D03*
X127860000Y-114290000D03*
X125320000Y-121910000D03*
X127860000Y-81270000D03*
X125320000Y-73650000D03*
X130400000Y-53330000D03*
X130400000Y-86350000D03*
X127860000Y-111750000D03*
X127860000Y-63490000D03*
X130400000Y-104130000D03*
X125320000Y-45710000D03*
X130400000Y-68570000D03*
X125320000Y-71110000D03*
X125320000Y-124450000D03*
X125320000Y-119370000D03*
X130400000Y-96510000D03*
X130400000Y-38090000D03*
X127860000Y-55870000D03*
X125320000Y-99050000D03*
X130400000Y-111750000D03*
X130400000Y-83810000D03*
X127860000Y-101590000D03*
X127860000Y-106670000D03*
X125320000Y-116830000D03*
X127860000Y-78730000D03*
X130400000Y-93970000D03*
X125320000Y-66030000D03*
X127860000Y-48250000D03*
X125320000Y-81270000D03*
X127860000Y-53330000D03*
X132940000Y-121910000D03*
X132940000Y-91430000D03*
X127860000Y-71110000D03*
X132940000Y-86350000D03*
X132940000Y-99050000D03*
X130400000Y-50790000D03*
X132940000Y-109210000D03*
X132940000Y-76190000D03*
X130400000Y-106670000D03*
X132940000Y-124450000D03*
X132940000Y-43170000D03*
X130400000Y-76190000D03*
X132940000Y-104130000D03*
X132940000Y-60950000D03*
X132940000Y-88890000D03*
X132940000Y-73650000D03*
X130400000Y-109210000D03*
X132940000Y-93970000D03*
X132940000Y-114290000D03*
X130400000Y-121910000D03*
X127860000Y-50790000D03*
X130400000Y-101590000D03*
X130400000Y-58410000D03*
X132940000Y-81270000D03*
X130400000Y-73650000D03*
X130400000Y-66030000D03*
X132940000Y-48250000D03*
X130400000Y-81270000D03*
X132940000Y-53330000D03*
X125320000Y-111750000D03*
X132940000Y-106670000D03*
X130400000Y-116830000D03*
X130400000Y-119370000D03*
X132940000Y-68570000D03*
X132940000Y-119370000D03*
X132940000Y-55870000D03*
X130400000Y-99050000D03*
X130400000Y-78730000D03*
X132940000Y-101590000D03*
X130400000Y-71110000D03*
X125320000Y-35550000D03*
X130400000Y-124450000D03*
X125320000Y-55870000D03*
X127860000Y-68570000D03*
X127860000Y-119370000D03*
X125320000Y-43170000D03*
X125320000Y-48250000D03*
X130400000Y-43170000D03*
X130400000Y-48250000D03*
X130400000Y-45710000D03*
X132940000Y-50790000D03*
X132940000Y-78730000D03*
X132940000Y-58410000D03*
X125320000Y-88890000D03*
X130400000Y-40630000D03*
X132940000Y-63490000D03*
X125320000Y-40630000D03*
X125320000Y-78730000D03*
X127860000Y-83810000D03*
X130400000Y-55870000D03*
X125320000Y-60950000D03*
X130400000Y-35550000D03*
X127860000Y-40630000D03*
X130400000Y-88890000D03*
X130400000Y-60950000D03*
X132940000Y-83810000D03*
X127860000Y-58410000D03*
X132940000Y-40630000D03*
X127860000Y-45710000D03*
X127860000Y-35550000D03*
X132940000Y-71110000D03*
X132940000Y-116830000D03*
X132940000Y-96510000D03*
X132940000Y-66030000D03*
X127860000Y-116830000D03*
X132940000Y-111750000D03*
X127860000Y-38090000D03*
X132940000Y-38090000D03*
X127860000Y-99050000D03*
X125320000Y-101590000D03*
X125320000Y-58410000D03*
X132940000Y-35550000D03*
X127860000Y-66030000D03*
X132940000Y-45710000D03*
X127860000Y-96510000D03*
X130400000Y-114290000D03*
X130400000Y-63490000D03*
X130400000Y-91430000D03*
X138020000Y-78730000D03*
X138020000Y-81270000D03*
X135480000Y-78730000D03*
X140560000Y-53330000D03*
X140560000Y-86350000D03*
X140560000Y-104130000D03*
X140560000Y-68570000D03*
X140560000Y-96510000D03*
X140560000Y-38090000D03*
X140560000Y-111750000D03*
X140560000Y-83810000D03*
X140560000Y-93970000D03*
X135480000Y-81270000D03*
X143100000Y-121910000D03*
X143100000Y-91430000D03*
X143100000Y-86350000D03*
X143100000Y-99050000D03*
X140560000Y-50790000D03*
X143100000Y-109210000D03*
X143100000Y-76190000D03*
X140560000Y-106670000D03*
X143100000Y-124450000D03*
X143100000Y-43170000D03*
X140560000Y-76190000D03*
X143100000Y-104130000D03*
X143100000Y-60950000D03*
X143100000Y-88890000D03*
X143100000Y-73650000D03*
X140560000Y-109210000D03*
X143100000Y-93970000D03*
X143100000Y-114290000D03*
X140560000Y-121910000D03*
X140560000Y-101590000D03*
X140560000Y-58410000D03*
X143100000Y-81270000D03*
X140560000Y-73650000D03*
X140560000Y-66030000D03*
X143100000Y-48250000D03*
X140560000Y-81270000D03*
X143100000Y-53330000D03*
X143100000Y-106670000D03*
X140560000Y-116830000D03*
X140560000Y-119370000D03*
X143100000Y-68570000D03*
X143100000Y-119370000D03*
X143100000Y-55870000D03*
X140560000Y-99050000D03*
X140560000Y-78730000D03*
X143100000Y-101590000D03*
X140560000Y-71110000D03*
X140560000Y-124450000D03*
X140560000Y-43170000D03*
X140560000Y-48250000D03*
X140560000Y-45710000D03*
X143100000Y-50790000D03*
X143100000Y-78730000D03*
X143100000Y-58410000D03*
X140560000Y-40630000D03*
X143100000Y-63490000D03*
X140560000Y-55870000D03*
X140560000Y-35550000D03*
X140560000Y-88890000D03*
X140560000Y-60950000D03*
X143100000Y-83810000D03*
X143100000Y-40630000D03*
X143100000Y-71110000D03*
X143100000Y-116830000D03*
X143100000Y-96510000D03*
X143100000Y-66030000D03*
X143100000Y-111750000D03*
X143100000Y-38090000D03*
X145640000Y-53330000D03*
X145640000Y-86350000D03*
X145640000Y-104130000D03*
X145640000Y-68570000D03*
X145640000Y-96510000D03*
X145640000Y-38090000D03*
X145640000Y-83810000D03*
X145640000Y-93970000D03*
X148180000Y-121910000D03*
X148180000Y-91430000D03*
X148180000Y-86350000D03*
X145640000Y-114290000D03*
X145640000Y-63490000D03*
X145640000Y-91430000D03*
X148180000Y-99050000D03*
X145640000Y-50790000D03*
X148180000Y-109210000D03*
X148180000Y-76190000D03*
X145640000Y-106670000D03*
X148180000Y-124450000D03*
X148180000Y-43170000D03*
X145640000Y-76190000D03*
X148180000Y-104130000D03*
X148180000Y-60950000D03*
X148180000Y-88890000D03*
X148180000Y-73650000D03*
X145640000Y-109210000D03*
X148180000Y-93970000D03*
X148180000Y-114290000D03*
X145640000Y-121910000D03*
X145640000Y-101590000D03*
X145640000Y-58410000D03*
X148180000Y-81270000D03*
X145640000Y-73650000D03*
X150720000Y-53330000D03*
X150720000Y-86350000D03*
X148180000Y-111750000D03*
X148180000Y-63490000D03*
X150720000Y-104130000D03*
X145640000Y-45710000D03*
X150720000Y-68570000D03*
X145640000Y-71110000D03*
X145640000Y-124450000D03*
X145640000Y-119370000D03*
X150720000Y-96510000D03*
X150720000Y-38090000D03*
X148180000Y-55870000D03*
X145640000Y-99050000D03*
X150720000Y-111750000D03*
X150720000Y-83810000D03*
X148180000Y-101590000D03*
X148180000Y-106670000D03*
X145640000Y-116830000D03*
X148180000Y-78730000D03*
X143100000Y-35550000D03*
X145640000Y-111750000D03*
X145640000Y-55870000D03*
X148180000Y-71110000D03*
X148180000Y-53330000D03*
X145640000Y-81270000D03*
X150720000Y-114290000D03*
X150720000Y-93970000D03*
X145640000Y-66030000D03*
X148180000Y-48250000D03*
X148180000Y-68570000D03*
X148180000Y-66030000D03*
X145640000Y-48250000D03*
X148180000Y-35550000D03*
X148180000Y-40630000D03*
X150720000Y-106670000D03*
X148180000Y-50790000D03*
X145640000Y-43170000D03*
X145640000Y-60950000D03*
X145640000Y-88890000D03*
X150720000Y-50790000D03*
X148180000Y-45710000D03*
X150720000Y-45710000D03*
X150720000Y-91430000D03*
X145640000Y-40630000D03*
X150720000Y-71110000D03*
X148180000Y-38090000D03*
X150720000Y-109210000D03*
X143100000Y-45710000D03*
X150720000Y-55870000D03*
X150720000Y-121910000D03*
X150720000Y-101590000D03*
X150720000Y-40630000D03*
X150720000Y-76190000D03*
X150720000Y-48250000D03*
X150720000Y-73650000D03*
X150720000Y-63490000D03*
X150720000Y-58410000D03*
X148180000Y-96510000D03*
X150720000Y-60950000D03*
X150720000Y-116830000D03*
X148180000Y-83810000D03*
X150720000Y-35550000D03*
X150720000Y-88890000D03*
X150720000Y-43170000D03*
X150720000Y-66030000D03*
X150720000Y-124450000D03*
X148180000Y-58410000D03*
X148180000Y-116830000D03*
X148180000Y-119370000D03*
X150720000Y-119370000D03*
X150720000Y-99050000D03*
X145640000Y-35550000D03*
X145640000Y-78730000D03*
X150720000Y-78730000D03*
X150720000Y-81270000D03*
X140560000Y-114290000D03*
X140560000Y-63490000D03*
X140560000Y-91430000D03*
X153260000Y-53330000D03*
X153260000Y-86350000D03*
X153260000Y-104130000D03*
X153260000Y-68570000D03*
X153260000Y-96510000D03*
X153260000Y-38090000D03*
X153260000Y-83810000D03*
X153260000Y-93970000D03*
X153260000Y-114290000D03*
X153260000Y-63490000D03*
X153260000Y-91430000D03*
X153260000Y-50790000D03*
X155800000Y-78730000D03*
X153260000Y-106670000D03*
X153260000Y-76190000D03*
X153260000Y-109210000D03*
X153260000Y-121910000D03*
X155800000Y-81270000D03*
X153260000Y-73650000D03*
X153260000Y-45710000D03*
X153260000Y-71110000D03*
X153260000Y-124450000D03*
X153260000Y-119370000D03*
X153260000Y-99050000D03*
X153260000Y-116830000D03*
X153260000Y-66030000D03*
X153260000Y-81270000D03*
X160880000Y-121910000D03*
X160880000Y-91430000D03*
X160880000Y-86350000D03*
X160880000Y-99050000D03*
X160880000Y-109210000D03*
X160880000Y-76190000D03*
X160880000Y-124450000D03*
X160880000Y-43170000D03*
X158340000Y-78730000D03*
X160880000Y-104130000D03*
X160880000Y-60950000D03*
X160880000Y-88890000D03*
X160880000Y-73650000D03*
X160880000Y-93970000D03*
X160880000Y-114290000D03*
X160880000Y-81270000D03*
X160880000Y-48250000D03*
X158340000Y-81270000D03*
X160880000Y-53330000D03*
X153260000Y-111750000D03*
X160880000Y-106670000D03*
X160880000Y-68570000D03*
X160880000Y-119370000D03*
X160880000Y-55870000D03*
X160880000Y-101590000D03*
X153260000Y-35550000D03*
X153260000Y-55870000D03*
X153260000Y-43170000D03*
X153260000Y-48250000D03*
X160880000Y-50790000D03*
X160880000Y-78730000D03*
X160880000Y-58410000D03*
X153260000Y-88890000D03*
X160880000Y-63490000D03*
X153260000Y-40630000D03*
X153260000Y-78730000D03*
X153260000Y-60950000D03*
X160880000Y-83810000D03*
X160880000Y-40630000D03*
X160880000Y-71110000D03*
X160880000Y-116830000D03*
X160880000Y-96510000D03*
X160880000Y-66030000D03*
X160880000Y-111750000D03*
X160880000Y-38090000D03*
X163420000Y-53330000D03*
X163420000Y-86350000D03*
X163420000Y-104130000D03*
X163420000Y-68570000D03*
X163420000Y-96510000D03*
X163420000Y-38090000D03*
X163420000Y-83810000D03*
X163420000Y-93970000D03*
X165960000Y-121910000D03*
X165960000Y-91430000D03*
X165960000Y-86350000D03*
X163420000Y-114290000D03*
X163420000Y-63490000D03*
X163420000Y-91430000D03*
X165960000Y-99050000D03*
X163420000Y-50790000D03*
X165960000Y-109210000D03*
X165960000Y-76190000D03*
X163420000Y-106670000D03*
X165960000Y-124450000D03*
X165960000Y-43170000D03*
X163420000Y-76190000D03*
X165960000Y-104130000D03*
X165960000Y-60950000D03*
X165960000Y-88890000D03*
X165960000Y-73650000D03*
X163420000Y-109210000D03*
X165960000Y-93970000D03*
X165960000Y-114290000D03*
X163420000Y-121910000D03*
X163420000Y-101590000D03*
X163420000Y-58410000D03*
X165960000Y-81270000D03*
X163420000Y-73650000D03*
X168500000Y-53330000D03*
X168500000Y-86350000D03*
X165960000Y-111750000D03*
X165960000Y-63490000D03*
X168500000Y-104130000D03*
X163420000Y-45710000D03*
X168500000Y-68570000D03*
X163420000Y-71110000D03*
X163420000Y-124450000D03*
X163420000Y-119370000D03*
X168500000Y-96510000D03*
X168500000Y-38090000D03*
X165960000Y-55870000D03*
X163420000Y-99050000D03*
X168500000Y-111750000D03*
X168500000Y-83810000D03*
X165960000Y-101590000D03*
X165960000Y-106670000D03*
X163420000Y-116830000D03*
X165960000Y-78730000D03*
X173580000Y-53330000D03*
X173580000Y-86350000D03*
X173580000Y-104130000D03*
X173580000Y-68570000D03*
X173580000Y-96510000D03*
X173580000Y-38090000D03*
X173580000Y-83810000D03*
X173580000Y-93970000D03*
X173580000Y-114290000D03*
X173580000Y-63490000D03*
X173580000Y-91430000D03*
X153260000Y-101590000D03*
X153260000Y-58410000D03*
X173580000Y-50790000D03*
X173580000Y-106670000D03*
X173580000Y-76190000D03*
X173580000Y-109210000D03*
X173580000Y-121910000D03*
X173580000Y-101590000D03*
X173580000Y-58410000D03*
X176120000Y-81270000D03*
X173580000Y-73650000D03*
X173580000Y-45710000D03*
X173580000Y-71110000D03*
X173580000Y-124450000D03*
X173580000Y-119370000D03*
X173580000Y-99050000D03*
X173580000Y-116830000D03*
X176120000Y-78730000D03*
X173580000Y-66030000D03*
X173580000Y-81270000D03*
X181200000Y-121910000D03*
X181200000Y-91430000D03*
X181200000Y-86350000D03*
X181200000Y-99050000D03*
X181200000Y-109210000D03*
X181200000Y-76190000D03*
X181200000Y-124450000D03*
X181200000Y-43170000D03*
X181200000Y-104130000D03*
X181200000Y-60950000D03*
X181200000Y-88890000D03*
X181200000Y-73650000D03*
X181200000Y-93970000D03*
X181200000Y-114290000D03*
X181200000Y-81270000D03*
X181200000Y-48250000D03*
X178660000Y-81270000D03*
X181200000Y-53330000D03*
X173580000Y-111750000D03*
X181200000Y-106670000D03*
X181200000Y-68570000D03*
X181200000Y-119370000D03*
X181200000Y-55870000D03*
X178660000Y-78730000D03*
X181200000Y-101590000D03*
X173580000Y-35550000D03*
X173580000Y-55870000D03*
X173580000Y-43170000D03*
X173580000Y-48250000D03*
X181200000Y-50790000D03*
X181200000Y-78730000D03*
X181200000Y-58410000D03*
X173580000Y-88890000D03*
X181200000Y-63490000D03*
X173580000Y-40630000D03*
X173580000Y-78730000D03*
X173580000Y-60950000D03*
X181200000Y-83810000D03*
X181200000Y-40630000D03*
X181200000Y-71110000D03*
X181200000Y-116830000D03*
X181200000Y-96510000D03*
X181200000Y-66030000D03*
X181200000Y-111750000D03*
X181200000Y-38090000D03*
X183740000Y-53330000D03*
X183740000Y-86350000D03*
X183740000Y-104130000D03*
X183740000Y-68570000D03*
X183740000Y-96510000D03*
X183740000Y-38090000D03*
X183740000Y-83810000D03*
X183740000Y-93970000D03*
X186280000Y-121910000D03*
X186280000Y-91430000D03*
X186280000Y-86350000D03*
X183740000Y-114290000D03*
X183740000Y-63490000D03*
X183740000Y-91430000D03*
X186280000Y-99050000D03*
X183740000Y-50790000D03*
X186280000Y-109210000D03*
X186280000Y-76190000D03*
X183740000Y-106670000D03*
X186280000Y-124450000D03*
X186280000Y-43170000D03*
X183740000Y-76190000D03*
X186280000Y-104130000D03*
X186280000Y-60950000D03*
X186280000Y-88890000D03*
X186280000Y-73650000D03*
X183740000Y-109210000D03*
X186280000Y-93970000D03*
X186280000Y-114290000D03*
X183740000Y-121910000D03*
X183740000Y-101590000D03*
X183740000Y-58410000D03*
X186280000Y-81270000D03*
X183740000Y-73650000D03*
X171040000Y-99050000D03*
X160880000Y-35550000D03*
X163420000Y-111750000D03*
X171040000Y-58410000D03*
X163420000Y-55870000D03*
X165960000Y-71110000D03*
X165960000Y-53330000D03*
X171040000Y-121910000D03*
X163420000Y-81270000D03*
X171040000Y-86350000D03*
X168500000Y-114290000D03*
X168500000Y-93970000D03*
X163420000Y-66030000D03*
X165960000Y-48250000D03*
X171040000Y-63490000D03*
X171040000Y-50790000D03*
X171040000Y-91430000D03*
X171040000Y-38090000D03*
X165960000Y-68570000D03*
X188820000Y-53330000D03*
X188820000Y-86350000D03*
X186280000Y-111750000D03*
X186280000Y-63490000D03*
X188820000Y-104130000D03*
X183740000Y-45710000D03*
X188820000Y-68570000D03*
X183740000Y-71110000D03*
X183740000Y-124450000D03*
X183740000Y-119370000D03*
X188820000Y-96510000D03*
X188820000Y-38090000D03*
X186280000Y-55870000D03*
X183740000Y-99050000D03*
X188820000Y-111750000D03*
X188820000Y-83810000D03*
X186280000Y-101590000D03*
X186280000Y-106670000D03*
X183740000Y-116830000D03*
X186280000Y-78730000D03*
X188820000Y-93970000D03*
X183740000Y-66030000D03*
X186280000Y-48250000D03*
X183740000Y-81270000D03*
X186280000Y-53330000D03*
X191360000Y-121910000D03*
X191360000Y-91430000D03*
X186280000Y-71110000D03*
X191360000Y-86350000D03*
X188820000Y-114290000D03*
X188820000Y-63490000D03*
X188820000Y-91430000D03*
X191360000Y-99050000D03*
X188820000Y-50790000D03*
X191360000Y-109210000D03*
X191360000Y-76190000D03*
X188820000Y-106670000D03*
X191360000Y-124450000D03*
X165960000Y-66030000D03*
X191360000Y-43170000D03*
X188820000Y-76190000D03*
X191360000Y-104130000D03*
X191360000Y-60950000D03*
X191360000Y-88890000D03*
X191360000Y-73650000D03*
X163420000Y-48250000D03*
X188820000Y-109210000D03*
X191360000Y-93970000D03*
X191360000Y-114290000D03*
X188820000Y-121910000D03*
X186280000Y-50790000D03*
X188820000Y-101590000D03*
X188820000Y-58410000D03*
X191360000Y-81270000D03*
X188820000Y-73650000D03*
X188820000Y-66030000D03*
X171040000Y-73650000D03*
X191360000Y-48250000D03*
X188820000Y-81270000D03*
X191360000Y-53330000D03*
X171040000Y-119370000D03*
X183740000Y-111750000D03*
X191360000Y-106670000D03*
X188820000Y-116830000D03*
X188820000Y-119370000D03*
X191360000Y-68570000D03*
X165960000Y-35550000D03*
X191360000Y-119370000D03*
X191360000Y-55870000D03*
X188820000Y-99050000D03*
X188820000Y-78730000D03*
X191360000Y-101590000D03*
X165960000Y-40630000D03*
X188820000Y-71110000D03*
X183740000Y-35550000D03*
X168500000Y-106670000D03*
X188820000Y-124450000D03*
X183740000Y-55870000D03*
X186280000Y-68570000D03*
X186280000Y-119370000D03*
X183740000Y-43170000D03*
X183740000Y-48250000D03*
X188820000Y-43170000D03*
X188820000Y-48250000D03*
X188820000Y-45710000D03*
X191360000Y-50790000D03*
X191360000Y-78730000D03*
X191360000Y-58410000D03*
X165960000Y-50790000D03*
X183740000Y-88890000D03*
X188820000Y-40630000D03*
X191360000Y-63490000D03*
X183740000Y-40630000D03*
X183740000Y-78730000D03*
X186280000Y-83810000D03*
X188820000Y-55870000D03*
X163420000Y-43170000D03*
X183740000Y-60950000D03*
X188820000Y-35550000D03*
X163420000Y-60950000D03*
X163420000Y-88890000D03*
X186280000Y-40630000D03*
X181200000Y-45710000D03*
X181200000Y-35550000D03*
X188820000Y-88890000D03*
X171040000Y-106670000D03*
X171040000Y-76190000D03*
X168500000Y-50790000D03*
X171040000Y-93970000D03*
X165960000Y-45710000D03*
X171040000Y-40630000D03*
X168500000Y-45710000D03*
X188820000Y-60950000D03*
X191360000Y-83810000D03*
X186280000Y-58410000D03*
X168500000Y-91430000D03*
X163420000Y-40630000D03*
X168500000Y-71110000D03*
X191360000Y-40630000D03*
X171040000Y-71110000D03*
X165960000Y-38090000D03*
X168500000Y-109210000D03*
X160880000Y-45710000D03*
X171040000Y-101590000D03*
X168500000Y-55870000D03*
X171040000Y-114290000D03*
X168500000Y-121910000D03*
X168500000Y-101590000D03*
X171040000Y-60950000D03*
X168500000Y-40630000D03*
X168500000Y-76190000D03*
X168500000Y-48250000D03*
X168500000Y-73650000D03*
X171040000Y-43170000D03*
X171040000Y-124450000D03*
X168500000Y-63490000D03*
X186280000Y-45710000D03*
X168500000Y-58410000D03*
X165960000Y-96510000D03*
X168500000Y-60950000D03*
X171040000Y-104130000D03*
X186280000Y-35550000D03*
X168500000Y-116830000D03*
X165960000Y-83810000D03*
X171040000Y-109210000D03*
X191360000Y-71110000D03*
X191360000Y-116830000D03*
X191360000Y-96510000D03*
X191360000Y-66030000D03*
X168500000Y-35550000D03*
X171040000Y-35550000D03*
X186280000Y-116830000D03*
X171040000Y-83810000D03*
X191360000Y-111750000D03*
X168500000Y-88890000D03*
X171040000Y-78730000D03*
X171040000Y-55870000D03*
X171040000Y-81270000D03*
X171040000Y-66030000D03*
X171040000Y-68570000D03*
X191360000Y-45710000D03*
X191360000Y-35550000D03*
X168500000Y-43170000D03*
X171040000Y-53330000D03*
X168500000Y-66030000D03*
X171040000Y-116830000D03*
X171040000Y-48250000D03*
X168500000Y-124450000D03*
X165960000Y-58410000D03*
X165960000Y-116830000D03*
X186280000Y-66030000D03*
X165960000Y-119370000D03*
X171040000Y-111750000D03*
X186280000Y-96510000D03*
X168500000Y-119370000D03*
X171040000Y-96510000D03*
X186280000Y-38090000D03*
X191360000Y-38090000D03*
X168500000Y-99050000D03*
X171040000Y-88890000D03*
X163420000Y-35550000D03*
X163420000Y-78730000D03*
X168500000Y-78730000D03*
X171040000Y-45710000D03*
X168500000Y-81270000D03*
X193900000Y-53330000D03*
X193900000Y-86350000D03*
X193900000Y-104130000D03*
X193900000Y-68570000D03*
X193900000Y-96510000D03*
X193900000Y-38090000D03*
X193900000Y-83810000D03*
X193900000Y-93970000D03*
X193900000Y-114290000D03*
X193900000Y-63490000D03*
X193900000Y-91430000D03*
X193900000Y-50790000D03*
X193900000Y-106670000D03*
X193900000Y-76190000D03*
X193900000Y-109210000D03*
X193900000Y-121910000D03*
X193900000Y-101590000D03*
X193900000Y-58410000D03*
X196440000Y-81270000D03*
X193900000Y-73650000D03*
X193900000Y-45710000D03*
X193900000Y-71110000D03*
X193900000Y-124450000D03*
X193900000Y-119370000D03*
X193900000Y-99050000D03*
X193900000Y-116830000D03*
X196440000Y-78730000D03*
X193900000Y-66030000D03*
X193900000Y-81270000D03*
X201520000Y-121910000D03*
X201520000Y-91430000D03*
X201520000Y-86350000D03*
X201520000Y-99050000D03*
X201520000Y-109210000D03*
X201520000Y-76190000D03*
X201520000Y-124450000D03*
X201520000Y-43170000D03*
X201520000Y-104130000D03*
X201520000Y-60950000D03*
X201520000Y-88890000D03*
X201520000Y-73650000D03*
X201520000Y-93970000D03*
X201520000Y-114290000D03*
X201520000Y-81270000D03*
X201520000Y-48250000D03*
X198980000Y-81270000D03*
X201520000Y-53330000D03*
X193900000Y-111750000D03*
X201520000Y-106670000D03*
X201520000Y-68570000D03*
X201520000Y-119370000D03*
X201520000Y-55870000D03*
X198980000Y-78730000D03*
X201520000Y-101590000D03*
X193900000Y-35550000D03*
X193900000Y-55870000D03*
X193900000Y-43170000D03*
X193900000Y-48250000D03*
X201520000Y-50790000D03*
X201520000Y-78730000D03*
X201520000Y-58410000D03*
X193900000Y-88890000D03*
X201520000Y-63490000D03*
X193900000Y-40630000D03*
X193900000Y-78730000D03*
X193900000Y-60950000D03*
X201520000Y-83810000D03*
X201520000Y-40630000D03*
X201520000Y-71110000D03*
X201520000Y-116830000D03*
X201520000Y-96510000D03*
X201520000Y-66030000D03*
X201520000Y-111750000D03*
X201520000Y-38090000D03*
X204060000Y-53330000D03*
X204060000Y-86350000D03*
X204060000Y-104130000D03*
X204060000Y-68570000D03*
X204060000Y-96510000D03*
X204060000Y-38090000D03*
X204060000Y-83810000D03*
X204060000Y-93970000D03*
X206600000Y-121910000D03*
X206600000Y-91430000D03*
X206600000Y-86350000D03*
X204060000Y-114290000D03*
X204060000Y-63490000D03*
X204060000Y-91430000D03*
X206600000Y-99050000D03*
X204060000Y-50790000D03*
X206600000Y-109210000D03*
X206600000Y-76190000D03*
X204060000Y-106670000D03*
X206600000Y-124450000D03*
X206600000Y-43170000D03*
X204060000Y-76190000D03*
X206600000Y-104130000D03*
X206600000Y-60950000D03*
X206600000Y-88890000D03*
X206600000Y-73650000D03*
X204060000Y-109210000D03*
X206600000Y-93970000D03*
X206600000Y-114290000D03*
X204060000Y-121910000D03*
X204060000Y-101590000D03*
X204060000Y-58410000D03*
X206600000Y-81270000D03*
X204060000Y-73650000D03*
X209140000Y-53330000D03*
X209140000Y-86350000D03*
X206600000Y-111750000D03*
X206600000Y-63490000D03*
X209140000Y-104130000D03*
X204060000Y-45710000D03*
X209140000Y-68570000D03*
X204060000Y-71110000D03*
X204060000Y-124450000D03*
X204060000Y-119370000D03*
X209140000Y-96510000D03*
X209140000Y-38090000D03*
X206600000Y-55870000D03*
X204060000Y-99050000D03*
X209140000Y-111750000D03*
X209140000Y-83810000D03*
X206600000Y-101590000D03*
X206600000Y-106670000D03*
X204060000Y-116830000D03*
X206600000Y-78730000D03*
X209140000Y-93970000D03*
X204060000Y-66030000D03*
X206600000Y-48250000D03*
X204060000Y-81270000D03*
X206600000Y-53330000D03*
X211680000Y-121910000D03*
X211680000Y-91430000D03*
X206600000Y-71110000D03*
X211680000Y-86350000D03*
X209140000Y-114290000D03*
X209140000Y-63490000D03*
X209140000Y-91430000D03*
X211680000Y-99050000D03*
X209140000Y-50790000D03*
X211680000Y-109210000D03*
X211680000Y-76190000D03*
X209140000Y-106670000D03*
X211680000Y-124450000D03*
X211680000Y-43170000D03*
X209140000Y-76190000D03*
X211680000Y-104130000D03*
X211680000Y-60950000D03*
X211680000Y-88890000D03*
X211680000Y-73650000D03*
X209140000Y-109210000D03*
X211680000Y-93970000D03*
X211680000Y-114290000D03*
X209140000Y-121910000D03*
X206600000Y-50790000D03*
X209140000Y-101590000D03*
X209140000Y-58410000D03*
X211680000Y-81270000D03*
X209140000Y-73650000D03*
X209140000Y-66030000D03*
X211680000Y-48250000D03*
X209140000Y-81270000D03*
X211680000Y-53330000D03*
X204060000Y-111750000D03*
X211680000Y-106670000D03*
X209140000Y-116830000D03*
X209140000Y-119370000D03*
X211680000Y-68570000D03*
X211680000Y-119370000D03*
X211680000Y-55870000D03*
X209140000Y-99050000D03*
X209140000Y-78730000D03*
X211680000Y-101590000D03*
X209140000Y-71110000D03*
X204060000Y-35550000D03*
X209140000Y-124450000D03*
X204060000Y-55870000D03*
X206600000Y-68570000D03*
X206600000Y-119370000D03*
X204060000Y-43170000D03*
X204060000Y-48250000D03*
X209140000Y-43170000D03*
X209140000Y-48250000D03*
X209140000Y-45710000D03*
X211680000Y-50790000D03*
X211680000Y-78730000D03*
X211680000Y-58410000D03*
X204060000Y-88890000D03*
X209140000Y-40630000D03*
X211680000Y-63490000D03*
X204060000Y-40630000D03*
X204060000Y-78730000D03*
X206600000Y-83810000D03*
X209140000Y-55870000D03*
X204060000Y-60950000D03*
X209140000Y-35550000D03*
X206600000Y-40630000D03*
X201520000Y-45710000D03*
X201520000Y-35550000D03*
X209140000Y-88890000D03*
X209140000Y-60950000D03*
X211680000Y-83810000D03*
X206600000Y-58410000D03*
X211680000Y-40630000D03*
X206600000Y-45710000D03*
X206600000Y-35550000D03*
X211680000Y-71110000D03*
X211680000Y-116830000D03*
X211680000Y-96510000D03*
X211680000Y-66030000D03*
X206600000Y-116830000D03*
X211680000Y-111750000D03*
X211680000Y-45710000D03*
X211680000Y-35550000D03*
X206600000Y-66030000D03*
X206600000Y-96510000D03*
X206600000Y-38090000D03*
X211680000Y-38090000D03*
X214220000Y-53330000D03*
X214220000Y-86350000D03*
X214220000Y-104130000D03*
X214220000Y-68570000D03*
X214220000Y-96510000D03*
X214220000Y-38090000D03*
X214220000Y-83810000D03*
X214220000Y-93970000D03*
X214220000Y-114290000D03*
X214220000Y-63490000D03*
X214220000Y-91430000D03*
X214220000Y-50790000D03*
X214220000Y-106670000D03*
X214220000Y-76190000D03*
X214220000Y-109210000D03*
X214220000Y-121910000D03*
X214220000Y-101590000D03*
X214220000Y-58410000D03*
X216760000Y-81270000D03*
X214220000Y-73650000D03*
X214220000Y-45710000D03*
X214220000Y-71110000D03*
X214220000Y-124450000D03*
X214220000Y-119370000D03*
X214220000Y-99050000D03*
X214220000Y-116830000D03*
X216760000Y-78730000D03*
X214220000Y-66030000D03*
X214220000Y-81270000D03*
X221840000Y-121910000D03*
X221840000Y-91430000D03*
X221840000Y-86350000D03*
X221840000Y-99050000D03*
X221840000Y-109210000D03*
X221840000Y-76190000D03*
X221840000Y-124450000D03*
X221840000Y-43170000D03*
X221840000Y-104130000D03*
X221840000Y-60950000D03*
X221840000Y-88890000D03*
X221840000Y-73650000D03*
X221840000Y-93970000D03*
X221840000Y-114290000D03*
X221840000Y-81270000D03*
X221840000Y-48250000D03*
X219300000Y-81270000D03*
X221840000Y-53330000D03*
X214220000Y-111750000D03*
X221840000Y-106670000D03*
X221840000Y-68570000D03*
X221840000Y-119370000D03*
X221840000Y-55870000D03*
X219300000Y-78730000D03*
X221840000Y-101590000D03*
X214220000Y-35550000D03*
X214220000Y-55870000D03*
X214220000Y-43170000D03*
X214220000Y-48250000D03*
X221840000Y-50790000D03*
X221840000Y-78730000D03*
X221840000Y-58410000D03*
X214220000Y-88890000D03*
X221840000Y-63490000D03*
X214220000Y-40630000D03*
X214220000Y-78730000D03*
X214220000Y-60950000D03*
X221840000Y-83810000D03*
X221840000Y-40630000D03*
X221840000Y-71110000D03*
X221840000Y-116830000D03*
X221840000Y-96510000D03*
X221840000Y-66030000D03*
X221840000Y-111750000D03*
X221840000Y-45710000D03*
X221840000Y-35550000D03*
X221840000Y-38090000D03*
X224380000Y-53330000D03*
X224380000Y-86350000D03*
X224380000Y-104130000D03*
X224380000Y-68570000D03*
X224380000Y-96510000D03*
X224380000Y-38090000D03*
X224380000Y-111750000D03*
X224380000Y-83810000D03*
X224380000Y-93970000D03*
X226920000Y-121910000D03*
X226920000Y-91430000D03*
X226920000Y-86350000D03*
X224380000Y-114290000D03*
X224380000Y-63490000D03*
X224380000Y-91430000D03*
X226920000Y-99050000D03*
X224380000Y-50790000D03*
X226920000Y-109210000D03*
X226920000Y-76190000D03*
X224380000Y-106670000D03*
X226920000Y-124450000D03*
X226920000Y-43170000D03*
X224380000Y-76190000D03*
X226920000Y-104130000D03*
X226920000Y-60950000D03*
X226920000Y-88890000D03*
X226920000Y-73650000D03*
X224380000Y-109210000D03*
X226920000Y-93970000D03*
X226920000Y-114290000D03*
X224380000Y-121910000D03*
X224380000Y-101590000D03*
X224380000Y-58410000D03*
X226920000Y-81270000D03*
X224380000Y-73650000D03*
X224380000Y-66030000D03*
X226920000Y-48250000D03*
X224380000Y-81270000D03*
X226920000Y-53330000D03*
X226920000Y-106670000D03*
X224380000Y-116830000D03*
X224380000Y-119370000D03*
X226920000Y-68570000D03*
X226920000Y-119370000D03*
X226920000Y-55870000D03*
X224380000Y-99050000D03*
X224380000Y-78730000D03*
X226920000Y-101590000D03*
X224380000Y-71110000D03*
X224380000Y-124450000D03*
X224380000Y-43170000D03*
X224380000Y-48250000D03*
X224380000Y-45710000D03*
X226920000Y-50790000D03*
X226920000Y-78730000D03*
X226920000Y-58410000D03*
X224380000Y-40630000D03*
X226920000Y-63490000D03*
X224380000Y-55870000D03*
X224380000Y-35550000D03*
X224380000Y-88890000D03*
X224380000Y-60950000D03*
X226920000Y-83810000D03*
X226920000Y-40630000D03*
X226920000Y-71110000D03*
X226920000Y-116830000D03*
X226920000Y-96510000D03*
X226920000Y-66030000D03*
X226920000Y-111750000D03*
X226920000Y-45710000D03*
X226920000Y-35550000D03*
X226920000Y-38090000D03*
X229460000Y-121910000D03*
X229460000Y-91430000D03*
X229460000Y-86350000D03*
X229460000Y-99050000D03*
X229460000Y-109210000D03*
X229460000Y-76190000D03*
X229460000Y-124450000D03*
X229460000Y-43170000D03*
X229460000Y-104130000D03*
X229460000Y-60950000D03*
X229460000Y-88890000D03*
X229460000Y-73650000D03*
X229460000Y-93970000D03*
X229460000Y-114290000D03*
X229460000Y-81270000D03*
X229460000Y-48250000D03*
X229460000Y-53330000D03*
X229460000Y-106670000D03*
X229460000Y-68570000D03*
X229460000Y-119370000D03*
X229460000Y-55870000D03*
X229460000Y-101590000D03*
X229460000Y-50790000D03*
X229460000Y-78730000D03*
X229460000Y-58410000D03*
X229460000Y-63490000D03*
X229460000Y-83810000D03*
X229460000Y-40630000D03*
X229460000Y-71110000D03*
X229460000Y-116830000D03*
X229460000Y-96510000D03*
X229460000Y-66030000D03*
X229460000Y-111750000D03*
X229460000Y-45710000D03*
X229460000Y-35550000D03*
X229460000Y-38090000D03*
X232000000Y-124450000D03*
X232000000Y-121910000D03*
X232000000Y-35550000D03*
X232000000Y-38090000D03*
X232000000Y-111750000D03*
X232000000Y-106670000D03*
X232000000Y-119370000D03*
X232000000Y-109210000D03*
X232000000Y-114290000D03*
X232000000Y-101590000D03*
X232000000Y-104130000D03*
X232000000Y-116830000D03*
X232000000Y-96510000D03*
X232000000Y-81270000D03*
X232000000Y-93970000D03*
X232000000Y-88890000D03*
X232000000Y-99050000D03*
X232000000Y-83810000D03*
X232000000Y-91430000D03*
X232000000Y-86350000D03*
X232000000Y-63490000D03*
X232000000Y-68570000D03*
X232000000Y-73650000D03*
X232000000Y-76190000D03*
X232000000Y-71110000D03*
X232000000Y-78730000D03*
X232000000Y-60950000D03*
X232000000Y-66030000D03*
X232000000Y-53330000D03*
X232000000Y-58410000D03*
X232000000Y-50790000D03*
X232000000Y-55870000D03*
X232000000Y-48250000D03*
X232000000Y-45710000D03*
X232000000Y-43170000D03*
X232000000Y-40630000D03*
G36*
X104873000Y-129873000D02*
G01*
X90127000Y-129873000D01*
X90127000Y-124990036D01*
X93273392Y-124990036D01*
X93273392Y-125009964D01*
X93293091Y-125260259D01*
X93296208Y-125279943D01*
X93354819Y-125524075D01*
X93360977Y-125543028D01*
X93457057Y-125774986D01*
X93466105Y-125792742D01*
X93597288Y-126006813D01*
X93609001Y-126022936D01*
X93772057Y-126213851D01*
X93786149Y-126227943D01*
X93977064Y-126390999D01*
X93993187Y-126402712D01*
X94207258Y-126533895D01*
X94225014Y-126542943D01*
X94456972Y-126639023D01*
X94475925Y-126645181D01*
X94720057Y-126703792D01*
X94739741Y-126706909D01*
X94990036Y-126726608D01*
X95009964Y-126726608D01*
X95260259Y-126706909D01*
X95279943Y-126703792D01*
X95524075Y-126645181D01*
X95543028Y-126639023D01*
X95774986Y-126542943D01*
X95792742Y-126533895D01*
X96006813Y-126402712D01*
X96022936Y-126390999D01*
X96213851Y-126227943D01*
X96227943Y-126213851D01*
X96390999Y-126022936D01*
X96402712Y-126006813D01*
X96533895Y-125792742D01*
X96542943Y-125774986D01*
X96639023Y-125543028D01*
X96645181Y-125524075D01*
X96703792Y-125279943D01*
X96706909Y-125260259D01*
X96726608Y-125009964D01*
X96726608Y-124990036D01*
X96706909Y-124739741D01*
X96703792Y-124720057D01*
X96645181Y-124475925D01*
X96639023Y-124456972D01*
X96542943Y-124225014D01*
X96533895Y-124207258D01*
X96402712Y-123993187D01*
X96390999Y-123977064D01*
X96227943Y-123786149D01*
X96213851Y-123772057D01*
X96022936Y-123609001D01*
X96006813Y-123597288D01*
X95792742Y-123466105D01*
X95774986Y-123457057D01*
X95543028Y-123360977D01*
X95524075Y-123354819D01*
X95279943Y-123296208D01*
X95260259Y-123293091D01*
X95009964Y-123273392D01*
X94990036Y-123273392D01*
X94739741Y-123293091D01*
X94720057Y-123296208D01*
X94475925Y-123354819D01*
X94456972Y-123360977D01*
X94225014Y-123457057D01*
X94207258Y-123466105D01*
X93993187Y-123597288D01*
X93977064Y-123609001D01*
X93786149Y-123772057D01*
X93772057Y-123786149D01*
X93609001Y-123977064D01*
X93597288Y-123993187D01*
X93466105Y-124207258D01*
X93457057Y-124225014D01*
X93360977Y-124456972D01*
X93354819Y-124475925D01*
X93296208Y-124720057D01*
X93293091Y-124739741D01*
X93273392Y-124990036D01*
X90127000Y-124990036D01*
X90127000Y-120127000D01*
X104873000Y-120127000D01*
X104873000Y-129873000D01*
G37*
D11*
X104873000Y-129873000D02*
X90127000Y-129873000D01*
X90127000Y-124990036D01*
X93273392Y-124990036D01*
X93273392Y-125009964D01*
X93293091Y-125260259D01*
X93296208Y-125279943D01*
X93354819Y-125524075D01*
X93360977Y-125543028D01*
X93457057Y-125774986D01*
X93466105Y-125792742D01*
X93597288Y-126006813D01*
X93609001Y-126022936D01*
X93772057Y-126213851D01*
X93786149Y-126227943D01*
X93977064Y-126390999D01*
X93993187Y-126402712D01*
X94207258Y-126533895D01*
X94225014Y-126542943D01*
X94456972Y-126639023D01*
X94475925Y-126645181D01*
X94720057Y-126703792D01*
X94739741Y-126706909D01*
X94990036Y-126726608D01*
X95009964Y-126726608D01*
X95260259Y-126706909D01*
X95279943Y-126703792D01*
X95524075Y-126645181D01*
X95543028Y-126639023D01*
X95774986Y-126542943D01*
X95792742Y-126533895D01*
X96006813Y-126402712D01*
X96022936Y-126390999D01*
X96213851Y-126227943D01*
X96227943Y-126213851D01*
X96390999Y-126022936D01*
X96402712Y-126006813D01*
X96533895Y-125792742D01*
X96542943Y-125774986D01*
X96639023Y-125543028D01*
X96645181Y-125524075D01*
X96703792Y-125279943D01*
X96706909Y-125260259D01*
X96726608Y-125009964D01*
X96726608Y-124990036D01*
X96706909Y-124739741D01*
X96703792Y-124720057D01*
X96645181Y-124475925D01*
X96639023Y-124456972D01*
X96542943Y-124225014D01*
X96533895Y-124207258D01*
X96402712Y-123993187D01*
X96390999Y-123977064D01*
X96227943Y-123786149D01*
X96213851Y-123772057D01*
X96022936Y-123609001D01*
X96006813Y-123597288D01*
X95792742Y-123466105D01*
X95774986Y-123457057D01*
X95543028Y-123360977D01*
X95524075Y-123354819D01*
X95279943Y-123296208D01*
X95260259Y-123293091D01*
X95009964Y-123273392D01*
X94990036Y-123273392D01*
X94739741Y-123293091D01*
X94720057Y-123296208D01*
X94475925Y-123354819D01*
X94456972Y-123360977D01*
X94225014Y-123457057D01*
X94207258Y-123466105D01*
X93993187Y-123597288D01*
X93977064Y-123609001D01*
X93786149Y-123772057D01*
X93772057Y-123786149D01*
X93609001Y-123977064D01*
X93597288Y-123993187D01*
X93466105Y-124207258D01*
X93457057Y-124225014D01*
X93360977Y-124456972D01*
X93354819Y-124475925D01*
X93296208Y-124720057D01*
X93293091Y-124739741D01*
X93273392Y-124990036D01*
X90127000Y-124990036D01*
X90127000Y-120127000D01*
X104873000Y-120127000D01*
X104873000Y-129873000D01*
G36*
X104873000Y-39873000D02*
G01*
X90127000Y-39873000D01*
X90127000Y-34990036D01*
X93273392Y-34990036D01*
X93273392Y-35009964D01*
X93293091Y-35260259D01*
X93296208Y-35279943D01*
X93354819Y-35524075D01*
X93360977Y-35543028D01*
X93457057Y-35774986D01*
X93466105Y-35792742D01*
X93597288Y-36006813D01*
X93609001Y-36022936D01*
X93772057Y-36213851D01*
X93786149Y-36227943D01*
X93977064Y-36390999D01*
X93993187Y-36402712D01*
X94207258Y-36533895D01*
X94225014Y-36542943D01*
X94456972Y-36639023D01*
X94475925Y-36645181D01*
X94720057Y-36703792D01*
X94739741Y-36706909D01*
X94990036Y-36726608D01*
X95009964Y-36726608D01*
X95260259Y-36706909D01*
X95279943Y-36703792D01*
X95524075Y-36645181D01*
X95543028Y-36639023D01*
X95774986Y-36542943D01*
X95792742Y-36533895D01*
X96006813Y-36402712D01*
X96022936Y-36390999D01*
X96213851Y-36227943D01*
X96227943Y-36213851D01*
X96390999Y-36022936D01*
X96402712Y-36006813D01*
X96533895Y-35792742D01*
X96542943Y-35774986D01*
X96639023Y-35543028D01*
X96645181Y-35524075D01*
X96703792Y-35279943D01*
X96706909Y-35260259D01*
X96726608Y-35009964D01*
X96726608Y-34990036D01*
X96706909Y-34739741D01*
X96703792Y-34720057D01*
X96645181Y-34475925D01*
X96639023Y-34456972D01*
X96542943Y-34225014D01*
X96533895Y-34207258D01*
X96402712Y-33993187D01*
X96390999Y-33977064D01*
X96227943Y-33786149D01*
X96213851Y-33772057D01*
X96022936Y-33609001D01*
X96006813Y-33597288D01*
X95792742Y-33466105D01*
X95774986Y-33457057D01*
X95543028Y-33360977D01*
X95524075Y-33354819D01*
X95279943Y-33296208D01*
X95260259Y-33293091D01*
X95009964Y-33273392D01*
X94990036Y-33273392D01*
X94739741Y-33293091D01*
X94720057Y-33296208D01*
X94475925Y-33354819D01*
X94456972Y-33360977D01*
X94225014Y-33457057D01*
X94207258Y-33466105D01*
X93993187Y-33597288D01*
X93977064Y-33609001D01*
X93786149Y-33772057D01*
X93772057Y-33786149D01*
X93609001Y-33977064D01*
X93597288Y-33993187D01*
X93466105Y-34207258D01*
X93457057Y-34225014D01*
X93360977Y-34456972D01*
X93354819Y-34475925D01*
X93296208Y-34720057D01*
X93293091Y-34739741D01*
X93273392Y-34990036D01*
X90127000Y-34990036D01*
X90127000Y-30127000D01*
X104873000Y-30127000D01*
X104873000Y-39873000D01*
G37*
X104873000Y-39873000D02*
X90127000Y-39873000D01*
X90127000Y-34990036D01*
X93273392Y-34990036D01*
X93273392Y-35009964D01*
X93293091Y-35260259D01*
X93296208Y-35279943D01*
X93354819Y-35524075D01*
X93360977Y-35543028D01*
X93457057Y-35774986D01*
X93466105Y-35792742D01*
X93597288Y-36006813D01*
X93609001Y-36022936D01*
X93772057Y-36213851D01*
X93786149Y-36227943D01*
X93977064Y-36390999D01*
X93993187Y-36402712D01*
X94207258Y-36533895D01*
X94225014Y-36542943D01*
X94456972Y-36639023D01*
X94475925Y-36645181D01*
X94720057Y-36703792D01*
X94739741Y-36706909D01*
X94990036Y-36726608D01*
X95009964Y-36726608D01*
X95260259Y-36706909D01*
X95279943Y-36703792D01*
X95524075Y-36645181D01*
X95543028Y-36639023D01*
X95774986Y-36542943D01*
X95792742Y-36533895D01*
X96006813Y-36402712D01*
X96022936Y-36390999D01*
X96213851Y-36227943D01*
X96227943Y-36213851D01*
X96390999Y-36022936D01*
X96402712Y-36006813D01*
X96533895Y-35792742D01*
X96542943Y-35774986D01*
X96639023Y-35543028D01*
X96645181Y-35524075D01*
X96703792Y-35279943D01*
X96706909Y-35260259D01*
X96726608Y-35009964D01*
X96726608Y-34990036D01*
X96706909Y-34739741D01*
X96703792Y-34720057D01*
X96645181Y-34475925D01*
X96639023Y-34456972D01*
X96542943Y-34225014D01*
X96533895Y-34207258D01*
X96402712Y-33993187D01*
X96390999Y-33977064D01*
X96227943Y-33786149D01*
X96213851Y-33772057D01*
X96022936Y-33609001D01*
X96006813Y-33597288D01*
X95792742Y-33466105D01*
X95774986Y-33457057D01*
X95543028Y-33360977D01*
X95524075Y-33354819D01*
X95279943Y-33296208D01*
X95260259Y-33293091D01*
X95009964Y-33273392D01*
X94990036Y-33273392D01*
X94739741Y-33293091D01*
X94720057Y-33296208D01*
X94475925Y-33354819D01*
X94456972Y-33360977D01*
X94225014Y-33457057D01*
X94207258Y-33466105D01*
X93993187Y-33597288D01*
X93977064Y-33609001D01*
X93786149Y-33772057D01*
X93772057Y-33786149D01*
X93609001Y-33977064D01*
X93597288Y-33993187D01*
X93466105Y-34207258D01*
X93457057Y-34225014D01*
X93360977Y-34456972D01*
X93354819Y-34475925D01*
X93296208Y-34720057D01*
X93293091Y-34739741D01*
X93273392Y-34990036D01*
X90127000Y-34990036D01*
X90127000Y-30127000D01*
X104873000Y-30127000D01*
X104873000Y-39873000D01*
M02*
