M48
; DRILL file {KiCad (5.99.0-1588-g7ca069e63)} date Sun May 10 11:50:10 2020
; FORMAT={-:-/ absolute / inch / decimal}
; #@! TF.CreationDate,2020-05-10T11:50:10-06:00
; #@! TF.GenerationSoftware,Kicad,Pcbnew,(5.99.0-1588-g7ca069e63)
; #@! TF.FileFunction,Plated,1,2,PTH
FMAT,2
INCH
T1C0.0197
T2C0.0394
T3C0.1260
%
G90
G05
T1
X4.4331Y-1.378
X4.4607Y-1.3111
X4.4607Y-1.4448
X4.5276Y-1.2835
X4.5276Y-1.4724
X4.5944Y-1.3111
X4.5944Y-1.4448
X4.622Y-1.378
X9.315Y-1.378
X9.3426Y-1.3111
X9.3426Y-1.4448
X9.4094Y-1.2835
X9.4094Y-1.4724
X9.4763Y-1.3111
X9.4763Y-1.4448
X9.5039Y-1.378
X9.315Y-4.9213
X9.3426Y-4.8544
X9.3426Y-4.9881
X9.4094Y-4.8268
X9.4094Y-5.0157
X9.4763Y-4.8544
X9.4763Y-4.9881
X9.5039Y-4.9213
X4.4331Y-4.9213
X4.4607Y-4.8544
X4.4607Y-4.9881
X4.5276Y-4.8268
X4.5276Y-5.0157
X4.5944Y-4.8544
X4.5944Y-4.9881
X4.622Y-4.9213
T2
X7.0339Y-1.5996
X4.8339Y-1.3996
X4.7339Y-2.9996
X6.3339Y-3.6996
X6.3339Y-2.5996
X7.4339Y-4.2996
X8.1339Y-1.8996
X9.0339Y-3.8996
X7.0339Y-2.4996
X5.7339Y-4.5996
X5.9339Y-4.1996
X5.9339Y-4.6996
X6.0339Y-2.7996
X6.0339Y-1.8996
X7.5339Y-3.8996
X7.5339Y-4.3996
X7.9339Y-3.2996
X8.3339Y-3.1996
X8.0339Y-4.3996
X8.1339Y-3.2996
X8.7339Y-2.3996
X8.7339Y-1.5996
X8.7339Y-1.7996
X8.8339Y-2.3996
X5.4339Y-4.8996
X8.5339Y-1.6996
X5.2339Y-4.2996
X6.0339Y-3.2996
X6.4339Y-3.8996
X6.4339Y-1.6996
X7.9339Y-3.8996
X7.9339Y-2.3996
X8.8339Y-4.4996
X9.0339Y-2.6996
X6.1339Y-4.6996
X7.7339Y-4.0996
X6.9339Y-1.9996
X5.2339Y-2.1996
X5.1339Y-4.8996
X5.2339Y-2.7996
X5.9339Y-3.8996
X8.0339Y-4.6996
X9.0339Y-1.7996
X6.2339Y-1.7996
X6.1339Y-2.7996
X8.5339Y-2.8996
X4.9339Y-4.7996
X5.1339Y-3.9996
X5.5339Y-3.6996
X6.7339Y-1.4996
X8.1339Y-4.7996
X8.3339Y-1.6996
X8.8339Y-1.5996
X9.1339Y-3.7996
X7.8339Y-4.5996
X5.3339Y-3.3996
X6.2339Y-1.5996
X6.9339Y-2.6996
X4.7339Y-3.9996
X5.1339Y-4.4996
X5.7339Y-1.3996
X6.3339Y-3.1996
X6.3339Y-1.4996
X6.8339Y-2.7996
X7.5339Y-4.4996
X7.6339Y-2.8996
X9.0339Y-2.9996
X8.6339Y-4.2996
X5.3339Y-4.1996
X7.8339Y-3.6996
X5.3339Y-2.4996
X6.3339Y-3.0996
X8.0339Y-2.3996
X8.7339Y-2.8996
X8.9339Y-1.5996
X5.3339Y-4.7996
X4.8339Y-3.4996
X5.1339Y-4.1996
X5.1339Y-2.4996
X5.7339Y-4.4996
X6.0339Y-4.4996
X7.3339Y-1.3996
X7.9339Y-2.8996
X8.0339Y-3.9996
X8.8339Y-3.5996
X8.9339Y-4.6996
X9.0339Y-2.1996
X7.8339Y-4.6996
X6.2339Y-4.0996
X7.0339Y-1.9996
X5.1339Y-3.0996
X5.2339Y-3.7996
X6.3339Y-3.3996
X6.8339Y-1.5996
X8.2339Y-1.4996
X8.9339Y-4.4996
X6.9339Y-3.8996
X8.6339Y-1.4996
X4.9339Y-2.8996
X5.2339Y-3.1996
X7.1339Y-2.6996
X8.3339Y-4.0996
X8.2339Y-1.6996
X5.4339Y-1.5996
X5.1339Y-3.6996
X5.9339Y-2.7996
X5.9339Y-3.0996
X6.2339Y-3.1996
X6.4339Y-3.3996
X6.8339Y-4.6996
X7.3339Y-1.9996
X7.6339Y-2.7996
X9.0339Y-1.6996
X6.2339Y-4.3996
X6.9339Y-4.2996
X6.2339Y-4.1996
X7.7339Y-3.4996
X6.9339Y-2.4996
X6.0339Y-3.4996
X8.7339Y-4.4996
X8.9339Y-4.5996
X8.5339Y-4.4996
X4.7339Y-3.8996
X4.7339Y-4.2996
X5.2339Y-1.6996
X5.4339Y-3.0996
X5.7339Y-3.5996
X6.0339Y-3.5996
X6.5339Y-3.2996
X6.6339Y-2.5996
X7.9339Y-4.4996
X8.1339Y-2.7996
X8.8339Y-1.9996
X8.8339Y-3.8996
X5.4339Y-4.6996
X8.5339Y-4.0996
X4.9339Y-2.7996
X5.1339Y-2.7996
X5.0339Y-4.5996
X6.8339Y-2.3996
X7.5339Y-4.8996
X8.0339Y-3.8996
X8.8339Y-3.9996
X7.0339Y-4.7996
X7.8339Y-3.8996
X8.6339Y-1.6996
X5.1339Y-3.3996
X5.1339Y-2.5996
X5.5339Y-4.8996
X5.8339Y-3.2996
X6.5339Y-2.3996
X8.0339Y-2.8996
X8.3339Y-3.4996
X8.2339Y-1.7996
X5.4339Y-2.9996
X4.9339Y-1.8996
X5.5339Y-2.5996
X5.9339Y-4.2996
X5.5339Y-4.4996
X6.4339Y-2.6996
X7.4339Y-2.2996
X7.6339Y-4.6996
X9.0339Y-2.3996
X9.1339Y-1.3996
X7.7339Y-4.3996
X5.4339Y-4.2996
X7.7339Y-4.1996
X6.1339Y-2.2996
X7.8339Y-2.4996
X4.9339Y-3.7996
X6.5339Y-3.0996
X6.4339Y-1.5996
X8.7339Y-1.8996
X9.1339Y-2.9996
X8.6339Y-4.4996
X4.8339Y-4.1996
X4.8339Y-4.4996
X5.2339Y-4.0996
X5.3339Y-3.0996
X7.2339Y-3.6996
X7.5339Y-4.6996
X7.5339Y-2.7996
X6.7339Y-1.8996
X8.2339Y-4.4996
X8.7339Y-3.5996
X8.9339Y-2.9996
X8.9339Y-3.9996
X8.6339Y-4.5996
X7.8339Y-4.2996
X6.9339Y-3.9996
X7.8339Y-3.4996
X4.7339Y-3.5996
X4.9339Y-4.6996
X5.0339Y-1.4996
X5.5339Y-2.9996
X6.8339Y-4.1996
X7.1339Y-1.5996
X7.4339Y-1.6996
X8.2339Y-3.8996
X8.9339Y-3.1996
X7.7339Y-4.7996
X5.4339Y-3.8996
X5.3339Y-2.3996
X5.1339Y-3.1996
X5.5339Y-1.8996
X5.8339Y-4.2996
X5.9339Y-1.4996
X5.9339Y-3.4996
X6.5339Y-2.8996
X8.3339Y-3.0996
X9.0339Y-2.4996
X7.8339Y-4.8996
X8.5339Y-1.4996
X5.5339Y-3.1996
X5.5339Y-3.5996
X6.4339Y-1.4996
X7.1339Y-3.4996
X7.4339Y-2.8996
X6.6339Y-2.8996
X7.6339Y-4.5996
X8.2339Y-2.3996
X8.8339Y-1.4996
X9.0339Y-2.8996
X7.7339Y-1.3996
X8.6339Y-1.5996
X4.9339Y-3.2996
X6.8339Y-3.3996
X8.7339Y-2.0996
X9.1339Y-3.0996
X5.3339Y-2.0996
X5.4339Y-2.2996
X4.8339Y-3.1996
X5.2339Y-3.4996
X6.3339Y-4.6996
X6.8339Y-2.5996
X7.3339Y-3.5996
X7.4339Y-3.8996
X7.5339Y-3.7996
X8.2339Y-3.5996
X8.9339Y-4.8996
X8.8339Y-4.8996
X6.2339Y-4.5996
X7.0339Y-3.4996
X4.8339Y-4.2996
X5.1339Y-1.4996
X5.0339Y-3.8996
X5.6339Y-2.3996
X6.4339Y-2.7996
X6.8339Y-4.2996
X7.1339Y-4.5996
X7.4339Y-2.6996
X7.4339Y-1.7996
X6.7339Y-2.7996
X8.4339Y-3.4996
X8.5339Y-4.7996
X6.1339Y-3.8996
X7.8339Y-3.5996
X7.8339Y-2.3996
X4.7339Y-2.5996
X4.9339Y-4.3996
X5.6339Y-1.9996
X5.7339Y-4.1996
X7.3339Y-4.2996
X6.5339Y-4.5996
X7.6339Y-4.3996
X8.0339Y-3.4996
X8.7339Y-4.2996
X9.0339Y-1.5996
X6.2339Y-4.2996
X6.2339Y-3.9996
X8.5339Y-1.8996
X5.6339Y-4.1996
X5.6339Y-4.3996
X7.1339Y-3.6996
X6.7339Y-2.8996
X7.5339Y-2.4996
X6.7339Y-4.8996
X8.2339Y-2.7996
X8.1339Y-2.2996
X6.9339Y-1.4996
X7.7339Y-2.8996
X8.6339Y-1.9996
X5.0339Y-4.7996
X5.2339Y-3.2996
X6.8339Y-2.6996
X8.7339Y-4.1996
X7.0339Y-3.2996
X5.4339Y-2.0996
X8.5339Y-2.5996
X5.1339Y-4.2996
X7.2339Y-4.4996
X8.0339Y-2.6996
X8.2339Y-1.9996
X8.8339Y-1.8996
X7.0339Y-4.5996
X6.2339Y-3.3996
X4.7339Y-3.3996
X6.9339Y-3.0996
X4.7339Y-4.1996
X4.9339Y-3.8996
X4.9339Y-2.2996
X5.6339Y-2.8996
X6.3339Y-2.7996
X6.8339Y-3.9996
X7.1339Y-2.5996
X7.3339Y-3.1996
X6.6339Y-4.2996
X6.7339Y-2.1996
X8.0339Y-4.1996
X8.1339Y-3.4996
X8.6339Y-4.6996
X6.2339Y-4.4996
X7.0339Y-3.7996
X6.9339Y-3.5996
X7.8339Y-2.2996
X7.0339Y-2.3996
X5.6339Y-2.2996
X6.0339Y-1.3996
X6.7339Y-1.3996
X6.5339Y-4.6996
X7.9339Y-2.6996
X8.3339Y-2.4996
X9.0339Y-4.5996
X9.1339Y-3.6996
X5.5339Y-4.6996
X5.7339Y-2.0996
X7.4339Y-3.1996
X7.5339Y-2.2996
X7.2339Y-3.0996
X7.3339Y-1.7996
X8.1339Y-2.8996
X8.1339Y-1.7996
X8.4339Y-3.0996
X6.1339Y-1.4996
X6.9339Y-2.8996
X4.8339Y-2.0996
X5.7339Y-2.9996
X6.8339Y-1.4996
X7.1339Y-1.9996
X8.2339Y-2.6996
X8.7339Y-4.6996
X9.1339Y-1.9996
X5.4339Y-3.6996
X7.7339Y-2.0996
X8.5339Y-2.6996
X4.9339Y-3.4996
X5.9339Y-1.8996
X7.2339Y-3.5996
X7.4339Y-3.7996
X8.0339Y-2.1996
X8.9339Y-1.9996
X6.9339Y-4.5996
X7.0339Y-3.3996
X7.7339Y-1.5996
X4.7339Y-2.6996
X4.8339Y-1.6996
X4.9339Y-4.4996
X5.1339Y-3.2996
X5.0339Y-2.5996
X5.6339Y-3.6996
X9.1339Y-2.3996
X6.9339Y-3.1996
X7.1339Y-1.4996
X6.7339Y-3.8996
X6.7339Y-3.9996
X6.7339Y-2.5996
X7.6339Y-3.9996
X8.1339Y-1.6996
X6.1339Y-4.3996
X8.5339Y-3.7996
X8.6339Y-3.5996
X6.2339Y-2.3996
X7.2339Y-1.3996
X6.5339Y-1.7996
X7.3339Y-3.7996
X7.9339Y-2.1996
X8.0339Y-3.0996
X8.4339Y-4.0996
X9.1339Y-3.8996
X6.2339Y-2.5996
X4.8339Y-4.7996
X5.7339Y-4.0996
X6.7339Y-4.6996
X7.2339Y-3.4996
X6.5339Y-3.7996
X8.1339Y-3.6996
X8.3339Y-2.7996
X8.4339Y-4.6996
X8.8339Y-4.5996
X5.3339Y-4.6996
X4.8339Y-1.9996
X5.8339Y-2.3996
X5.8339Y-1.7996
X6.0339Y-3.1996
X6.5339Y-3.1996
X6.8339Y-3.6996
X7.1339Y-3.3996
X7.1339Y-2.2996
X7.2339Y-2.9996
X7.6339Y-2.6996
X8.4339Y-2.4996
X8.6339Y-3.0996
X9.1339Y-1.8996
X6.1339Y-3.9996
X6.9339Y-1.7996
X7.0339Y-2.0996
X5.2339Y-2.4996
X5.6339Y-2.1996
X5.9339Y-4.0996
X5.9339Y-2.4996
X6.4339Y-2.4996
X6.4339Y-4.1996
X7.1339Y-2.0996
X7.3339Y-2.1996
X8.1339Y-4.6996
X8.5339Y-4.5996
X8.6339Y-3.3996
X7.8339Y-1.4996
X7.0339Y-2.9996
X8.6339Y-2.5996
X4.7339Y-1.4996
X4.9339Y-3.5996
X5.0339Y-4.1996
X5.5339Y-4.7996
X5.5339Y-1.3996
X9.1339Y-2.0996
X7.2339Y-3.3996
X6.4339Y-4.3996
X6.7339Y-4.4996
X7.5339Y-1.7996
X8.1339Y-4.0996
X8.6339Y-4.3996
X6.2339Y-3.7996
X8.5339Y-3.4996
X5.4339Y-3.2996
X4.8339Y-3.8996
X5.0339Y-2.4996
X6.6339Y-4.3996
X7.4339Y-4.8996
X6.6339Y-1.7996
X6.7339Y-3.7996
X7.9339Y-3.9996
X8.4339Y-3.7996
X8.8339Y-4.2996
X9.1339Y-3.5996
X5.3339Y-2.6996
X5.7339Y-3.7996
X7.5339Y-4.1996
X8.1339Y-2.0996
X8.4339Y-4.5996
X8.9339Y-2.6996
X4.7339Y-2.1996
X5.6339Y-4.2996
X5.8339Y-2.8996
X5.6339Y-1.3996
X5.7339Y-1.6996
X6.0339Y-4.6996
X6.6339Y-2.0996
X6.8339Y-2.4996
X7.1339Y-4.2996
X7.3339Y-2.3996
X7.5339Y-4.2996
X7.6339Y-1.4996
X8.2339Y-4.5996
X8.4339Y-1.9996
X8.4339Y-1.3996
X8.7339Y-1.4996
X9.1339Y-1.6996
X5.3339Y-3.6996
X7.0339Y-2.1996
X5.5339Y-3.0996
X5.9339Y-2.6996
X5.8339Y-3.7996
X6.5339Y-3.8996
X6.5339Y-1.6996
X7.1339Y-4.1996
X7.4339Y-4.3996
X7.4339Y-1.3996
X8.0339Y-1.8996
X8.3339Y-2.5996
X8.6339Y-3.7996
X7.7339Y-1.4996
X6.2339Y-2.9996
X8.6339Y-2.8996
X5.0339Y-4.2996
X5.0339Y-2.6996
X5.5339Y-2.2996
X5.5339Y-2.3996
X5.7339Y-4.2996
X5.7339Y-1.5996
X7.2339Y-2.6996
X6.6339Y-3.9996
X6.6339Y-1.6996
X7.9339Y-4.5996
X9.0339Y-1.4996
X6.1339Y-1.3996
X5.3339Y-2.7996
X4.9339Y-3.3996
X5.0339Y-3.2996
X6.5339Y-3.9996
X7.4339Y-2.0996
X7.3339Y-2.6996
X7.5339Y-3.2996
X7.5339Y-1.4996
X7.6339Y-2.1996
X8.1339Y-3.3996
X9.1339Y-2.4996
X6.1339Y-4.4996
X7.8339Y-3.3996
X5.8339Y-2.5996
X5.7339Y-3.2996
X7.2339Y-3.7996
X6.5339Y-2.7996
X7.4339Y-4.6996
X8.4339Y-2.5996
X7.0339Y-1.7996
X4.8339Y-4.6996
X4.8339Y-3.3996
X5.1339Y-2.6996
X5.6339Y-3.5996
X5.5339Y-4.1996
X5.7339Y-2.1996
X5.7339Y-3.4996
X6.0339Y-4.5996
X6.5339Y-4.3996
X6.0339Y-3.9996
X7.1339Y-4.8996
X7.3339Y-2.8996
X7.4339Y-4.1996
X7.6339Y-3.6996
X8.3339Y-2.6996
X8.4339Y-2.9996
X8.4339Y-1.6996
X8.8339Y-3.3996
X7.8339Y-4.7996
X7.7339Y-3.6996
X5.4339Y-2.1996
X5.7339Y-4.8996
X6.5339Y-4.2996
X7.3339Y-3.9996
X6.4339Y-3.4996
X8.3339Y-4.3996
X9.0339Y-1.9996
X6.1339Y-1.9996
X8.6339Y-2.9996
X4.9339Y-4.1996
X5.5339Y-2.8996
X5.6339Y-1.5996
X5.8339Y-4.4996
X6.3339Y-4.2996
X6.6339Y-1.5996
X7.9339Y-2.5996
X7.9339Y-1.7996
X9.1339Y-4.7996
X5.3339Y-1.3996
X6.1339Y-2.8996
X4.9339Y-2.6996
X4.9339Y-2.3996
X6.4339Y-4.5996
X7.1339Y-2.1996
X7.2339Y-1.6996
X6.6339Y-3.5996
X6.7339Y-3.4996
X7.6339Y-1.8996
X8.0339Y-2.4996
X9.1339Y-2.8996
X6.9339Y-3.3996
X7.7339Y-1.6996
X5.0339Y-1.8996
X5.8339Y-4.7996
X6.0339Y-4.3996
X7.2339Y-3.2996
X6.7339Y-4.7996
X6.5339Y-1.3996
X7.9339Y-4.3996
X6.9339Y-3.4996
X5.4339Y-1.7996
X4.7339Y-1.8996
X5.6339Y-3.8996
X5.6339Y-1.6996
X5.8339Y-2.0996
X6.0339Y-1.5996
X6.6339Y-4.0996
X7.1339Y-4.0996
X7.3339Y-3.6996
X7.3339Y-2.4996
X7.2339Y-1.8996
X7.6339Y-2.4996
X8.3339Y-2.1996
X8.4339Y-4.7996
X8.7339Y-1.9996
X8.9339Y-2.5996
X7.0339Y-3.6996
X5.3339Y-3.5996
X7.7339Y-2.1996
X5.9339Y-3.7996
X6.1339Y-3.0996
X7.2339Y-4.5996
X7.1339Y-1.7996
X7.9339Y-1.8996
X8.3339Y-1.3996
X9.0339Y-2.2996
X4.7339Y-1.5996
X5.0339Y-1.6996
X5.6339Y-4.5996
X5.7339Y-3.9996
X6.3339Y-4.8996
X7.1339Y-2.3996
X7.5339Y-1.6996
X6.6339Y-1.8996
X8.2339Y-3.2996
X8.2339Y-3.4996
X8.8339Y-3.7996
X7.8339Y-2.8996
X5.0339Y-1.5996
X7.1339Y-3.9996
X6.4339Y-3.0996
X7.9339Y-3.0996
X8.1339Y-3.8996
X8.2339Y-3.3996
X8.2339Y-4.2996
X8.5339Y-3.2996
X7.0339Y-1.6996
X7.8339Y-1.9996
X5.0339Y-2.0996
X5.1339Y-1.8996
X5.9339Y-2.1996
X6.7339Y-3.3996
X8.0339Y-2.0996
X9.1339Y-4.3996
X7.0339Y-4.1996
X6.2339Y-1.8996
X6.1339Y-2.5996
X4.8339Y-1.4996
X5.9339Y-4.4996
X6.0339Y-2.3996
X7.2339Y-4.7996
X7.5339Y-1.5996
X7.6339Y-1.9996
X8.7339Y-2.2996
X8.9339Y-1.7996
X5.3339Y-4.4996
X6.9339Y-3.6996
X5.4339Y-3.5996
X5.3339Y-2.1996
X4.8339Y-3.0996
X5.5339Y-3.3996
X6.0339Y-2.9996
X7.4339Y-3.6996
X7.5339Y-3.5996
X7.4339Y-3.4996
X7.9339Y-2.0996
X8.1339Y-3.7996
X7.8339Y-3.9996
X4.8339Y-3.2996
X5.0339Y-4.0996
X5.6339Y-2.5996
X5.8339Y-3.1996
X6.2339Y-3.0996
X7.5339Y-4.0996
X8.1339Y-4.1996
X8.3339Y-3.9996
X8.5339Y-3.1996
X8.8339Y-2.5996
X5.1339Y-2.3996
X5.7339Y-3.8996
X5.9339Y-2.5996
X6.0339Y-4.2996
X6.5339Y-3.6996
X6.8339Y-2.1996
X6.7339Y-1.7996
X7.6339Y-3.4996
X8.1339Y-4.2996
X8.1339Y-2.4996
X8.3339Y-4.4996
X7.0339Y-4.8996
X7.7339Y-4.2996
X7.7339Y-3.2996
X7.8339Y-1.6996
X7.0339Y-2.6996
X5.2339Y-3.5996
X5.2339Y-1.9996
X5.9339Y-3.9996
X6.0339Y-3.3996
X6.4339Y-3.6996
X6.6339Y-3.6996
X7.6339Y-2.5996
X7.9339Y-4.2996
X8.8339Y-3.2996
X9.0339Y-4.4996
X9.1339Y-4.6996
X6.1339Y-4.1996
X7.8339Y-4.0996
X7.7339Y-1.8996
X7.0339Y-2.5996
X4.7339Y-2.0996
X5.7339Y-2.5996
X6.3339Y-1.5996
X7.2339Y-2.2996
X6.7339Y-3.0996
X7.6339Y-2.9996
X7.0339Y-2.2996
X4.8339Y-4.3996
X5.5339Y-2.6996
X6.3339Y-3.9996
X7.3339Y-1.8996
X7.5339Y-3.9996
X6.7339Y-2.9996
X8.3339Y-1.4996
X8.8339Y-2.9996
X9.1339Y-3.1996
X4.8339Y-1.5996
X5.9339Y-2.0996
X6.3339Y-2.3996
X6.4339Y-4.6996
X7.2339Y-4.8996
X7.5339Y-3.4996
X7.5339Y-3.0996
X8.1339Y-3.0996
X8.4339Y-1.7996
X8.8339Y-3.1996
X9.0339Y-4.7996
X7.7339Y-2.2996
X4.7339Y-3.1996
X5.1339Y-4.5996
X5.8339Y-1.6996
X5.9339Y-3.2996
X5.8339Y-2.2996
X6.1339Y-3.1996
X6.4339Y-4.7996
X6.8339Y-3.1996
X6.8339Y-1.8996
X7.2339Y-4.1996
X7.4339Y-4.4996
X7.6339Y-2.0996
X7.6339Y-1.5996
X8.1339Y-1.9996
X8.3339Y-1.8996
X8.4339Y-3.2996
X8.7339Y-4.8996
X8.7339Y-3.7996
X8.8339Y-2.1996
X6.9339Y-4.8996
X7.0339Y-3.9996
X6.2339Y-1.6996
X6.2339Y-2.7996
X8.5339Y-2.2996
X5.0339Y-2.8996
X5.2339Y-3.3996
X5.2339Y-2.2996
X5.9339Y-2.9996
X6.0339Y-2.6996
X6.5339Y-3.5996
X6.6339Y-3.7996
X7.1339Y-3.1996
X6.5339Y-1.8996
X7.2339Y-4.6996
X7.9339Y-4.7996
X7.9339Y-4.8996
X8.2339Y-4.8996
X8.9339Y-4.7996
X9.0339Y-1.8996
X9.1339Y-4.4996
X5.3339Y-4.0996
X5.4339Y-1.8996
X5.4339Y-2.5996
X8.6339Y-2.0996
X5.2339Y-1.5996
X5.8339Y-2.6996
X7.6339Y-4.7996
X6.2339Y-3.2996
X4.7339Y-1.7996
X5.2339Y-4.4996
X5.5339Y-1.4996
X7.3339Y-2.0996
X7.4339Y-2.7996
X6.7339Y-3.6996
X8.0339Y-1.4996
X8.3339Y-2.9996
X8.9339Y-2.3996
X9.1339Y-3.9996
X4.8339Y-1.7996
X6.3339Y-2.8996
X6.3339Y-3.7996
X6.4339Y-1.8996
X8.0339Y-2.5996
X8.9339Y-4.1996
X9.0339Y-3.3996
X5.8339Y-4.1996
X5.8339Y-1.5996
X5.8339Y-4.6996
X6.0339Y-1.7996
X6.0339Y-1.6996
X6.4339Y-2.2996
X7.3339Y-1.6996
X7.4339Y-3.5996
X6.7339Y-3.2996
X7.6339Y-2.3996
X8.2339Y-2.2996
X8.3339Y-2.0996
X8.7339Y-4.0996
X8.7339Y-3.2996
X8.7339Y-4.3996
X8.8339Y-3.4996
X9.0339Y-2.5996
X6.1339Y-4.8996
X5.3339Y-3.9996
X6.1339Y-1.7996
X8.5339Y-2.0996
X5.1339Y-1.9996
X5.6339Y-4.6996
X5.8339Y-2.4996
X6.0339Y-1.4996
X6.5339Y-2.1996
X7.0339Y-3.1996
X6.7339Y-1.9996
X7.4339Y-2.1996
X7.9339Y-3.3996
X7.9339Y-4.0996
X8.9339Y-3.3996
X9.0339Y-4.1996
X8.6339Y-4.0996
X6.1339Y-1.8996
X7.7339Y-2.9996
X8.6339Y-2.3996
X5.2339Y-4.6996
X5.0339Y-1.3996
X5.5339Y-2.1996
X8.0339Y-4.8996
X9.0339Y-4.3996
X5.4339Y-2.7996
X8.5339Y-2.7996
X4.7339Y-4.6996
X5.0339Y-4.4996
X5.0339Y-1.9996
X5.5339Y-3.2996
X6.7339Y-3.5996
X8.0339Y-3.6996
X8.3339Y-4.8996
X8.9339Y-2.2996
X9.1339Y-4.5996
X7.8339Y-1.5996
X4.8339Y-2.5996
X5.0339Y-3.7996
X6.3339Y-4.4996
X6.3339Y-4.3996
X6.8339Y-1.7996
X7.5339Y-3.6996
X7.7339Y-3.1996
X8.0339Y-3.1996
X9.0339Y-4.2996
X7.8339Y-4.3996
X7.8339Y-4.1996
X6.2339Y-2.4996
X5.8339Y-1.9996
X6.3339Y-1.9996
X7.4339Y-1.9996
X7.9339Y-1.5996
X8.2339Y-2.8996
X8.2339Y-2.1996
X8.7339Y-3.4996
X8.7339Y-2.7996
X8.9339Y-3.2996
X8.6339Y-4.7996
X8.5339Y-3.6996
X4.8339Y-2.3996
X5.2339Y-2.9996
X5.8339Y-3.3996
X6.0339Y-3.6996
X7.2339Y-2.3996
X6.7339Y-4.0996
X7.9339Y-3.4996
X8.0339Y-4.7996
X8.8339Y-2.4996
X9.0339Y-4.6996
X6.2339Y-4.6996
X6.1339Y-4.0996
X8.6339Y-3.6996
X7.7339Y-1.9996
X5.1339Y-3.8996
X4.9339Y-2.1996
X5.2339Y-4.5996
X6.3339Y-3.5996
X7.1339Y-2.4996
X7.9339Y-2.7996
X8.2339Y-3.7996
X7.0339Y-3.8996
X7.8339Y-1.7996
X8.5339Y-2.9996
X5.0339Y-3.1996
X5.1339Y-2.2996
X5.3339Y-3.1996
X6.5339Y-2.6996
X8.2339Y-2.9996
X6.9339Y-4.4996
X6.9339Y-1.5996
X4.7339Y-2.2996
X5.0339Y-3.0996
X5.7339Y-3.0996
X6.3339Y-1.8996
X6.4339Y-2.0996
X6.8339Y-4.8996
X6.4339Y-2.1996
X7.4339Y-4.7996
X7.6339Y-1.7996
X9.0339Y-4.8996
X5.3339Y-4.3996
X5.3339Y-4.2996
X8.5339Y-4.1996
X5.4339Y-3.4996
X5.3339Y-1.7996
X6.1339Y-2.4996
X4.8339Y-3.5996
X4.9339Y-1.7996
X6.3339Y-2.2996
X8.7339Y-3.6996
X8.9339Y-2.7996
X4.8339Y-2.1996
X4.8339Y-2.8996
X5.2339Y-4.8996
X5.1339Y-3.5996
X5.7339Y-2.4996
X6.0339Y-2.4996
X6.6339Y-4.5996
X6.7339Y-2.0996
X7.9339Y-3.6996
X8.3339Y-3.5996
X8.9339Y-3.8996
X8.9339Y-2.1996
X9.0339Y-3.9996
X7.0339Y-4.6996
X5.4339Y-4.0996
X5.2339Y-3.9996
X5.2339Y-2.5996
X6.3339Y-3.8996
X6.8339Y-3.0996
X8.1339Y-2.1996
X8.8339Y-4.7996
X5.3339Y-3.8996
X8.6339Y-1.3996
X5.1339Y-2.0996
X5.1339Y-2.8996
X5.5339Y-2.7996
X5.9339Y-4.5996
X6.5339Y-4.0996
X7.1339Y-4.6996
X8.1339Y-3.1996
X8.3339Y-2.3996
X8.2339Y-1.8996
X5.3339Y-2.9996
X4.9339Y-1.6996
X5.8339Y-1.4996
X5.9339Y-3.1996
X6.4339Y-4.0996
X6.8339Y-3.8996
X7.4339Y-3.9996
X7.6339Y-4.8996
X9.0339Y-4.0996
X7.0339Y-4.3996
X8.5339Y-4.2996
X5.4339Y-4.1996
X5.4339Y-2.4996
X5.4339Y-2.6996
X7.3339Y-4.3996
X8.7339Y-3.1996
X7.0339Y-4.4996
X6.9339Y-3.7996
X4.8339Y-3.9996
X4.8339Y-3.6996
X5.1339Y-2.9996
X5.4339Y-3.1996
X5.8339Y-3.8996
X6.0339Y-1.9996
X6.7339Y-4.2996
X6.7339Y-4.5996
X7.9339Y-3.1996
X8.3339Y-3.3996
X8.7339Y-4.7996
X8.9339Y-4.2996
X8.8339Y-3.0996
X8.5339Y-4.6996
X5.4339Y-3.9996
X4.7339Y-2.4996
X4.9339Y-4.8996
X4.9339Y-1.3996
X5.2339Y-4.3996
X6.8339Y-1.9996
X7.1339Y-3.2996
X6.5339Y-2.5996
X8.8339Y-2.6996
X8.8339Y-2.2996
X6.2339Y-4.7996
X6.2339Y-3.8996
X8.6339Y-1.7996
X5.2339Y-1.8996
X5.5339Y-1.6996
X5.7339Y-1.9996
X5.9339Y-1.3996
X6.5339Y-3.4996
X8.3339Y-2.8996
X8.3339Y-1.9996
X7.7339Y-4.8996
X6.2339Y-1.9996
X8.5339Y-1.3996
X5.6339Y-1.8996
X5.5339Y-2.4996
X6.4339Y-3.7996
X7.5339Y-3.1996
X7.6339Y-3.8996
X9.0339Y-3.4996
X9.1339Y-1.4996
X8.6339Y-4.1996
X5.4339Y-1.3996
X7.7339Y-2.4996
X8.6339Y-2.2996
X4.9339Y-1.4996
X6.8339Y-2.0996
X8.6339Y-3.1996
X9.1339Y-2.7996
X5.4339Y-4.4996
X6.9339Y-2.2996
X4.7339Y-4.7996
X5.2339Y-2.3996
X6.3339Y-2.6996
X7.3339Y-4.7996
X7.5339Y-2.1996
X7.5339Y-4.5996
X6.6339Y-4.8996
X8.2339Y-2.4996
X8.7339Y-3.3996
X8.8339Y-4.1996
X8.8339Y-2.7996
X5.4339Y-4.5996
X6.1339Y-2.6996
X8.6339Y-3.4996
X4.7339Y-1.9996
X5.1339Y-3.7996
X5.2339Y-1.4996
X5.6339Y-4.0996
X6.6339Y-2.6996
X6.8339Y-2.9996
X7.1339Y-2.7996
X7.2339Y-1.7996
X7.4339Y-1.8996
X6.1339Y-4.7996
X7.7339Y-3.8996
X6.9339Y-2.3996
X5.2339Y-2.0996
X5.5339Y-1.7996
X5.8339Y-2.9996
X5.8339Y-2.1996
X6.4339Y-4.2996
X7.2339Y-1.9996
X6.5339Y-2.2996
X8.3339Y-2.2996
X8.7339Y-3.8996
X9.0339Y-3.2996
X8.5339Y-2.1996
X5.6339Y-2.0996
X6.4339Y-3.2996
X7.1339Y-2.8996
X7.4339Y-2.5996
X7.4339Y-1.5996
X6.7339Y-1.6996
X8.3339Y-3.2996
X8.8339Y-4.3996
X6.2339Y-1.3996
X5.4339Y-2.8996
X8.6339Y-1.8996
X4.9339Y-3.6996
X6.8339Y-4.0996
X8.4339Y-4.3996
X6.2339Y-2.0996
X8.5339Y-1.5996
X5.2339Y-2.8996
X7.3339Y-3.3996
X8.0339Y-4.0996
X8.3339Y-3.8996
X8.8339Y-1.6996
X6.1339Y-4.5996
X6.1339Y-4.2996
X6.1339Y-3.4996
X6.8339Y-4.5996
X4.8339Y-2.9996
X5.0339Y-2.1996
X4.9339Y-3.9996
X5.6339Y-3.4996
X6.4339Y-4.8996
X6.8339Y-4.7996
X7.1339Y-3.7996
X7.5339Y-1.9996
X6.5339Y-1.4996
X8.1339Y-2.9996
X8.1339Y-2.3996
X8.7339Y-2.4996
X6.9339Y-4.7996
X7.8339Y-4.4996
X8.6339Y-3.8996
X7.7339Y-3.5996
X5.3339Y-2.2996
X5.4339Y-2.3996
X4.8339Y-1.8996
X5.2339Y-4.1996
X5.6339Y-3.0996
X5.8339Y-4.8996
X7.3339Y-2.9996
X6.6339Y-1.3996
X7.3339Y-2.5996
X7.9339Y-4.1996
X8.2339Y-1.5996
X8.4339Y-1.4996
X8.7339Y-2.9996
X8.9339Y-2.4996
X9.0339Y-2.7996
X5.5339Y-4.5996
X5.6339Y-1.4996
X7.5339Y-1.8996
X7.2339Y-1.5996
X6.6339Y-2.4996
X8.0339Y-1.3996
X8.3339Y-1.5996
X8.4339Y-1.5996
X5.3339Y-1.4996
X7.0339Y-2.8996
X8.6339Y-2.1996
X5.0339Y-3.5996
X6.8339Y-3.7996
X8.0339Y-1.7996
X8.7339Y-2.6996
X6.9339Y-3.2996
X6.9339Y-2.0996
X8.5339Y-2.3996
X7.2339Y-2.4996
X8.0339Y-3.7996
X8.8339Y-1.7996
X5.3339Y-4.5996
X5.4339Y-3.3996
X4.7339Y-4.0996
X4.8339Y-4.8996
X5.0339Y-3.3996
X5.1339Y-4.3996
X5.2339Y-1.3996
X5.5339Y-4.2996
X6.8339Y-2.2996
X7.1339Y-4.3996
X7.2339Y-2.8996
X6.3339Y-1.7996
X6.7339Y-3.1996
X8.1339Y-4.8996
X8.5339Y-4.8996
X6.9339Y-4.6996
X5.4339Y-4.3996
X5.4339Y-3.7996
X7.0339Y-3.5996
X7.7339Y-2.3996
X6.1339Y-2.3996
X5.5339Y-1.5996
X6.0339Y-2.1996
X7.3339Y-4.5996
X6.7339Y-4.3996
X7.9339Y-4.6996
X8.0339Y-1.5996
X8.4339Y-3.3996
X9.0339Y-3.7996
X9.1339Y-3.4996
X7.7339Y-2.5996
X5.6339Y-2.6996
X5.7339Y-3.3996
X5.8339Y-4.3996
X7.5339Y-2.0996
X6.5339Y-1.9996
X7.3339Y-3.2996
X6.6339Y-2.2996
X8.0339Y-4.2996
X8.1339Y-1.3996
X8.4339Y-4.8996
X8.4339Y-2.3996
X7.7339Y-4.6996
X6.2339Y-1.4996
X4.8339Y-2.7996
X5.2339Y-2.6996
X5.8339Y-4.0996
X5.9339Y-1.9996
X6.0339Y-2.5996
X6.8339Y-3.2996
X7.1339Y-3.5996
X7.1339Y-3.0996
X7.6339Y-4.0996
X8.4339Y-4.4996
X8.7339Y-2.1996
X9.1339Y-2.1996
X7.8339Y-2.0996
X8.5339Y-2.4996
X5.1339Y-1.5996
X5.9339Y-2.8996
X6.4339Y-4.4996
X6.5339Y-2.9996
X7.3339Y-3.8996
X7.4339Y-1.4996
X8.1339Y-2.6996
X7.7339Y-4.5996
X7.7339Y-3.3996
X7.0339Y-1.4996
X4.7339Y-3.7996
X4.9339Y-2.4996
X5.0339Y-3.9996
X5.2339Y-1.7996
X5.6339Y-4.4996
X9.1339Y-2.5996
X6.8339Y-2.8996
X7.2339Y-2.0996
X6.3339Y-1.3996
X6.6339Y-2.1996
X6.7339Y-2.6996
X7.6339Y-2.2996
X8.0339Y-2.9996
X6.9339Y-4.3996
X7.8339Y-3.7996
X8.5339Y-3.5996
X5.3339Y-3.2996
X5.0339Y-4.3996
X6.6339Y-4.1996
X6.7339Y-1.5996
X6.6339Y-4.6996
X7.8339Y-3.0996
X8.4339Y-2.6996
X8.9339Y-2.8996
X9.1339Y-3.2996
X7.0339Y-4.2996
X6.9339Y-2.5996
X4.8339Y-4.0996
X5.7339Y-2.6996
X7.2339Y-4.3996
X6.6339Y-2.3996
X8.1339Y-4.4996
X8.3339Y-4.5996
X8.4339Y-3.8996
X8.8339Y-4.6996
X4.7339Y-4.3996
X5.5339Y-1.9996
X5.8339Y-3.4996
X5.8339Y-3.0996
X5.9339Y-1.7996
X6.0339Y-4.8996
X6.3339Y-4.7996
X6.4339Y-2.8996
X6.8339Y-4.4996
X7.1339Y-3.8996
X6.8339Y-3.4996
X7.3339Y-4.0996
X7.6339Y-3.7996
X8.3339Y-4.1996
X8.4339Y-3.5996
X8.7339Y-3.9996
X8.7339Y-1.3996
X9.1339Y-1.7996
X8.5339Y-3.8996
X6.1339Y-2.0996
X4.9339Y-1.5996
X5.5339Y-3.8996
X5.7339Y-1.7996
X5.9339Y-2.2996
X6.4339Y-3.5996
X6.5339Y-4.8996
X6.8339Y-4.3996
X7.2339Y-3.8996
X8.0339Y-1.6996
X8.3339Y-3.7996
X5.4339Y-1.4996
X6.9339Y-2.9996
X8.6339Y-2.4996
X4.9339Y-1.9996
X4.9339Y-4.5996
X5.5339Y-3.9996
X5.5339Y-3.4996
X9.1339Y-2.2996
X5.9339Y-3.5996
X7.2339Y-4.0996
X6.7339Y-2.2996
X6.6339Y-4.7996
X7.5339Y-1.3996
X9.0339Y-1.3996
X8.5339Y-4.3996
X6.1339Y-3.7996
X6.2339Y-3.4996
X6.9339Y-1.3996
X7.8339Y-2.7996
X4.9339Y-2.0996
X5.1339Y-4.0996
X4.9339Y-3.0996
X6.6339Y-3.2996
X7.2339Y-2.1996
X7.4339Y-2.3996
X7.3339Y-1.4996
X7.6339Y-1.3996
X8.1339Y-3.5996
X8.9339Y-3.6996
X9.1339Y-3.3996
X6.1339Y-3.3996
X7.7339Y-2.6996
X5.7339Y-1.4996
X7.4339Y-4.5996
X8.3339Y-4.7996
X8.5339Y-3.0996
X4.8339Y-2.6996
X5.6339Y-4.7996
X5.6339Y-2.9996
X5.7339Y-4.3996
X5.7339Y-2.3996
X6.0339Y-3.8996
X6.6339Y-3.3996
X6.8339Y-3.5996
X7.1339Y-2.9996
X7.3339Y-3.4996
X7.5339Y-2.9996
X7.6339Y-3.2996
X8.2339Y-4.6996
X8.2339Y-1.3996
X8.4339Y-4.1996
X8.4339Y-2.1996
X8.8339Y-2.0996
X9.1339Y-1.5996
X5.4339Y-4.7996
X4.7339Y-3.2996
X6.1339Y-3.6996
X7.8339Y-2.1996
X5.6339Y-3.9996
X5.7339Y-2.7996
X5.9339Y-2.3996
X6.4339Y-1.9996
X6.4339Y-2.9996
X7.4339Y-3.2996
X6.4339Y-2.3996
X8.0339Y-2.2996
X8.1339Y-4.5996
X7.7339Y-3.7996
X6.1339Y-1.5996
X5.4339Y-1.9996
X6.1339Y-2.9996
X8.6339Y-2.7996
X5.0339Y-2.9996
X5.0339Y-4.6996
X5.6339Y-3.1996
X5.6339Y-3.2996
X5.8339Y-3.6996
X6.7339Y-2.3996
X7.9339Y-3.7996
X8.1339Y-1.5996
X9.1339Y-4.8996
X7.0339Y-1.3996
X7.0339Y-2.7996
X4.9339Y-4.0996
X5.1339Y-2.1996
X6.5339Y-4.1996
X7.4339Y-3.3996
X7.3339Y-4.6996
X7.3339Y-2.2996
X6.6339Y-3.8996
X7.6339Y-1.6996
X8.0339Y-4.4996
X9.1339Y-2.6996
X5.3339Y-3.7996
X8.5339Y-3.3996
X5.3339Y-1.5996
X5.7339Y-1.8996
X4.9339Y-2.5996
X5.7339Y-3.6996
X6.3339Y-2.0996
X7.2339Y-1.4996
X6.5339Y-2.0996
X7.5339Y-2.6996
X8.4339Y-3.1996
X5.3339Y-3.4996
X7.7339Y-1.7996
X4.7339Y-1.6996
X4.7339Y-4.4996
X5.6339Y-3.3996
X5.6339Y-4.8996
X5.8339Y-2.7996
X6.3339Y-2.4996
X6.5339Y-2.4996
X6.0339Y-2.2996
X7.1339Y-1.6996
X7.2339Y-4.2996
X7.6339Y-4.4996
X8.3339Y-4.6996
X8.4339Y-4.2996
X8.4339Y-1.8996
X8.8339Y-4.0996
X8.9339Y-3.7996
X6.2339Y-3.5996
X6.2339Y-2.1996
X5.7339Y-4.6996
X7.3339Y-4.1996
X7.3339Y-1.5996
X8.3339Y-1.7996
X9.0339Y-3.0996
X5.3339Y-1.9996
X4.7339Y-3.4996
X5.0339Y-4.8996
X5.6339Y-2.7996
X5.7339Y-4.7996
X6.3339Y-2.9996
X6.6339Y-2.9996
X8.2339Y-4.3996
X7.9339Y-1.3996
X7.8339Y-1.3996
X6.2339Y-2.8996
X5.1339Y-1.3996
X7.0339Y-3.0996
X6.4339Y-1.3996
X7.9339Y-1.9996
X8.0339Y-3.5996
X8.2339Y-2.0996
X8.6339Y-3.2996
X6.9339Y-1.6996
X4.9339Y-3.1996
X5.1339Y-1.6996
X5.8339Y-3.5996
X5.6339Y-1.7996
X6.3339Y-4.1996
X6.4339Y-3.1996
X7.9339Y-1.4996
X7.8339Y-1.8996
X4.8339Y-4.5996
X5.7339Y-3.1996
X6.0339Y-3.0996
X6.4339Y-1.7996
X7.3339Y-4.4996
X7.4339Y-4.0996
X6.6339Y-2.7996
X7.6339Y-3.5996
X8.4339Y-3.9996
X8.7339Y-3.0996
X8.9339Y-4.3996
X6.2339Y-3.6996
X6.1339Y-3.5996
X6.9339Y-2.1996
X4.7339Y-4.5996
X5.5339Y-2.0996
X6.0339Y-4.1996
X7.3339Y-3.0996
X7.1339Y-1.3996
X7.8339Y-3.1996
X8.1339Y-2.5996
X8.6339Y-3.9996
X4.7339Y-3.0996
X4.9339Y-2.9996
X5.6339Y-3.7996
X5.7339Y-2.2996
X6.3339Y-1.6996
X7.4339Y-2.9996
X8.1339Y-3.9996
X8.2339Y-3.0996
X8.4339Y-2.2996
X8.8339Y-2.8996
X5.3339Y-2.8996
X5.1339Y-3.4996
X5.9339Y-1.6996
X6.8339Y-1.3996
X6.6339Y-3.0996
X7.9339Y-2.2996
X8.0339Y-1.9996
X8.1339Y-4.3996
X8.3339Y-3.6996
X8.6339Y-4.8996
X7.8339Y-3.2996
X5.3339Y-1.6996
X6.2339Y-2.6996
X5.2339Y-4.7996
X5.1339Y-1.7996
X5.9339Y-4.7996
X6.0339Y-2.0996
X6.6339Y-4.4996
X7.7339Y-3.0996
X8.0339Y-3.3996
X9.0339Y-3.6996
X9.1339Y-4.1996
X6.9339Y-4.1996
X7.0339Y-1.8996
X7.8339Y-2.5996
X4.8339Y-3.7996
X5.9339Y-3.6996
X6.3339Y-3.2996
X7.2339Y-3.9996
X6.6339Y-3.4996
X7.6339Y-4.1996
X8.9339Y-1.3996
X7.7339Y-4.4996
X6.1339Y-2.1996
X6.2339Y-2.2996
X4.7339Y-2.8996
X5.5339Y-4.0996
X6.3339Y-2.1996
X7.2339Y-2.5996
X7.3339Y-2.7996
X7.4339Y-3.0996
X6.7339Y-4.1996
X7.5339Y-2.5996
X8.1339Y-1.4996
X8.9339Y-1.6996
X4.7339Y-2.3996
X5.0339Y-2.3996
X5.7339Y-2.8996
X6.3339Y-4.0996
X7.2339Y-2.7996
X7.5339Y-2.3996
X8.0339Y-4.5996
X8.4339Y-2.8996
X8.9339Y-1.8996
X8.9339Y-1.4996
X4.7339Y-3.6996
X5.9339Y-4.3996
X5.9339Y-4.8996
X6.0339Y-4.7996
X6.5339Y-4.4996
X6.8339Y-1.6996
X7.5339Y-3.3996
X6.6339Y-3.1996
X7.9339Y-2.4996
X8.2339Y-4.0996
X8.2339Y-4.7996
X8.2339Y-2.5996
X8.7339Y-4.5996
X9.4339Y-1.5996
X9.4339Y-1.6996
X9.4339Y-1.7996
X9.4339Y-1.8996
X9.4339Y-1.9996
X9.4339Y-2.0996
X9.4339Y-2.1996
X9.4339Y-2.2996
X9.4339Y-2.3996
X9.4339Y-2.4996
X9.4339Y-2.5996
X9.4339Y-2.6996
X9.4339Y-2.7996
X9.4339Y-2.8996
X9.4339Y-2.9996
X9.4339Y-3.0996
X9.4339Y-3.1996
X9.4339Y-3.2996
X9.4339Y-3.3996
X9.4339Y-3.4996
X9.4339Y-3.5996
X9.4339Y-3.6996
X9.4339Y-3.7996
X9.4339Y-3.8996
X9.4339Y-3.9996
X9.4339Y-4.0996
X9.4339Y-4.1996
X9.4339Y-4.2996
X9.4339Y-4.3996
X9.4339Y-4.4996
X9.4339Y-4.5996
X9.4339Y-4.6996
X9.5339Y-1.5996
X9.5339Y-1.6996
X9.5339Y-1.7996
X9.5339Y-1.8996
X9.5339Y-1.9996
X9.5339Y-2.0996
X9.5339Y-2.1996
X9.5339Y-2.2996
X9.5339Y-2.3996
X9.5339Y-2.4996
X9.5339Y-2.5996
X9.5339Y-2.6996
X9.5339Y-2.7996
X9.5339Y-2.8996
X9.5339Y-2.9996
X9.5339Y-3.0996
X9.5339Y-3.1996
X9.5339Y-3.2996
X9.5339Y-3.3996
X9.5339Y-3.4996
X9.5339Y-3.5996
X9.5339Y-3.6996
X9.5339Y-3.7996
X9.5339Y-3.8996
X9.5339Y-3.9996
X9.5339Y-4.0996
X9.5339Y-4.1996
X9.5339Y-4.2996
X9.5339Y-4.3996
X9.5339Y-4.4996
X9.5339Y-4.5996
X9.5339Y-4.6996
X9.6339Y-1.5996
X9.6339Y-1.6996
X9.6339Y-1.7996
X9.6339Y-1.8996
X9.6339Y-1.9996
X9.6339Y-2.0996
X9.6339Y-2.1996
X9.6339Y-2.2996
X9.6339Y-2.3996
X9.6339Y-2.4996
X9.6339Y-2.5996
X9.6339Y-2.6996
X9.6339Y-2.7996
X9.6339Y-2.8996
X9.6339Y-2.9996
X9.6339Y-3.0996
X9.6339Y-3.1996
X9.6339Y-3.2996
X9.6339Y-3.3996
X9.6339Y-3.4996
X9.6339Y-3.5996
X9.6339Y-3.6996
X9.6339Y-3.7996
X9.6339Y-3.8996
X9.6339Y-3.9996
X9.6339Y-4.0996
X9.6339Y-4.1996
X9.6339Y-4.2996
X9.6339Y-4.3996
X9.6339Y-4.4996
X9.6339Y-4.5996
X9.6339Y-4.6996
X6.2339Y-4.8996
X7.7339Y-3.9996
X5.4339Y-1.6996
X7.8339Y-2.6996
X8.5339Y-1.9996
X5.0339Y-3.4996
X5.0339Y-2.7996
X5.2339Y-3.0996
X5.9339Y-1.5996
X6.0339Y-4.0996
X6.5339Y-4.7996
X7.1339Y-4.4996
X6.4339Y-2.5996
X7.6339Y-3.1996
X7.9339Y-2.9996
X8.8339Y-3.6996
X9.0339Y-3.1996
X9.1339Y-4.2996
X7.0339Y-4.0996
X5.3339Y-1.8996
X5.3339Y-2.5996
X5.0339Y-2.2996
X5.8339Y-1.8996
X7.6339Y-4.2996
X4.8339Y-2.4996
X5.2339Y-3.6996
X5.5339Y-3.7996
X7.2339Y-3.1996
X6.5339Y-1.5996
X6.6339Y-1.9996
X8.3339Y-4.2996
X8.4339Y-2.0996
X8.9339Y-4.0996
X4.8339Y-2.2996
X5.9339Y-3.3996
X6.3339Y-3.4996
X6.3339Y-4.5996
X7.5339Y-2.8996
X8.2339Y-3.6996
X8.4339Y-2.7996
X8.9339Y-2.0996
X9.0339Y-3.5996
X5.1339Y-4.6996
X5.8339Y-3.9996
X5.8339Y-1.3996
X5.8339Y-4.5996
X6.0339Y-2.8996
X6.4339Y-3.9996
X7.1339Y-4.7996
X7.3339Y-4.8996
X7.4339Y-2.4996
X7.6339Y-3.3996
X7.6339Y-3.0996
X8.2339Y-3.9996
X8.2339Y-3.1996
X8.4339Y-3.6996
X8.7339Y-1.6996
X8.7339Y-2.5996
X8.8339Y-1.3996
X5.3339Y-4.8996
X8.5339Y-3.9996
X6.1339Y-1.6996
X7.7339Y-2.7996
X8.5339Y-1.7996
X4.9339Y-4.2996
X5.2339Y-3.8996
X6.0339Y-3.7996
X6.5339Y-3.3996
X6.6339Y-1.4996
X7.1339Y-1.8996
X6.7339Y-2.4996
X7.9339Y-3.5996
X7.9339Y-1.6996
X8.9339Y-3.5996
X9.0339Y-2.0996
X6.9339Y-4.0996
X6.9339Y-1.8996
X7.8339Y-2.9996
X8.6339Y-2.6996
X5.0339Y-1.7996
X5.6339Y-2.4996
X8.0339Y-2.7996
X6.1339Y-3.2996
X6.9339Y-2.7996
X4.7339Y-2.7996
X5.0339Y-3.6996
X5.1339Y-4.7996
X5.5339Y-4.3996
X7.5339Y-4.7996
X8.0339Y-3.2996
X8.2339Y-4.1996
X8.9339Y-3.4996
X8.9339Y-3.0996
X9.1339Y-4.0996
T3
X4.5276Y-1.378
X9.4094Y-1.378
X9.4094Y-4.9213
X4.5276Y-4.9213
T0
M30
