G04 #@! TF.GenerationSoftware,KiCad,Pcbnew,(5.99.0-1588-g7ca069e63)*
G04 #@! TF.CreationDate,2020-05-10T11:49:47-06:00*
G04 #@! TF.ProjectId,module_proto,6d6f6475-6c65-45f7-9072-6f746f2e6b69,rev?*
G04 #@! TF.SameCoordinates,Original*
G04 #@! TF.FileFunction,Legend,Top*
G04 #@! TF.FilePolarity,Positive*
%FSLAX46Y46*%
G04 Gerber Fmt 4.6, Leading zero omitted, Abs format (unit mm)*
G04 Created by KiCad (PCBNEW (5.99.0-1588-g7ca069e63)) date 2020-05-10 11:49:47*
%MOMM*%
%LPD*%
G01*
G04 APERTURE LIST*
%ADD10C,0.200000*%
%ADD11C,0.900000*%
%ADD12C,6.500000*%
%ADD13C,1.800000*%
%ADD14C,2.900000*%
%ADD15C,0.254000*%
G04 APERTURE END LIST*
D10*
X236064000Y-122418000D02*
X236064000Y-37074000D01*
X237524523Y-66482380D02*
X236953095Y-66482380D01*
X237238809Y-66482380D02*
X237238809Y-65482380D01*
X237143571Y-65625238D01*
X237048333Y-65720476D01*
X236953095Y-65768095D01*
X238476904Y-66482380D02*
X237905476Y-66482380D01*
X238191190Y-66482380D02*
X238191190Y-65482380D01*
X238095952Y-65625238D01*
X238000714Y-65720476D01*
X237905476Y-65768095D01*
X236905476Y-116282380D02*
X237524523Y-116282380D01*
X237191190Y-116663333D01*
X237334047Y-116663333D01*
X237429285Y-116710952D01*
X237476904Y-116758571D01*
X237524523Y-116853809D01*
X237524523Y-117091904D01*
X237476904Y-117187142D01*
X237429285Y-117234761D01*
X237334047Y-117282380D01*
X237048333Y-117282380D01*
X236953095Y-117234761D01*
X236905476Y-117187142D01*
X238476904Y-117282380D02*
X237905476Y-117282380D01*
X238191190Y-117282380D02*
X238191190Y-116282380D01*
X238095952Y-116425238D01*
X238000714Y-116520476D01*
X237905476Y-116568095D01*
X236953095Y-88437619D02*
X237000714Y-88390000D01*
X237095952Y-88342380D01*
X237334047Y-88342380D01*
X237429285Y-88390000D01*
X237476904Y-88437619D01*
X237524523Y-88532857D01*
X237524523Y-88628095D01*
X237476904Y-88770952D01*
X236905476Y-89342380D01*
X237524523Y-89342380D01*
X238143571Y-88342380D02*
X238238809Y-88342380D01*
X238334047Y-88390000D01*
X238381666Y-88437619D01*
X238429285Y-88532857D01*
X238476904Y-88723333D01*
X238476904Y-88961428D01*
X238429285Y-89151904D01*
X238381666Y-89247142D01*
X238334047Y-89294761D01*
X238238809Y-89342380D01*
X238143571Y-89342380D01*
X238048333Y-89294761D01*
X238000714Y-89247142D01*
X237953095Y-89151904D01*
X237905476Y-88961428D01*
X237905476Y-88723333D01*
X237953095Y-88532857D01*
X238000714Y-88437619D01*
X238048333Y-88390000D01*
X238143571Y-88342380D01*
X237524523Y-61402380D02*
X237715000Y-61402380D01*
X237810238Y-61354761D01*
X237857857Y-61307142D01*
X237953095Y-61164285D01*
X238000714Y-60973809D01*
X238000714Y-60592857D01*
X237953095Y-60497619D01*
X237905476Y-60450000D01*
X237810238Y-60402380D01*
X237619761Y-60402380D01*
X237524523Y-60450000D01*
X237476904Y-60497619D01*
X237429285Y-60592857D01*
X237429285Y-60830952D01*
X237476904Y-60926190D01*
X237524523Y-60973809D01*
X237619761Y-61021428D01*
X237810238Y-61021428D01*
X237905476Y-60973809D01*
X237953095Y-60926190D01*
X238000714Y-60830952D01*
X236953095Y-111297619D02*
X237000714Y-111250000D01*
X237095952Y-111202380D01*
X237334047Y-111202380D01*
X237429285Y-111250000D01*
X237476904Y-111297619D01*
X237524523Y-111392857D01*
X237524523Y-111488095D01*
X237476904Y-111630952D01*
X236905476Y-112202380D01*
X237524523Y-112202380D01*
X238000714Y-112202380D02*
X238191190Y-112202380D01*
X238286428Y-112154761D01*
X238334047Y-112107142D01*
X238429285Y-111964285D01*
X238476904Y-111773809D01*
X238476904Y-111392857D01*
X238429285Y-111297619D01*
X238381666Y-111250000D01*
X238286428Y-111202380D01*
X238095952Y-111202380D01*
X238000714Y-111250000D01*
X237953095Y-111297619D01*
X237905476Y-111392857D01*
X237905476Y-111630952D01*
X237953095Y-111726190D01*
X238000714Y-111773809D01*
X238095952Y-111821428D01*
X238286428Y-111821428D01*
X238381666Y-111773809D01*
X238429285Y-111726190D01*
X238476904Y-111630952D01*
X237429285Y-42717619D02*
X237476904Y-42670000D01*
X237572142Y-42622380D01*
X237810238Y-42622380D01*
X237905476Y-42670000D01*
X237953095Y-42717619D01*
X238000714Y-42812857D01*
X238000714Y-42908095D01*
X237953095Y-43050952D01*
X237381666Y-43622380D01*
X238000714Y-43622380D01*
X236953095Y-90977619D02*
X237000714Y-90930000D01*
X237095952Y-90882380D01*
X237334047Y-90882380D01*
X237429285Y-90930000D01*
X237476904Y-90977619D01*
X237524523Y-91072857D01*
X237524523Y-91168095D01*
X237476904Y-91310952D01*
X236905476Y-91882380D01*
X237524523Y-91882380D01*
X238476904Y-91882380D02*
X237905476Y-91882380D01*
X238191190Y-91882380D02*
X238191190Y-90882380D01*
X238095952Y-91025238D01*
X238000714Y-91120476D01*
X237905476Y-91168095D01*
X237524523Y-69022380D02*
X236953095Y-69022380D01*
X237238809Y-69022380D02*
X237238809Y-68022380D01*
X237143571Y-68165238D01*
X237048333Y-68260476D01*
X236953095Y-68308095D01*
X237905476Y-68117619D02*
X237953095Y-68070000D01*
X238048333Y-68022380D01*
X238286428Y-68022380D01*
X238381666Y-68070000D01*
X238429285Y-68117619D01*
X238476904Y-68212857D01*
X238476904Y-68308095D01*
X238429285Y-68450952D01*
X237857857Y-69022380D01*
X238476904Y-69022380D01*
X236953095Y-101137619D02*
X237000714Y-101090000D01*
X237095952Y-101042380D01*
X237334047Y-101042380D01*
X237429285Y-101090000D01*
X237476904Y-101137619D01*
X237524523Y-101232857D01*
X237524523Y-101328095D01*
X237476904Y-101470952D01*
X236905476Y-102042380D01*
X237524523Y-102042380D01*
X238429285Y-101042380D02*
X237953095Y-101042380D01*
X237905476Y-101518571D01*
X237953095Y-101470952D01*
X238048333Y-101423333D01*
X238286428Y-101423333D01*
X238381666Y-101470952D01*
X238429285Y-101518571D01*
X238476904Y-101613809D01*
X238476904Y-101851904D01*
X238429285Y-101947142D01*
X238381666Y-101994761D01*
X238286428Y-102042380D01*
X238048333Y-102042380D01*
X237953095Y-101994761D01*
X237905476Y-101947142D01*
X237524523Y-81722380D02*
X236953095Y-81722380D01*
X237238809Y-81722380D02*
X237238809Y-80722380D01*
X237143571Y-80865238D01*
X237048333Y-80960476D01*
X236953095Y-81008095D01*
X237857857Y-80722380D02*
X238524523Y-80722380D01*
X238095952Y-81722380D01*
X237524523Y-76642380D02*
X236953095Y-76642380D01*
X237238809Y-76642380D02*
X237238809Y-75642380D01*
X237143571Y-75785238D01*
X237048333Y-75880476D01*
X236953095Y-75928095D01*
X238429285Y-75642380D02*
X237953095Y-75642380D01*
X237905476Y-76118571D01*
X237953095Y-76070952D01*
X238048333Y-76023333D01*
X238286428Y-76023333D01*
X238381666Y-76070952D01*
X238429285Y-76118571D01*
X238476904Y-76213809D01*
X238476904Y-76451904D01*
X238429285Y-76547142D01*
X238381666Y-76594761D01*
X238286428Y-76642380D01*
X238048333Y-76642380D01*
X237953095Y-76594761D01*
X237905476Y-76547142D01*
X237524523Y-74102380D02*
X236953095Y-74102380D01*
X237238809Y-74102380D02*
X237238809Y-73102380D01*
X237143571Y-73245238D01*
X237048333Y-73340476D01*
X236953095Y-73388095D01*
X238381666Y-73435714D02*
X238381666Y-74102380D01*
X238143571Y-73054761D02*
X237905476Y-73769047D01*
X238524523Y-73769047D01*
X236953095Y-108757619D02*
X237000714Y-108710000D01*
X237095952Y-108662380D01*
X237334047Y-108662380D01*
X237429285Y-108710000D01*
X237476904Y-108757619D01*
X237524523Y-108852857D01*
X237524523Y-108948095D01*
X237476904Y-109090952D01*
X236905476Y-109662380D01*
X237524523Y-109662380D01*
X238095952Y-109090952D02*
X238000714Y-109043333D01*
X237953095Y-108995714D01*
X237905476Y-108900476D01*
X237905476Y-108852857D01*
X237953095Y-108757619D01*
X238000714Y-108710000D01*
X238095952Y-108662380D01*
X238286428Y-108662380D01*
X238381666Y-108710000D01*
X238429285Y-108757619D01*
X238476904Y-108852857D01*
X238476904Y-108900476D01*
X238429285Y-108995714D01*
X238381666Y-109043333D01*
X238286428Y-109090952D01*
X238095952Y-109090952D01*
X238000714Y-109138571D01*
X237953095Y-109186190D01*
X237905476Y-109281428D01*
X237905476Y-109471904D01*
X237953095Y-109567142D01*
X238000714Y-109614761D01*
X238095952Y-109662380D01*
X238286428Y-109662380D01*
X238381666Y-109614761D01*
X238429285Y-109567142D01*
X238476904Y-109471904D01*
X238476904Y-109281428D01*
X238429285Y-109186190D01*
X238381666Y-109138571D01*
X238286428Y-109090952D01*
X236905476Y-118822380D02*
X237524523Y-118822380D01*
X237191190Y-119203333D01*
X237334047Y-119203333D01*
X237429285Y-119250952D01*
X237476904Y-119298571D01*
X237524523Y-119393809D01*
X237524523Y-119631904D01*
X237476904Y-119727142D01*
X237429285Y-119774761D01*
X237334047Y-119822380D01*
X237048333Y-119822380D01*
X236953095Y-119774761D01*
X236905476Y-119727142D01*
X237905476Y-118917619D02*
X237953095Y-118870000D01*
X238048333Y-118822380D01*
X238286428Y-118822380D01*
X238381666Y-118870000D01*
X238429285Y-118917619D01*
X238476904Y-119012857D01*
X238476904Y-119108095D01*
X238429285Y-119250952D01*
X237857857Y-119822380D01*
X238476904Y-119822380D01*
X237524523Y-63942380D02*
X236953095Y-63942380D01*
X237238809Y-63942380D02*
X237238809Y-62942380D01*
X237143571Y-63085238D01*
X237048333Y-63180476D01*
X236953095Y-63228095D01*
X238143571Y-62942380D02*
X238238809Y-62942380D01*
X238334047Y-62990000D01*
X238381666Y-63037619D01*
X238429285Y-63132857D01*
X238476904Y-63323333D01*
X238476904Y-63561428D01*
X238429285Y-63751904D01*
X238381666Y-63847142D01*
X238334047Y-63894761D01*
X238238809Y-63942380D01*
X238143571Y-63942380D01*
X238048333Y-63894761D01*
X238000714Y-63847142D01*
X237953095Y-63751904D01*
X237905476Y-63561428D01*
X237905476Y-63323333D01*
X237953095Y-63132857D01*
X238000714Y-63037619D01*
X238048333Y-62990000D01*
X238143571Y-62942380D01*
X237524523Y-71562380D02*
X236953095Y-71562380D01*
X237238809Y-71562380D02*
X237238809Y-70562380D01*
X237143571Y-70705238D01*
X237048333Y-70800476D01*
X236953095Y-70848095D01*
X237857857Y-70562380D02*
X238476904Y-70562380D01*
X238143571Y-70943333D01*
X238286428Y-70943333D01*
X238381666Y-70990952D01*
X238429285Y-71038571D01*
X238476904Y-71133809D01*
X238476904Y-71371904D01*
X238429285Y-71467142D01*
X238381666Y-71514761D01*
X238286428Y-71562380D01*
X238000714Y-71562380D01*
X237905476Y-71514761D01*
X237857857Y-71467142D01*
X237524523Y-79182380D02*
X236953095Y-79182380D01*
X237238809Y-79182380D02*
X237238809Y-78182380D01*
X237143571Y-78325238D01*
X237048333Y-78420476D01*
X236953095Y-78468095D01*
X238381666Y-78182380D02*
X238191190Y-78182380D01*
X238095952Y-78230000D01*
X238048333Y-78277619D01*
X237953095Y-78420476D01*
X237905476Y-78610952D01*
X237905476Y-78991904D01*
X237953095Y-79087142D01*
X238000714Y-79134761D01*
X238095952Y-79182380D01*
X238286428Y-79182380D01*
X238381666Y-79134761D01*
X238429285Y-79087142D01*
X238476904Y-78991904D01*
X238476904Y-78753809D01*
X238429285Y-78658571D01*
X238381666Y-78610952D01*
X238286428Y-78563333D01*
X238095952Y-78563333D01*
X238000714Y-78610952D01*
X237953095Y-78658571D01*
X237905476Y-78753809D01*
X236953095Y-96057619D02*
X237000714Y-96010000D01*
X237095952Y-95962380D01*
X237334047Y-95962380D01*
X237429285Y-96010000D01*
X237476904Y-96057619D01*
X237524523Y-96152857D01*
X237524523Y-96248095D01*
X237476904Y-96390952D01*
X236905476Y-96962380D01*
X237524523Y-96962380D01*
X237857857Y-95962380D02*
X238476904Y-95962380D01*
X238143571Y-96343333D01*
X238286428Y-96343333D01*
X238381666Y-96390952D01*
X238429285Y-96438571D01*
X238476904Y-96533809D01*
X238476904Y-96771904D01*
X238429285Y-96867142D01*
X238381666Y-96914761D01*
X238286428Y-96962380D01*
X238000714Y-96962380D01*
X237905476Y-96914761D01*
X237857857Y-96867142D01*
X236905476Y-113742380D02*
X237524523Y-113742380D01*
X237191190Y-114123333D01*
X237334047Y-114123333D01*
X237429285Y-114170952D01*
X237476904Y-114218571D01*
X237524523Y-114313809D01*
X237524523Y-114551904D01*
X237476904Y-114647142D01*
X237429285Y-114694761D01*
X237334047Y-114742380D01*
X237048333Y-114742380D01*
X236953095Y-114694761D01*
X236905476Y-114647142D01*
X238143571Y-113742380D02*
X238238809Y-113742380D01*
X238334047Y-113790000D01*
X238381666Y-113837619D01*
X238429285Y-113932857D01*
X238476904Y-114123333D01*
X238476904Y-114361428D01*
X238429285Y-114551904D01*
X238381666Y-114647142D01*
X238334047Y-114694761D01*
X238238809Y-114742380D01*
X238143571Y-114742380D01*
X238048333Y-114694761D01*
X238000714Y-114647142D01*
X237953095Y-114551904D01*
X237905476Y-114361428D01*
X237905476Y-114123333D01*
X237953095Y-113932857D01*
X238000714Y-113837619D01*
X238048333Y-113790000D01*
X238143571Y-113742380D01*
X237905476Y-52782380D02*
X237715000Y-52782380D01*
X237619761Y-52830000D01*
X237572142Y-52877619D01*
X237476904Y-53020476D01*
X237429285Y-53210952D01*
X237429285Y-53591904D01*
X237476904Y-53687142D01*
X237524523Y-53734761D01*
X237619761Y-53782380D01*
X237810238Y-53782380D01*
X237905476Y-53734761D01*
X237953095Y-53687142D01*
X238000714Y-53591904D01*
X238000714Y-53353809D01*
X237953095Y-53258571D01*
X237905476Y-53210952D01*
X237810238Y-53163333D01*
X237619761Y-53163333D01*
X237524523Y-53210952D01*
X237476904Y-53258571D01*
X237429285Y-53353809D01*
X237953095Y-50242380D02*
X237476904Y-50242380D01*
X237429285Y-50718571D01*
X237476904Y-50670952D01*
X237572142Y-50623333D01*
X237810238Y-50623333D01*
X237905476Y-50670952D01*
X237953095Y-50718571D01*
X238000714Y-50813809D01*
X238000714Y-51051904D01*
X237953095Y-51147142D01*
X237905476Y-51194761D01*
X237810238Y-51242380D01*
X237572142Y-51242380D01*
X237476904Y-51194761D01*
X237429285Y-51147142D01*
X237619761Y-58290952D02*
X237524523Y-58243333D01*
X237476904Y-58195714D01*
X237429285Y-58100476D01*
X237429285Y-58052857D01*
X237476904Y-57957619D01*
X237524523Y-57910000D01*
X237619761Y-57862380D01*
X237810238Y-57862380D01*
X237905476Y-57910000D01*
X237953095Y-57957619D01*
X238000714Y-58052857D01*
X238000714Y-58100476D01*
X237953095Y-58195714D01*
X237905476Y-58243333D01*
X237810238Y-58290952D01*
X237619761Y-58290952D01*
X237524523Y-58338571D01*
X237476904Y-58386190D01*
X237429285Y-58481428D01*
X237429285Y-58671904D01*
X237476904Y-58767142D01*
X237524523Y-58814761D01*
X237619761Y-58862380D01*
X237810238Y-58862380D01*
X237905476Y-58814761D01*
X237953095Y-58767142D01*
X238000714Y-58671904D01*
X238000714Y-58481428D01*
X237953095Y-58386190D01*
X237905476Y-58338571D01*
X237810238Y-58290952D01*
X236953095Y-103677619D02*
X237000714Y-103630000D01*
X237095952Y-103582380D01*
X237334047Y-103582380D01*
X237429285Y-103630000D01*
X237476904Y-103677619D01*
X237524523Y-103772857D01*
X237524523Y-103868095D01*
X237476904Y-104010952D01*
X236905476Y-104582380D01*
X237524523Y-104582380D01*
X238381666Y-103582380D02*
X238191190Y-103582380D01*
X238095952Y-103630000D01*
X238048333Y-103677619D01*
X237953095Y-103820476D01*
X237905476Y-104010952D01*
X237905476Y-104391904D01*
X237953095Y-104487142D01*
X238000714Y-104534761D01*
X238095952Y-104582380D01*
X238286428Y-104582380D01*
X238381666Y-104534761D01*
X238429285Y-104487142D01*
X238476904Y-104391904D01*
X238476904Y-104153809D01*
X238429285Y-104058571D01*
X238381666Y-104010952D01*
X238286428Y-103963333D01*
X238095952Y-103963333D01*
X238000714Y-104010952D01*
X237953095Y-104058571D01*
X237905476Y-104153809D01*
X237524523Y-84262380D02*
X236953095Y-84262380D01*
X237238809Y-84262380D02*
X237238809Y-83262380D01*
X237143571Y-83405238D01*
X237048333Y-83500476D01*
X236953095Y-83548095D01*
X238095952Y-83690952D02*
X238000714Y-83643333D01*
X237953095Y-83595714D01*
X237905476Y-83500476D01*
X237905476Y-83452857D01*
X237953095Y-83357619D01*
X238000714Y-83310000D01*
X238095952Y-83262380D01*
X238286428Y-83262380D01*
X238381666Y-83310000D01*
X238429285Y-83357619D01*
X238476904Y-83452857D01*
X238476904Y-83500476D01*
X238429285Y-83595714D01*
X238381666Y-83643333D01*
X238286428Y-83690952D01*
X238095952Y-83690952D01*
X238000714Y-83738571D01*
X237953095Y-83786190D01*
X237905476Y-83881428D01*
X237905476Y-84071904D01*
X237953095Y-84167142D01*
X238000714Y-84214761D01*
X238095952Y-84262380D01*
X238286428Y-84262380D01*
X238381666Y-84214761D01*
X238429285Y-84167142D01*
X238476904Y-84071904D01*
X238476904Y-83881428D01*
X238429285Y-83786190D01*
X238381666Y-83738571D01*
X238286428Y-83690952D01*
X236953095Y-98597619D02*
X237000714Y-98550000D01*
X237095952Y-98502380D01*
X237334047Y-98502380D01*
X237429285Y-98550000D01*
X237476904Y-98597619D01*
X237524523Y-98692857D01*
X237524523Y-98788095D01*
X237476904Y-98930952D01*
X236905476Y-99502380D01*
X237524523Y-99502380D01*
X238381666Y-98835714D02*
X238381666Y-99502380D01*
X238143571Y-98454761D02*
X237905476Y-99169047D01*
X238524523Y-99169047D01*
X237905476Y-48035714D02*
X237905476Y-48702380D01*
X237667380Y-47654761D02*
X237429285Y-48369047D01*
X238048333Y-48369047D01*
X237381666Y-45162380D02*
X238000714Y-45162380D01*
X237667380Y-45543333D01*
X237810238Y-45543333D01*
X237905476Y-45590952D01*
X237953095Y-45638571D01*
X238000714Y-45733809D01*
X238000714Y-45971904D01*
X237953095Y-46067142D01*
X237905476Y-46114761D01*
X237810238Y-46162380D01*
X237524523Y-46162380D01*
X237429285Y-46114761D01*
X237381666Y-46067142D01*
X237524523Y-86802380D02*
X236953095Y-86802380D01*
X237238809Y-86802380D02*
X237238809Y-85802380D01*
X237143571Y-85945238D01*
X237048333Y-86040476D01*
X236953095Y-86088095D01*
X238000714Y-86802380D02*
X238191190Y-86802380D01*
X238286428Y-86754761D01*
X238334047Y-86707142D01*
X238429285Y-86564285D01*
X238476904Y-86373809D01*
X238476904Y-85992857D01*
X238429285Y-85897619D01*
X238381666Y-85850000D01*
X238286428Y-85802380D01*
X238095952Y-85802380D01*
X238000714Y-85850000D01*
X237953095Y-85897619D01*
X237905476Y-85992857D01*
X237905476Y-86230952D01*
X237953095Y-86326190D01*
X238000714Y-86373809D01*
X238095952Y-86421428D01*
X238286428Y-86421428D01*
X238381666Y-86373809D01*
X238429285Y-86326190D01*
X238476904Y-86230952D01*
X236953095Y-93517619D02*
X237000714Y-93470000D01*
X237095952Y-93422380D01*
X237334047Y-93422380D01*
X237429285Y-93470000D01*
X237476904Y-93517619D01*
X237524523Y-93612857D01*
X237524523Y-93708095D01*
X237476904Y-93850952D01*
X236905476Y-94422380D01*
X237524523Y-94422380D01*
X237905476Y-93517619D02*
X237953095Y-93470000D01*
X238048333Y-93422380D01*
X238286428Y-93422380D01*
X238381666Y-93470000D01*
X238429285Y-93517619D01*
X238476904Y-93612857D01*
X238476904Y-93708095D01*
X238429285Y-93850952D01*
X237857857Y-94422380D01*
X238476904Y-94422380D01*
X236953095Y-106217619D02*
X237000714Y-106170000D01*
X237095952Y-106122380D01*
X237334047Y-106122380D01*
X237429285Y-106170000D01*
X237476904Y-106217619D01*
X237524523Y-106312857D01*
X237524523Y-106408095D01*
X237476904Y-106550952D01*
X236905476Y-107122380D01*
X237524523Y-107122380D01*
X237857857Y-106122380D02*
X238524523Y-106122380D01*
X238095952Y-107122380D01*
X237381666Y-55322380D02*
X238048333Y-55322380D01*
X237619761Y-56322380D01*
X238000714Y-41082380D02*
X237429285Y-41082380D01*
X237715000Y-41082380D02*
X237715000Y-40082380D01*
X237619761Y-40225238D01*
X237524523Y-40320476D01*
X237429285Y-40368095D01*
X233730476Y-123902380D02*
X234349523Y-123902380D01*
X234016190Y-124283333D01*
X234159047Y-124283333D01*
X234254285Y-124330952D01*
X234301904Y-124378571D01*
X234349523Y-124473809D01*
X234349523Y-124711904D01*
X234301904Y-124807142D01*
X234254285Y-124854761D01*
X234159047Y-124902380D01*
X233873333Y-124902380D01*
X233778095Y-124854761D01*
X233730476Y-124807142D01*
X235206666Y-123902380D02*
X235016190Y-123902380D01*
X234920952Y-123950000D01*
X234873333Y-123997619D01*
X234778095Y-124140476D01*
X234730476Y-124330952D01*
X234730476Y-124711904D01*
X234778095Y-124807142D01*
X234825714Y-124854761D01*
X234920952Y-124902380D01*
X235111428Y-124902380D01*
X235206666Y-124854761D01*
X235254285Y-124807142D01*
X235301904Y-124711904D01*
X235301904Y-124473809D01*
X235254285Y-124378571D01*
X235206666Y-124330952D01*
X235111428Y-124283333D01*
X234920952Y-124283333D01*
X234825714Y-124330952D01*
X234778095Y-124378571D01*
X234730476Y-124473809D01*
X233730476Y-121362380D02*
X234349523Y-121362380D01*
X234016190Y-121743333D01*
X234159047Y-121743333D01*
X234254285Y-121790952D01*
X234301904Y-121838571D01*
X234349523Y-121933809D01*
X234349523Y-122171904D01*
X234301904Y-122267142D01*
X234254285Y-122314761D01*
X234159047Y-122362380D01*
X233873333Y-122362380D01*
X233778095Y-122314761D01*
X233730476Y-122267142D01*
X235254285Y-121362380D02*
X234778095Y-121362380D01*
X234730476Y-121838571D01*
X234778095Y-121790952D01*
X234873333Y-121743333D01*
X235111428Y-121743333D01*
X235206666Y-121790952D01*
X235254285Y-121838571D01*
X235301904Y-121933809D01*
X235301904Y-122171904D01*
X235254285Y-122267142D01*
X235206666Y-122314761D01*
X235111428Y-122362380D01*
X234873333Y-122362380D01*
X234778095Y-122314761D01*
X234730476Y-122267142D01*
X234825714Y-36002380D02*
X234254285Y-36002380D01*
X234540000Y-36002380D02*
X234540000Y-35002380D01*
X234444761Y-35145238D01*
X234349523Y-35240476D01*
X234254285Y-35288095D01*
X234254285Y-37637619D02*
X234301904Y-37590000D01*
X234397142Y-37542380D01*
X234635238Y-37542380D01*
X234730476Y-37590000D01*
X234778095Y-37637619D01*
X234825714Y-37732857D01*
X234825714Y-37828095D01*
X234778095Y-37970952D01*
X234206666Y-38542380D01*
X234825714Y-38542380D01*
X234206666Y-40082380D02*
X234825714Y-40082380D01*
X234492380Y-40463333D01*
X234635238Y-40463333D01*
X234730476Y-40510952D01*
X234778095Y-40558571D01*
X234825714Y-40653809D01*
X234825714Y-40891904D01*
X234778095Y-40987142D01*
X234730476Y-41034761D01*
X234635238Y-41082380D01*
X234349523Y-41082380D01*
X234254285Y-41034761D01*
X234206666Y-40987142D01*
X234730476Y-42955714D02*
X234730476Y-43622380D01*
X234492380Y-42574761D02*
X234254285Y-43289047D01*
X234873333Y-43289047D01*
X234778095Y-45162380D02*
X234301904Y-45162380D01*
X234254285Y-45638571D01*
X234301904Y-45590952D01*
X234397142Y-45543333D01*
X234635238Y-45543333D01*
X234730476Y-45590952D01*
X234778095Y-45638571D01*
X234825714Y-45733809D01*
X234825714Y-45971904D01*
X234778095Y-46067142D01*
X234730476Y-46114761D01*
X234635238Y-46162380D01*
X234397142Y-46162380D01*
X234301904Y-46114761D01*
X234254285Y-46067142D01*
X234730476Y-47702380D02*
X234540000Y-47702380D01*
X234444761Y-47750000D01*
X234397142Y-47797619D01*
X234301904Y-47940476D01*
X234254285Y-48130952D01*
X234254285Y-48511904D01*
X234301904Y-48607142D01*
X234349523Y-48654761D01*
X234444761Y-48702380D01*
X234635238Y-48702380D01*
X234730476Y-48654761D01*
X234778095Y-48607142D01*
X234825714Y-48511904D01*
X234825714Y-48273809D01*
X234778095Y-48178571D01*
X234730476Y-48130952D01*
X234635238Y-48083333D01*
X234444761Y-48083333D01*
X234349523Y-48130952D01*
X234301904Y-48178571D01*
X234254285Y-48273809D01*
X234206666Y-50242380D02*
X234873333Y-50242380D01*
X234444761Y-51242380D01*
X234444761Y-53210952D02*
X234349523Y-53163333D01*
X234301904Y-53115714D01*
X234254285Y-53020476D01*
X234254285Y-52972857D01*
X234301904Y-52877619D01*
X234349523Y-52830000D01*
X234444761Y-52782380D01*
X234635238Y-52782380D01*
X234730476Y-52830000D01*
X234778095Y-52877619D01*
X234825714Y-52972857D01*
X234825714Y-53020476D01*
X234778095Y-53115714D01*
X234730476Y-53163333D01*
X234635238Y-53210952D01*
X234444761Y-53210952D01*
X234349523Y-53258571D01*
X234301904Y-53306190D01*
X234254285Y-53401428D01*
X234254285Y-53591904D01*
X234301904Y-53687142D01*
X234349523Y-53734761D01*
X234444761Y-53782380D01*
X234635238Y-53782380D01*
X234730476Y-53734761D01*
X234778095Y-53687142D01*
X234825714Y-53591904D01*
X234825714Y-53401428D01*
X234778095Y-53306190D01*
X234730476Y-53258571D01*
X234635238Y-53210952D01*
X234349523Y-56322380D02*
X234540000Y-56322380D01*
X234635238Y-56274761D01*
X234682857Y-56227142D01*
X234778095Y-56084285D01*
X234825714Y-55893809D01*
X234825714Y-55512857D01*
X234778095Y-55417619D01*
X234730476Y-55370000D01*
X234635238Y-55322380D01*
X234444761Y-55322380D01*
X234349523Y-55370000D01*
X234301904Y-55417619D01*
X234254285Y-55512857D01*
X234254285Y-55750952D01*
X234301904Y-55846190D01*
X234349523Y-55893809D01*
X234444761Y-55941428D01*
X234635238Y-55941428D01*
X234730476Y-55893809D01*
X234778095Y-55846190D01*
X234825714Y-55750952D01*
X234349523Y-58862380D02*
X233778095Y-58862380D01*
X234063809Y-58862380D02*
X234063809Y-57862380D01*
X233968571Y-58005238D01*
X233873333Y-58100476D01*
X233778095Y-58148095D01*
X234968571Y-57862380D02*
X235063809Y-57862380D01*
X235159047Y-57910000D01*
X235206666Y-57957619D01*
X235254285Y-58052857D01*
X235301904Y-58243333D01*
X235301904Y-58481428D01*
X235254285Y-58671904D01*
X235206666Y-58767142D01*
X235159047Y-58814761D01*
X235063809Y-58862380D01*
X234968571Y-58862380D01*
X234873333Y-58814761D01*
X234825714Y-58767142D01*
X234778095Y-58671904D01*
X234730476Y-58481428D01*
X234730476Y-58243333D01*
X234778095Y-58052857D01*
X234825714Y-57957619D01*
X234873333Y-57910000D01*
X234968571Y-57862380D01*
X234349523Y-61402380D02*
X233778095Y-61402380D01*
X234063809Y-61402380D02*
X234063809Y-60402380D01*
X233968571Y-60545238D01*
X233873333Y-60640476D01*
X233778095Y-60688095D01*
X235301904Y-61402380D02*
X234730476Y-61402380D01*
X235016190Y-61402380D02*
X235016190Y-60402380D01*
X234920952Y-60545238D01*
X234825714Y-60640476D01*
X234730476Y-60688095D01*
X234349523Y-63942380D02*
X233778095Y-63942380D01*
X234063809Y-63942380D02*
X234063809Y-62942380D01*
X233968571Y-63085238D01*
X233873333Y-63180476D01*
X233778095Y-63228095D01*
X234730476Y-63037619D02*
X234778095Y-62990000D01*
X234873333Y-62942380D01*
X235111428Y-62942380D01*
X235206666Y-62990000D01*
X235254285Y-63037619D01*
X235301904Y-63132857D01*
X235301904Y-63228095D01*
X235254285Y-63370952D01*
X234682857Y-63942380D01*
X235301904Y-63942380D01*
X234349523Y-66482380D02*
X233778095Y-66482380D01*
X234063809Y-66482380D02*
X234063809Y-65482380D01*
X233968571Y-65625238D01*
X233873333Y-65720476D01*
X233778095Y-65768095D01*
X234682857Y-65482380D02*
X235301904Y-65482380D01*
X234968571Y-65863333D01*
X235111428Y-65863333D01*
X235206666Y-65910952D01*
X235254285Y-65958571D01*
X235301904Y-66053809D01*
X235301904Y-66291904D01*
X235254285Y-66387142D01*
X235206666Y-66434761D01*
X235111428Y-66482380D01*
X234825714Y-66482380D01*
X234730476Y-66434761D01*
X234682857Y-66387142D01*
X234349523Y-69022380D02*
X233778095Y-69022380D01*
X234063809Y-69022380D02*
X234063809Y-68022380D01*
X233968571Y-68165238D01*
X233873333Y-68260476D01*
X233778095Y-68308095D01*
X235206666Y-68355714D02*
X235206666Y-69022380D01*
X234968571Y-67974761D02*
X234730476Y-68689047D01*
X235349523Y-68689047D01*
X234349523Y-71562380D02*
X233778095Y-71562380D01*
X234063809Y-71562380D02*
X234063809Y-70562380D01*
X233968571Y-70705238D01*
X233873333Y-70800476D01*
X233778095Y-70848095D01*
X235254285Y-70562380D02*
X234778095Y-70562380D01*
X234730476Y-71038571D01*
X234778095Y-70990952D01*
X234873333Y-70943333D01*
X235111428Y-70943333D01*
X235206666Y-70990952D01*
X235254285Y-71038571D01*
X235301904Y-71133809D01*
X235301904Y-71371904D01*
X235254285Y-71467142D01*
X235206666Y-71514761D01*
X235111428Y-71562380D01*
X234873333Y-71562380D01*
X234778095Y-71514761D01*
X234730476Y-71467142D01*
X234349523Y-74102380D02*
X233778095Y-74102380D01*
X234063809Y-74102380D02*
X234063809Y-73102380D01*
X233968571Y-73245238D01*
X233873333Y-73340476D01*
X233778095Y-73388095D01*
X235206666Y-73102380D02*
X235016190Y-73102380D01*
X234920952Y-73150000D01*
X234873333Y-73197619D01*
X234778095Y-73340476D01*
X234730476Y-73530952D01*
X234730476Y-73911904D01*
X234778095Y-74007142D01*
X234825714Y-74054761D01*
X234920952Y-74102380D01*
X235111428Y-74102380D01*
X235206666Y-74054761D01*
X235254285Y-74007142D01*
X235301904Y-73911904D01*
X235301904Y-73673809D01*
X235254285Y-73578571D01*
X235206666Y-73530952D01*
X235111428Y-73483333D01*
X234920952Y-73483333D01*
X234825714Y-73530952D01*
X234778095Y-73578571D01*
X234730476Y-73673809D01*
X234349523Y-76642380D02*
X233778095Y-76642380D01*
X234063809Y-76642380D02*
X234063809Y-75642380D01*
X233968571Y-75785238D01*
X233873333Y-75880476D01*
X233778095Y-75928095D01*
X234682857Y-75642380D02*
X235349523Y-75642380D01*
X234920952Y-76642380D01*
X234349523Y-79182380D02*
X233778095Y-79182380D01*
X234063809Y-79182380D02*
X234063809Y-78182380D01*
X233968571Y-78325238D01*
X233873333Y-78420476D01*
X233778095Y-78468095D01*
X234920952Y-78610952D02*
X234825714Y-78563333D01*
X234778095Y-78515714D01*
X234730476Y-78420476D01*
X234730476Y-78372857D01*
X234778095Y-78277619D01*
X234825714Y-78230000D01*
X234920952Y-78182380D01*
X235111428Y-78182380D01*
X235206666Y-78230000D01*
X235254285Y-78277619D01*
X235301904Y-78372857D01*
X235301904Y-78420476D01*
X235254285Y-78515714D01*
X235206666Y-78563333D01*
X235111428Y-78610952D01*
X234920952Y-78610952D01*
X234825714Y-78658571D01*
X234778095Y-78706190D01*
X234730476Y-78801428D01*
X234730476Y-78991904D01*
X234778095Y-79087142D01*
X234825714Y-79134761D01*
X234920952Y-79182380D01*
X235111428Y-79182380D01*
X235206666Y-79134761D01*
X235254285Y-79087142D01*
X235301904Y-78991904D01*
X235301904Y-78801428D01*
X235254285Y-78706190D01*
X235206666Y-78658571D01*
X235111428Y-78610952D01*
X234349523Y-81722380D02*
X233778095Y-81722380D01*
X234063809Y-81722380D02*
X234063809Y-80722380D01*
X233968571Y-80865238D01*
X233873333Y-80960476D01*
X233778095Y-81008095D01*
X234825714Y-81722380D02*
X235016190Y-81722380D01*
X235111428Y-81674761D01*
X235159047Y-81627142D01*
X235254285Y-81484285D01*
X235301904Y-81293809D01*
X235301904Y-80912857D01*
X235254285Y-80817619D01*
X235206666Y-80770000D01*
X235111428Y-80722380D01*
X234920952Y-80722380D01*
X234825714Y-80770000D01*
X234778095Y-80817619D01*
X234730476Y-80912857D01*
X234730476Y-81150952D01*
X234778095Y-81246190D01*
X234825714Y-81293809D01*
X234920952Y-81341428D01*
X235111428Y-81341428D01*
X235206666Y-81293809D01*
X235254285Y-81246190D01*
X235301904Y-81150952D01*
X233778095Y-83357619D02*
X233825714Y-83310000D01*
X233920952Y-83262380D01*
X234159047Y-83262380D01*
X234254285Y-83310000D01*
X234301904Y-83357619D01*
X234349523Y-83452857D01*
X234349523Y-83548095D01*
X234301904Y-83690952D01*
X233730476Y-84262380D01*
X234349523Y-84262380D01*
X234968571Y-83262380D02*
X235063809Y-83262380D01*
X235159047Y-83310000D01*
X235206666Y-83357619D01*
X235254285Y-83452857D01*
X235301904Y-83643333D01*
X235301904Y-83881428D01*
X235254285Y-84071904D01*
X235206666Y-84167142D01*
X235159047Y-84214761D01*
X235063809Y-84262380D01*
X234968571Y-84262380D01*
X234873333Y-84214761D01*
X234825714Y-84167142D01*
X234778095Y-84071904D01*
X234730476Y-83881428D01*
X234730476Y-83643333D01*
X234778095Y-83452857D01*
X234825714Y-83357619D01*
X234873333Y-83310000D01*
X234968571Y-83262380D01*
X233778095Y-85897619D02*
X233825714Y-85850000D01*
X233920952Y-85802380D01*
X234159047Y-85802380D01*
X234254285Y-85850000D01*
X234301904Y-85897619D01*
X234349523Y-85992857D01*
X234349523Y-86088095D01*
X234301904Y-86230952D01*
X233730476Y-86802380D01*
X234349523Y-86802380D01*
X235301904Y-86802380D02*
X234730476Y-86802380D01*
X235016190Y-86802380D02*
X235016190Y-85802380D01*
X234920952Y-85945238D01*
X234825714Y-86040476D01*
X234730476Y-86088095D01*
X233778095Y-88437619D02*
X233825714Y-88390000D01*
X233920952Y-88342380D01*
X234159047Y-88342380D01*
X234254285Y-88390000D01*
X234301904Y-88437619D01*
X234349523Y-88532857D01*
X234349523Y-88628095D01*
X234301904Y-88770952D01*
X233730476Y-89342380D01*
X234349523Y-89342380D01*
X234730476Y-88437619D02*
X234778095Y-88390000D01*
X234873333Y-88342380D01*
X235111428Y-88342380D01*
X235206666Y-88390000D01*
X235254285Y-88437619D01*
X235301904Y-88532857D01*
X235301904Y-88628095D01*
X235254285Y-88770952D01*
X234682857Y-89342380D01*
X235301904Y-89342380D01*
X233778095Y-90977619D02*
X233825714Y-90930000D01*
X233920952Y-90882380D01*
X234159047Y-90882380D01*
X234254285Y-90930000D01*
X234301904Y-90977619D01*
X234349523Y-91072857D01*
X234349523Y-91168095D01*
X234301904Y-91310952D01*
X233730476Y-91882380D01*
X234349523Y-91882380D01*
X234682857Y-90882380D02*
X235301904Y-90882380D01*
X234968571Y-91263333D01*
X235111428Y-91263333D01*
X235206666Y-91310952D01*
X235254285Y-91358571D01*
X235301904Y-91453809D01*
X235301904Y-91691904D01*
X235254285Y-91787142D01*
X235206666Y-91834761D01*
X235111428Y-91882380D01*
X234825714Y-91882380D01*
X234730476Y-91834761D01*
X234682857Y-91787142D01*
X233778095Y-93517619D02*
X233825714Y-93470000D01*
X233920952Y-93422380D01*
X234159047Y-93422380D01*
X234254285Y-93470000D01*
X234301904Y-93517619D01*
X234349523Y-93612857D01*
X234349523Y-93708095D01*
X234301904Y-93850952D01*
X233730476Y-94422380D01*
X234349523Y-94422380D01*
X235206666Y-93755714D02*
X235206666Y-94422380D01*
X234968571Y-93374761D02*
X234730476Y-94089047D01*
X235349523Y-94089047D01*
X233778095Y-96057619D02*
X233825714Y-96010000D01*
X233920952Y-95962380D01*
X234159047Y-95962380D01*
X234254285Y-96010000D01*
X234301904Y-96057619D01*
X234349523Y-96152857D01*
X234349523Y-96248095D01*
X234301904Y-96390952D01*
X233730476Y-96962380D01*
X234349523Y-96962380D01*
X235254285Y-95962380D02*
X234778095Y-95962380D01*
X234730476Y-96438571D01*
X234778095Y-96390952D01*
X234873333Y-96343333D01*
X235111428Y-96343333D01*
X235206666Y-96390952D01*
X235254285Y-96438571D01*
X235301904Y-96533809D01*
X235301904Y-96771904D01*
X235254285Y-96867142D01*
X235206666Y-96914761D01*
X235111428Y-96962380D01*
X234873333Y-96962380D01*
X234778095Y-96914761D01*
X234730476Y-96867142D01*
X233778095Y-98597619D02*
X233825714Y-98550000D01*
X233920952Y-98502380D01*
X234159047Y-98502380D01*
X234254285Y-98550000D01*
X234301904Y-98597619D01*
X234349523Y-98692857D01*
X234349523Y-98788095D01*
X234301904Y-98930952D01*
X233730476Y-99502380D01*
X234349523Y-99502380D01*
X235206666Y-98502380D02*
X235016190Y-98502380D01*
X234920952Y-98550000D01*
X234873333Y-98597619D01*
X234778095Y-98740476D01*
X234730476Y-98930952D01*
X234730476Y-99311904D01*
X234778095Y-99407142D01*
X234825714Y-99454761D01*
X234920952Y-99502380D01*
X235111428Y-99502380D01*
X235206666Y-99454761D01*
X235254285Y-99407142D01*
X235301904Y-99311904D01*
X235301904Y-99073809D01*
X235254285Y-98978571D01*
X235206666Y-98930952D01*
X235111428Y-98883333D01*
X234920952Y-98883333D01*
X234825714Y-98930952D01*
X234778095Y-98978571D01*
X234730476Y-99073809D01*
X233778095Y-101137619D02*
X233825714Y-101090000D01*
X233920952Y-101042380D01*
X234159047Y-101042380D01*
X234254285Y-101090000D01*
X234301904Y-101137619D01*
X234349523Y-101232857D01*
X234349523Y-101328095D01*
X234301904Y-101470952D01*
X233730476Y-102042380D01*
X234349523Y-102042380D01*
X234682857Y-101042380D02*
X235349523Y-101042380D01*
X234920952Y-102042380D01*
X233778095Y-103677619D02*
X233825714Y-103630000D01*
X233920952Y-103582380D01*
X234159047Y-103582380D01*
X234254285Y-103630000D01*
X234301904Y-103677619D01*
X234349523Y-103772857D01*
X234349523Y-103868095D01*
X234301904Y-104010952D01*
X233730476Y-104582380D01*
X234349523Y-104582380D01*
X234920952Y-104010952D02*
X234825714Y-103963333D01*
X234778095Y-103915714D01*
X234730476Y-103820476D01*
X234730476Y-103772857D01*
X234778095Y-103677619D01*
X234825714Y-103630000D01*
X234920952Y-103582380D01*
X235111428Y-103582380D01*
X235206666Y-103630000D01*
X235254285Y-103677619D01*
X235301904Y-103772857D01*
X235301904Y-103820476D01*
X235254285Y-103915714D01*
X235206666Y-103963333D01*
X235111428Y-104010952D01*
X234920952Y-104010952D01*
X234825714Y-104058571D01*
X234778095Y-104106190D01*
X234730476Y-104201428D01*
X234730476Y-104391904D01*
X234778095Y-104487142D01*
X234825714Y-104534761D01*
X234920952Y-104582380D01*
X235111428Y-104582380D01*
X235206666Y-104534761D01*
X235254285Y-104487142D01*
X235301904Y-104391904D01*
X235301904Y-104201428D01*
X235254285Y-104106190D01*
X235206666Y-104058571D01*
X235111428Y-104010952D01*
X233778095Y-106217619D02*
X233825714Y-106170000D01*
X233920952Y-106122380D01*
X234159047Y-106122380D01*
X234254285Y-106170000D01*
X234301904Y-106217619D01*
X234349523Y-106312857D01*
X234349523Y-106408095D01*
X234301904Y-106550952D01*
X233730476Y-107122380D01*
X234349523Y-107122380D01*
X234825714Y-107122380D02*
X235016190Y-107122380D01*
X235111428Y-107074761D01*
X235159047Y-107027142D01*
X235254285Y-106884285D01*
X235301904Y-106693809D01*
X235301904Y-106312857D01*
X235254285Y-106217619D01*
X235206666Y-106170000D01*
X235111428Y-106122380D01*
X234920952Y-106122380D01*
X234825714Y-106170000D01*
X234778095Y-106217619D01*
X234730476Y-106312857D01*
X234730476Y-106550952D01*
X234778095Y-106646190D01*
X234825714Y-106693809D01*
X234920952Y-106741428D01*
X235111428Y-106741428D01*
X235206666Y-106693809D01*
X235254285Y-106646190D01*
X235301904Y-106550952D01*
X233730476Y-108662380D02*
X234349523Y-108662380D01*
X234016190Y-109043333D01*
X234159047Y-109043333D01*
X234254285Y-109090952D01*
X234301904Y-109138571D01*
X234349523Y-109233809D01*
X234349523Y-109471904D01*
X234301904Y-109567142D01*
X234254285Y-109614761D01*
X234159047Y-109662380D01*
X233873333Y-109662380D01*
X233778095Y-109614761D01*
X233730476Y-109567142D01*
X234968571Y-108662380D02*
X235063809Y-108662380D01*
X235159047Y-108710000D01*
X235206666Y-108757619D01*
X235254285Y-108852857D01*
X235301904Y-109043333D01*
X235301904Y-109281428D01*
X235254285Y-109471904D01*
X235206666Y-109567142D01*
X235159047Y-109614761D01*
X235063809Y-109662380D01*
X234968571Y-109662380D01*
X234873333Y-109614761D01*
X234825714Y-109567142D01*
X234778095Y-109471904D01*
X234730476Y-109281428D01*
X234730476Y-109043333D01*
X234778095Y-108852857D01*
X234825714Y-108757619D01*
X234873333Y-108710000D01*
X234968571Y-108662380D01*
X233730476Y-111202380D02*
X234349523Y-111202380D01*
X234016190Y-111583333D01*
X234159047Y-111583333D01*
X234254285Y-111630952D01*
X234301904Y-111678571D01*
X234349523Y-111773809D01*
X234349523Y-112011904D01*
X234301904Y-112107142D01*
X234254285Y-112154761D01*
X234159047Y-112202380D01*
X233873333Y-112202380D01*
X233778095Y-112154761D01*
X233730476Y-112107142D01*
X235301904Y-112202380D02*
X234730476Y-112202380D01*
X235016190Y-112202380D02*
X235016190Y-111202380D01*
X234920952Y-111345238D01*
X234825714Y-111440476D01*
X234730476Y-111488095D01*
X233730476Y-113742380D02*
X234349523Y-113742380D01*
X234016190Y-114123333D01*
X234159047Y-114123333D01*
X234254285Y-114170952D01*
X234301904Y-114218571D01*
X234349523Y-114313809D01*
X234349523Y-114551904D01*
X234301904Y-114647142D01*
X234254285Y-114694761D01*
X234159047Y-114742380D01*
X233873333Y-114742380D01*
X233778095Y-114694761D01*
X233730476Y-114647142D01*
X234730476Y-113837619D02*
X234778095Y-113790000D01*
X234873333Y-113742380D01*
X235111428Y-113742380D01*
X235206666Y-113790000D01*
X235254285Y-113837619D01*
X235301904Y-113932857D01*
X235301904Y-114028095D01*
X235254285Y-114170952D01*
X234682857Y-114742380D01*
X235301904Y-114742380D01*
X233730476Y-116282380D02*
X234349523Y-116282380D01*
X234016190Y-116663333D01*
X234159047Y-116663333D01*
X234254285Y-116710952D01*
X234301904Y-116758571D01*
X234349523Y-116853809D01*
X234349523Y-117091904D01*
X234301904Y-117187142D01*
X234254285Y-117234761D01*
X234159047Y-117282380D01*
X233873333Y-117282380D01*
X233778095Y-117234761D01*
X233730476Y-117187142D01*
X234682857Y-116282380D02*
X235301904Y-116282380D01*
X234968571Y-116663333D01*
X235111428Y-116663333D01*
X235206666Y-116710952D01*
X235254285Y-116758571D01*
X235301904Y-116853809D01*
X235301904Y-117091904D01*
X235254285Y-117187142D01*
X235206666Y-117234761D01*
X235111428Y-117282380D01*
X234825714Y-117282380D01*
X234730476Y-117234761D01*
X234682857Y-117187142D01*
X233730476Y-118822380D02*
X234349523Y-118822380D01*
X234016190Y-119203333D01*
X234159047Y-119203333D01*
X234254285Y-119250952D01*
X234301904Y-119298571D01*
X234349523Y-119393809D01*
X234349523Y-119631904D01*
X234301904Y-119727142D01*
X234254285Y-119774761D01*
X234159047Y-119822380D01*
X233873333Y-119822380D01*
X233778095Y-119774761D01*
X233730476Y-119727142D01*
X235206666Y-119155714D02*
X235206666Y-119822380D01*
X234968571Y-118774761D02*
X234730476Y-119489047D01*
X235349523Y-119489047D01*
X119787619Y-124378571D02*
X119930476Y-124426190D01*
X119978095Y-124473809D01*
X120025714Y-124569047D01*
X120025714Y-124711904D01*
X119978095Y-124807142D01*
X119930476Y-124854761D01*
X119835238Y-124902380D01*
X119454285Y-124902380D01*
X119454285Y-123902380D01*
X119787619Y-123902380D01*
X119882857Y-123950000D01*
X119930476Y-123997619D01*
X119978095Y-124092857D01*
X119978095Y-124188095D01*
X119930476Y-124283333D01*
X119882857Y-124330952D01*
X119787619Y-124378571D01*
X119454285Y-124378571D01*
X120454285Y-124902380D02*
X120454285Y-123902380D01*
X120454285Y-124378571D02*
X121025714Y-124378571D01*
X121025714Y-124902380D02*
X121025714Y-123902380D01*
X119787619Y-36113571D02*
X119930476Y-36161190D01*
X119978095Y-36208809D01*
X120025714Y-36304047D01*
X120025714Y-36446904D01*
X119978095Y-36542142D01*
X119930476Y-36589761D01*
X119835238Y-36637380D01*
X119454285Y-36637380D01*
X119454285Y-35637380D01*
X119787619Y-35637380D01*
X119882857Y-35685000D01*
X119930476Y-35732619D01*
X119978095Y-35827857D01*
X119978095Y-35923095D01*
X119930476Y-36018333D01*
X119882857Y-36065952D01*
X119787619Y-36113571D01*
X119454285Y-36113571D01*
X120454285Y-36637380D02*
X120454285Y-35637380D01*
X120454285Y-36113571D02*
X121025714Y-36113571D01*
X121025714Y-36637380D02*
X121025714Y-35637380D01*
X188153333Y-127156666D02*
X188629523Y-127156666D01*
X188058095Y-127442380D02*
X188391428Y-126442380D01*
X188724761Y-127442380D01*
X189010476Y-127156666D02*
X189486666Y-127156666D01*
X188915238Y-127442380D02*
X189248571Y-126442380D01*
X189581904Y-127442380D01*
X175104000Y-125974000D02*
X177136000Y-125974000D01*
X193471428Y-126442380D02*
X193709523Y-127442380D01*
X193900000Y-126728095D01*
X194090476Y-127442380D01*
X194328571Y-126442380D01*
X227062857Y-126918571D02*
X226729523Y-126918571D01*
X226729523Y-127442380D02*
X226729523Y-126442380D01*
X227205714Y-126442380D01*
X162777142Y-127156666D02*
X163253333Y-127156666D01*
X162681904Y-127442380D02*
X163015238Y-126442380D01*
X163348571Y-127442380D01*
X164158095Y-127442380D02*
X163681904Y-127442380D01*
X163681904Y-126442380D01*
X206338095Y-127442380D02*
X206338095Y-126442380D01*
X206719047Y-126442380D01*
X206814285Y-126490000D01*
X206861904Y-126537619D01*
X206909523Y-126632857D01*
X206909523Y-126775714D01*
X206861904Y-126870952D01*
X206814285Y-126918571D01*
X206719047Y-126966190D01*
X206338095Y-126966190D01*
X139036000Y-125974000D02*
X139036000Y-128006000D01*
X177136000Y-125974000D02*
X177136000Y-128006000D01*
X197456000Y-128006000D02*
X195424000Y-128006000D01*
X220316000Y-128006000D02*
X218284000Y-128006000D01*
X157324000Y-125974000D02*
X159356000Y-125974000D01*
X152521904Y-127156666D02*
X152998095Y-127156666D01*
X152426666Y-127442380D02*
X152760000Y-126442380D01*
X153093333Y-127442380D01*
X153998095Y-127442380D02*
X153664761Y-126966190D01*
X153426666Y-127442380D02*
X153426666Y-126442380D01*
X153807619Y-126442380D01*
X153902857Y-126490000D01*
X153950476Y-126537619D01*
X153998095Y-126632857D01*
X153998095Y-126775714D01*
X153950476Y-126870952D01*
X153902857Y-126918571D01*
X153807619Y-126966190D01*
X153426666Y-126966190D01*
X172841904Y-127156666D02*
X173318095Y-127156666D01*
X172746666Y-127442380D02*
X173080000Y-126442380D01*
X173413333Y-127442380D01*
X174270476Y-126490000D02*
X174175238Y-126442380D01*
X174032380Y-126442380D01*
X173889523Y-126490000D01*
X173794285Y-126585238D01*
X173746666Y-126680476D01*
X173699047Y-126870952D01*
X173699047Y-127013809D01*
X173746666Y-127204285D01*
X173794285Y-127299523D01*
X173889523Y-127394761D01*
X174032380Y-127442380D01*
X174127619Y-127442380D01*
X174270476Y-127394761D01*
X174318095Y-127347142D01*
X174318095Y-127013809D01*
X174127619Y-127013809D01*
X167880952Y-127156666D02*
X168357142Y-127156666D01*
X167785714Y-127442380D02*
X168119047Y-126442380D01*
X168452380Y-127442380D01*
X169071428Y-126442380D02*
X169071428Y-127156666D01*
X169023809Y-127299523D01*
X168928571Y-127394761D01*
X168785714Y-127442380D01*
X168690476Y-127442380D01*
X132511428Y-126918571D02*
X132654285Y-126966190D01*
X132701904Y-127013809D01*
X132749523Y-127109047D01*
X132749523Y-127251904D01*
X132701904Y-127347142D01*
X132654285Y-127394761D01*
X132559047Y-127442380D01*
X132178095Y-127442380D01*
X132178095Y-126442380D01*
X132511428Y-126442380D01*
X132606666Y-126490000D01*
X132654285Y-126537619D01*
X132701904Y-126632857D01*
X132701904Y-126728095D01*
X132654285Y-126823333D01*
X132606666Y-126870952D01*
X132511428Y-126918571D01*
X132178095Y-126918571D01*
X133749523Y-127347142D02*
X133701904Y-127394761D01*
X133559047Y-127442380D01*
X133463809Y-127442380D01*
X133320952Y-127394761D01*
X133225714Y-127299523D01*
X133178095Y-127204285D01*
X133130476Y-127013809D01*
X133130476Y-126870952D01*
X133178095Y-126680476D01*
X133225714Y-126585238D01*
X133320952Y-126490000D01*
X133463809Y-126442380D01*
X133559047Y-126442380D01*
X133701904Y-126490000D01*
X133749523Y-126537619D01*
X160070476Y-127156666D02*
X160546666Y-127156666D01*
X159975238Y-127442380D02*
X160308571Y-126442380D01*
X160641904Y-127442380D01*
X160975238Y-127442380D02*
X160975238Y-126442380D01*
X161308571Y-127156666D01*
X161641904Y-126442380D01*
X161641904Y-127442380D01*
X175453333Y-127156666D02*
X175929523Y-127156666D01*
X175358095Y-127442380D02*
X175691428Y-126442380D01*
X176024761Y-127442380D01*
X176691428Y-126918571D02*
X176358095Y-126918571D01*
X176358095Y-127442380D02*
X176358095Y-126442380D01*
X176834285Y-126442380D01*
X155061904Y-127156666D02*
X155538095Y-127156666D01*
X154966666Y-127442380D02*
X155300000Y-126442380D01*
X155633333Y-127442380D01*
X155966666Y-127442380D02*
X155966666Y-126442380D01*
X156347619Y-126442380D01*
X156442857Y-126490000D01*
X156490476Y-126537619D01*
X156538095Y-126632857D01*
X156538095Y-126775714D01*
X156490476Y-126870952D01*
X156442857Y-126918571D01*
X156347619Y-126966190D01*
X155966666Y-126966190D01*
X129971428Y-126918571D02*
X130114285Y-126966190D01*
X130161904Y-127013809D01*
X130209523Y-127109047D01*
X130209523Y-127251904D01*
X130161904Y-127347142D01*
X130114285Y-127394761D01*
X130019047Y-127442380D01*
X129638095Y-127442380D01*
X129638095Y-126442380D01*
X129971428Y-126442380D01*
X130066666Y-126490000D01*
X130114285Y-126537619D01*
X130161904Y-126632857D01*
X130161904Y-126728095D01*
X130114285Y-126823333D01*
X130066666Y-126870952D01*
X129971428Y-126918571D01*
X129638095Y-126918571D01*
X130638095Y-127442380D02*
X130638095Y-126442380D01*
X130876190Y-126442380D01*
X131019047Y-126490000D01*
X131114285Y-126585238D01*
X131161904Y-126680476D01*
X131209523Y-126870952D01*
X131209523Y-127013809D01*
X131161904Y-127204285D01*
X131114285Y-127299523D01*
X131019047Y-127394761D01*
X130876190Y-127442380D01*
X130638095Y-127442380D01*
X135051428Y-126918571D02*
X135194285Y-126966190D01*
X135241904Y-127013809D01*
X135289523Y-127109047D01*
X135289523Y-127251904D01*
X135241904Y-127347142D01*
X135194285Y-127394761D01*
X135099047Y-127442380D01*
X134718095Y-127442380D01*
X134718095Y-126442380D01*
X135051428Y-126442380D01*
X135146666Y-126490000D01*
X135194285Y-126537619D01*
X135241904Y-126632857D01*
X135241904Y-126728095D01*
X135194285Y-126823333D01*
X135146666Y-126870952D01*
X135051428Y-126918571D01*
X134718095Y-126918571D01*
X136051428Y-126918571D02*
X136194285Y-126966190D01*
X136241904Y-127013809D01*
X136289523Y-127109047D01*
X136289523Y-127251904D01*
X136241904Y-127347142D01*
X136194285Y-127394761D01*
X136099047Y-127442380D01*
X135718095Y-127442380D01*
X135718095Y-126442380D01*
X136051428Y-126442380D01*
X136146666Y-126490000D01*
X136194285Y-126537619D01*
X136241904Y-126632857D01*
X136241904Y-126728095D01*
X136194285Y-126823333D01*
X136146666Y-126870952D01*
X136051428Y-126918571D01*
X135718095Y-126918571D01*
X137662857Y-126848571D02*
X137805714Y-126896190D01*
X137853333Y-126943809D01*
X137900952Y-127039047D01*
X137900952Y-127181904D01*
X137853333Y-127277142D01*
X137805714Y-127324761D01*
X137710476Y-127372380D01*
X137329523Y-127372380D01*
X137329523Y-126372380D01*
X137662857Y-126372380D01*
X137758095Y-126420000D01*
X137805714Y-126467619D01*
X137853333Y-126562857D01*
X137853333Y-126658095D01*
X137805714Y-126753333D01*
X137758095Y-126800952D01*
X137662857Y-126848571D01*
X137329523Y-126848571D01*
X138281904Y-127086666D02*
X138758095Y-127086666D01*
X138186666Y-127372380D02*
X138520000Y-126372380D01*
X138853333Y-127372380D01*
X165221904Y-127156666D02*
X165698095Y-127156666D01*
X165126666Y-127442380D02*
X165460000Y-126442380D01*
X165793333Y-127442380D01*
X166126666Y-127442380D02*
X166126666Y-126442380D01*
X166698095Y-127442380D02*
X166269523Y-126870952D01*
X166698095Y-126442380D02*
X166126666Y-127013809D01*
X185541904Y-127156666D02*
X186018095Y-127156666D01*
X185446666Y-127442380D02*
X185780000Y-126442380D01*
X186113333Y-127442380D01*
X186780000Y-126918571D02*
X186922857Y-126966190D01*
X186970476Y-127013809D01*
X187018095Y-127109047D01*
X187018095Y-127251904D01*
X186970476Y-127347142D01*
X186922857Y-127394761D01*
X186827619Y-127442380D01*
X186446666Y-127442380D01*
X186446666Y-126442380D01*
X186780000Y-126442380D01*
X186875238Y-126490000D01*
X186922857Y-126537619D01*
X186970476Y-126632857D01*
X186970476Y-126728095D01*
X186922857Y-126823333D01*
X186875238Y-126870952D01*
X186780000Y-126918571D01*
X186446666Y-126918571D01*
X144973333Y-127156666D02*
X145449523Y-127156666D01*
X144878095Y-127442380D02*
X145211428Y-126442380D01*
X145544761Y-127442380D01*
X145735238Y-126442380D02*
X146068571Y-127442380D01*
X146401904Y-126442380D01*
X147418095Y-127156666D02*
X147894285Y-127156666D01*
X147322857Y-127442380D02*
X147656190Y-126442380D01*
X147989523Y-127442380D01*
X148322857Y-126442380D02*
X148322857Y-127251904D01*
X148370476Y-127347142D01*
X148418095Y-127394761D01*
X148513333Y-127442380D01*
X148703809Y-127442380D01*
X148799047Y-127394761D01*
X148846666Y-127347142D01*
X148894285Y-127251904D01*
X148894285Y-126442380D01*
X139893333Y-127156666D02*
X140369523Y-127156666D01*
X139798095Y-127442380D02*
X140131428Y-126442380D01*
X140464761Y-127442380D01*
X140988571Y-126966190D02*
X140988571Y-127442380D01*
X140655238Y-126442380D02*
X140988571Y-126966190D01*
X141321904Y-126442380D01*
X183001904Y-127156666D02*
X183478095Y-127156666D01*
X182906666Y-127442380D02*
X183240000Y-126442380D01*
X183573333Y-127442380D01*
X184478095Y-127347142D02*
X184430476Y-127394761D01*
X184287619Y-127442380D01*
X184192380Y-127442380D01*
X184049523Y-127394761D01*
X183954285Y-127299523D01*
X183906666Y-127204285D01*
X183859047Y-127013809D01*
X183859047Y-126870952D01*
X183906666Y-126680476D01*
X183954285Y-126585238D01*
X184049523Y-126490000D01*
X184192380Y-126442380D01*
X184287619Y-126442380D01*
X184430476Y-126490000D01*
X184478095Y-126537619D01*
X180461904Y-127156666D02*
X180938095Y-127156666D01*
X180366666Y-127442380D02*
X180700000Y-126442380D01*
X181033333Y-127442380D01*
X181366666Y-127442380D02*
X181366666Y-126442380D01*
X181604761Y-126442380D01*
X181747619Y-126490000D01*
X181842857Y-126585238D01*
X181890476Y-126680476D01*
X181938095Y-126870952D01*
X181938095Y-127013809D01*
X181890476Y-127204285D01*
X181842857Y-127299523D01*
X181747619Y-127394761D01*
X181604761Y-127442380D01*
X181366666Y-127442380D01*
X220316000Y-125974000D02*
X220316000Y-128006000D01*
X139036000Y-128006000D02*
X137004000Y-128006000D01*
X154784000Y-125974000D02*
X156816000Y-125974000D01*
X134464000Y-125974000D02*
X136496000Y-125974000D01*
X177644000Y-125974000D02*
X179676000Y-125974000D01*
X127479047Y-126918571D02*
X127621904Y-126966190D01*
X127669523Y-127013809D01*
X127717142Y-127109047D01*
X127717142Y-127251904D01*
X127669523Y-127347142D01*
X127621904Y-127394761D01*
X127526666Y-127442380D01*
X127145714Y-127442380D01*
X127145714Y-126442380D01*
X127479047Y-126442380D01*
X127574285Y-126490000D01*
X127621904Y-126537619D01*
X127669523Y-126632857D01*
X127669523Y-126728095D01*
X127621904Y-126823333D01*
X127574285Y-126870952D01*
X127479047Y-126918571D01*
X127145714Y-126918571D01*
X128145714Y-126918571D02*
X128479047Y-126918571D01*
X128621904Y-127442380D02*
X128145714Y-127442380D01*
X128145714Y-126442380D01*
X128621904Y-126442380D01*
X142290476Y-127156666D02*
X142766666Y-127156666D01*
X142195238Y-127442380D02*
X142528571Y-126442380D01*
X142861904Y-127442380D01*
X143100000Y-126442380D02*
X143338095Y-127442380D01*
X143528571Y-126728095D01*
X143719047Y-127442380D01*
X143957142Y-126442380D01*
X175104000Y-128006000D02*
X175104000Y-125974000D01*
X197964000Y-128006000D02*
X197964000Y-125974000D01*
X156816000Y-125974000D02*
X156816000Y-128006000D01*
X217776000Y-125974000D02*
X217776000Y-128006000D01*
X137004000Y-128006000D02*
X137004000Y-125974000D01*
X196106666Y-126442380D02*
X196440000Y-127442380D01*
X196773333Y-126442380D01*
X157578095Y-127156666D02*
X158054285Y-127156666D01*
X157482857Y-127442380D02*
X157816190Y-126442380D01*
X158149523Y-127442380D01*
X158482857Y-127442380D02*
X158482857Y-126442380D01*
X159054285Y-127442380D01*
X159054285Y-126442380D01*
X191360000Y-126966190D02*
X191360000Y-127442380D01*
X191026666Y-126442380D02*
X191360000Y-126966190D01*
X191693333Y-126442380D01*
X199996000Y-128006000D02*
X197964000Y-128006000D01*
X218284000Y-128006000D02*
X218284000Y-125974000D01*
X177969523Y-127156666D02*
X178445714Y-127156666D01*
X177874285Y-127442380D02*
X178207619Y-126442380D01*
X178540952Y-127442380D01*
X178874285Y-126918571D02*
X179207619Y-126918571D01*
X179350476Y-127442380D02*
X178874285Y-127442380D01*
X178874285Y-126442380D01*
X179350476Y-126442380D01*
X159356000Y-125974000D02*
X159356000Y-128006000D01*
X195424000Y-125974000D02*
X197456000Y-125974000D01*
X150100952Y-127156666D02*
X150577142Y-127156666D01*
X150005714Y-127442380D02*
X150339047Y-126442380D01*
X150672380Y-127442380D01*
X150862857Y-126442380D02*
X151434285Y-126442380D01*
X151148571Y-127442380D02*
X151148571Y-126442380D01*
X159356000Y-128006000D02*
X157324000Y-128006000D01*
X157324000Y-128006000D02*
X157324000Y-125974000D01*
X177136000Y-128006000D02*
X175104000Y-128006000D01*
X195424000Y-128006000D02*
X195424000Y-125974000D01*
X218284000Y-125974000D02*
X220316000Y-125974000D01*
X221554285Y-127442380D02*
X221554285Y-126442380D01*
X221554285Y-126918571D02*
X222125714Y-126918571D01*
X222125714Y-127442380D02*
X222125714Y-126442380D01*
X231738095Y-127442380D02*
X231738095Y-126442380D01*
X231976190Y-126442380D01*
X232119047Y-126490000D01*
X232214285Y-126585238D01*
X232261904Y-126680476D01*
X232309523Y-126870952D01*
X232309523Y-127013809D01*
X232261904Y-127204285D01*
X232214285Y-127299523D01*
X232119047Y-127394761D01*
X231976190Y-127442380D01*
X231738095Y-127442380D01*
X136496000Y-125974000D02*
X136496000Y-128006000D01*
X134464000Y-128006000D02*
X134464000Y-125974000D01*
X197964000Y-125974000D02*
X199996000Y-125974000D01*
X136496000Y-128006000D02*
X134464000Y-128006000D01*
X215744000Y-125974000D02*
X217776000Y-125974000D01*
X217776000Y-128006000D02*
X215744000Y-128006000D01*
X216498095Y-127442380D02*
X216498095Y-126442380D01*
X217069523Y-127442380D02*
X216640952Y-126870952D01*
X217069523Y-126442380D02*
X216498095Y-127013809D01*
X204369523Y-127442380D02*
X204036190Y-126966190D01*
X203798095Y-127442380D02*
X203798095Y-126442380D01*
X204179047Y-126442380D01*
X204274285Y-126490000D01*
X204321904Y-126537619D01*
X204369523Y-126632857D01*
X204369523Y-126775714D01*
X204321904Y-126870952D01*
X204274285Y-126918571D01*
X204179047Y-126966190D01*
X203798095Y-126966190D01*
X224641904Y-126490000D02*
X224546666Y-126442380D01*
X224403809Y-126442380D01*
X224260952Y-126490000D01*
X224165714Y-126585238D01*
X224118095Y-126680476D01*
X224070476Y-126870952D01*
X224070476Y-127013809D01*
X224118095Y-127204285D01*
X224165714Y-127299523D01*
X224260952Y-127394761D01*
X224403809Y-127442380D01*
X224499047Y-127442380D01*
X224641904Y-127394761D01*
X224689523Y-127347142D01*
X224689523Y-127013809D01*
X224499047Y-127013809D01*
X214529523Y-127442380D02*
X214053333Y-127442380D01*
X214053333Y-126442380D01*
X208854285Y-127442380D02*
X208854285Y-126442380D01*
X209425714Y-127442380D01*
X209425714Y-126442380D01*
X219442857Y-126442380D02*
X219442857Y-127156666D01*
X219395238Y-127299523D01*
X219300000Y-127394761D01*
X219157142Y-127442380D01*
X219061904Y-127442380D01*
X154784000Y-128006000D02*
X154784000Y-125974000D01*
X137004000Y-125974000D02*
X139036000Y-125974000D01*
X229245714Y-126918571D02*
X229579047Y-126918571D01*
X229721904Y-127442380D02*
X229245714Y-127442380D01*
X229245714Y-126442380D01*
X229721904Y-126442380D01*
X211346666Y-127442380D02*
X211346666Y-126442380D01*
X211680000Y-127156666D01*
X212013333Y-126442380D01*
X212013333Y-127442380D01*
X179676000Y-125974000D02*
X179676000Y-128006000D01*
X156816000Y-128006000D02*
X154784000Y-128006000D01*
X199996000Y-125974000D02*
X199996000Y-128006000D01*
X215744000Y-128006000D02*
X215744000Y-125974000D01*
X179676000Y-128006000D02*
X177644000Y-128006000D01*
X197456000Y-125974000D02*
X197456000Y-128006000D01*
X201234285Y-126442380D02*
X201805714Y-126442380D01*
X201520000Y-127442380D02*
X201520000Y-126442380D01*
X177644000Y-128006000D02*
X177644000Y-125974000D01*
X170278095Y-127156666D02*
X170754285Y-127156666D01*
X170182857Y-127442380D02*
X170516190Y-126442380D01*
X170849523Y-127442380D01*
X171182857Y-127442380D02*
X171182857Y-126442380D01*
X171182857Y-126918571D02*
X171754285Y-126918571D01*
X171754285Y-127442380D02*
X171754285Y-126442380D01*
X198694285Y-126442380D02*
X198694285Y-127251904D01*
X198741904Y-127347142D01*
X198789523Y-127394761D01*
X198884761Y-127442380D01*
X199075238Y-127442380D01*
X199170476Y-127394761D01*
X199218095Y-127347142D01*
X199265714Y-127251904D01*
X199265714Y-126442380D01*
X124962857Y-126918571D02*
X125105714Y-126966190D01*
X125153333Y-127013809D01*
X125200952Y-127109047D01*
X125200952Y-127251904D01*
X125153333Y-127347142D01*
X125105714Y-127394761D01*
X125010476Y-127442380D01*
X124629523Y-127442380D01*
X124629523Y-126442380D01*
X124962857Y-126442380D01*
X125058095Y-126490000D01*
X125105714Y-126537619D01*
X125153333Y-126632857D01*
X125153333Y-126728095D01*
X125105714Y-126823333D01*
X125058095Y-126870952D01*
X124962857Y-126918571D01*
X124629523Y-126918571D01*
X125962857Y-126918571D02*
X125629523Y-126918571D01*
X125629523Y-127442380D02*
X125629523Y-126442380D01*
X126105714Y-126442380D01*
X122351428Y-126918571D02*
X122494285Y-126966190D01*
X122541904Y-127013809D01*
X122589523Y-127109047D01*
X122589523Y-127251904D01*
X122541904Y-127347142D01*
X122494285Y-127394761D01*
X122399047Y-127442380D01*
X122018095Y-127442380D01*
X122018095Y-126442380D01*
X122351428Y-126442380D01*
X122446666Y-126490000D01*
X122494285Y-126537619D01*
X122541904Y-126632857D01*
X122541904Y-126728095D01*
X122494285Y-126823333D01*
X122446666Y-126870952D01*
X122351428Y-126918571D01*
X122018095Y-126918571D01*
X123541904Y-126490000D02*
X123446666Y-126442380D01*
X123303809Y-126442380D01*
X123160952Y-126490000D01*
X123065714Y-126585238D01*
X123018095Y-126680476D01*
X122970476Y-126870952D01*
X122970476Y-127013809D01*
X123018095Y-127204285D01*
X123065714Y-127299523D01*
X123160952Y-127394761D01*
X123303809Y-127442380D01*
X123399047Y-127442380D01*
X123541904Y-127394761D01*
X123589523Y-127347142D01*
X123589523Y-127013809D01*
X123399047Y-127013809D01*
X122351428Y-32938571D02*
X122494285Y-32986190D01*
X122541904Y-33033809D01*
X122589523Y-33129047D01*
X122589523Y-33271904D01*
X122541904Y-33367142D01*
X122494285Y-33414761D01*
X122399047Y-33462380D01*
X122018095Y-33462380D01*
X122018095Y-32462380D01*
X122351428Y-32462380D01*
X122446666Y-32510000D01*
X122494285Y-32557619D01*
X122541904Y-32652857D01*
X122541904Y-32748095D01*
X122494285Y-32843333D01*
X122446666Y-32890952D01*
X122351428Y-32938571D01*
X122018095Y-32938571D01*
X123541904Y-32510000D02*
X123446666Y-32462380D01*
X123303809Y-32462380D01*
X123160952Y-32510000D01*
X123065714Y-32605238D01*
X123018095Y-32700476D01*
X122970476Y-32890952D01*
X122970476Y-33033809D01*
X123018095Y-33224285D01*
X123065714Y-33319523D01*
X123160952Y-33414761D01*
X123303809Y-33462380D01*
X123399047Y-33462380D01*
X123541904Y-33414761D01*
X123589523Y-33367142D01*
X123589523Y-33033809D01*
X123399047Y-33033809D01*
X124962857Y-32938571D02*
X125105714Y-32986190D01*
X125153333Y-33033809D01*
X125200952Y-33129047D01*
X125200952Y-33271904D01*
X125153333Y-33367142D01*
X125105714Y-33414761D01*
X125010476Y-33462380D01*
X124629523Y-33462380D01*
X124629523Y-32462380D01*
X124962857Y-32462380D01*
X125058095Y-32510000D01*
X125105714Y-32557619D01*
X125153333Y-32652857D01*
X125153333Y-32748095D01*
X125105714Y-32843333D01*
X125058095Y-32890952D01*
X124962857Y-32938571D01*
X124629523Y-32938571D01*
X125962857Y-32938571D02*
X125629523Y-32938571D01*
X125629523Y-33462380D02*
X125629523Y-32462380D01*
X126105714Y-32462380D01*
X242231428Y-121838571D02*
X242374285Y-121886190D01*
X242421904Y-121933809D01*
X242469523Y-122029047D01*
X242469523Y-122171904D01*
X242421904Y-122267142D01*
X242374285Y-122314761D01*
X242279047Y-122362380D01*
X241898095Y-122362380D01*
X241898095Y-121362380D01*
X242231428Y-121362380D01*
X242326666Y-121410000D01*
X242374285Y-121457619D01*
X242421904Y-121552857D01*
X242421904Y-121648095D01*
X242374285Y-121743333D01*
X242326666Y-121790952D01*
X242231428Y-121838571D01*
X241898095Y-121838571D01*
X244461904Y-122076666D02*
X244938095Y-122076666D01*
X244366666Y-122362380D02*
X244700000Y-121362380D01*
X245033333Y-122362380D01*
X240945523Y-121759142D02*
X240897904Y-121806761D01*
X240755047Y-121854380D01*
X240659809Y-121854380D01*
X240516952Y-121806761D01*
X240421714Y-121711523D01*
X240374095Y-121616285D01*
X240326476Y-121425809D01*
X240326476Y-121282952D01*
X240374095Y-121092476D01*
X240421714Y-120997238D01*
X240516952Y-120902000D01*
X240659809Y-120854380D01*
X240755047Y-120854380D01*
X240897904Y-120902000D01*
X240945523Y-120949619D01*
X240945523Y-38955142D02*
X240897904Y-39002761D01*
X240755047Y-39050380D01*
X240659809Y-39050380D01*
X240516952Y-39002761D01*
X240421714Y-38907523D01*
X240374095Y-38812285D01*
X240326476Y-38621809D01*
X240326476Y-38478952D01*
X240374095Y-38288476D01*
X240421714Y-38193238D01*
X240516952Y-38098000D01*
X240659809Y-38050380D01*
X240755047Y-38050380D01*
X240897904Y-38098000D01*
X240945523Y-38145619D01*
X242231428Y-38018571D02*
X242374285Y-38066190D01*
X242421904Y-38113809D01*
X242469523Y-38209047D01*
X242469523Y-38351904D01*
X242421904Y-38447142D01*
X242374285Y-38494761D01*
X242279047Y-38542380D01*
X241898095Y-38542380D01*
X241898095Y-37542380D01*
X242231428Y-37542380D01*
X242326666Y-37590000D01*
X242374285Y-37637619D01*
X242421904Y-37732857D01*
X242421904Y-37828095D01*
X242374285Y-37923333D01*
X242326666Y-37970952D01*
X242231428Y-38018571D01*
X241898095Y-38018571D01*
X116255476Y-118822380D02*
X116874523Y-118822380D01*
X116541190Y-119203333D01*
X116684047Y-119203333D01*
X116779285Y-119250952D01*
X116826904Y-119298571D01*
X116874523Y-119393809D01*
X116874523Y-119631904D01*
X116826904Y-119727142D01*
X116779285Y-119774761D01*
X116684047Y-119822380D01*
X116398333Y-119822380D01*
X116303095Y-119774761D01*
X116255476Y-119727142D01*
X117731666Y-119155714D02*
X117731666Y-119822380D01*
X117493571Y-118774761D02*
X117255476Y-119489047D01*
X117874523Y-119489047D01*
X116255476Y-116282380D02*
X116874523Y-116282380D01*
X116541190Y-116663333D01*
X116684047Y-116663333D01*
X116779285Y-116710952D01*
X116826904Y-116758571D01*
X116874523Y-116853809D01*
X116874523Y-117091904D01*
X116826904Y-117187142D01*
X116779285Y-117234761D01*
X116684047Y-117282380D01*
X116398333Y-117282380D01*
X116303095Y-117234761D01*
X116255476Y-117187142D01*
X117207857Y-116282380D02*
X117826904Y-116282380D01*
X117493571Y-116663333D01*
X117636428Y-116663333D01*
X117731666Y-116710952D01*
X117779285Y-116758571D01*
X117826904Y-116853809D01*
X117826904Y-117091904D01*
X117779285Y-117187142D01*
X117731666Y-117234761D01*
X117636428Y-117282380D01*
X117350714Y-117282380D01*
X117255476Y-117234761D01*
X117207857Y-117187142D01*
X116255476Y-113742380D02*
X116874523Y-113742380D01*
X116541190Y-114123333D01*
X116684047Y-114123333D01*
X116779285Y-114170952D01*
X116826904Y-114218571D01*
X116874523Y-114313809D01*
X116874523Y-114551904D01*
X116826904Y-114647142D01*
X116779285Y-114694761D01*
X116684047Y-114742380D01*
X116398333Y-114742380D01*
X116303095Y-114694761D01*
X116255476Y-114647142D01*
X117255476Y-113837619D02*
X117303095Y-113790000D01*
X117398333Y-113742380D01*
X117636428Y-113742380D01*
X117731666Y-113790000D01*
X117779285Y-113837619D01*
X117826904Y-113932857D01*
X117826904Y-114028095D01*
X117779285Y-114170952D01*
X117207857Y-114742380D01*
X117826904Y-114742380D01*
X116255476Y-111202380D02*
X116874523Y-111202380D01*
X116541190Y-111583333D01*
X116684047Y-111583333D01*
X116779285Y-111630952D01*
X116826904Y-111678571D01*
X116874523Y-111773809D01*
X116874523Y-112011904D01*
X116826904Y-112107142D01*
X116779285Y-112154761D01*
X116684047Y-112202380D01*
X116398333Y-112202380D01*
X116303095Y-112154761D01*
X116255476Y-112107142D01*
X117826904Y-112202380D02*
X117255476Y-112202380D01*
X117541190Y-112202380D02*
X117541190Y-111202380D01*
X117445952Y-111345238D01*
X117350714Y-111440476D01*
X117255476Y-111488095D01*
X116255476Y-108662380D02*
X116874523Y-108662380D01*
X116541190Y-109043333D01*
X116684047Y-109043333D01*
X116779285Y-109090952D01*
X116826904Y-109138571D01*
X116874523Y-109233809D01*
X116874523Y-109471904D01*
X116826904Y-109567142D01*
X116779285Y-109614761D01*
X116684047Y-109662380D01*
X116398333Y-109662380D01*
X116303095Y-109614761D01*
X116255476Y-109567142D01*
X117493571Y-108662380D02*
X117588809Y-108662380D01*
X117684047Y-108710000D01*
X117731666Y-108757619D01*
X117779285Y-108852857D01*
X117826904Y-109043333D01*
X117826904Y-109281428D01*
X117779285Y-109471904D01*
X117731666Y-109567142D01*
X117684047Y-109614761D01*
X117588809Y-109662380D01*
X117493571Y-109662380D01*
X117398333Y-109614761D01*
X117350714Y-109567142D01*
X117303095Y-109471904D01*
X117255476Y-109281428D01*
X117255476Y-109043333D01*
X117303095Y-108852857D01*
X117350714Y-108757619D01*
X117398333Y-108710000D01*
X117493571Y-108662380D01*
X116303095Y-106217619D02*
X116350714Y-106170000D01*
X116445952Y-106122380D01*
X116684047Y-106122380D01*
X116779285Y-106170000D01*
X116826904Y-106217619D01*
X116874523Y-106312857D01*
X116874523Y-106408095D01*
X116826904Y-106550952D01*
X116255476Y-107122380D01*
X116874523Y-107122380D01*
X117350714Y-107122380D02*
X117541190Y-107122380D01*
X117636428Y-107074761D01*
X117684047Y-107027142D01*
X117779285Y-106884285D01*
X117826904Y-106693809D01*
X117826904Y-106312857D01*
X117779285Y-106217619D01*
X117731666Y-106170000D01*
X117636428Y-106122380D01*
X117445952Y-106122380D01*
X117350714Y-106170000D01*
X117303095Y-106217619D01*
X117255476Y-106312857D01*
X117255476Y-106550952D01*
X117303095Y-106646190D01*
X117350714Y-106693809D01*
X117445952Y-106741428D01*
X117636428Y-106741428D01*
X117731666Y-106693809D01*
X117779285Y-106646190D01*
X117826904Y-106550952D01*
X116303095Y-103677619D02*
X116350714Y-103630000D01*
X116445952Y-103582380D01*
X116684047Y-103582380D01*
X116779285Y-103630000D01*
X116826904Y-103677619D01*
X116874523Y-103772857D01*
X116874523Y-103868095D01*
X116826904Y-104010952D01*
X116255476Y-104582380D01*
X116874523Y-104582380D01*
X117445952Y-104010952D02*
X117350714Y-103963333D01*
X117303095Y-103915714D01*
X117255476Y-103820476D01*
X117255476Y-103772857D01*
X117303095Y-103677619D01*
X117350714Y-103630000D01*
X117445952Y-103582380D01*
X117636428Y-103582380D01*
X117731666Y-103630000D01*
X117779285Y-103677619D01*
X117826904Y-103772857D01*
X117826904Y-103820476D01*
X117779285Y-103915714D01*
X117731666Y-103963333D01*
X117636428Y-104010952D01*
X117445952Y-104010952D01*
X117350714Y-104058571D01*
X117303095Y-104106190D01*
X117255476Y-104201428D01*
X117255476Y-104391904D01*
X117303095Y-104487142D01*
X117350714Y-104534761D01*
X117445952Y-104582380D01*
X117636428Y-104582380D01*
X117731666Y-104534761D01*
X117779285Y-104487142D01*
X117826904Y-104391904D01*
X117826904Y-104201428D01*
X117779285Y-104106190D01*
X117731666Y-104058571D01*
X117636428Y-104010952D01*
X116303095Y-101137619D02*
X116350714Y-101090000D01*
X116445952Y-101042380D01*
X116684047Y-101042380D01*
X116779285Y-101090000D01*
X116826904Y-101137619D01*
X116874523Y-101232857D01*
X116874523Y-101328095D01*
X116826904Y-101470952D01*
X116255476Y-102042380D01*
X116874523Y-102042380D01*
X117207857Y-101042380D02*
X117874523Y-101042380D01*
X117445952Y-102042380D01*
X116303095Y-98597619D02*
X116350714Y-98550000D01*
X116445952Y-98502380D01*
X116684047Y-98502380D01*
X116779285Y-98550000D01*
X116826904Y-98597619D01*
X116874523Y-98692857D01*
X116874523Y-98788095D01*
X116826904Y-98930952D01*
X116255476Y-99502380D01*
X116874523Y-99502380D01*
X117731666Y-98502380D02*
X117541190Y-98502380D01*
X117445952Y-98550000D01*
X117398333Y-98597619D01*
X117303095Y-98740476D01*
X117255476Y-98930952D01*
X117255476Y-99311904D01*
X117303095Y-99407142D01*
X117350714Y-99454761D01*
X117445952Y-99502380D01*
X117636428Y-99502380D01*
X117731666Y-99454761D01*
X117779285Y-99407142D01*
X117826904Y-99311904D01*
X117826904Y-99073809D01*
X117779285Y-98978571D01*
X117731666Y-98930952D01*
X117636428Y-98883333D01*
X117445952Y-98883333D01*
X117350714Y-98930952D01*
X117303095Y-98978571D01*
X117255476Y-99073809D01*
X116303095Y-96057619D02*
X116350714Y-96010000D01*
X116445952Y-95962380D01*
X116684047Y-95962380D01*
X116779285Y-96010000D01*
X116826904Y-96057619D01*
X116874523Y-96152857D01*
X116874523Y-96248095D01*
X116826904Y-96390952D01*
X116255476Y-96962380D01*
X116874523Y-96962380D01*
X117779285Y-95962380D02*
X117303095Y-95962380D01*
X117255476Y-96438571D01*
X117303095Y-96390952D01*
X117398333Y-96343333D01*
X117636428Y-96343333D01*
X117731666Y-96390952D01*
X117779285Y-96438571D01*
X117826904Y-96533809D01*
X117826904Y-96771904D01*
X117779285Y-96867142D01*
X117731666Y-96914761D01*
X117636428Y-96962380D01*
X117398333Y-96962380D01*
X117303095Y-96914761D01*
X117255476Y-96867142D01*
X116303095Y-93517619D02*
X116350714Y-93470000D01*
X116445952Y-93422380D01*
X116684047Y-93422380D01*
X116779285Y-93470000D01*
X116826904Y-93517619D01*
X116874523Y-93612857D01*
X116874523Y-93708095D01*
X116826904Y-93850952D01*
X116255476Y-94422380D01*
X116874523Y-94422380D01*
X117731666Y-93755714D02*
X117731666Y-94422380D01*
X117493571Y-93374761D02*
X117255476Y-94089047D01*
X117874523Y-94089047D01*
X116303095Y-90977619D02*
X116350714Y-90930000D01*
X116445952Y-90882380D01*
X116684047Y-90882380D01*
X116779285Y-90930000D01*
X116826904Y-90977619D01*
X116874523Y-91072857D01*
X116874523Y-91168095D01*
X116826904Y-91310952D01*
X116255476Y-91882380D01*
X116874523Y-91882380D01*
X117207857Y-90882380D02*
X117826904Y-90882380D01*
X117493571Y-91263333D01*
X117636428Y-91263333D01*
X117731666Y-91310952D01*
X117779285Y-91358571D01*
X117826904Y-91453809D01*
X117826904Y-91691904D01*
X117779285Y-91787142D01*
X117731666Y-91834761D01*
X117636428Y-91882380D01*
X117350714Y-91882380D01*
X117255476Y-91834761D01*
X117207857Y-91787142D01*
X116303095Y-88437619D02*
X116350714Y-88390000D01*
X116445952Y-88342380D01*
X116684047Y-88342380D01*
X116779285Y-88390000D01*
X116826904Y-88437619D01*
X116874523Y-88532857D01*
X116874523Y-88628095D01*
X116826904Y-88770952D01*
X116255476Y-89342380D01*
X116874523Y-89342380D01*
X117255476Y-88437619D02*
X117303095Y-88390000D01*
X117398333Y-88342380D01*
X117636428Y-88342380D01*
X117731666Y-88390000D01*
X117779285Y-88437619D01*
X117826904Y-88532857D01*
X117826904Y-88628095D01*
X117779285Y-88770952D01*
X117207857Y-89342380D01*
X117826904Y-89342380D01*
X116303095Y-85897619D02*
X116350714Y-85850000D01*
X116445952Y-85802380D01*
X116684047Y-85802380D01*
X116779285Y-85850000D01*
X116826904Y-85897619D01*
X116874523Y-85992857D01*
X116874523Y-86088095D01*
X116826904Y-86230952D01*
X116255476Y-86802380D01*
X116874523Y-86802380D01*
X117826904Y-86802380D02*
X117255476Y-86802380D01*
X117541190Y-86802380D02*
X117541190Y-85802380D01*
X117445952Y-85945238D01*
X117350714Y-86040476D01*
X117255476Y-86088095D01*
X116303095Y-83357619D02*
X116350714Y-83310000D01*
X116445952Y-83262380D01*
X116684047Y-83262380D01*
X116779285Y-83310000D01*
X116826904Y-83357619D01*
X116874523Y-83452857D01*
X116874523Y-83548095D01*
X116826904Y-83690952D01*
X116255476Y-84262380D01*
X116874523Y-84262380D01*
X117493571Y-83262380D02*
X117588809Y-83262380D01*
X117684047Y-83310000D01*
X117731666Y-83357619D01*
X117779285Y-83452857D01*
X117826904Y-83643333D01*
X117826904Y-83881428D01*
X117779285Y-84071904D01*
X117731666Y-84167142D01*
X117684047Y-84214761D01*
X117588809Y-84262380D01*
X117493571Y-84262380D01*
X117398333Y-84214761D01*
X117350714Y-84167142D01*
X117303095Y-84071904D01*
X117255476Y-83881428D01*
X117255476Y-83643333D01*
X117303095Y-83452857D01*
X117350714Y-83357619D01*
X117398333Y-83310000D01*
X117493571Y-83262380D01*
X116874523Y-81722380D02*
X116303095Y-81722380D01*
X116588809Y-81722380D02*
X116588809Y-80722380D01*
X116493571Y-80865238D01*
X116398333Y-80960476D01*
X116303095Y-81008095D01*
X117350714Y-81722380D02*
X117541190Y-81722380D01*
X117636428Y-81674761D01*
X117684047Y-81627142D01*
X117779285Y-81484285D01*
X117826904Y-81293809D01*
X117826904Y-80912857D01*
X117779285Y-80817619D01*
X117731666Y-80770000D01*
X117636428Y-80722380D01*
X117445952Y-80722380D01*
X117350714Y-80770000D01*
X117303095Y-80817619D01*
X117255476Y-80912857D01*
X117255476Y-81150952D01*
X117303095Y-81246190D01*
X117350714Y-81293809D01*
X117445952Y-81341428D01*
X117636428Y-81341428D01*
X117731666Y-81293809D01*
X117779285Y-81246190D01*
X117826904Y-81150952D01*
X116874523Y-79182380D02*
X116303095Y-79182380D01*
X116588809Y-79182380D02*
X116588809Y-78182380D01*
X116493571Y-78325238D01*
X116398333Y-78420476D01*
X116303095Y-78468095D01*
X117445952Y-78610952D02*
X117350714Y-78563333D01*
X117303095Y-78515714D01*
X117255476Y-78420476D01*
X117255476Y-78372857D01*
X117303095Y-78277619D01*
X117350714Y-78230000D01*
X117445952Y-78182380D01*
X117636428Y-78182380D01*
X117731666Y-78230000D01*
X117779285Y-78277619D01*
X117826904Y-78372857D01*
X117826904Y-78420476D01*
X117779285Y-78515714D01*
X117731666Y-78563333D01*
X117636428Y-78610952D01*
X117445952Y-78610952D01*
X117350714Y-78658571D01*
X117303095Y-78706190D01*
X117255476Y-78801428D01*
X117255476Y-78991904D01*
X117303095Y-79087142D01*
X117350714Y-79134761D01*
X117445952Y-79182380D01*
X117636428Y-79182380D01*
X117731666Y-79134761D01*
X117779285Y-79087142D01*
X117826904Y-78991904D01*
X117826904Y-78801428D01*
X117779285Y-78706190D01*
X117731666Y-78658571D01*
X117636428Y-78610952D01*
X116874523Y-76642380D02*
X116303095Y-76642380D01*
X116588809Y-76642380D02*
X116588809Y-75642380D01*
X116493571Y-75785238D01*
X116398333Y-75880476D01*
X116303095Y-75928095D01*
X117207857Y-75642380D02*
X117874523Y-75642380D01*
X117445952Y-76642380D01*
X116874523Y-74102380D02*
X116303095Y-74102380D01*
X116588809Y-74102380D02*
X116588809Y-73102380D01*
X116493571Y-73245238D01*
X116398333Y-73340476D01*
X116303095Y-73388095D01*
X117731666Y-73102380D02*
X117541190Y-73102380D01*
X117445952Y-73150000D01*
X117398333Y-73197619D01*
X117303095Y-73340476D01*
X117255476Y-73530952D01*
X117255476Y-73911904D01*
X117303095Y-74007142D01*
X117350714Y-74054761D01*
X117445952Y-74102380D01*
X117636428Y-74102380D01*
X117731666Y-74054761D01*
X117779285Y-74007142D01*
X117826904Y-73911904D01*
X117826904Y-73673809D01*
X117779285Y-73578571D01*
X117731666Y-73530952D01*
X117636428Y-73483333D01*
X117445952Y-73483333D01*
X117350714Y-73530952D01*
X117303095Y-73578571D01*
X117255476Y-73673809D01*
X116874523Y-71562380D02*
X116303095Y-71562380D01*
X116588809Y-71562380D02*
X116588809Y-70562380D01*
X116493571Y-70705238D01*
X116398333Y-70800476D01*
X116303095Y-70848095D01*
X117779285Y-70562380D02*
X117303095Y-70562380D01*
X117255476Y-71038571D01*
X117303095Y-70990952D01*
X117398333Y-70943333D01*
X117636428Y-70943333D01*
X117731666Y-70990952D01*
X117779285Y-71038571D01*
X117826904Y-71133809D01*
X117826904Y-71371904D01*
X117779285Y-71467142D01*
X117731666Y-71514761D01*
X117636428Y-71562380D01*
X117398333Y-71562380D01*
X117303095Y-71514761D01*
X117255476Y-71467142D01*
X116874523Y-69022380D02*
X116303095Y-69022380D01*
X116588809Y-69022380D02*
X116588809Y-68022380D01*
X116493571Y-68165238D01*
X116398333Y-68260476D01*
X116303095Y-68308095D01*
X117731666Y-68355714D02*
X117731666Y-69022380D01*
X117493571Y-67974761D02*
X117255476Y-68689047D01*
X117874523Y-68689047D01*
X116874523Y-66482380D02*
X116303095Y-66482380D01*
X116588809Y-66482380D02*
X116588809Y-65482380D01*
X116493571Y-65625238D01*
X116398333Y-65720476D01*
X116303095Y-65768095D01*
X117207857Y-65482380D02*
X117826904Y-65482380D01*
X117493571Y-65863333D01*
X117636428Y-65863333D01*
X117731666Y-65910952D01*
X117779285Y-65958571D01*
X117826904Y-66053809D01*
X117826904Y-66291904D01*
X117779285Y-66387142D01*
X117731666Y-66434761D01*
X117636428Y-66482380D01*
X117350714Y-66482380D01*
X117255476Y-66434761D01*
X117207857Y-66387142D01*
X116874523Y-63942380D02*
X116303095Y-63942380D01*
X116588809Y-63942380D02*
X116588809Y-62942380D01*
X116493571Y-63085238D01*
X116398333Y-63180476D01*
X116303095Y-63228095D01*
X117255476Y-63037619D02*
X117303095Y-62990000D01*
X117398333Y-62942380D01*
X117636428Y-62942380D01*
X117731666Y-62990000D01*
X117779285Y-63037619D01*
X117826904Y-63132857D01*
X117826904Y-63228095D01*
X117779285Y-63370952D01*
X117207857Y-63942380D01*
X117826904Y-63942380D01*
X116874523Y-61402380D02*
X116303095Y-61402380D01*
X116588809Y-61402380D02*
X116588809Y-60402380D01*
X116493571Y-60545238D01*
X116398333Y-60640476D01*
X116303095Y-60688095D01*
X117826904Y-61402380D02*
X117255476Y-61402380D01*
X117541190Y-61402380D02*
X117541190Y-60402380D01*
X117445952Y-60545238D01*
X117350714Y-60640476D01*
X117255476Y-60688095D01*
X116874523Y-58862380D02*
X116303095Y-58862380D01*
X116588809Y-58862380D02*
X116588809Y-57862380D01*
X116493571Y-58005238D01*
X116398333Y-58100476D01*
X116303095Y-58148095D01*
X117493571Y-57862380D02*
X117588809Y-57862380D01*
X117684047Y-57910000D01*
X117731666Y-57957619D01*
X117779285Y-58052857D01*
X117826904Y-58243333D01*
X117826904Y-58481428D01*
X117779285Y-58671904D01*
X117731666Y-58767142D01*
X117684047Y-58814761D01*
X117588809Y-58862380D01*
X117493571Y-58862380D01*
X117398333Y-58814761D01*
X117350714Y-58767142D01*
X117303095Y-58671904D01*
X117255476Y-58481428D01*
X117255476Y-58243333D01*
X117303095Y-58052857D01*
X117350714Y-57957619D01*
X117398333Y-57910000D01*
X117493571Y-57862380D01*
X116874523Y-56322380D02*
X117065000Y-56322380D01*
X117160238Y-56274761D01*
X117207857Y-56227142D01*
X117303095Y-56084285D01*
X117350714Y-55893809D01*
X117350714Y-55512857D01*
X117303095Y-55417619D01*
X117255476Y-55370000D01*
X117160238Y-55322380D01*
X116969761Y-55322380D01*
X116874523Y-55370000D01*
X116826904Y-55417619D01*
X116779285Y-55512857D01*
X116779285Y-55750952D01*
X116826904Y-55846190D01*
X116874523Y-55893809D01*
X116969761Y-55941428D01*
X117160238Y-55941428D01*
X117255476Y-55893809D01*
X117303095Y-55846190D01*
X117350714Y-55750952D01*
X116969761Y-53210952D02*
X116874523Y-53163333D01*
X116826904Y-53115714D01*
X116779285Y-53020476D01*
X116779285Y-52972857D01*
X116826904Y-52877619D01*
X116874523Y-52830000D01*
X116969761Y-52782380D01*
X117160238Y-52782380D01*
X117255476Y-52830000D01*
X117303095Y-52877619D01*
X117350714Y-52972857D01*
X117350714Y-53020476D01*
X117303095Y-53115714D01*
X117255476Y-53163333D01*
X117160238Y-53210952D01*
X116969761Y-53210952D01*
X116874523Y-53258571D01*
X116826904Y-53306190D01*
X116779285Y-53401428D01*
X116779285Y-53591904D01*
X116826904Y-53687142D01*
X116874523Y-53734761D01*
X116969761Y-53782380D01*
X117160238Y-53782380D01*
X117255476Y-53734761D01*
X117303095Y-53687142D01*
X117350714Y-53591904D01*
X117350714Y-53401428D01*
X117303095Y-53306190D01*
X117255476Y-53258571D01*
X117160238Y-53210952D01*
X116731666Y-50242380D02*
X117398333Y-50242380D01*
X116969761Y-51242380D01*
X117255476Y-47702380D02*
X117065000Y-47702380D01*
X116969761Y-47750000D01*
X116922142Y-47797619D01*
X116826904Y-47940476D01*
X116779285Y-48130952D01*
X116779285Y-48511904D01*
X116826904Y-48607142D01*
X116874523Y-48654761D01*
X116969761Y-48702380D01*
X117160238Y-48702380D01*
X117255476Y-48654761D01*
X117303095Y-48607142D01*
X117350714Y-48511904D01*
X117350714Y-48273809D01*
X117303095Y-48178571D01*
X117255476Y-48130952D01*
X117160238Y-48083333D01*
X116969761Y-48083333D01*
X116874523Y-48130952D01*
X116826904Y-48178571D01*
X116779285Y-48273809D01*
X117303095Y-45162380D02*
X116826904Y-45162380D01*
X116779285Y-45638571D01*
X116826904Y-45590952D01*
X116922142Y-45543333D01*
X117160238Y-45543333D01*
X117255476Y-45590952D01*
X117303095Y-45638571D01*
X117350714Y-45733809D01*
X117350714Y-45971904D01*
X117303095Y-46067142D01*
X117255476Y-46114761D01*
X117160238Y-46162380D01*
X116922142Y-46162380D01*
X116826904Y-46114761D01*
X116779285Y-46067142D01*
X117255476Y-42955714D02*
X117255476Y-43622380D01*
X117017380Y-42574761D02*
X116779285Y-43289047D01*
X117398333Y-43289047D01*
X116731666Y-40082380D02*
X117350714Y-40082380D01*
X117017380Y-40463333D01*
X117160238Y-40463333D01*
X117255476Y-40510952D01*
X117303095Y-40558571D01*
X117350714Y-40653809D01*
X117350714Y-40891904D01*
X117303095Y-40987142D01*
X117255476Y-41034761D01*
X117160238Y-41082380D01*
X116874523Y-41082380D01*
X116779285Y-41034761D01*
X116731666Y-40987142D01*
X198694285Y-32462380D02*
X198694285Y-33271904D01*
X198741904Y-33367142D01*
X198789523Y-33414761D01*
X198884761Y-33462380D01*
X199075238Y-33462380D01*
X199170476Y-33414761D01*
X199218095Y-33367142D01*
X199265714Y-33271904D01*
X199265714Y-32462380D01*
X170278095Y-33176666D02*
X170754285Y-33176666D01*
X170182857Y-33462380D02*
X170516190Y-32462380D01*
X170849523Y-33462380D01*
X171182857Y-33462380D02*
X171182857Y-32462380D01*
X171182857Y-32938571D02*
X171754285Y-32938571D01*
X171754285Y-33462380D02*
X171754285Y-32462380D01*
X177644000Y-34026000D02*
X177644000Y-31994000D01*
X201234285Y-32462380D02*
X201805714Y-32462380D01*
X201520000Y-33462380D02*
X201520000Y-32462380D01*
X197456000Y-31994000D02*
X197456000Y-34026000D01*
X179676000Y-34026000D02*
X177644000Y-34026000D01*
X215744000Y-34026000D02*
X215744000Y-31994000D01*
X199996000Y-31994000D02*
X199996000Y-34026000D01*
X156816000Y-34026000D02*
X154784000Y-34026000D01*
X179676000Y-31994000D02*
X179676000Y-34026000D01*
X211346666Y-33462380D02*
X211346666Y-32462380D01*
X211680000Y-33176666D01*
X212013333Y-32462380D01*
X212013333Y-33462380D01*
X229245714Y-32938571D02*
X229579047Y-32938571D01*
X229721904Y-33462380D02*
X229245714Y-33462380D01*
X229245714Y-32462380D01*
X229721904Y-32462380D01*
X137004000Y-31994000D02*
X139036000Y-31994000D01*
X154784000Y-34026000D02*
X154784000Y-31994000D01*
X219442857Y-32462380D02*
X219442857Y-33176666D01*
X219395238Y-33319523D01*
X219300000Y-33414761D01*
X219157142Y-33462380D01*
X219061904Y-33462380D01*
X208854285Y-33462380D02*
X208854285Y-32462380D01*
X209425714Y-33462380D01*
X209425714Y-32462380D01*
X214529523Y-33462380D02*
X214053333Y-33462380D01*
X214053333Y-32462380D01*
X224641904Y-32510000D02*
X224546666Y-32462380D01*
X224403809Y-32462380D01*
X224260952Y-32510000D01*
X224165714Y-32605238D01*
X224118095Y-32700476D01*
X224070476Y-32890952D01*
X224070476Y-33033809D01*
X224118095Y-33224285D01*
X224165714Y-33319523D01*
X224260952Y-33414761D01*
X224403809Y-33462380D01*
X224499047Y-33462380D01*
X224641904Y-33414761D01*
X224689523Y-33367142D01*
X224689523Y-33033809D01*
X224499047Y-33033809D01*
X204369523Y-33462380D02*
X204036190Y-32986190D01*
X203798095Y-33462380D02*
X203798095Y-32462380D01*
X204179047Y-32462380D01*
X204274285Y-32510000D01*
X204321904Y-32557619D01*
X204369523Y-32652857D01*
X204369523Y-32795714D01*
X204321904Y-32890952D01*
X204274285Y-32938571D01*
X204179047Y-32986190D01*
X203798095Y-32986190D01*
X216498095Y-33462380D02*
X216498095Y-32462380D01*
X217069523Y-33462380D02*
X216640952Y-32890952D01*
X217069523Y-32462380D02*
X216498095Y-33033809D01*
X217776000Y-34026000D02*
X215744000Y-34026000D01*
X215744000Y-31994000D02*
X217776000Y-31994000D01*
X136496000Y-34026000D02*
X134464000Y-34026000D01*
X197964000Y-31994000D02*
X199996000Y-31994000D01*
X134464000Y-34026000D02*
X134464000Y-31994000D01*
X136496000Y-31994000D02*
X136496000Y-34026000D01*
X231738095Y-33462380D02*
X231738095Y-32462380D01*
X231976190Y-32462380D01*
X232119047Y-32510000D01*
X232214285Y-32605238D01*
X232261904Y-32700476D01*
X232309523Y-32890952D01*
X232309523Y-33033809D01*
X232261904Y-33224285D01*
X232214285Y-33319523D01*
X232119047Y-33414761D01*
X231976190Y-33462380D01*
X231738095Y-33462380D01*
X221554285Y-33462380D02*
X221554285Y-32462380D01*
X221554285Y-32938571D02*
X222125714Y-32938571D01*
X222125714Y-33462380D02*
X222125714Y-32462380D01*
X218284000Y-31994000D02*
X220316000Y-31994000D01*
X195424000Y-34026000D02*
X195424000Y-31994000D01*
X177136000Y-34026000D02*
X175104000Y-34026000D01*
X157324000Y-34026000D02*
X157324000Y-31994000D01*
X159356000Y-34026000D02*
X157324000Y-34026000D01*
X150100952Y-33176666D02*
X150577142Y-33176666D01*
X150005714Y-33462380D02*
X150339047Y-32462380D01*
X150672380Y-33462380D01*
X150862857Y-32462380D02*
X151434285Y-32462380D01*
X151148571Y-33462380D02*
X151148571Y-32462380D01*
X195424000Y-31994000D02*
X197456000Y-31994000D01*
X159356000Y-31994000D02*
X159356000Y-34026000D01*
X177969523Y-33176666D02*
X178445714Y-33176666D01*
X177874285Y-33462380D02*
X178207619Y-32462380D01*
X178540952Y-33462380D01*
X178874285Y-32938571D02*
X179207619Y-32938571D01*
X179350476Y-33462380D02*
X178874285Y-33462380D01*
X178874285Y-32462380D01*
X179350476Y-32462380D01*
X218284000Y-34026000D02*
X218284000Y-31994000D01*
X199996000Y-34026000D02*
X197964000Y-34026000D01*
X191360000Y-32986190D02*
X191360000Y-33462380D01*
X191026666Y-32462380D02*
X191360000Y-32986190D01*
X191693333Y-32462380D01*
X157578095Y-33176666D02*
X158054285Y-33176666D01*
X157482857Y-33462380D02*
X157816190Y-32462380D01*
X158149523Y-33462380D01*
X158482857Y-33462380D02*
X158482857Y-32462380D01*
X159054285Y-33462380D01*
X159054285Y-32462380D01*
X196106666Y-32462380D02*
X196440000Y-33462380D01*
X196773333Y-32462380D01*
X137004000Y-34026000D02*
X137004000Y-31994000D01*
X217776000Y-31994000D02*
X217776000Y-34026000D01*
X156816000Y-31994000D02*
X156816000Y-34026000D01*
X197964000Y-34026000D02*
X197964000Y-31994000D01*
X175104000Y-34026000D02*
X175104000Y-31994000D01*
X142290476Y-33176666D02*
X142766666Y-33176666D01*
X142195238Y-33462380D02*
X142528571Y-32462380D01*
X142861904Y-33462380D01*
X143100000Y-32462380D02*
X143338095Y-33462380D01*
X143528571Y-32748095D01*
X143719047Y-33462380D01*
X143957142Y-32462380D01*
X127479047Y-32938571D02*
X127621904Y-32986190D01*
X127669523Y-33033809D01*
X127717142Y-33129047D01*
X127717142Y-33271904D01*
X127669523Y-33367142D01*
X127621904Y-33414761D01*
X127526666Y-33462380D01*
X127145714Y-33462380D01*
X127145714Y-32462380D01*
X127479047Y-32462380D01*
X127574285Y-32510000D01*
X127621904Y-32557619D01*
X127669523Y-32652857D01*
X127669523Y-32748095D01*
X127621904Y-32843333D01*
X127574285Y-32890952D01*
X127479047Y-32938571D01*
X127145714Y-32938571D01*
X128145714Y-32938571D02*
X128479047Y-32938571D01*
X128621904Y-33462380D02*
X128145714Y-33462380D01*
X128145714Y-32462380D01*
X128621904Y-32462380D01*
X177644000Y-31994000D02*
X179676000Y-31994000D01*
X134464000Y-31994000D02*
X136496000Y-31994000D01*
X154784000Y-31994000D02*
X156816000Y-31994000D01*
X139036000Y-34026000D02*
X137004000Y-34026000D01*
X220316000Y-31994000D02*
X220316000Y-34026000D01*
X180461904Y-33176666D02*
X180938095Y-33176666D01*
X180366666Y-33462380D02*
X180700000Y-32462380D01*
X181033333Y-33462380D01*
X181366666Y-33462380D02*
X181366666Y-32462380D01*
X181604761Y-32462380D01*
X181747619Y-32510000D01*
X181842857Y-32605238D01*
X181890476Y-32700476D01*
X181938095Y-32890952D01*
X181938095Y-33033809D01*
X181890476Y-33224285D01*
X181842857Y-33319523D01*
X181747619Y-33414761D01*
X181604761Y-33462380D01*
X181366666Y-33462380D01*
X183001904Y-33176666D02*
X183478095Y-33176666D01*
X182906666Y-33462380D02*
X183240000Y-32462380D01*
X183573333Y-33462380D01*
X184478095Y-33367142D02*
X184430476Y-33414761D01*
X184287619Y-33462380D01*
X184192380Y-33462380D01*
X184049523Y-33414761D01*
X183954285Y-33319523D01*
X183906666Y-33224285D01*
X183859047Y-33033809D01*
X183859047Y-32890952D01*
X183906666Y-32700476D01*
X183954285Y-32605238D01*
X184049523Y-32510000D01*
X184192380Y-32462380D01*
X184287619Y-32462380D01*
X184430476Y-32510000D01*
X184478095Y-32557619D01*
X139893333Y-33176666D02*
X140369523Y-33176666D01*
X139798095Y-33462380D02*
X140131428Y-32462380D01*
X140464761Y-33462380D01*
X140988571Y-32986190D02*
X140988571Y-33462380D01*
X140655238Y-32462380D02*
X140988571Y-32986190D01*
X141321904Y-32462380D01*
X147418095Y-33176666D02*
X147894285Y-33176666D01*
X147322857Y-33462380D02*
X147656190Y-32462380D01*
X147989523Y-33462380D01*
X148322857Y-32462380D02*
X148322857Y-33271904D01*
X148370476Y-33367142D01*
X148418095Y-33414761D01*
X148513333Y-33462380D01*
X148703809Y-33462380D01*
X148799047Y-33414761D01*
X148846666Y-33367142D01*
X148894285Y-33271904D01*
X148894285Y-32462380D01*
X144973333Y-33176666D02*
X145449523Y-33176666D01*
X144878095Y-33462380D02*
X145211428Y-32462380D01*
X145544761Y-33462380D01*
X145735238Y-32462380D02*
X146068571Y-33462380D01*
X146401904Y-32462380D01*
X185541904Y-33176666D02*
X186018095Y-33176666D01*
X185446666Y-33462380D02*
X185780000Y-32462380D01*
X186113333Y-33462380D01*
X186780000Y-32938571D02*
X186922857Y-32986190D01*
X186970476Y-33033809D01*
X187018095Y-33129047D01*
X187018095Y-33271904D01*
X186970476Y-33367142D01*
X186922857Y-33414761D01*
X186827619Y-33462380D01*
X186446666Y-33462380D01*
X186446666Y-32462380D01*
X186780000Y-32462380D01*
X186875238Y-32510000D01*
X186922857Y-32557619D01*
X186970476Y-32652857D01*
X186970476Y-32748095D01*
X186922857Y-32843333D01*
X186875238Y-32890952D01*
X186780000Y-32938571D01*
X186446666Y-32938571D01*
X165221904Y-33176666D02*
X165698095Y-33176666D01*
X165126666Y-33462380D02*
X165460000Y-32462380D01*
X165793333Y-33462380D01*
X166126666Y-33462380D02*
X166126666Y-32462380D01*
X166698095Y-33462380D02*
X166269523Y-32890952D01*
X166698095Y-32462380D02*
X166126666Y-33033809D01*
X137662857Y-32868571D02*
X137805714Y-32916190D01*
X137853333Y-32963809D01*
X137900952Y-33059047D01*
X137900952Y-33201904D01*
X137853333Y-33297142D01*
X137805714Y-33344761D01*
X137710476Y-33392380D01*
X137329523Y-33392380D01*
X137329523Y-32392380D01*
X137662857Y-32392380D01*
X137758095Y-32440000D01*
X137805714Y-32487619D01*
X137853333Y-32582857D01*
X137853333Y-32678095D01*
X137805714Y-32773333D01*
X137758095Y-32820952D01*
X137662857Y-32868571D01*
X137329523Y-32868571D01*
X138281904Y-33106666D02*
X138758095Y-33106666D01*
X138186666Y-33392380D02*
X138520000Y-32392380D01*
X138853333Y-33392380D01*
X135051428Y-32938571D02*
X135194285Y-32986190D01*
X135241904Y-33033809D01*
X135289523Y-33129047D01*
X135289523Y-33271904D01*
X135241904Y-33367142D01*
X135194285Y-33414761D01*
X135099047Y-33462380D01*
X134718095Y-33462380D01*
X134718095Y-32462380D01*
X135051428Y-32462380D01*
X135146666Y-32510000D01*
X135194285Y-32557619D01*
X135241904Y-32652857D01*
X135241904Y-32748095D01*
X135194285Y-32843333D01*
X135146666Y-32890952D01*
X135051428Y-32938571D01*
X134718095Y-32938571D01*
X136051428Y-32938571D02*
X136194285Y-32986190D01*
X136241904Y-33033809D01*
X136289523Y-33129047D01*
X136289523Y-33271904D01*
X136241904Y-33367142D01*
X136194285Y-33414761D01*
X136099047Y-33462380D01*
X135718095Y-33462380D01*
X135718095Y-32462380D01*
X136051428Y-32462380D01*
X136146666Y-32510000D01*
X136194285Y-32557619D01*
X136241904Y-32652857D01*
X136241904Y-32748095D01*
X136194285Y-32843333D01*
X136146666Y-32890952D01*
X136051428Y-32938571D01*
X135718095Y-32938571D01*
X129971428Y-32938571D02*
X130114285Y-32986190D01*
X130161904Y-33033809D01*
X130209523Y-33129047D01*
X130209523Y-33271904D01*
X130161904Y-33367142D01*
X130114285Y-33414761D01*
X130019047Y-33462380D01*
X129638095Y-33462380D01*
X129638095Y-32462380D01*
X129971428Y-32462380D01*
X130066666Y-32510000D01*
X130114285Y-32557619D01*
X130161904Y-32652857D01*
X130161904Y-32748095D01*
X130114285Y-32843333D01*
X130066666Y-32890952D01*
X129971428Y-32938571D01*
X129638095Y-32938571D01*
X130638095Y-33462380D02*
X130638095Y-32462380D01*
X130876190Y-32462380D01*
X131019047Y-32510000D01*
X131114285Y-32605238D01*
X131161904Y-32700476D01*
X131209523Y-32890952D01*
X131209523Y-33033809D01*
X131161904Y-33224285D01*
X131114285Y-33319523D01*
X131019047Y-33414761D01*
X130876190Y-33462380D01*
X130638095Y-33462380D01*
X155061904Y-33176666D02*
X155538095Y-33176666D01*
X154966666Y-33462380D02*
X155300000Y-32462380D01*
X155633333Y-33462380D01*
X155966666Y-33462380D02*
X155966666Y-32462380D01*
X156347619Y-32462380D01*
X156442857Y-32510000D01*
X156490476Y-32557619D01*
X156538095Y-32652857D01*
X156538095Y-32795714D01*
X156490476Y-32890952D01*
X156442857Y-32938571D01*
X156347619Y-32986190D01*
X155966666Y-32986190D01*
X175453333Y-33176666D02*
X175929523Y-33176666D01*
X175358095Y-33462380D02*
X175691428Y-32462380D01*
X176024761Y-33462380D01*
X176691428Y-32938571D02*
X176358095Y-32938571D01*
X176358095Y-33462380D02*
X176358095Y-32462380D01*
X176834285Y-32462380D01*
X160070476Y-33176666D02*
X160546666Y-33176666D01*
X159975238Y-33462380D02*
X160308571Y-32462380D01*
X160641904Y-33462380D01*
X160975238Y-33462380D02*
X160975238Y-32462380D01*
X161308571Y-33176666D01*
X161641904Y-32462380D01*
X161641904Y-33462380D01*
X132511428Y-32938571D02*
X132654285Y-32986190D01*
X132701904Y-33033809D01*
X132749523Y-33129047D01*
X132749523Y-33271904D01*
X132701904Y-33367142D01*
X132654285Y-33414761D01*
X132559047Y-33462380D01*
X132178095Y-33462380D01*
X132178095Y-32462380D01*
X132511428Y-32462380D01*
X132606666Y-32510000D01*
X132654285Y-32557619D01*
X132701904Y-32652857D01*
X132701904Y-32748095D01*
X132654285Y-32843333D01*
X132606666Y-32890952D01*
X132511428Y-32938571D01*
X132178095Y-32938571D01*
X133749523Y-33367142D02*
X133701904Y-33414761D01*
X133559047Y-33462380D01*
X133463809Y-33462380D01*
X133320952Y-33414761D01*
X133225714Y-33319523D01*
X133178095Y-33224285D01*
X133130476Y-33033809D01*
X133130476Y-32890952D01*
X133178095Y-32700476D01*
X133225714Y-32605238D01*
X133320952Y-32510000D01*
X133463809Y-32462380D01*
X133559047Y-32462380D01*
X133701904Y-32510000D01*
X133749523Y-32557619D01*
X167880952Y-33176666D02*
X168357142Y-33176666D01*
X167785714Y-33462380D02*
X168119047Y-32462380D01*
X168452380Y-33462380D01*
X169071428Y-32462380D02*
X169071428Y-33176666D01*
X169023809Y-33319523D01*
X168928571Y-33414761D01*
X168785714Y-33462380D01*
X168690476Y-33462380D01*
X172841904Y-33176666D02*
X173318095Y-33176666D01*
X172746666Y-33462380D02*
X173080000Y-32462380D01*
X173413333Y-33462380D01*
X174270476Y-32510000D02*
X174175238Y-32462380D01*
X174032380Y-32462380D01*
X173889523Y-32510000D01*
X173794285Y-32605238D01*
X173746666Y-32700476D01*
X173699047Y-32890952D01*
X173699047Y-33033809D01*
X173746666Y-33224285D01*
X173794285Y-33319523D01*
X173889523Y-33414761D01*
X174032380Y-33462380D01*
X174127619Y-33462380D01*
X174270476Y-33414761D01*
X174318095Y-33367142D01*
X174318095Y-33033809D01*
X174127619Y-33033809D01*
X152521904Y-33176666D02*
X152998095Y-33176666D01*
X152426666Y-33462380D02*
X152760000Y-32462380D01*
X153093333Y-33462380D01*
X153998095Y-33462380D02*
X153664761Y-32986190D01*
X153426666Y-33462380D02*
X153426666Y-32462380D01*
X153807619Y-32462380D01*
X153902857Y-32510000D01*
X153950476Y-32557619D01*
X153998095Y-32652857D01*
X153998095Y-32795714D01*
X153950476Y-32890952D01*
X153902857Y-32938571D01*
X153807619Y-32986190D01*
X153426666Y-32986190D01*
X157324000Y-31994000D02*
X159356000Y-31994000D01*
X220316000Y-34026000D02*
X218284000Y-34026000D01*
X244461904Y-38266666D02*
X244938095Y-38266666D01*
X244366666Y-38552380D02*
X244700000Y-37552380D01*
X245033333Y-38552380D01*
X197456000Y-34026000D02*
X195424000Y-34026000D01*
X177136000Y-31994000D02*
X177136000Y-34026000D01*
X139036000Y-31994000D02*
X139036000Y-34026000D01*
X206338095Y-33462380D02*
X206338095Y-32462380D01*
X206719047Y-32462380D01*
X206814285Y-32510000D01*
X206861904Y-32557619D01*
X206909523Y-32652857D01*
X206909523Y-32795714D01*
X206861904Y-32890952D01*
X206814285Y-32938571D01*
X206719047Y-32986190D01*
X206338095Y-32986190D01*
X162777142Y-33176666D02*
X163253333Y-33176666D01*
X162681904Y-33462380D02*
X163015238Y-32462380D01*
X163348571Y-33462380D01*
X164158095Y-33462380D02*
X163681904Y-33462380D01*
X163681904Y-32462380D01*
X227062857Y-32938571D02*
X226729523Y-32938571D01*
X226729523Y-33462380D02*
X226729523Y-32462380D01*
X227205714Y-32462380D01*
X193471428Y-32462380D02*
X193709523Y-33462380D01*
X193900000Y-32748095D01*
X194090476Y-33462380D01*
X194328571Y-32462380D01*
X175104000Y-31994000D02*
X177136000Y-31994000D01*
X188153333Y-33176666D02*
X188629523Y-33176666D01*
X188058095Y-33462380D02*
X188391428Y-32462380D01*
X188724761Y-33462380D01*
X189010476Y-33176666D02*
X189486666Y-33176666D01*
X188915238Y-33462380D02*
X189248571Y-32462380D01*
X189581904Y-33462380D01*
X242882380Y-35883333D02*
X243596666Y-35883333D01*
X243739523Y-35930952D01*
X243834761Y-36026190D01*
X243882380Y-36169047D01*
X243882380Y-36264285D01*
X243882380Y-34883333D02*
X243882380Y-35454761D01*
X243882380Y-35169047D02*
X242882380Y-35169047D01*
X243025238Y-35264285D01*
X243120476Y-35359523D01*
X243168095Y-35454761D01*
%LPC*%
D11*
X240697056Y-123302944D03*
X239000000Y-122600000D03*
X237302944Y-123302944D03*
X236600000Y-125000000D03*
X237302944Y-126697056D03*
X239000000Y-127400000D03*
X240697056Y-126697056D03*
X241400000Y-125000000D03*
D12*
X239000000Y-125000000D03*
X115000000Y-125000000D03*
D11*
X117400000Y-125000000D03*
X116697056Y-126697056D03*
X115000000Y-127400000D03*
X113302944Y-126697056D03*
X112600000Y-125000000D03*
X113302944Y-123302944D03*
X115000000Y-122600000D03*
X116697056Y-123302944D03*
X116697056Y-33302944D03*
X115000000Y-32600000D03*
X113302944Y-33302944D03*
X112600000Y-35000000D03*
X113302944Y-36697056D03*
X115000000Y-37400000D03*
X116697056Y-36697056D03*
X117400000Y-35000000D03*
D12*
X115000000Y-35000000D03*
X239000000Y-35000000D03*
D11*
X241400000Y-35000000D03*
X240697056Y-36697056D03*
X239000000Y-37400000D03*
X237302944Y-36697056D03*
X236600000Y-35000000D03*
X237302944Y-33302944D03*
X239000000Y-32600000D03*
X240697056Y-33302944D03*
D13*
X239620000Y-119370000D03*
X239620000Y-91430000D03*
X239620000Y-68570000D03*
X239620000Y-71110000D03*
X239620000Y-114290000D03*
X239620000Y-109210000D03*
X239620000Y-111750000D03*
X239620000Y-78730000D03*
X239620000Y-81270000D03*
X239620000Y-55870000D03*
X239620000Y-58410000D03*
X239620000Y-60950000D03*
X239620000Y-86350000D03*
X239620000Y-88890000D03*
X239620000Y-99050000D03*
X239620000Y-93970000D03*
X239620000Y-96510000D03*
X239620000Y-63490000D03*
X239620000Y-66030000D03*
X239620000Y-116830000D03*
X239620000Y-83810000D03*
X239620000Y-43170000D03*
X239620000Y-45710000D03*
X239620000Y-48250000D03*
X239620000Y-73650000D03*
X239620000Y-76190000D03*
X239620000Y-40630000D03*
X239620000Y-50790000D03*
X239620000Y-53330000D03*
X239620000Y-106670000D03*
X239620000Y-101590000D03*
X239620000Y-104130000D03*
G36*
G01*
X243850000Y-39730000D02*
X245550000Y-39730000D01*
G75*
G02*
X245600000Y-39780000I0J-50000D01*
G01*
X245600000Y-41480000D01*
G75*
G02*
X245550000Y-41530000I-50000J0D01*
G01*
X243850000Y-41530000D01*
G75*
G02*
X243800000Y-41480000I0J50000D01*
G01*
X243800000Y-39780000D01*
G75*
G02*
X243850000Y-39730000I50000J0D01*
G01*
G37*
X242160000Y-40630000D03*
X244700000Y-43170000D03*
X242160000Y-43170000D03*
X244700000Y-45710000D03*
X242160000Y-45710000D03*
X244700000Y-48250000D03*
X242160000Y-48250000D03*
X244700000Y-50790000D03*
X242160000Y-50790000D03*
X244700000Y-53330000D03*
X242160000Y-53330000D03*
X244700000Y-55870000D03*
X242160000Y-55870000D03*
X244700000Y-58410000D03*
X242160000Y-58410000D03*
X244700000Y-60950000D03*
X242160000Y-60950000D03*
X244700000Y-63490000D03*
X242160000Y-63490000D03*
X244700000Y-66030000D03*
X242160000Y-66030000D03*
X244700000Y-68570000D03*
X242160000Y-68570000D03*
X244700000Y-71110000D03*
X242160000Y-71110000D03*
X244700000Y-73650000D03*
X242160000Y-73650000D03*
X244700000Y-76190000D03*
X242160000Y-76190000D03*
X244700000Y-78730000D03*
X242160000Y-78730000D03*
X244700000Y-81270000D03*
X242160000Y-81270000D03*
X244700000Y-83810000D03*
X242160000Y-83810000D03*
X244700000Y-86350000D03*
X242160000Y-86350000D03*
X244700000Y-88890000D03*
X242160000Y-88890000D03*
X244700000Y-91430000D03*
X242160000Y-91430000D03*
X244700000Y-93970000D03*
X242160000Y-93970000D03*
X244700000Y-96510000D03*
X242160000Y-96510000D03*
X244700000Y-99050000D03*
X242160000Y-99050000D03*
X244700000Y-101590000D03*
X242160000Y-101590000D03*
X244700000Y-104130000D03*
X242160000Y-104130000D03*
X244700000Y-106670000D03*
X242160000Y-106670000D03*
X244700000Y-109210000D03*
X242160000Y-109210000D03*
X244700000Y-111750000D03*
X242160000Y-111750000D03*
X244700000Y-114290000D03*
X242160000Y-114290000D03*
X244700000Y-116830000D03*
X242160000Y-116830000D03*
X244700000Y-119370000D03*
X242160000Y-119370000D03*
D14*
X247240000Y-35550000D03*
X247240000Y-124450000D03*
D13*
X216760000Y-124450000D03*
X196440000Y-124450000D03*
X198980000Y-124450000D03*
X219300000Y-124450000D03*
X178660000Y-124450000D03*
X158340000Y-124450000D03*
X176120000Y-124450000D03*
X135480000Y-124450000D03*
X155800000Y-124450000D03*
X138020000Y-124450000D03*
X219300000Y-121910000D03*
X135480000Y-121910000D03*
X138020000Y-121910000D03*
X198980000Y-121910000D03*
X178660000Y-121910000D03*
X158340000Y-121910000D03*
X196440000Y-121910000D03*
X155800000Y-121910000D03*
X216760000Y-121910000D03*
X176120000Y-121910000D03*
X219300000Y-119370000D03*
X176120000Y-119370000D03*
X196440000Y-119370000D03*
X135480000Y-119370000D03*
X155800000Y-119370000D03*
X158340000Y-119370000D03*
X198980000Y-119370000D03*
X178660000Y-119370000D03*
X138020000Y-119370000D03*
X216760000Y-119370000D03*
X219300000Y-116830000D03*
X138020000Y-116830000D03*
X158340000Y-116830000D03*
X155800000Y-116830000D03*
X178660000Y-116830000D03*
X135480000Y-116830000D03*
X176120000Y-116830000D03*
X196440000Y-116830000D03*
X216760000Y-116830000D03*
X198980000Y-116830000D03*
X176120000Y-114290000D03*
X155800000Y-114290000D03*
X216760000Y-114290000D03*
X178660000Y-114290000D03*
X219300000Y-114290000D03*
X138020000Y-114290000D03*
X135480000Y-114290000D03*
X196440000Y-114290000D03*
X198980000Y-114290000D03*
X158340000Y-114290000D03*
X138020000Y-111750000D03*
X155800000Y-111750000D03*
X176120000Y-111750000D03*
X219300000Y-111750000D03*
X216760000Y-111750000D03*
X135480000Y-111750000D03*
X158340000Y-111750000D03*
X178660000Y-111750000D03*
X196440000Y-111750000D03*
X198980000Y-111750000D03*
X219300000Y-109210000D03*
X135480000Y-109210000D03*
X176120000Y-109210000D03*
X216760000Y-109210000D03*
X138020000Y-109210000D03*
X198980000Y-109210000D03*
X178660000Y-109210000D03*
X196440000Y-109210000D03*
X158340000Y-109210000D03*
X155800000Y-109210000D03*
X155800000Y-106670000D03*
X198980000Y-106670000D03*
X135480000Y-106670000D03*
X216760000Y-106670000D03*
X158340000Y-106670000D03*
X138020000Y-106670000D03*
X196440000Y-106670000D03*
X219300000Y-106670000D03*
X178660000Y-106670000D03*
X176120000Y-106670000D03*
X198980000Y-104130000D03*
X178660000Y-104130000D03*
X135480000Y-104130000D03*
X176120000Y-104130000D03*
X219300000Y-104130000D03*
X196440000Y-104130000D03*
X155800000Y-104130000D03*
X158340000Y-104130000D03*
X138020000Y-104130000D03*
X216760000Y-104130000D03*
X138020000Y-101590000D03*
X176120000Y-101590000D03*
X219300000Y-101590000D03*
X198980000Y-101590000D03*
X158340000Y-101590000D03*
X196440000Y-101590000D03*
X178660000Y-101590000D03*
X216760000Y-101590000D03*
X135480000Y-101590000D03*
X155800000Y-101590000D03*
X216760000Y-99050000D03*
X178660000Y-99050000D03*
X176120000Y-99050000D03*
X135480000Y-99050000D03*
X198980000Y-99050000D03*
X158340000Y-99050000D03*
X138020000Y-99050000D03*
X196440000Y-99050000D03*
X155800000Y-99050000D03*
X219300000Y-99050000D03*
X178660000Y-96510000D03*
X138020000Y-96510000D03*
X216760000Y-96510000D03*
X198980000Y-96510000D03*
X158340000Y-96510000D03*
X155800000Y-96510000D03*
X219300000Y-96510000D03*
X196440000Y-96510000D03*
X135480000Y-96510000D03*
X176120000Y-96510000D03*
X178660000Y-93970000D03*
X158340000Y-93970000D03*
X176120000Y-93970000D03*
X138020000Y-93970000D03*
X219300000Y-93970000D03*
X198980000Y-93970000D03*
X216760000Y-93970000D03*
X135480000Y-93970000D03*
X155800000Y-93970000D03*
X196440000Y-93970000D03*
X158340000Y-91430000D03*
X135480000Y-91430000D03*
X155800000Y-91430000D03*
X138020000Y-91430000D03*
X198980000Y-91430000D03*
X196440000Y-91430000D03*
X176120000Y-91430000D03*
X178660000Y-91430000D03*
X219300000Y-91430000D03*
X216760000Y-91430000D03*
X216760000Y-88890000D03*
X158340000Y-88890000D03*
X138020000Y-88890000D03*
X196440000Y-88890000D03*
X135480000Y-88890000D03*
X176120000Y-88890000D03*
X198980000Y-88890000D03*
X219300000Y-88890000D03*
X178660000Y-88890000D03*
X155800000Y-88890000D03*
X158340000Y-86350000D03*
X138020000Y-86350000D03*
X178660000Y-86350000D03*
X196440000Y-86350000D03*
X219300000Y-86350000D03*
X135480000Y-86350000D03*
X155800000Y-86350000D03*
X198980000Y-86350000D03*
X216760000Y-86350000D03*
X176120000Y-86350000D03*
X219300000Y-83810000D03*
X216760000Y-83810000D03*
X198980000Y-83810000D03*
X196440000Y-83810000D03*
X178660000Y-83810000D03*
X176120000Y-83810000D03*
X158340000Y-83810000D03*
X155800000Y-83810000D03*
X135480000Y-83810000D03*
X138020000Y-83810000D03*
X176120000Y-35550000D03*
X155800000Y-35550000D03*
X178660000Y-35550000D03*
X135480000Y-35550000D03*
X198980000Y-35550000D03*
X138020000Y-35550000D03*
X196440000Y-35550000D03*
X158340000Y-35550000D03*
X176120000Y-38090000D03*
X135480000Y-38090000D03*
X155800000Y-38090000D03*
X158340000Y-38090000D03*
X178660000Y-38090000D03*
X198980000Y-38090000D03*
X138020000Y-38090000D03*
X196440000Y-38090000D03*
X155800000Y-40630000D03*
X196440000Y-40630000D03*
X178660000Y-40630000D03*
X198980000Y-40630000D03*
X158340000Y-40630000D03*
X176120000Y-40630000D03*
X138020000Y-40630000D03*
X135480000Y-40630000D03*
X196440000Y-43170000D03*
X176120000Y-43170000D03*
X178660000Y-43170000D03*
X135480000Y-43170000D03*
X198980000Y-43170000D03*
X138020000Y-43170000D03*
X158340000Y-43170000D03*
X155800000Y-43170000D03*
X155800000Y-45710000D03*
X176120000Y-45710000D03*
X158340000Y-45710000D03*
X198980000Y-45710000D03*
X135480000Y-45710000D03*
X178660000Y-45710000D03*
X196440000Y-45710000D03*
X138020000Y-45710000D03*
X198980000Y-48250000D03*
X158340000Y-48250000D03*
X178660000Y-48250000D03*
X196440000Y-48250000D03*
X135480000Y-48250000D03*
X138020000Y-48250000D03*
X176120000Y-48250000D03*
X155800000Y-48250000D03*
X176120000Y-50790000D03*
X196440000Y-50790000D03*
X178660000Y-50790000D03*
X138020000Y-50790000D03*
X155800000Y-50790000D03*
X135480000Y-50790000D03*
X158340000Y-50790000D03*
X198980000Y-50790000D03*
X135480000Y-53330000D03*
X158340000Y-53330000D03*
X138020000Y-53330000D03*
X176120000Y-53330000D03*
X196440000Y-53330000D03*
X198980000Y-53330000D03*
X178660000Y-53330000D03*
X155800000Y-53330000D03*
X178660000Y-55870000D03*
X198980000Y-55870000D03*
X138020000Y-55870000D03*
X158340000Y-55870000D03*
X196440000Y-55870000D03*
X176120000Y-55870000D03*
X135480000Y-55870000D03*
X155800000Y-55870000D03*
X178660000Y-58410000D03*
X196440000Y-58410000D03*
X155800000Y-58410000D03*
X176120000Y-58410000D03*
X138020000Y-58410000D03*
X158340000Y-58410000D03*
X135480000Y-58410000D03*
X198980000Y-58410000D03*
X196440000Y-60950000D03*
X135480000Y-60950000D03*
X176120000Y-60950000D03*
X198980000Y-60950000D03*
X138020000Y-60950000D03*
X178660000Y-60950000D03*
X155800000Y-60950000D03*
X158340000Y-60950000D03*
X178660000Y-63490000D03*
X158340000Y-63490000D03*
X135480000Y-63490000D03*
X155800000Y-63490000D03*
X176120000Y-63490000D03*
X138020000Y-63490000D03*
X198980000Y-63490000D03*
X196440000Y-63490000D03*
X155800000Y-66030000D03*
X198980000Y-66030000D03*
X178660000Y-66030000D03*
X135480000Y-66030000D03*
X138020000Y-66030000D03*
X196440000Y-66030000D03*
X158340000Y-66030000D03*
X176120000Y-66030000D03*
X135480000Y-68570000D03*
X196440000Y-68570000D03*
X155800000Y-68570000D03*
X176120000Y-68570000D03*
X138020000Y-68570000D03*
X158340000Y-68570000D03*
X178660000Y-68570000D03*
X198980000Y-68570000D03*
X158340000Y-71110000D03*
X196440000Y-71110000D03*
X176120000Y-71110000D03*
X138020000Y-71110000D03*
X155800000Y-71110000D03*
X198980000Y-71110000D03*
X135480000Y-71110000D03*
X178660000Y-71110000D03*
X155800000Y-73650000D03*
X158340000Y-73650000D03*
X198980000Y-73650000D03*
X135480000Y-73650000D03*
X138020000Y-73650000D03*
X196440000Y-73650000D03*
X178660000Y-73650000D03*
X176120000Y-73650000D03*
X198980000Y-76190000D03*
X196440000Y-76190000D03*
X178660000Y-76190000D03*
X176120000Y-76190000D03*
X158340000Y-76190000D03*
X155800000Y-76190000D03*
X135480000Y-76190000D03*
X138020000Y-76190000D03*
X216760000Y-35550000D03*
X216760000Y-38090000D03*
X216760000Y-55870000D03*
X216760000Y-48250000D03*
X216760000Y-50790000D03*
X216760000Y-58410000D03*
X216760000Y-45710000D03*
X216760000Y-53330000D03*
X216760000Y-43170000D03*
X216760000Y-40630000D03*
X216760000Y-66030000D03*
X216760000Y-60950000D03*
X216760000Y-68570000D03*
X216760000Y-63490000D03*
X216760000Y-71110000D03*
X216760000Y-73650000D03*
X216760000Y-76190000D03*
X219300000Y-38090000D03*
X219300000Y-35550000D03*
X219300000Y-43170000D03*
X219300000Y-45710000D03*
X219300000Y-58410000D03*
X219300000Y-40630000D03*
X219300000Y-48250000D03*
X219300000Y-50790000D03*
X219300000Y-55870000D03*
X219300000Y-53330000D03*
X219300000Y-68570000D03*
X219300000Y-60950000D03*
X219300000Y-66030000D03*
X219300000Y-63490000D03*
X219300000Y-73650000D03*
X219300000Y-71110000D03*
X219300000Y-76190000D03*
X120240000Y-88890000D03*
X120240000Y-40630000D03*
X120240000Y-78730000D03*
X122780000Y-83810000D03*
X120240000Y-60950000D03*
X122780000Y-40630000D03*
X122780000Y-58410000D03*
X122780000Y-45710000D03*
X122780000Y-35550000D03*
X122780000Y-66030000D03*
X120240000Y-101590000D03*
X120240000Y-58410000D03*
X122780000Y-55870000D03*
X120240000Y-99050000D03*
X122780000Y-101590000D03*
X122780000Y-106670000D03*
X120240000Y-116830000D03*
X122780000Y-78730000D03*
X120240000Y-66030000D03*
X122780000Y-48250000D03*
X120240000Y-81270000D03*
X122780000Y-53330000D03*
X122780000Y-71110000D03*
X122780000Y-50790000D03*
X120240000Y-111750000D03*
X120240000Y-55870000D03*
X122780000Y-68570000D03*
X122780000Y-119370000D03*
X120240000Y-43170000D03*
X120240000Y-48250000D03*
X122780000Y-116830000D03*
X122780000Y-38090000D03*
X122780000Y-96510000D03*
X120240000Y-53330000D03*
X120240000Y-86350000D03*
X120240000Y-104130000D03*
X120240000Y-68570000D03*
X120240000Y-96510000D03*
X120240000Y-38090000D03*
X120240000Y-83810000D03*
X120240000Y-93970000D03*
X122780000Y-121910000D03*
X122780000Y-91430000D03*
X122780000Y-86350000D03*
X120240000Y-114290000D03*
X120240000Y-63490000D03*
X120240000Y-91430000D03*
X120240000Y-50790000D03*
X122780000Y-109210000D03*
X122780000Y-76190000D03*
X120240000Y-106670000D03*
X122780000Y-124450000D03*
X122780000Y-43170000D03*
X120240000Y-76190000D03*
X122780000Y-104130000D03*
X122780000Y-60950000D03*
X122780000Y-88890000D03*
X122780000Y-73650000D03*
X120240000Y-109210000D03*
X122780000Y-93970000D03*
X122780000Y-114290000D03*
X120240000Y-121910000D03*
X122780000Y-81270000D03*
X120240000Y-73650000D03*
X122780000Y-111750000D03*
X122780000Y-63490000D03*
X120240000Y-45710000D03*
X120240000Y-71110000D03*
X120240000Y-119370000D03*
X122780000Y-99050000D03*
X125320000Y-53330000D03*
X125320000Y-86350000D03*
X125320000Y-104130000D03*
X125320000Y-68570000D03*
X125320000Y-96510000D03*
X125320000Y-38090000D03*
X125320000Y-83810000D03*
X125320000Y-93970000D03*
X127860000Y-121910000D03*
X127860000Y-91430000D03*
X127860000Y-86350000D03*
X125320000Y-114290000D03*
X125320000Y-63490000D03*
X125320000Y-91430000D03*
X125320000Y-50790000D03*
X127860000Y-109210000D03*
X127860000Y-76190000D03*
X125320000Y-106670000D03*
X127860000Y-124450000D03*
X127860000Y-43170000D03*
X125320000Y-76190000D03*
X127860000Y-104130000D03*
X127860000Y-60950000D03*
X127860000Y-88890000D03*
X127860000Y-73650000D03*
X125320000Y-109210000D03*
X127860000Y-93970000D03*
X127860000Y-114290000D03*
X125320000Y-121910000D03*
X127860000Y-81270000D03*
X125320000Y-73650000D03*
X130400000Y-53330000D03*
X130400000Y-86350000D03*
X127860000Y-111750000D03*
X127860000Y-63490000D03*
X130400000Y-104130000D03*
X125320000Y-45710000D03*
X130400000Y-68570000D03*
X125320000Y-71110000D03*
X125320000Y-124450000D03*
X125320000Y-119370000D03*
X130400000Y-96510000D03*
X130400000Y-38090000D03*
X127860000Y-55870000D03*
X125320000Y-99050000D03*
X130400000Y-111750000D03*
X130400000Y-83810000D03*
X127860000Y-101590000D03*
X127860000Y-106670000D03*
X125320000Y-116830000D03*
X127860000Y-78730000D03*
X130400000Y-93970000D03*
X125320000Y-66030000D03*
X127860000Y-48250000D03*
X125320000Y-81270000D03*
X127860000Y-53330000D03*
X132940000Y-121910000D03*
X132940000Y-91430000D03*
X127860000Y-71110000D03*
X132940000Y-86350000D03*
X132940000Y-99050000D03*
X130400000Y-50790000D03*
X132940000Y-109210000D03*
X132940000Y-76190000D03*
X130400000Y-106670000D03*
X132940000Y-124450000D03*
X132940000Y-43170000D03*
X130400000Y-76190000D03*
X132940000Y-104130000D03*
X132940000Y-60950000D03*
X132940000Y-88890000D03*
X132940000Y-73650000D03*
X130400000Y-109210000D03*
X132940000Y-93970000D03*
X132940000Y-114290000D03*
X130400000Y-121910000D03*
X127860000Y-50790000D03*
X130400000Y-101590000D03*
X130400000Y-58410000D03*
X132940000Y-81270000D03*
X130400000Y-73650000D03*
X130400000Y-66030000D03*
X132940000Y-48250000D03*
X130400000Y-81270000D03*
X132940000Y-53330000D03*
X125320000Y-111750000D03*
X132940000Y-106670000D03*
X130400000Y-116830000D03*
X130400000Y-119370000D03*
X132940000Y-68570000D03*
X132940000Y-119370000D03*
X132940000Y-55870000D03*
X130400000Y-99050000D03*
X130400000Y-78730000D03*
X132940000Y-101590000D03*
X130400000Y-71110000D03*
X125320000Y-35550000D03*
X130400000Y-124450000D03*
X125320000Y-55870000D03*
X127860000Y-68570000D03*
X127860000Y-119370000D03*
X125320000Y-43170000D03*
X125320000Y-48250000D03*
X130400000Y-43170000D03*
X130400000Y-48250000D03*
X130400000Y-45710000D03*
X132940000Y-50790000D03*
X132940000Y-78730000D03*
X132940000Y-58410000D03*
X125320000Y-88890000D03*
X130400000Y-40630000D03*
X132940000Y-63490000D03*
X125320000Y-40630000D03*
X125320000Y-78730000D03*
X127860000Y-83810000D03*
X130400000Y-55870000D03*
X125320000Y-60950000D03*
X130400000Y-35550000D03*
X127860000Y-40630000D03*
X130400000Y-88890000D03*
X130400000Y-60950000D03*
X132940000Y-83810000D03*
X127860000Y-58410000D03*
X132940000Y-40630000D03*
X127860000Y-45710000D03*
X127860000Y-35550000D03*
X132940000Y-71110000D03*
X132940000Y-116830000D03*
X132940000Y-96510000D03*
X132940000Y-66030000D03*
X127860000Y-116830000D03*
X132940000Y-111750000D03*
X127860000Y-38090000D03*
X132940000Y-38090000D03*
X127860000Y-99050000D03*
X125320000Y-101590000D03*
X125320000Y-58410000D03*
X132940000Y-35550000D03*
X127860000Y-66030000D03*
X132940000Y-45710000D03*
X127860000Y-96510000D03*
X130400000Y-114290000D03*
X130400000Y-63490000D03*
X130400000Y-91430000D03*
X138020000Y-78730000D03*
X138020000Y-81270000D03*
X135480000Y-78730000D03*
X140560000Y-53330000D03*
X140560000Y-86350000D03*
X140560000Y-104130000D03*
X140560000Y-68570000D03*
X140560000Y-96510000D03*
X140560000Y-38090000D03*
X140560000Y-111750000D03*
X140560000Y-83810000D03*
X140560000Y-93970000D03*
X135480000Y-81270000D03*
X143100000Y-121910000D03*
X143100000Y-91430000D03*
X143100000Y-86350000D03*
X143100000Y-99050000D03*
X140560000Y-50790000D03*
X143100000Y-109210000D03*
X143100000Y-76190000D03*
X140560000Y-106670000D03*
X143100000Y-124450000D03*
X143100000Y-43170000D03*
X140560000Y-76190000D03*
X143100000Y-104130000D03*
X143100000Y-60950000D03*
X143100000Y-88890000D03*
X143100000Y-73650000D03*
X140560000Y-109210000D03*
X143100000Y-93970000D03*
X143100000Y-114290000D03*
X140560000Y-121910000D03*
X140560000Y-101590000D03*
X140560000Y-58410000D03*
X143100000Y-81270000D03*
X140560000Y-73650000D03*
X140560000Y-66030000D03*
X143100000Y-48250000D03*
X140560000Y-81270000D03*
X143100000Y-53330000D03*
X143100000Y-106670000D03*
X140560000Y-116830000D03*
X140560000Y-119370000D03*
X143100000Y-68570000D03*
X143100000Y-119370000D03*
X143100000Y-55870000D03*
X140560000Y-99050000D03*
X140560000Y-78730000D03*
X143100000Y-101590000D03*
X140560000Y-71110000D03*
X140560000Y-124450000D03*
X140560000Y-43170000D03*
X140560000Y-48250000D03*
X140560000Y-45710000D03*
X143100000Y-50790000D03*
X143100000Y-78730000D03*
X143100000Y-58410000D03*
X140560000Y-40630000D03*
X143100000Y-63490000D03*
X140560000Y-55870000D03*
X140560000Y-35550000D03*
X140560000Y-88890000D03*
X140560000Y-60950000D03*
X143100000Y-83810000D03*
X143100000Y-40630000D03*
X143100000Y-71110000D03*
X143100000Y-116830000D03*
X143100000Y-96510000D03*
X143100000Y-66030000D03*
X143100000Y-111750000D03*
X143100000Y-38090000D03*
X145640000Y-53330000D03*
X145640000Y-86350000D03*
X145640000Y-104130000D03*
X145640000Y-68570000D03*
X145640000Y-96510000D03*
X145640000Y-38090000D03*
X145640000Y-83810000D03*
X145640000Y-93970000D03*
X148180000Y-121910000D03*
X148180000Y-91430000D03*
X148180000Y-86350000D03*
X145640000Y-114290000D03*
X145640000Y-63490000D03*
X145640000Y-91430000D03*
X148180000Y-99050000D03*
X145640000Y-50790000D03*
X148180000Y-109210000D03*
X148180000Y-76190000D03*
X145640000Y-106670000D03*
X148180000Y-124450000D03*
X148180000Y-43170000D03*
X145640000Y-76190000D03*
X148180000Y-104130000D03*
X148180000Y-60950000D03*
X148180000Y-88890000D03*
X148180000Y-73650000D03*
X145640000Y-109210000D03*
X148180000Y-93970000D03*
X148180000Y-114290000D03*
X145640000Y-121910000D03*
X145640000Y-101590000D03*
X145640000Y-58410000D03*
X148180000Y-81270000D03*
X145640000Y-73650000D03*
X150720000Y-53330000D03*
X150720000Y-86350000D03*
X148180000Y-111750000D03*
X148180000Y-63490000D03*
X150720000Y-104130000D03*
X145640000Y-45710000D03*
X150720000Y-68570000D03*
X145640000Y-71110000D03*
X145640000Y-124450000D03*
X145640000Y-119370000D03*
X150720000Y-96510000D03*
X150720000Y-38090000D03*
X148180000Y-55870000D03*
X145640000Y-99050000D03*
X150720000Y-111750000D03*
X150720000Y-83810000D03*
X148180000Y-101590000D03*
X148180000Y-106670000D03*
X145640000Y-116830000D03*
X148180000Y-78730000D03*
X143100000Y-35550000D03*
X145640000Y-111750000D03*
X145640000Y-55870000D03*
X148180000Y-71110000D03*
X148180000Y-53330000D03*
X145640000Y-81270000D03*
X150720000Y-114290000D03*
X150720000Y-93970000D03*
X145640000Y-66030000D03*
X148180000Y-48250000D03*
X148180000Y-68570000D03*
X148180000Y-66030000D03*
X145640000Y-48250000D03*
X148180000Y-35550000D03*
X148180000Y-40630000D03*
X150720000Y-106670000D03*
X148180000Y-50790000D03*
X145640000Y-43170000D03*
X145640000Y-60950000D03*
X145640000Y-88890000D03*
X150720000Y-50790000D03*
X148180000Y-45710000D03*
X150720000Y-45710000D03*
X150720000Y-91430000D03*
X145640000Y-40630000D03*
X150720000Y-71110000D03*
X148180000Y-38090000D03*
X150720000Y-109210000D03*
X143100000Y-45710000D03*
X150720000Y-55870000D03*
X150720000Y-121910000D03*
X150720000Y-101590000D03*
X150720000Y-40630000D03*
X150720000Y-76190000D03*
X150720000Y-48250000D03*
X150720000Y-73650000D03*
X150720000Y-63490000D03*
X150720000Y-58410000D03*
X148180000Y-96510000D03*
X150720000Y-60950000D03*
X150720000Y-116830000D03*
X148180000Y-83810000D03*
X150720000Y-35550000D03*
X150720000Y-88890000D03*
X150720000Y-43170000D03*
X150720000Y-66030000D03*
X150720000Y-124450000D03*
X148180000Y-58410000D03*
X148180000Y-116830000D03*
X148180000Y-119370000D03*
X150720000Y-119370000D03*
X150720000Y-99050000D03*
X145640000Y-35550000D03*
X145640000Y-78730000D03*
X150720000Y-78730000D03*
X150720000Y-81270000D03*
X140560000Y-114290000D03*
X140560000Y-63490000D03*
X140560000Y-91430000D03*
X153260000Y-53330000D03*
X153260000Y-86350000D03*
X153260000Y-104130000D03*
X153260000Y-68570000D03*
X153260000Y-96510000D03*
X153260000Y-38090000D03*
X153260000Y-83810000D03*
X153260000Y-93970000D03*
X153260000Y-114290000D03*
X153260000Y-63490000D03*
X153260000Y-91430000D03*
X153260000Y-50790000D03*
X155800000Y-78730000D03*
X153260000Y-106670000D03*
X153260000Y-76190000D03*
X153260000Y-109210000D03*
X153260000Y-121910000D03*
X155800000Y-81270000D03*
X153260000Y-73650000D03*
X153260000Y-45710000D03*
X153260000Y-71110000D03*
X153260000Y-124450000D03*
X153260000Y-119370000D03*
X153260000Y-99050000D03*
X153260000Y-116830000D03*
X153260000Y-66030000D03*
X153260000Y-81270000D03*
X160880000Y-121910000D03*
X160880000Y-91430000D03*
X160880000Y-86350000D03*
X160880000Y-99050000D03*
X160880000Y-109210000D03*
X160880000Y-76190000D03*
X160880000Y-124450000D03*
X160880000Y-43170000D03*
X158340000Y-78730000D03*
X160880000Y-104130000D03*
X160880000Y-60950000D03*
X160880000Y-88890000D03*
X160880000Y-73650000D03*
X160880000Y-93970000D03*
X160880000Y-114290000D03*
X160880000Y-81270000D03*
X160880000Y-48250000D03*
X158340000Y-81270000D03*
X160880000Y-53330000D03*
X153260000Y-111750000D03*
X160880000Y-106670000D03*
X160880000Y-68570000D03*
X160880000Y-119370000D03*
X160880000Y-55870000D03*
X160880000Y-101590000D03*
X153260000Y-35550000D03*
X153260000Y-55870000D03*
X153260000Y-43170000D03*
X153260000Y-48250000D03*
X160880000Y-50790000D03*
X160880000Y-78730000D03*
X160880000Y-58410000D03*
X153260000Y-88890000D03*
X160880000Y-63490000D03*
X153260000Y-40630000D03*
X153260000Y-78730000D03*
X153260000Y-60950000D03*
X160880000Y-83810000D03*
X160880000Y-40630000D03*
X160880000Y-71110000D03*
X160880000Y-116830000D03*
X160880000Y-96510000D03*
X160880000Y-66030000D03*
X160880000Y-111750000D03*
X160880000Y-38090000D03*
X163420000Y-53330000D03*
X163420000Y-86350000D03*
X163420000Y-104130000D03*
X163420000Y-68570000D03*
X163420000Y-96510000D03*
X163420000Y-38090000D03*
X163420000Y-83810000D03*
X163420000Y-93970000D03*
X165960000Y-121910000D03*
X165960000Y-91430000D03*
X165960000Y-86350000D03*
X163420000Y-114290000D03*
X163420000Y-63490000D03*
X163420000Y-91430000D03*
X165960000Y-99050000D03*
X163420000Y-50790000D03*
X165960000Y-109210000D03*
X165960000Y-76190000D03*
X163420000Y-106670000D03*
X165960000Y-124450000D03*
X165960000Y-43170000D03*
X163420000Y-76190000D03*
X165960000Y-104130000D03*
X165960000Y-60950000D03*
X165960000Y-88890000D03*
X165960000Y-73650000D03*
X163420000Y-109210000D03*
X165960000Y-93970000D03*
X165960000Y-114290000D03*
X163420000Y-121910000D03*
X163420000Y-101590000D03*
X163420000Y-58410000D03*
X165960000Y-81270000D03*
X163420000Y-73650000D03*
X168500000Y-53330000D03*
X168500000Y-86350000D03*
X165960000Y-111750000D03*
X165960000Y-63490000D03*
X168500000Y-104130000D03*
X163420000Y-45710000D03*
X168500000Y-68570000D03*
X163420000Y-71110000D03*
X163420000Y-124450000D03*
X163420000Y-119370000D03*
X168500000Y-96510000D03*
X168500000Y-38090000D03*
X165960000Y-55870000D03*
X163420000Y-99050000D03*
X168500000Y-111750000D03*
X168500000Y-83810000D03*
X165960000Y-101590000D03*
X165960000Y-106670000D03*
X163420000Y-116830000D03*
X165960000Y-78730000D03*
X173580000Y-53330000D03*
X173580000Y-86350000D03*
X173580000Y-104130000D03*
X173580000Y-68570000D03*
X173580000Y-96510000D03*
X173580000Y-38090000D03*
X173580000Y-83810000D03*
X173580000Y-93970000D03*
X173580000Y-114290000D03*
X173580000Y-63490000D03*
X173580000Y-91430000D03*
X153260000Y-101590000D03*
X153260000Y-58410000D03*
X173580000Y-50790000D03*
X173580000Y-106670000D03*
X173580000Y-76190000D03*
X173580000Y-109210000D03*
X173580000Y-121910000D03*
X173580000Y-101590000D03*
X173580000Y-58410000D03*
X176120000Y-81270000D03*
X173580000Y-73650000D03*
X173580000Y-45710000D03*
X173580000Y-71110000D03*
X173580000Y-124450000D03*
X173580000Y-119370000D03*
X173580000Y-99050000D03*
X173580000Y-116830000D03*
X176120000Y-78730000D03*
X173580000Y-66030000D03*
X173580000Y-81270000D03*
X181200000Y-121910000D03*
X181200000Y-91430000D03*
X181200000Y-86350000D03*
X181200000Y-99050000D03*
X181200000Y-109210000D03*
X181200000Y-76190000D03*
X181200000Y-124450000D03*
X181200000Y-43170000D03*
X181200000Y-104130000D03*
X181200000Y-60950000D03*
X181200000Y-88890000D03*
X181200000Y-73650000D03*
X181200000Y-93970000D03*
X181200000Y-114290000D03*
X181200000Y-81270000D03*
X181200000Y-48250000D03*
X178660000Y-81270000D03*
X181200000Y-53330000D03*
X173580000Y-111750000D03*
X181200000Y-106670000D03*
X181200000Y-68570000D03*
X181200000Y-119370000D03*
X181200000Y-55870000D03*
X178660000Y-78730000D03*
X181200000Y-101590000D03*
X173580000Y-35550000D03*
X173580000Y-55870000D03*
X173580000Y-43170000D03*
X173580000Y-48250000D03*
X181200000Y-50790000D03*
X181200000Y-78730000D03*
X181200000Y-58410000D03*
X173580000Y-88890000D03*
X181200000Y-63490000D03*
X173580000Y-40630000D03*
X173580000Y-78730000D03*
X173580000Y-60950000D03*
X181200000Y-83810000D03*
X181200000Y-40630000D03*
X181200000Y-71110000D03*
X181200000Y-116830000D03*
X181200000Y-96510000D03*
X181200000Y-66030000D03*
X181200000Y-111750000D03*
X181200000Y-38090000D03*
X183740000Y-53330000D03*
X183740000Y-86350000D03*
X183740000Y-104130000D03*
X183740000Y-68570000D03*
X183740000Y-96510000D03*
X183740000Y-38090000D03*
X183740000Y-83810000D03*
X183740000Y-93970000D03*
X186280000Y-121910000D03*
X186280000Y-91430000D03*
X186280000Y-86350000D03*
X183740000Y-114290000D03*
X183740000Y-63490000D03*
X183740000Y-91430000D03*
X186280000Y-99050000D03*
X183740000Y-50790000D03*
X186280000Y-109210000D03*
X186280000Y-76190000D03*
X183740000Y-106670000D03*
X186280000Y-124450000D03*
X186280000Y-43170000D03*
X183740000Y-76190000D03*
X186280000Y-104130000D03*
X186280000Y-60950000D03*
X186280000Y-88890000D03*
X186280000Y-73650000D03*
X183740000Y-109210000D03*
X186280000Y-93970000D03*
X186280000Y-114290000D03*
X183740000Y-121910000D03*
X183740000Y-101590000D03*
X183740000Y-58410000D03*
X186280000Y-81270000D03*
X183740000Y-73650000D03*
X171040000Y-99050000D03*
X160880000Y-35550000D03*
X163420000Y-111750000D03*
X171040000Y-58410000D03*
X163420000Y-55870000D03*
X165960000Y-71110000D03*
X165960000Y-53330000D03*
X171040000Y-121910000D03*
X163420000Y-81270000D03*
X171040000Y-86350000D03*
X168500000Y-114290000D03*
X168500000Y-93970000D03*
X163420000Y-66030000D03*
X165960000Y-48250000D03*
X171040000Y-63490000D03*
X171040000Y-50790000D03*
X171040000Y-91430000D03*
X171040000Y-38090000D03*
X165960000Y-68570000D03*
X188820000Y-53330000D03*
X188820000Y-86350000D03*
X186280000Y-111750000D03*
X186280000Y-63490000D03*
X188820000Y-104130000D03*
X183740000Y-45710000D03*
X188820000Y-68570000D03*
X183740000Y-71110000D03*
X183740000Y-124450000D03*
X183740000Y-119370000D03*
X188820000Y-96510000D03*
X188820000Y-38090000D03*
X186280000Y-55870000D03*
X183740000Y-99050000D03*
X188820000Y-111750000D03*
X188820000Y-83810000D03*
X186280000Y-101590000D03*
X186280000Y-106670000D03*
X183740000Y-116830000D03*
X186280000Y-78730000D03*
X188820000Y-93970000D03*
X183740000Y-66030000D03*
X186280000Y-48250000D03*
X183740000Y-81270000D03*
X186280000Y-53330000D03*
X191360000Y-121910000D03*
X191360000Y-91430000D03*
X186280000Y-71110000D03*
X191360000Y-86350000D03*
X188820000Y-114290000D03*
X188820000Y-63490000D03*
X188820000Y-91430000D03*
X191360000Y-99050000D03*
X188820000Y-50790000D03*
X191360000Y-109210000D03*
X191360000Y-76190000D03*
X188820000Y-106670000D03*
X191360000Y-124450000D03*
X165960000Y-66030000D03*
X191360000Y-43170000D03*
X188820000Y-76190000D03*
X191360000Y-104130000D03*
X191360000Y-60950000D03*
X191360000Y-88890000D03*
X191360000Y-73650000D03*
X163420000Y-48250000D03*
X188820000Y-109210000D03*
X191360000Y-93970000D03*
X191360000Y-114290000D03*
X188820000Y-121910000D03*
X186280000Y-50790000D03*
X188820000Y-101590000D03*
X188820000Y-58410000D03*
X191360000Y-81270000D03*
X188820000Y-73650000D03*
X188820000Y-66030000D03*
X171040000Y-73650000D03*
X191360000Y-48250000D03*
X188820000Y-81270000D03*
X191360000Y-53330000D03*
X171040000Y-119370000D03*
X183740000Y-111750000D03*
X191360000Y-106670000D03*
X188820000Y-116830000D03*
X188820000Y-119370000D03*
X191360000Y-68570000D03*
X165960000Y-35550000D03*
X191360000Y-119370000D03*
X191360000Y-55870000D03*
X188820000Y-99050000D03*
X188820000Y-78730000D03*
X191360000Y-101590000D03*
X165960000Y-40630000D03*
X188820000Y-71110000D03*
X183740000Y-35550000D03*
X168500000Y-106670000D03*
X188820000Y-124450000D03*
X183740000Y-55870000D03*
X186280000Y-68570000D03*
X186280000Y-119370000D03*
X183740000Y-43170000D03*
X183740000Y-48250000D03*
X188820000Y-43170000D03*
X188820000Y-48250000D03*
X188820000Y-45710000D03*
X191360000Y-50790000D03*
X191360000Y-78730000D03*
X191360000Y-58410000D03*
X165960000Y-50790000D03*
X183740000Y-88890000D03*
X188820000Y-40630000D03*
X191360000Y-63490000D03*
X183740000Y-40630000D03*
X183740000Y-78730000D03*
X186280000Y-83810000D03*
X188820000Y-55870000D03*
X163420000Y-43170000D03*
X183740000Y-60950000D03*
X188820000Y-35550000D03*
X163420000Y-60950000D03*
X163420000Y-88890000D03*
X186280000Y-40630000D03*
X181200000Y-45710000D03*
X181200000Y-35550000D03*
X188820000Y-88890000D03*
X171040000Y-106670000D03*
X171040000Y-76190000D03*
X168500000Y-50790000D03*
X171040000Y-93970000D03*
X165960000Y-45710000D03*
X171040000Y-40630000D03*
X168500000Y-45710000D03*
X188820000Y-60950000D03*
X191360000Y-83810000D03*
X186280000Y-58410000D03*
X168500000Y-91430000D03*
X163420000Y-40630000D03*
X168500000Y-71110000D03*
X191360000Y-40630000D03*
X171040000Y-71110000D03*
X165960000Y-38090000D03*
X168500000Y-109210000D03*
X160880000Y-45710000D03*
X171040000Y-101590000D03*
X168500000Y-55870000D03*
X171040000Y-114290000D03*
X168500000Y-121910000D03*
X168500000Y-101590000D03*
X171040000Y-60950000D03*
X168500000Y-40630000D03*
X168500000Y-76190000D03*
X168500000Y-48250000D03*
X168500000Y-73650000D03*
X171040000Y-43170000D03*
X171040000Y-124450000D03*
X168500000Y-63490000D03*
X186280000Y-45710000D03*
X168500000Y-58410000D03*
X165960000Y-96510000D03*
X168500000Y-60950000D03*
X171040000Y-104130000D03*
X186280000Y-35550000D03*
X168500000Y-116830000D03*
X165960000Y-83810000D03*
X171040000Y-109210000D03*
X191360000Y-71110000D03*
X191360000Y-116830000D03*
X191360000Y-96510000D03*
X191360000Y-66030000D03*
X168500000Y-35550000D03*
X171040000Y-35550000D03*
X186280000Y-116830000D03*
X171040000Y-83810000D03*
X191360000Y-111750000D03*
X168500000Y-88890000D03*
X171040000Y-78730000D03*
X171040000Y-55870000D03*
X171040000Y-81270000D03*
X171040000Y-66030000D03*
X171040000Y-68570000D03*
X191360000Y-45710000D03*
X191360000Y-35550000D03*
X168500000Y-43170000D03*
X171040000Y-53330000D03*
X168500000Y-66030000D03*
X171040000Y-116830000D03*
X171040000Y-48250000D03*
X168500000Y-124450000D03*
X165960000Y-58410000D03*
X165960000Y-116830000D03*
X186280000Y-66030000D03*
X165960000Y-119370000D03*
X171040000Y-111750000D03*
X186280000Y-96510000D03*
X168500000Y-119370000D03*
X171040000Y-96510000D03*
X186280000Y-38090000D03*
X191360000Y-38090000D03*
X168500000Y-99050000D03*
X171040000Y-88890000D03*
X163420000Y-35550000D03*
X163420000Y-78730000D03*
X168500000Y-78730000D03*
X171040000Y-45710000D03*
X168500000Y-81270000D03*
X193900000Y-53330000D03*
X193900000Y-86350000D03*
X193900000Y-104130000D03*
X193900000Y-68570000D03*
X193900000Y-96510000D03*
X193900000Y-38090000D03*
X193900000Y-83810000D03*
X193900000Y-93970000D03*
X193900000Y-114290000D03*
X193900000Y-63490000D03*
X193900000Y-91430000D03*
X193900000Y-50790000D03*
X193900000Y-106670000D03*
X193900000Y-76190000D03*
X193900000Y-109210000D03*
X193900000Y-121910000D03*
X193900000Y-101590000D03*
X193900000Y-58410000D03*
X196440000Y-81270000D03*
X193900000Y-73650000D03*
X193900000Y-45710000D03*
X193900000Y-71110000D03*
X193900000Y-124450000D03*
X193900000Y-119370000D03*
X193900000Y-99050000D03*
X193900000Y-116830000D03*
X196440000Y-78730000D03*
X193900000Y-66030000D03*
X193900000Y-81270000D03*
X201520000Y-121910000D03*
X201520000Y-91430000D03*
X201520000Y-86350000D03*
X201520000Y-99050000D03*
X201520000Y-109210000D03*
X201520000Y-76190000D03*
X201520000Y-124450000D03*
X201520000Y-43170000D03*
X201520000Y-104130000D03*
X201520000Y-60950000D03*
X201520000Y-88890000D03*
X201520000Y-73650000D03*
X201520000Y-93970000D03*
X201520000Y-114290000D03*
X201520000Y-81270000D03*
X201520000Y-48250000D03*
X198980000Y-81270000D03*
X201520000Y-53330000D03*
X193900000Y-111750000D03*
X201520000Y-106670000D03*
X201520000Y-68570000D03*
X201520000Y-119370000D03*
X201520000Y-55870000D03*
X198980000Y-78730000D03*
X201520000Y-101590000D03*
X193900000Y-35550000D03*
X193900000Y-55870000D03*
X193900000Y-43170000D03*
X193900000Y-48250000D03*
X201520000Y-50790000D03*
X201520000Y-78730000D03*
X201520000Y-58410000D03*
X193900000Y-88890000D03*
X201520000Y-63490000D03*
X193900000Y-40630000D03*
X193900000Y-78730000D03*
X193900000Y-60950000D03*
X201520000Y-83810000D03*
X201520000Y-40630000D03*
X201520000Y-71110000D03*
X201520000Y-116830000D03*
X201520000Y-96510000D03*
X201520000Y-66030000D03*
X201520000Y-111750000D03*
X201520000Y-38090000D03*
X204060000Y-53330000D03*
X204060000Y-86350000D03*
X204060000Y-104130000D03*
X204060000Y-68570000D03*
X204060000Y-96510000D03*
X204060000Y-38090000D03*
X204060000Y-83810000D03*
X204060000Y-93970000D03*
X206600000Y-121910000D03*
X206600000Y-91430000D03*
X206600000Y-86350000D03*
X204060000Y-114290000D03*
X204060000Y-63490000D03*
X204060000Y-91430000D03*
X206600000Y-99050000D03*
X204060000Y-50790000D03*
X206600000Y-109210000D03*
X206600000Y-76190000D03*
X204060000Y-106670000D03*
X206600000Y-124450000D03*
X206600000Y-43170000D03*
X204060000Y-76190000D03*
X206600000Y-104130000D03*
X206600000Y-60950000D03*
X206600000Y-88890000D03*
X206600000Y-73650000D03*
X204060000Y-109210000D03*
X206600000Y-93970000D03*
X206600000Y-114290000D03*
X204060000Y-121910000D03*
X204060000Y-101590000D03*
X204060000Y-58410000D03*
X206600000Y-81270000D03*
X204060000Y-73650000D03*
X209140000Y-53330000D03*
X209140000Y-86350000D03*
X206600000Y-111750000D03*
X206600000Y-63490000D03*
X209140000Y-104130000D03*
X204060000Y-45710000D03*
X209140000Y-68570000D03*
X204060000Y-71110000D03*
X204060000Y-124450000D03*
X204060000Y-119370000D03*
X209140000Y-96510000D03*
X209140000Y-38090000D03*
X206600000Y-55870000D03*
X204060000Y-99050000D03*
X209140000Y-111750000D03*
X209140000Y-83810000D03*
X206600000Y-101590000D03*
X206600000Y-106670000D03*
X204060000Y-116830000D03*
X206600000Y-78730000D03*
X209140000Y-93970000D03*
X204060000Y-66030000D03*
X206600000Y-48250000D03*
X204060000Y-81270000D03*
X206600000Y-53330000D03*
X211680000Y-121910000D03*
X211680000Y-91430000D03*
X206600000Y-71110000D03*
X211680000Y-86350000D03*
X209140000Y-114290000D03*
X209140000Y-63490000D03*
X209140000Y-91430000D03*
X211680000Y-99050000D03*
X209140000Y-50790000D03*
X211680000Y-109210000D03*
X211680000Y-76190000D03*
X209140000Y-106670000D03*
X211680000Y-124450000D03*
X211680000Y-43170000D03*
X209140000Y-76190000D03*
X211680000Y-104130000D03*
X211680000Y-60950000D03*
X211680000Y-88890000D03*
X211680000Y-73650000D03*
X209140000Y-109210000D03*
X211680000Y-93970000D03*
X211680000Y-114290000D03*
X209140000Y-121910000D03*
X206600000Y-50790000D03*
X209140000Y-101590000D03*
X209140000Y-58410000D03*
X211680000Y-81270000D03*
X209140000Y-73650000D03*
X209140000Y-66030000D03*
X211680000Y-48250000D03*
X209140000Y-81270000D03*
X211680000Y-53330000D03*
X204060000Y-111750000D03*
X211680000Y-106670000D03*
X209140000Y-116830000D03*
X209140000Y-119370000D03*
X211680000Y-68570000D03*
X211680000Y-119370000D03*
X211680000Y-55870000D03*
X209140000Y-99050000D03*
X209140000Y-78730000D03*
X211680000Y-101590000D03*
X209140000Y-71110000D03*
X204060000Y-35550000D03*
X209140000Y-124450000D03*
X204060000Y-55870000D03*
X206600000Y-68570000D03*
X206600000Y-119370000D03*
X204060000Y-43170000D03*
X204060000Y-48250000D03*
X209140000Y-43170000D03*
X209140000Y-48250000D03*
X209140000Y-45710000D03*
X211680000Y-50790000D03*
X211680000Y-78730000D03*
X211680000Y-58410000D03*
X204060000Y-88890000D03*
X209140000Y-40630000D03*
X211680000Y-63490000D03*
X204060000Y-40630000D03*
X204060000Y-78730000D03*
X206600000Y-83810000D03*
X209140000Y-55870000D03*
X204060000Y-60950000D03*
X209140000Y-35550000D03*
X206600000Y-40630000D03*
X201520000Y-45710000D03*
X201520000Y-35550000D03*
X209140000Y-88890000D03*
X209140000Y-60950000D03*
X211680000Y-83810000D03*
X206600000Y-58410000D03*
X211680000Y-40630000D03*
X206600000Y-45710000D03*
X206600000Y-35550000D03*
X211680000Y-71110000D03*
X211680000Y-116830000D03*
X211680000Y-96510000D03*
X211680000Y-66030000D03*
X206600000Y-116830000D03*
X211680000Y-111750000D03*
X211680000Y-45710000D03*
X211680000Y-35550000D03*
X206600000Y-66030000D03*
X206600000Y-96510000D03*
X206600000Y-38090000D03*
X211680000Y-38090000D03*
X214220000Y-53330000D03*
X214220000Y-86350000D03*
X214220000Y-104130000D03*
X214220000Y-68570000D03*
X214220000Y-96510000D03*
X214220000Y-38090000D03*
X214220000Y-83810000D03*
X214220000Y-93970000D03*
X214220000Y-114290000D03*
X214220000Y-63490000D03*
X214220000Y-91430000D03*
X214220000Y-50790000D03*
X214220000Y-106670000D03*
X214220000Y-76190000D03*
X214220000Y-109210000D03*
X214220000Y-121910000D03*
X214220000Y-101590000D03*
X214220000Y-58410000D03*
X216760000Y-81270000D03*
X214220000Y-73650000D03*
X214220000Y-45710000D03*
X214220000Y-71110000D03*
X214220000Y-124450000D03*
X214220000Y-119370000D03*
X214220000Y-99050000D03*
X214220000Y-116830000D03*
X216760000Y-78730000D03*
X214220000Y-66030000D03*
X214220000Y-81270000D03*
X221840000Y-121910000D03*
X221840000Y-91430000D03*
X221840000Y-86350000D03*
X221840000Y-99050000D03*
X221840000Y-109210000D03*
X221840000Y-76190000D03*
X221840000Y-124450000D03*
X221840000Y-43170000D03*
X221840000Y-104130000D03*
X221840000Y-60950000D03*
X221840000Y-88890000D03*
X221840000Y-73650000D03*
X221840000Y-93970000D03*
X221840000Y-114290000D03*
X221840000Y-81270000D03*
X221840000Y-48250000D03*
X219300000Y-81270000D03*
X221840000Y-53330000D03*
X214220000Y-111750000D03*
X221840000Y-106670000D03*
X221840000Y-68570000D03*
X221840000Y-119370000D03*
X221840000Y-55870000D03*
X219300000Y-78730000D03*
X221840000Y-101590000D03*
X214220000Y-35550000D03*
X214220000Y-55870000D03*
X214220000Y-43170000D03*
X214220000Y-48250000D03*
X221840000Y-50790000D03*
X221840000Y-78730000D03*
X221840000Y-58410000D03*
X214220000Y-88890000D03*
X221840000Y-63490000D03*
X214220000Y-40630000D03*
X214220000Y-78730000D03*
X214220000Y-60950000D03*
X221840000Y-83810000D03*
X221840000Y-40630000D03*
X221840000Y-71110000D03*
X221840000Y-116830000D03*
X221840000Y-96510000D03*
X221840000Y-66030000D03*
X221840000Y-111750000D03*
X221840000Y-45710000D03*
X221840000Y-35550000D03*
X221840000Y-38090000D03*
X224380000Y-53330000D03*
X224380000Y-86350000D03*
X224380000Y-104130000D03*
X224380000Y-68570000D03*
X224380000Y-96510000D03*
X224380000Y-38090000D03*
X224380000Y-111750000D03*
X224380000Y-83810000D03*
X224380000Y-93970000D03*
X226920000Y-121910000D03*
X226920000Y-91430000D03*
X226920000Y-86350000D03*
X224380000Y-114290000D03*
X224380000Y-63490000D03*
X224380000Y-91430000D03*
X226920000Y-99050000D03*
X224380000Y-50790000D03*
X226920000Y-109210000D03*
X226920000Y-76190000D03*
X224380000Y-106670000D03*
X226920000Y-124450000D03*
X226920000Y-43170000D03*
X224380000Y-76190000D03*
X226920000Y-104130000D03*
X226920000Y-60950000D03*
X226920000Y-88890000D03*
X226920000Y-73650000D03*
X224380000Y-109210000D03*
X226920000Y-93970000D03*
X226920000Y-114290000D03*
X224380000Y-121910000D03*
X224380000Y-101590000D03*
X224380000Y-58410000D03*
X226920000Y-81270000D03*
X224380000Y-73650000D03*
X224380000Y-66030000D03*
X226920000Y-48250000D03*
X224380000Y-81270000D03*
X226920000Y-53330000D03*
X226920000Y-106670000D03*
X224380000Y-116830000D03*
X224380000Y-119370000D03*
X226920000Y-68570000D03*
X226920000Y-119370000D03*
X226920000Y-55870000D03*
X224380000Y-99050000D03*
X224380000Y-78730000D03*
X226920000Y-101590000D03*
X224380000Y-71110000D03*
X224380000Y-124450000D03*
X224380000Y-43170000D03*
X224380000Y-48250000D03*
X224380000Y-45710000D03*
X226920000Y-50790000D03*
X226920000Y-78730000D03*
X226920000Y-58410000D03*
X224380000Y-40630000D03*
X226920000Y-63490000D03*
X224380000Y-55870000D03*
X224380000Y-35550000D03*
X224380000Y-88890000D03*
X224380000Y-60950000D03*
X226920000Y-83810000D03*
X226920000Y-40630000D03*
X226920000Y-71110000D03*
X226920000Y-116830000D03*
X226920000Y-96510000D03*
X226920000Y-66030000D03*
X226920000Y-111750000D03*
X226920000Y-45710000D03*
X226920000Y-35550000D03*
X226920000Y-38090000D03*
X229460000Y-121910000D03*
X229460000Y-91430000D03*
X229460000Y-86350000D03*
X229460000Y-99050000D03*
X229460000Y-109210000D03*
X229460000Y-76190000D03*
X229460000Y-124450000D03*
X229460000Y-43170000D03*
X229460000Y-104130000D03*
X229460000Y-60950000D03*
X229460000Y-88890000D03*
X229460000Y-73650000D03*
X229460000Y-93970000D03*
X229460000Y-114290000D03*
X229460000Y-81270000D03*
X229460000Y-48250000D03*
X229460000Y-53330000D03*
X229460000Y-106670000D03*
X229460000Y-68570000D03*
X229460000Y-119370000D03*
X229460000Y-55870000D03*
X229460000Y-101590000D03*
X229460000Y-50790000D03*
X229460000Y-78730000D03*
X229460000Y-58410000D03*
X229460000Y-63490000D03*
X229460000Y-83810000D03*
X229460000Y-40630000D03*
X229460000Y-71110000D03*
X229460000Y-116830000D03*
X229460000Y-96510000D03*
X229460000Y-66030000D03*
X229460000Y-111750000D03*
X229460000Y-45710000D03*
X229460000Y-35550000D03*
X229460000Y-38090000D03*
X232000000Y-124450000D03*
X232000000Y-121910000D03*
X232000000Y-35550000D03*
X232000000Y-38090000D03*
X232000000Y-111750000D03*
X232000000Y-106670000D03*
X232000000Y-119370000D03*
X232000000Y-109210000D03*
X232000000Y-114290000D03*
X232000000Y-101590000D03*
X232000000Y-104130000D03*
X232000000Y-116830000D03*
X232000000Y-96510000D03*
X232000000Y-81270000D03*
X232000000Y-93970000D03*
X232000000Y-88890000D03*
X232000000Y-99050000D03*
X232000000Y-83810000D03*
X232000000Y-91430000D03*
X232000000Y-86350000D03*
X232000000Y-63490000D03*
X232000000Y-68570000D03*
X232000000Y-73650000D03*
X232000000Y-76190000D03*
X232000000Y-71110000D03*
X232000000Y-78730000D03*
X232000000Y-60950000D03*
X232000000Y-66030000D03*
X232000000Y-53330000D03*
X232000000Y-58410000D03*
X232000000Y-50790000D03*
X232000000Y-55870000D03*
X232000000Y-48250000D03*
X232000000Y-45710000D03*
X232000000Y-43170000D03*
X232000000Y-40630000D03*
G36*
X104873000Y-129873000D02*
G01*
X90127000Y-129873000D01*
X90127000Y-124990036D01*
X93273392Y-124990036D01*
X93273392Y-125009964D01*
X93293091Y-125260259D01*
X93296208Y-125279943D01*
X93354819Y-125524075D01*
X93360977Y-125543028D01*
X93457057Y-125774986D01*
X93466105Y-125792742D01*
X93597288Y-126006813D01*
X93609001Y-126022936D01*
X93772057Y-126213851D01*
X93786149Y-126227943D01*
X93977064Y-126390999D01*
X93993187Y-126402712D01*
X94207258Y-126533895D01*
X94225014Y-126542943D01*
X94456972Y-126639023D01*
X94475925Y-126645181D01*
X94720057Y-126703792D01*
X94739741Y-126706909D01*
X94990036Y-126726608D01*
X95009964Y-126726608D01*
X95260259Y-126706909D01*
X95279943Y-126703792D01*
X95524075Y-126645181D01*
X95543028Y-126639023D01*
X95774986Y-126542943D01*
X95792742Y-126533895D01*
X96006813Y-126402712D01*
X96022936Y-126390999D01*
X96213851Y-126227943D01*
X96227943Y-126213851D01*
X96390999Y-126022936D01*
X96402712Y-126006813D01*
X96533895Y-125792742D01*
X96542943Y-125774986D01*
X96639023Y-125543028D01*
X96645181Y-125524075D01*
X96703792Y-125279943D01*
X96706909Y-125260259D01*
X96726608Y-125009964D01*
X96726608Y-124990036D01*
X96706909Y-124739741D01*
X96703792Y-124720057D01*
X96645181Y-124475925D01*
X96639023Y-124456972D01*
X96542943Y-124225014D01*
X96533895Y-124207258D01*
X96402712Y-123993187D01*
X96390999Y-123977064D01*
X96227943Y-123786149D01*
X96213851Y-123772057D01*
X96022936Y-123609001D01*
X96006813Y-123597288D01*
X95792742Y-123466105D01*
X95774986Y-123457057D01*
X95543028Y-123360977D01*
X95524075Y-123354819D01*
X95279943Y-123296208D01*
X95260259Y-123293091D01*
X95009964Y-123273392D01*
X94990036Y-123273392D01*
X94739741Y-123293091D01*
X94720057Y-123296208D01*
X94475925Y-123354819D01*
X94456972Y-123360977D01*
X94225014Y-123457057D01*
X94207258Y-123466105D01*
X93993187Y-123597288D01*
X93977064Y-123609001D01*
X93786149Y-123772057D01*
X93772057Y-123786149D01*
X93609001Y-123977064D01*
X93597288Y-123993187D01*
X93466105Y-124207258D01*
X93457057Y-124225014D01*
X93360977Y-124456972D01*
X93354819Y-124475925D01*
X93296208Y-124720057D01*
X93293091Y-124739741D01*
X93273392Y-124990036D01*
X90127000Y-124990036D01*
X90127000Y-120127000D01*
X104873000Y-120127000D01*
X104873000Y-129873000D01*
G37*
D15*
X104873000Y-129873000D02*
X90127000Y-129873000D01*
X90127000Y-124990036D01*
X93273392Y-124990036D01*
X93273392Y-125009964D01*
X93293091Y-125260259D01*
X93296208Y-125279943D01*
X93354819Y-125524075D01*
X93360977Y-125543028D01*
X93457057Y-125774986D01*
X93466105Y-125792742D01*
X93597288Y-126006813D01*
X93609001Y-126022936D01*
X93772057Y-126213851D01*
X93786149Y-126227943D01*
X93977064Y-126390999D01*
X93993187Y-126402712D01*
X94207258Y-126533895D01*
X94225014Y-126542943D01*
X94456972Y-126639023D01*
X94475925Y-126645181D01*
X94720057Y-126703792D01*
X94739741Y-126706909D01*
X94990036Y-126726608D01*
X95009964Y-126726608D01*
X95260259Y-126706909D01*
X95279943Y-126703792D01*
X95524075Y-126645181D01*
X95543028Y-126639023D01*
X95774986Y-126542943D01*
X95792742Y-126533895D01*
X96006813Y-126402712D01*
X96022936Y-126390999D01*
X96213851Y-126227943D01*
X96227943Y-126213851D01*
X96390999Y-126022936D01*
X96402712Y-126006813D01*
X96533895Y-125792742D01*
X96542943Y-125774986D01*
X96639023Y-125543028D01*
X96645181Y-125524075D01*
X96703792Y-125279943D01*
X96706909Y-125260259D01*
X96726608Y-125009964D01*
X96726608Y-124990036D01*
X96706909Y-124739741D01*
X96703792Y-124720057D01*
X96645181Y-124475925D01*
X96639023Y-124456972D01*
X96542943Y-124225014D01*
X96533895Y-124207258D01*
X96402712Y-123993187D01*
X96390999Y-123977064D01*
X96227943Y-123786149D01*
X96213851Y-123772057D01*
X96022936Y-123609001D01*
X96006813Y-123597288D01*
X95792742Y-123466105D01*
X95774986Y-123457057D01*
X95543028Y-123360977D01*
X95524075Y-123354819D01*
X95279943Y-123296208D01*
X95260259Y-123293091D01*
X95009964Y-123273392D01*
X94990036Y-123273392D01*
X94739741Y-123293091D01*
X94720057Y-123296208D01*
X94475925Y-123354819D01*
X94456972Y-123360977D01*
X94225014Y-123457057D01*
X94207258Y-123466105D01*
X93993187Y-123597288D01*
X93977064Y-123609001D01*
X93786149Y-123772057D01*
X93772057Y-123786149D01*
X93609001Y-123977064D01*
X93597288Y-123993187D01*
X93466105Y-124207258D01*
X93457057Y-124225014D01*
X93360977Y-124456972D01*
X93354819Y-124475925D01*
X93296208Y-124720057D01*
X93293091Y-124739741D01*
X93273392Y-124990036D01*
X90127000Y-124990036D01*
X90127000Y-120127000D01*
X104873000Y-120127000D01*
X104873000Y-129873000D01*
G36*
X232889000Y-125339000D02*
G01*
X220951000Y-125339000D01*
X220951000Y-34661000D01*
X232889000Y-34661000D01*
X232889000Y-125339000D01*
G37*
X232889000Y-125339000D02*
X220951000Y-125339000D01*
X220951000Y-34661000D01*
X232889000Y-34661000D01*
X232889000Y-125339000D01*
G36*
X215109000Y-125339000D02*
G01*
X200631000Y-125339000D01*
X200631000Y-34661000D01*
X215109000Y-34661000D01*
X215109000Y-125339000D01*
G37*
X215109000Y-125339000D02*
X200631000Y-125339000D01*
X200631000Y-34661000D01*
X215109000Y-34661000D01*
X215109000Y-125339000D01*
G36*
X194789000Y-125339000D02*
G01*
X180311000Y-125339000D01*
X180311000Y-34661000D01*
X194789000Y-34661000D01*
X194789000Y-125339000D01*
G37*
X194789000Y-125339000D02*
X180311000Y-125339000D01*
X180311000Y-34661000D01*
X194789000Y-34661000D01*
X194789000Y-125339000D01*
G36*
X174469000Y-125339000D02*
G01*
X159991000Y-125339000D01*
X159991000Y-34661000D01*
X174469000Y-34661000D01*
X174469000Y-125339000D01*
G37*
X174469000Y-125339000D02*
X159991000Y-125339000D01*
X159991000Y-34661000D01*
X174469000Y-34661000D01*
X174469000Y-125339000D01*
G36*
X154149000Y-125339000D02*
G01*
X139671000Y-125339000D01*
X139671000Y-34661000D01*
X154149000Y-34661000D01*
X154149000Y-125339000D01*
G37*
X154149000Y-125339000D02*
X139671000Y-125339000D01*
X139671000Y-34661000D01*
X154149000Y-34661000D01*
X154149000Y-125339000D01*
G36*
X133829000Y-125339000D02*
G01*
X121891000Y-125339000D01*
X121891000Y-122926000D01*
X121870839Y-122857339D01*
X121816758Y-122810477D01*
X121764000Y-122799000D01*
X119784606Y-122799000D01*
X119351000Y-122365394D01*
X119351000Y-37634606D01*
X119784606Y-37201000D01*
X121764000Y-37201000D01*
X121832661Y-37180839D01*
X121879523Y-37126758D01*
X121891000Y-37074000D01*
X121891000Y-34661000D01*
X133829000Y-34661000D01*
X133829000Y-125339000D01*
G37*
X133829000Y-125339000D02*
X121891000Y-125339000D01*
X121891000Y-122926000D01*
X121870839Y-122857339D01*
X121816758Y-122810477D01*
X121764000Y-122799000D01*
X119784606Y-122799000D01*
X119351000Y-122365394D01*
X119351000Y-37634606D01*
X119784606Y-37201000D01*
X121764000Y-37201000D01*
X121832661Y-37180839D01*
X121879523Y-37126758D01*
X121891000Y-37074000D01*
X121891000Y-34661000D01*
X133829000Y-34661000D01*
X133829000Y-125339000D01*
G36*
X104873000Y-39873000D02*
G01*
X90127000Y-39873000D01*
X90127000Y-34990036D01*
X93273392Y-34990036D01*
X93273392Y-35009964D01*
X93293091Y-35260259D01*
X93296208Y-35279943D01*
X93354819Y-35524075D01*
X93360977Y-35543028D01*
X93457057Y-35774986D01*
X93466105Y-35792742D01*
X93597288Y-36006813D01*
X93609001Y-36022936D01*
X93772057Y-36213851D01*
X93786149Y-36227943D01*
X93977064Y-36390999D01*
X93993187Y-36402712D01*
X94207258Y-36533895D01*
X94225014Y-36542943D01*
X94456972Y-36639023D01*
X94475925Y-36645181D01*
X94720057Y-36703792D01*
X94739741Y-36706909D01*
X94990036Y-36726608D01*
X95009964Y-36726608D01*
X95260259Y-36706909D01*
X95279943Y-36703792D01*
X95524075Y-36645181D01*
X95543028Y-36639023D01*
X95774986Y-36542943D01*
X95792742Y-36533895D01*
X96006813Y-36402712D01*
X96022936Y-36390999D01*
X96213851Y-36227943D01*
X96227943Y-36213851D01*
X96390999Y-36022936D01*
X96402712Y-36006813D01*
X96533895Y-35792742D01*
X96542943Y-35774986D01*
X96639023Y-35543028D01*
X96645181Y-35524075D01*
X96703792Y-35279943D01*
X96706909Y-35260259D01*
X96726608Y-35009964D01*
X96726608Y-34990036D01*
X96706909Y-34739741D01*
X96703792Y-34720057D01*
X96645181Y-34475925D01*
X96639023Y-34456972D01*
X96542943Y-34225014D01*
X96533895Y-34207258D01*
X96402712Y-33993187D01*
X96390999Y-33977064D01*
X96227943Y-33786149D01*
X96213851Y-33772057D01*
X96022936Y-33609001D01*
X96006813Y-33597288D01*
X95792742Y-33466105D01*
X95774986Y-33457057D01*
X95543028Y-33360977D01*
X95524075Y-33354819D01*
X95279943Y-33296208D01*
X95260259Y-33293091D01*
X95009964Y-33273392D01*
X94990036Y-33273392D01*
X94739741Y-33293091D01*
X94720057Y-33296208D01*
X94475925Y-33354819D01*
X94456972Y-33360977D01*
X94225014Y-33457057D01*
X94207258Y-33466105D01*
X93993187Y-33597288D01*
X93977064Y-33609001D01*
X93786149Y-33772057D01*
X93772057Y-33786149D01*
X93609001Y-33977064D01*
X93597288Y-33993187D01*
X93466105Y-34207258D01*
X93457057Y-34225014D01*
X93360977Y-34456972D01*
X93354819Y-34475925D01*
X93296208Y-34720057D01*
X93293091Y-34739741D01*
X93273392Y-34990036D01*
X90127000Y-34990036D01*
X90127000Y-30127000D01*
X104873000Y-30127000D01*
X104873000Y-39873000D01*
G37*
X104873000Y-39873000D02*
X90127000Y-39873000D01*
X90127000Y-34990036D01*
X93273392Y-34990036D01*
X93273392Y-35009964D01*
X93293091Y-35260259D01*
X93296208Y-35279943D01*
X93354819Y-35524075D01*
X93360977Y-35543028D01*
X93457057Y-35774986D01*
X93466105Y-35792742D01*
X93597288Y-36006813D01*
X93609001Y-36022936D01*
X93772057Y-36213851D01*
X93786149Y-36227943D01*
X93977064Y-36390999D01*
X93993187Y-36402712D01*
X94207258Y-36533895D01*
X94225014Y-36542943D01*
X94456972Y-36639023D01*
X94475925Y-36645181D01*
X94720057Y-36703792D01*
X94739741Y-36706909D01*
X94990036Y-36726608D01*
X95009964Y-36726608D01*
X95260259Y-36706909D01*
X95279943Y-36703792D01*
X95524075Y-36645181D01*
X95543028Y-36639023D01*
X95774986Y-36542943D01*
X95792742Y-36533895D01*
X96006813Y-36402712D01*
X96022936Y-36390999D01*
X96213851Y-36227943D01*
X96227943Y-36213851D01*
X96390999Y-36022936D01*
X96402712Y-36006813D01*
X96533895Y-35792742D01*
X96542943Y-35774986D01*
X96639023Y-35543028D01*
X96645181Y-35524075D01*
X96703792Y-35279943D01*
X96706909Y-35260259D01*
X96726608Y-35009964D01*
X96726608Y-34990036D01*
X96706909Y-34739741D01*
X96703792Y-34720057D01*
X96645181Y-34475925D01*
X96639023Y-34456972D01*
X96542943Y-34225014D01*
X96533895Y-34207258D01*
X96402712Y-33993187D01*
X96390999Y-33977064D01*
X96227943Y-33786149D01*
X96213851Y-33772057D01*
X96022936Y-33609001D01*
X96006813Y-33597288D01*
X95792742Y-33466105D01*
X95774986Y-33457057D01*
X95543028Y-33360977D01*
X95524075Y-33354819D01*
X95279943Y-33296208D01*
X95260259Y-33293091D01*
X95009964Y-33273392D01*
X94990036Y-33273392D01*
X94739741Y-33293091D01*
X94720057Y-33296208D01*
X94475925Y-33354819D01*
X94456972Y-33360977D01*
X94225014Y-33457057D01*
X94207258Y-33466105D01*
X93993187Y-33597288D01*
X93977064Y-33609001D01*
X93786149Y-33772057D01*
X93772057Y-33786149D01*
X93609001Y-33977064D01*
X93597288Y-33993187D01*
X93466105Y-34207258D01*
X93457057Y-34225014D01*
X93360977Y-34456972D01*
X93354819Y-34475925D01*
X93296208Y-34720057D01*
X93293091Y-34739741D01*
X93273392Y-34990036D01*
X90127000Y-34990036D01*
X90127000Y-30127000D01*
X104873000Y-30127000D01*
X104873000Y-39873000D01*
M02*
